<svg xmlns="http://www.w3.org/2000/svg" preserveAspectRatio="none" viewBox="0 0 480.16 537.479">
  <g id="Visual_data-amico" data-name="Visual data-amico" transform="translate(-12.55 57.929)">
    <g id="freepik--Floor--inject-12">
      <g id="freepik--floor--inject-12-2" data-name="freepik--floor--inject-12">
        <ellipse id="Ellipse_67" data-name="Ellipse 67" cx="240.08" cy="122.65" rx="240.08" ry="122.65" transform="translate(12.55 234.25)" fill="#f5f5f5"/>
      </g>
    </g>
    <g id="freepik--Robot--inject-9" transform="translate(-4.536 -28.413)">
      <path id="freepik--shadow--inject-12" d="M141.2,342.847c26.729,12.95,27,34.339.585,47.792s-69.511,13.83-96.255.894-27.021-34.353-.6-47.792S114.459,329.9,141.2,342.847Z" transform="translate(54.911 16.96)" fill="#e0e0e0"/>
      <g id="freepik--robot--inject-9-2" data-name="freepik--robot--inject-9">
        <path id="Path_5587" data-name="Path 5587" d="M171.11,203.84c1.89,13.91,2.41,58.81,1.82,71.51s-.06,22.62-7,23.78c-2.56.42-8.5.4-9.74-2.34-1.49-3.3-3.83-18.5-5.51-27.42-3.11-16.56-7.3-44.05-7.3-44.05S152.49,206.52,171.11,203.84Z" fill="#455a64"/>
        <path id="Path_5588" data-name="Path 5588" d="M198.59,373.85a5.2,5.2,0,0,1-.33,3.78c-.56,1.09-6.44,4.18-14.22,3.42a32.61,32.61,0,0,1-16-6.11c-2.91-2.06-6-2.52-9.85-2.86s-8.87-2.41-9.66-4.24.27-4.91.27-4.91Z" fill="#263238"/>
        <path id="Path_5589" data-name="Path 5589" d="M169.31,352.57a9.879,9.879,0,0,1,2.09-.54,5.58,5.58,0,0,1,2.54.14c2.17.72,2.45,3.23,4,4.62a21,21,0,0,0,4.64,3.29c2.51,1.44,3.34,2,5.93,3.23s6.19,2.13,8.24,3.6c3,2.16,3.24,7.35-.3,9.29-3.06,1.68-11,3.36-19.26.76-4.49-1.42-9.36-6.4-15.28-7-3.77-.41-10.87-1.68-13.21-4.62-.77-1.15-.06-3.25.25-4.44.14-.52.29-1.05.44-1.57a3.3,3.3,0,0,1,.43-1.21c.53-.56,1.66-.32,2.31-.21a16,16,0,0,0,6.75.05C162.67,357,165.7,353.91,169.31,352.57Z" fill="#455a64"/>
        <path id="Path_5590" data-name="Path 5590" d="M184.06,378.23c5.5.36,10.2-.83,12.39-2,3-1.62,3.27-5.49,1.56-8-2.62,3.45-6.68,3.19-8.83,4-.88.31-.52,2-.7,3.78C188.33,377.43,186.59,378,184.06,378.23Z" fill="#90caf9"/>
        <path id="Path_5591" data-name="Path 5591" d="M162,291.54c-5.13-.71-6.21,2.28-6.87,6.37s-6,57.56-6.19,60.38,4.74,5.94,9.71,7,7.79-10.33,12.59-11.77c3.86-1.16,4.08,1.24,6.71,3.31l-7.12-63.5Z" fill="#90caf9"/>
        <path id="Path_5592" data-name="Path 5592" d="M167.14,283.68c-6.41-.12-8.6,6.55-8.39,10.54s2.51,9.55,8.59,9.06C175.55,302.63,174.55,284.08,167.14,283.68Z" fill="#90caf9"/>
        <path id="Path_5593" data-name="Path 5593" d="M167.14,283.68c-6.41-.12-8.6,6.55-8.39,10.54s2.51,9.55,8.59,9.06C175.55,302.63,174.55,284.08,167.14,283.68Z" opacity="0.3"/>
        <path id="Path_5594" data-name="Path 5594" d="M161.34,309.11l-.14-.05c-3.44-1.05-5.59-2.29-6.91-4.05a12.984,12.984,0,0,1-.14,1.34,14.93,14.93,0,0,0,6.76,3.66l.14.05c1.64.49,1.86.56,1.49,7.79-.65,12.66-2.32,26.16-3.23,31.7a2.53,2.53,0,0,1-1,1.82,2.58,2.58,0,0,1-2.1.1c-2.27-.64-5.15-1.72-6.45-2.22a9.95,9.95,0,0,1-.1,1c1.41.54,4.11,1.55,6.28,2.16a5.18,5.18,0,0,0,1.34.2,2.84,2.84,0,0,0,1.56-.42,3.47,3.47,0,0,0,1.41-2.5c.91-5.56,2.59-19.11,3.24-31.81C163.91,310.49,163.74,309.84,161.34,309.11Z" fill="#455a64"/>
        <path id="Path_5595" data-name="Path 5595" d="M123.51,212.41c4.53,0,11.8,2.76,16.12,8.35s4,13.72,4,13.72c3.82,1.35,10.84-1.43,14.64-4.92,4.74-4.35,8.57-8.75,11-14.2a35.151,35.151,0,0,0,2.84-8.62,30.07,30.07,0,0,0-.27-9.28c-2-11.3-18.56-12-27.12-12-26.29-.07-26.53,6.11-28.78,13.23-1.9,6-3.15,17.55-.35,18C116.69,214.25,119.37,212.41,123.51,212.41Z" fill="#90caf9"/>
        <path id="Path_5596" data-name="Path 5596" d="M119.27,194.46c-1,3.23,3.62,13.24,25,13.26,20.49,0,26.1-7.1,25-11.75s-6.19-9.75-24.42-9.75C129.75,186.22,121.28,188.26,119.27,194.46Z" opacity="0.15"/>
        <path id="Path_5597" data-name="Path 5597" d="M200.27,176.63a24.62,24.62,0,0,1-10.77-2.07c-10.54-5.23-14.14-13.64-20.68-28.91-1.17-2.76-2.46-5.78-3.93-9.1-2.3-4.65-3.61-6.15-4.09-6.59l-.45.08A6.46,6.46,0,0,1,158,117.35c9.06-1.7,13.81,4,18.56,13.62a2.555,2.555,0,0,1,.11.24c1.52,3.42,2.85,6.53,4.06,9.36C187,155.24,189.25,160,195.23,163c5.73,2.84,25.87-2,33.8-9.35a6.454,6.454,0,1,1,8.77,9.47C229.76,170.55,213.06,176.63,200.27,176.63Z" fill="#455a64"/>
        <path id="Path_5598" data-name="Path 5598" d="M243,145.18h-.24A2,2,0,0,1,241,143a22.821,22.821,0,0,1,1.74-7.27,15,15,0,0,1,5.57-6.24,2,2,0,1,1,2.14,3.35,11.07,11.07,0,0,0-4.07,4.48,18.94,18.94,0,0,0-1.43,6.16A2,2,0,0,1,243,145.18Z" fill="#455a64"/>
        <path id="Path_5599" data-name="Path 5599" d="M245.54,150.37a2,2,0,0,1-1.76-2.9,22.641,22.641,0,0,1,4.17-6.21,15.09,15.09,0,0,1,7.4-3.9,2,2,0,0,1,.83,3.89A11.19,11.19,0,0,0,250.8,144a19,19,0,0,0-3.49,5.27,2,2,0,0,1-1.77,1.1Z" fill="#455a64"/>
        <circle id="Ellipse_63" data-name="Ellipse 63" cx="11.08" cy="11.08" r="11.08" transform="translate(227.87 141.94)" fill="#90caf9"/>
        <path id="Path_5600" data-name="Path 5600" d="M232.12,151.8a2.13,2.13,0,0,1-.78-.16c-3.47-1.49-4.9-4.93-4.25-10.23a2,2,0,1,1,3.94.49c-.54,4.45.72,5.59,1.87,6.08a2,2,0,0,1-.78,3.82Z" fill="#455a64"/>
        <path id="Path_5601" data-name="Path 5601" d="M237.57,145.38a2,2,0,0,1-1.91-1.43,22.389,22.389,0,0,1-1-7.37,15.1,15.1,0,0,1,2.65-7.92,2,2,0,1,1,3.27,2.25,10.89,10.89,0,0,0-2,5.69,18.44,18.44,0,0,0,.83,6.22,2,2,0,0,1-1.34,2.47,1.871,1.871,0,0,1-.5.09Z" fill="#455a64"/>
        <path id="Path_5602" data-name="Path 5602" d="M143.63,234.48c-1.76,16.58-11.46,59-15.76,63.11s-11.24,4.08-13.24-4.3-.44-68,1-76.56,10-9.93,18.19-6.47S147.2,219.82,143.63,234.48Z" fill="#455a64"/>
        <path id="Path_5603" data-name="Path 5603" d="M100.71,378.13a8.43,8.43,0,0,0,.67,4.7c.71,1.16,2.72,2.29,3.36,4.13s.17,4.17.61,6.26c.39,1.83,1.4,5.56,6.59,8.74s13.47,2.74,18.66,2.09,8.86-2.88,9.22-5.69a13.76,13.76,0,0,0-.89-5.91Z" fill="#37474f"/>
        <path id="Path_5604" data-name="Path 5604" d="M101.42,369.05c-.55,4.86-1.16,7.14-.64,9.44s2.89,3.36,4.57,5.86-1.09,8.43,4.84,13.07,11.93,4.88,19.44,4.31c4.29-.32,7-1.59,8.25-2.75,2.65-2.43,2.48-7.4.16-9.72a58.13,58.13,0,0,1-4.18-4.4c-1.31-1.68-2.61-3.26-4.23-5.7-2.93-4.43-3.45-14.88-5.38-17.07S104.39,356,101.42,369.05Z" fill="#455a64"/>
        <path id="Path_5605" data-name="Path 5605" d="M138.93,397.65a17.823,17.823,0,0,0-.25-2.29c-.44-2.82-2-3.54-4.74-3.54s-11.8.39-11.8,3.66c0,5-4.38,5.69-7.24,4.75,4.48,1.9,9.19,1.92,14.73,1.5,4.29-.32,7-1.59,8.25-2.75a4.2,4.2,0,0,0,1.05-1.33Z" fill="#90caf9"/>
        <path id="Path_5606" data-name="Path 5606" d="M114.63,293.29c-2.75.51-3.32,4.88-4.52,11.94s-10.2,62.82-10,65.81,2.94,7.23,5.24,9.26,5.52.28,7.24-6.08c2.28-8.38,10.5-9.46,12.76-4,3.13,7.5,4.28,9,4.28,9S131.1,361.41,131,342c-.11-13.31-.14-30.68-.14-40.07,0-6-.9-7-2.17-7.43C125.05,293.4,114.63,293.29,114.63,293.29Z" fill="#90caf9"/>
        <path id="Path_5607" data-name="Path 5607" d="M122.53,287.51c-8.5-1.41-13.57,17.83-2.76,19.39C130,308.37,132.67,289.19,122.53,287.51Z" fill="#90caf9"/>
        <path id="Path_5608" data-name="Path 5608" d="M122.53,287.51c-8.5-1.41-13.57,17.83-2.76,19.39C130,308.37,132.67,289.19,122.53,287.51Z" opacity="0.3"/>
        <path id="Path_5609" data-name="Path 5609" d="M130.4,366.87a6.13,6.13,0,0,1-3-4c-.56-4.11-.77-22,0-33.81.67-10.34.93-12.86,3.41-13.94v-1c-3.5,1.3-3.71,4.33-4.4,14.92-.8,12.24-.56,29.85,0,34,.32,2.29,2.15,3.94,3.92,5C130.36,367.65,130.38,367.26,130.4,366.87Z" fill="#455a64"/>
        <path id="Path_5610" data-name="Path 5610" d="M109.23,310.54a5.355,5.355,0,0,1-.17,1c5.51,3.34,5.25,6.28,4.48,14.27-.09,1-.19,2-.29,3.12A329.465,329.465,0,0,1,108,363.54a1.69,1.69,0,0,1-1,1.2c-1.33.59-3.68.11-6.06-.7a8.025,8.025,0,0,1-.14,1,15.7,15.7,0,0,0,4.72.95,4.57,4.57,0,0,0,1.88-.34,2.65,2.65,0,0,0,1.57-1.88,332.183,332.183,0,0,0,5.29-34.71c.1-1.11.19-2.14.29-3.1C115.32,317.75,115.64,314.3,109.23,310.54Z" fill="#455a64"/>
        <path id="Path_5611" data-name="Path 5611" d="M159.58,179.3c-7.26-2.37-14.65-11.21-14.65-11.21s10.48-17.92,19.54-11.25S172.83,183.62,159.58,179.3Z" fill="#90caf9"/>
        <path id="Path_5612" data-name="Path 5612" d="M159.58,179.3c-7.26-2.37-14.65-11.21-14.65-11.21s10.48-17.92,19.54-11.25S172.83,183.62,159.58,179.3Z" opacity="0.15"/>
        <path id="Path_5613" data-name="Path 5613" d="M164.3,166.32c1.78,11.6-.42,24.05-2.7,31.12-.95,3.37-8.93,5.57-18.22,5.57s-16.23-3.35-17.37-6.58,3.53-10.21-3.7-32.78c0,0,10.93-17,26.09-13.33S164.3,166.32,164.3,166.32Z" fill="#455a64"/>
        <path id="Path_5614" data-name="Path 5614" d="M139.49,113.71c-15.35.66-28.06,5.87-31.51,12.6s-1.29,20.46,3.17,30.83c3.07,7.13,9,20.2,14.28,23.67s13.4,3.89,17.53-2.94,10.84-22.11,18.39-15c6.83,6.42,6.16,13.39,4.73,15.06A5.4,5.4,0,0,1,164.9,179l-.07,1.56a7.22,7.22,0,0,0,4.14-2.4c4.56-4.87,6.14-20.92,4.18-37.65S164.68,112.63,139.49,113.71Z" fill="#90caf9"/>
        <path id="Path_5615" data-name="Path 5615" d="M110.86,126.51c3.67-3.91,9.46-1.26,12.43,3.71,3.66,6.16,4.78,15.94,1.45,21s-10,3-13.39-2.79C107.28,141.56,107.76,129.82,110.86,126.51Z" fill="#455a64"/>
        <path id="Path_5616" data-name="Path 5616" d="M173.82,148.33a17.36,17.36,0,0,0-5.94-2.43,38.719,38.719,0,0,0-9.49-.8c-1.24-11.83-4.79-20.67-8.08-23.55l-.66.75c2.69,2.35,6.49,10.68,7.79,22.84-10,.44-21,3.63-26.68,7.46a33.65,33.65,0,0,0-7.47,6.81,91.007,91.007,0,0,1-2.14-9.68l-1,.16a92.087,92.087,0,0,0,2.37,10.51,21.34,21.34,0,0,0-4.21,11.44c.33.57.66,1.13,1,1.68a19.82,19.82,0,0,1,3.57-11.88c2.16,7.26,5.78,16.13,11.44,21.58a11.265,11.265,0,0,0,1.3-.17c-6.06-5.4-9.84-14.9-12-22.43a31.629,31.629,0,0,1,7.7-7.19c5.54-3.77,16.39-6.9,26.22-7.32a86.078,86.078,0,0,1,.05,14.93,4.849,4.849,0,0,1,1,.15,88.172,88.172,0,0,0-.08-15.11,37.68,37.68,0,0,1,9.17.79,15.52,15.52,0,0,1,6.22,2.73Z" fill="#455a64"/>
        <path id="Path_5617" data-name="Path 5617" d="M89.19,193.37a18.108,18.108,0,0,1-2.89-.25c-10.89-1.85-22.11-13.46-28.4-22.84a6.46,6.46,0,0,1,10.72-7.2C75.48,173.3,84,179.62,88.46,180.39a2.4,2.4,0,0,0,1.37-.06c2.1-1.59,7-12,11.76-34.3,3-13.8,4.33-20.1,12.75-21.3A6.46,6.46,0,0,1,117,137.34a112.42,112.42,0,0,0-2.79,11.4c-7.55,35.09-14.39,40.22-16.63,41.91a13.7,13.7,0,0,1-8.39,2.72Z" fill="#455a64"/>
        <path id="Path_5618" data-name="Path 5618" d="M58.37,150.61a2,2,0,0,1-1.84-1.25l-.18-.44a34.349,34.349,0,0,1-2-6.15,13.92,13.92,0,0,1,.59-8.61,2,2,0,0,1,3.6,1.7,9.69,9.69,0,0,0-.31,6.07,30.52,30.52,0,0,0,1.82,5.5l.18.45a2,2,0,0,1-1.1,2.58,1.92,1.92,0,0,1-.76.15Z" fill="#455a64"/>
        <path id="Path_5619" data-name="Path 5619" d="M66,153.66a2,2,0,0,1-1.63-3.11c.76-1.11,1.59-3-.05-6.64A2.012,2.012,0,0,1,68,142.28c1.82,4,1.71,7.58-.31,10.52a2,2,0,0,1-1.69.86Z" fill="#455a64"/>
        <circle id="Ellipse_64" data-name="Ellipse 64" cx="11.08" cy="11.08" r="11.08" transform="matrix(0.863, -0.506, 0.506, 0.863, 43.783, 154.758)" fill="#90caf9"/>
        <path id="Path_5620" data-name="Path 5620" d="M52.45,152.44a1.94,1.94,0,0,1-1.2-.41,18.34,18.34,0,0,1-4.65-5.66A12.92,12.92,0,0,1,44.73,138a2,2,0,0,1,3.93.58,9,9,0,0,0,1.38,5.8,14.94,14.94,0,0,0,3.62,4.5,2,2,0,0,1-1.21,3.56Z" fill="#455a64"/>
        <path id="Path_5621" data-name="Path 5621" d="M51.14,159.73a1.87,1.87,0,0,1-.62-.1,17.7,17.7,0,0,1-6.61-3.44,16.86,16.86,0,0,1-4.63-6.54,2,2,0,1,1,3.63-1.59,13.08,13.08,0,0,0,3.52,5.06,14.05,14.05,0,0,0,5.32,2.74,2,2,0,0,1-.61,3.87Z" fill="#455a64"/>
        <path id="Path_5622" data-name="Path 5622" d="M122.75,81.89a28.84,28.84,0,0,0,4.62,13.58c2.52,3.77,4.79,7,4.79,10.92v10s7,9.92,17,8.23c10.41-1.74.13-8.94.13-8.94V107s1.25-10.81-5.57-17.71S122.75,81.89,122.75,81.89Z" fill="#455a64"/>
        <path id="Path_5623" data-name="Path 5623" d="M122.7,85.07c-1.47-8.09,1-16.59,10.64-22.74s30.74-1.66,33.14,13.44c2.1,13.1.78,20-1.21,27.18-1.23,4.47-3.77,8.17-7.94,8.38-4,.2-10.4-.23-15.13-2.24-1.91-.81-3.53-2.3-5.11-7.63C135.11,94.79,132.79,85.6,122.7,85.07Z" fill="#90caf9"/>
        <path id="Path_5624" data-name="Path 5624" d="M143.06,82.69c-6.1-.76-5.14,1.89-4,5.73,1.17,4,4.6,7.58,14.11,7.87,6.32.2,10.9-.91,14.12-3.15a58.92,58.92,0,0,0-.16-12.79A18.45,18.45,0,0,1,160,82.79,61.32,61.32,0,0,1,143.06,82.69Z" fill="#455a64"/>
        <path id="Path_5625" data-name="Path 5625" d="M166.69,77.14c-.07-.46-.13-.9-.21-1.37a.3.3,0,0,0,0-.1,6,6,0,0,1-3.89,2.82c-1.42-6.66-4.16-11.8-8.2-15.32a19.81,19.81,0,0,0-4-2.72,28.42,28.42,0,0,0-5.54-.77,20.61,20.61,0,0,0-9.61,5.13,18.423,18.423,0,0,0-1.36,1.45,24.35,24.35,0,0,0-6.38,1c-.41.46-.79.92-1.14,1.39a24.23,24.23,0,0,1,6.74-1.37c-4.82,6.36-5.44,14.59-5.38,19a10.528,10.528,0,0,1,1,.53c-.12-4.25.35-13.1,5.65-19.56a23.44,23.44,0,0,1,6.7,1.08c7.15,2.22,8.67,5.1,10.27,8.16l.38.71c1.21,2.27,3.9,2.95,6.48,2.95a17,17,0,0,0,3.61-.41,53.78,53.78,0,0,1,.88,8.63c.39,13.88-2.53,19.6-5,22a7.11,7.11,0,0,1-1.49,1.07h1.2a2.186,2.186,0,0,0,.68-.07c.22-.07.16-.12.24-.2,2.69-2.48,5.82-8.43,5.42-22.74a55.3,55.3,0,0,0-.92-8.85,7.82,7.82,0,0,0,3.87-2.44Zm-14.12-.43L152.2,76c-1.7-3.24-3.31-6.3-10.86-8.63a23.83,23.83,0,0,0-6.14-1.09c.24-.25.45-.51.7-.75a20.31,20.31,0,0,1,11.42-5.33,19.41,19.41,0,0,1,6.4,3.72c3.88,3.39,6.52,8.36,7.88,14.82C158.94,79.34,154.12,79.6,152.57,76.71Z" fill="#455a64"/>
        <path id="Path_5626" data-name="Path 5626" d="M150.2,90.93c.9-.06,1.55-2.09,3.38-2.43s2.81,2.09,3.69,2-.29-4.23-3.72-4C150.59,86.64,149.47,91,150.2,90.93Z" fill="#90caf9"/>
        <path id="Path_5627" data-name="Path 5627" d="M164,89c.79-.11,1.25-1.94,2.85-2.35s2.61,1.69,3.38,1.57-.5-3.71-3.53-3.35C164.11,85.15,163.36,89.06,164,89Z" fill="#90caf9"/>
      </g>
    </g>
    <g id="freepik--data-points--inject-2" transform="translate(-148.848 -79.115)">
      <g id="freepik--Chart--inject-2">
        <path id="Path_9085" data-name="Path 9085" d="M419.2,144.19V159.1l-9.07,14.46c-3.2-4.1-2.26-14.33,2.73-22.43C414.89,147.87,416.68,145.78,419.2,144.19Z" fill="#e0e0e0"/>
        <path id="Path_9086" data-name="Path 9086" d="M431.51,157.34c-1.8,9.06-8.05,17.48-14.21,19a6.05,6.05,0,0,1-6.12-1.5l9.12-14.75Z" fill="#90caf9"/>
        <path id="Path_9087" data-name="Path 9087" d="M431.74,155.77,421,158.4l6-15.85C430.87,144,432.68,149.07,431.74,155.77Z" fill="#90caf9"/>
        <path id="Path_9088" data-name="Path 9088" d="M425.9,142.44l-5.44,14.3V143.43A7.59,7.59,0,0,1,425.9,142.44Z" fill="#e0e0e0"/>
      </g>
      <g id="freepik--chart--inject-2-2" data-name="freepik--chart--inject-2">
        <path id="Path_9089" data-name="Path 9089" d="M334.29,405.72a.841.841,0,0,1,0-.1l1.27-4.71-1.75,1a.13.13,0,0,1-.12,0s0-.06,0-.12V401a.35.35,0,0,1,.16-.3l2.82-1.63a.11.11,0,0,1,.11,0,.14.14,0,0,1,.05.12v.73a1.73,1.73,0,0,1-.1.46l-1.28,4.71a.852.852,0,0,1-.06.17.25.25,0,0,1-.11.12l-.83.48a.09.09,0,0,1-.1,0,.12.12,0,0,1-.06-.14Z" fill="#455a64"/>
        <path id="Path_9090" data-name="Path 9090" d="M339,397.6a1.63,1.63,0,0,1,.76-.26.72.72,0,0,1,.53.16.94.94,0,0,1,.31.5,3.161,3.161,0,0,1,.13.74v1.4a5.618,5.618,0,0,1-.13.89,3.411,3.411,0,0,1-.31.86,3.529,3.529,0,0,1-.53.77,3.089,3.089,0,0,1-.76.61,1.75,1.75,0,0,1-.76.27.84.84,0,0,1-.53-.16,1,1,0,0,1-.31-.5,2.8,2.8,0,0,1-.12-.75v-1.4a4.628,4.628,0,0,1,.12-.89,4,4,0,0,1,.31-.86,3.582,3.582,0,0,1,.53-.76,3.079,3.079,0,0,1,.76-.62Zm.63,3.13v-1.32a1.672,1.672,0,0,0,0-.34.561.561,0,0,0-.1-.22.23.23,0,0,0-.19-.09.62.62,0,0,0-.3.1,1.16,1.16,0,0,0-.29.24,1.437,1.437,0,0,0-.19.31,1.231,1.231,0,0,0-.11.34,2.584,2.584,0,0,0,0,.39v1.32a1.67,1.67,0,0,0,0,.34.55.55,0,0,0,.1.23.3.3,0,0,0,.2.08.59.59,0,0,0,.29-.1,1.09,1.09,0,0,0,.49-.55,1.691,1.691,0,0,0,.11-.34,2.47,2.47,0,0,0-.01-.39Z" fill="#455a64"/>
        <path id="Path_9091" data-name="Path 9091" d="M343.09,396.4v.6a2.649,2.649,0,0,1-.07.48,2.754,2.754,0,0,1-.17.45,1.64,1.64,0,0,1-.29.4,1.569,1.569,0,0,1-.4.32,1,1,0,0,1-.4.15.37.37,0,0,1-.28-.08.52.52,0,0,1-.18-.25,2.213,2.213,0,0,1-.07-.4c0-.1,0-.2,0-.29v-.31a4,4,0,0,1,.07-.48,2.112,2.112,0,0,1,.18-.45,1.6,1.6,0,0,1,.28-.4,1.568,1.568,0,0,1,.4-.32,1,1,0,0,1,.4-.15.45.45,0,0,1,.29.08.56.56,0,0,1,.17.26,1.43,1.43,0,0,1,.07.39Zm1.47-1.78a1.138,1.138,0,0,1,.09-.16.36.36,0,0,1,.13-.11l.48-.28a.067.067,0,1,1,.1.09v.1l-2.92,6.8c0,.07-.06.12-.08.16a.5.5,0,0,1-.13.12l-.48.28h-.11a.1.1,0,0,1,0-.09h0a.14.14,0,0,1,0-.06Zm-2.64,3a.691.691,0,0,0,.06.28h.18a.35.35,0,0,0,.18-.2,1,1,0,0,0,.06-.34,4.506,4.506,0,0,0,0-.52.48.48,0,0,0-.06-.27q0-.07-.18,0a.38.38,0,0,0-.18.2,1.39,1.39,0,0,0-.06.34,4.5,4.5,0,0,0,0,.52Zm3.91-.06v.6a3.706,3.706,0,0,1-.07.48,2.448,2.448,0,0,1-.17.45,2.341,2.341,0,0,1-.29.41,1.82,1.82,0,0,1-.4.32,1.2,1.2,0,0,1-.4.14.4.4,0,0,1-.29-.08.53.53,0,0,1-.17-.25,1.44,1.44,0,0,1-.07-.4,2.8,2.8,0,0,1,0-.29v-.31a2.422,2.422,0,0,1,.07-.47,2.543,2.543,0,0,1,.17-.46,1.851,1.851,0,0,1,.29-.4,1.61,1.61,0,0,1,.4-.32.839.839,0,0,1,.4-.14.37.37,0,0,1,.28.07.64.64,0,0,1,.18.26,2,2,0,0,1,.07.4Zm-1.17,1.24a.54.54,0,0,0,.06.27q0,.07.18,0a.37.37,0,0,0,.18-.21,1.309,1.309,0,0,0,.06-.34,4.506,4.506,0,0,0,0-.52.671.671,0,0,0-.06-.27q0-.08-.18,0a.37.37,0,0,0-.18.21,1,1,0,0,0-.06.34,4.509,4.509,0,0,0,0,.53Z" fill="#455a64"/>
        <path id="Path_9092" data-name="Path 9092" d="M335.24,390.33,334,386.7a33.431,33.431,0,0,0-6.31,8.93l3.2.83A24,24,0,0,1,335.24,390.33Z" fill="#e0e0e0"/>
        <path id="Path_9093" data-name="Path 9093" d="M335.4,384.7l1.34,4a18.085,18.085,0,0,1,3-2.17,11.64,11.64,0,0,1,3-1.24l1.34-5.56a16.309,16.309,0,0,0-4.3,1.78A25,25,0,0,0,335.4,384.7Z" fill="#90caf9"/>
        <path id="Path_9094" data-name="Path 9094" d="M348.47,386.34l3.52-5a8.15,8.15,0,0,0-6.95-1.84l-1.35,5.57a5.87,5.87,0,0,1,4.78,1.27Z" fill="#90caf9"/>
        <path id="Path_9095" data-name="Path 9095" d="M330.32,397.71l-3.2-.83a27.341,27.341,0,0,0-2.4,9.94l3.94-2.27A20,20,0,0,1,330.32,397.71Z" fill="#e0e0e0"/>
        <path id="Path_9096" data-name="Path 9096" d="M328.66,405.68l-4,2.28a11.12,11.12,0,0,0,2.41,7.16l3.2-4.51A8,8,0,0,1,328.66,405.68Z" fill="#e0e0e0"/>
        <path id="Path_9097" data-name="Path 9097" d="M330.92,412.75l-3.51,5a8.18,8.18,0,0,0,6.95,1.84l1.35-5.57A5.9,5.9,0,0,1,330.92,412.75Z" fill="#90caf9"/>
        <path id="Path_9098" data-name="Path 9098" d="M339.7,412.55a12.17,12.17,0,0,1-3,1.24l-1.34,5.56a16.45,16.45,0,0,0,4.3-1.78,24.9,24.9,0,0,0,4.3-3.19l-1.34-4a18,18,0,0,1-2.92,2.17Z" fill="#90caf9"/>
        <path id="Path_9099" data-name="Path 9099" d="M343.69,409.39l1.35,4a36.671,36.671,0,0,0,6.95-9.87l-3.52-.92A26.491,26.491,0,0,1,343.69,409.39Z" fill="#90caf9"/>
        <path id="Path_9100" data-name="Path 9100" d="M350.94,392.43l4.36-2.52c-.11-3.43-1.07-6.12-2.66-7.91l-3.53,5A8.87,8.87,0,0,1,350.94,392.43Z" fill="#90caf9"/>
        <path id="Path_9101" data-name="Path 9101" d="M349.11,401.23l3.53.92a30.21,30.21,0,0,0,2.66-11l-4.36,2.51a21.55,21.55,0,0,1-1.83,7.57Z" fill="#90caf9"/>
      </g>
      <g id="freepik--chart--inject-2-3" data-name="freepik--chart--inject-2">
        <path id="Path_9102" data-name="Path 9102" d="M199,284.22h-.12a.48.48,0,0,1-.34-.59l2.88-10.54a1.24,1.24,0,0,1,.83-.93,1.19,1.19,0,0,1,1.15.35l1.49,1.44c.1.1.21.15.27.13s.13-.08.19-.25L211,257.58a1,1,0,0,1,.84-.79,1.079,1.079,0,0,1,1.06.7l5.12,8.86a.56.56,0,0,0,.21.24.8.8,0,0,0,.08-.13L223.73,255a1.06,1.06,0,0,1,.91-.68,1.24,1.24,0,0,1,1.08.72l5.76,10a.48.48,0,1,1-.83.48l-5.76-10a.76.76,0,0,0-.21-.24s0,.05-.08.13l-5.42,11.48a1.09,1.09,0,0,1-.91.69,1.24,1.24,0,0,1-1.08-.73L212.07,258a1.12,1.12,0,0,0-.12-.17.46.46,0,0,0,0,.1l-5.62,16.24a1.3,1.3,0,0,1-.87.87,1.26,1.26,0,0,1-1.16-.38l-1.5-1.44a.36.36,0,0,0-.22-.12.562.562,0,0,0-.16.26l-2.88,10.54a.48.48,0,0,1-.54.32Z" fill="#e0e0e0"/>
        <path id="Path_9103" data-name="Path 9103" d="M231.07,279.27v-9.09l-5.77-7.36c-.35-.62-.79-.59-1,.06l-5.77,18.45c-.17.65-.61.68-1,.06l-5.11-8.86c-.36-.62-.82-.61-1,0l-5.62,16.24c-.22.62-.62.57-.89-.1l-2.22-5.55c-.27-.68-.64-.71-.81-.06L199,293.61v4.16Z" fill="#90caf9"/>
        <path id="Path_9104" data-name="Path 9104" d="M211.85,255.37c1.05-.6,1.9-.11,1.9,1.1a4.21,4.21,0,0,1-1.9,3.3c-1.06.61-1.91.12-1.91-1.1a4.21,4.21,0,0,1,1.91-3.3Z" fill="#90caf9"/>
        <path id="Path_9105" data-name="Path 9105" d="M197.82,304a.477.477,0,0,1-.24-.89l37.5-21.65a.482.482,0,1,1,.49.83l-37.5,21.65a.539.539,0,0,1-.25.06Z" fill="#e0e0e0"/>
        <path id="Path_9106" data-name="Path 9106" d="M216.38,312a.47.47,0,0,1-.48-.48V292.77a.5.5,0,0,1,1,0v18.72a.47.47,0,0,1-.52.51Z" fill="#e0e0e0"/>
      </g>
      <g id="freepik--chart--inject-2-4" data-name="freepik--chart--inject-2">
        <path id="Path_9107" data-name="Path 9107" d="M272.94,134.53a12.751,12.751,0,0,0-3.66,1.47c-8.14,4.7-14.75,17.84-14.75,29.35s6.6,17,14.75,12.33c6.89-4,12.65-14,14.28-23.92l-4.06.87c-1.17,7.11-5.3,14.27-10.22,17.1-5.82,3.35-10.54-.59-10.53-8.82s4.72-17.61,10.53-21a9.52,9.52,0,0,1,2.61-1l1-6.35" fill="#90caf9"/>
        <path id="Path_9108" data-name="Path 9108" d="M269.28,147.9c3.49-2,6.32.36,6.32,5.29s-2.83,10.57-6.32,12.58-6.32-.35-6.32-5.28S265.79,149.92,269.28,147.9Z" fill="#e0e0e0"/>
        <path id="Path_9109" data-name="Path 9109" d="M286.05,146c0-9.72-4.72-15.15-11.09-13.77l-1,6.37c4.56-1,7.93,2.89,7.93,9.84a24.392,24.392,0,0,1-.34,3.87l4.08-.88a33.473,33.473,0,0,0,.42-5.43Z" fill="#e0e0e0"/>
      </g>
      <g id="freepik--chart--inject-2-5" data-name="freepik--chart--inject-2">
        <path id="Path_9110" data-name="Path 9110" d="M266.8,207.22l-4.31,2.49v31.75l4.31-2.49Z" fill="#90caf9"/>
        <path id="Path_9111" data-name="Path 9111" d="M291.05,210.1l-4.3,2.48v14.87l4.3-2.48Z" fill="#90caf9"/>
        <path id="Path_9112" data-name="Path 9112" d="M284.99,205.37l-4.31,2.48v23.1l4.31-2.48Z" fill="#90caf9"/>
        <path id="Path_9113" data-name="Path 9113" d="M278.93,219.87l-4.31,2.48v12.1l4.31-2.48Z" fill="#90caf9"/>
        <path id="Path_9114" data-name="Path 9114" d="M272.86,219.51l-4.3,2.48v15.97l4.3-2.49Z" fill="#90caf9"/>
        <path id="Path_9115" data-name="Path 9115" d="M259.85,246.53a.47.47,0,0,1-.42-.24.48.48,0,0,1,.18-.65L297.11,224a.484.484,0,0,1,.48.84l-37.5,21.65A.53.53,0,0,1,259.85,246.53Z" fill="#e0e0e0"/>
        <path id="Path_9116" data-name="Path 9116" d="M278.4,254.54a.48.48,0,0,1-.48-.48V235.34a.5.5,0,1,1,1,0v18.72a.48.48,0,0,1-.52.48Z" fill="#e0e0e0"/>
      </g>
      <g id="freepik--Lines--inject-2">
        <path id="Path_9117" data-name="Path 9117" d="M403.08,110.39H403l-18.72-2.7a.46.46,0,0,1-.39-.52.47.47,0,0,1,.52-.39l18.72,2.7a.47.47,0,0,1,.39.52.45.45,0,0,1-.44.39Z" fill="#e0e0e0"/>
        <path id="Path_9118" data-name="Path 9118" d="M432.24,214.18h-.08L409,210.56a.47.47,0,0,1-.39-.52.46.46,0,0,1,.53-.38l23.21,3.61a.45.45,0,0,1,.39.52A.46.46,0,0,1,432.24,214.18Z" fill="#e0e0e0"/>
        <path id="Path_9119" data-name="Path 9119" d="M350,175.05a.45.45,0,0,1-.4-.25.46.46,0,0,1,.19-.62l14.55-7.55a.461.461,0,1,1,.42.82L350.21,175A.5.5,0,0,1,350,175.05Z" fill="#e0e0e0"/>
        <path id="Path_9120" data-name="Path 9120" d="M332.31,213.82a.45.45,0,0,1-.45-.46V200a.46.46,0,1,1,.91,0v13.38a.45.45,0,0,1-.46.44Z" fill="#e0e0e0"/>
        <path id="Path_9121" data-name="Path 9121" d="M389.14,356.85a.449.449,0,0,1-.2,0l-42.26-21.14a.46.46,0,0,1,.4-.82L389.35,356a.45.45,0,0,1-.21.86Z" fill="#e0e0e0"/>
        <path id="Path_9122" data-name="Path 9122" d="M231.42,414.11a.44.44,0,0,1-.35-.16L215,394.78a.46.46,0,0,1,.7-.59l16.07,19.17a.46.46,0,0,1-.06.65A.45.45,0,0,1,231.42,414.11Z" fill="#e0e0e0"/>
        <path id="Path_9123" data-name="Path 9123" d="M251.09,418.6a.44.44,0,0,1-.36-.18.45.45,0,0,1,.08-.64l17.29-13.33a.47.47,0,0,1,.65.08.46.46,0,0,1-.09.64l-17.29,13.34a.47.47,0,0,1-.28.09Z" fill="#e0e0e0"/>
        <path id="Path_9124" data-name="Path 9124" d="M287.86,156.79c-.25,0-.45-.13-.46-.29s.2-.29.46-.29l29.8-.2c.25,0,.46.13.46.29s-.2.29-.45.29l-29.8.2Z" fill="#e0e0e0"/>
        <path id="Path_9125" data-name="Path 9125" d="M339,377a.46.46,0,0,1-.46-.45l-.39-32.92a.47.47,0,0,1,.46-.47h0a.46.46,0,0,1,.46.46l.39,32.92a.46.46,0,0,1-.46.46Z" fill="#e0e0e0"/>
        <path id="Path_9126" data-name="Path 9126" d="M406.74,201.25h-.13a.45.45,0,0,1-.3-.57l6.55-21.32a.46.46,0,1,1,.87.27l-6.55,21.32A.46.46,0,0,1,406.74,201.25Z" fill="#e0e0e0"/>
      </g>
      <g id="freepik--points-3--inject-2">
        <path id="Path_9127" data-name="Path 9127" d="M332.87,346.53a7.72,7.72,0,0,1-3.92-1c-2.81-1.62-4.35-4.93-4.35-9.33,0-8.58,6-19,13.46-23.32,3.81-2.2,7.45-2.52,10.26-.91s4.34,4.94,4.34,9.34c0,8.57-6,19-13.46,23.32a12.89,12.89,0,0,1-6.33,1.9Zm11.52-33.32a10.61,10.61,0,0,0-5.19,1.62h0c-6.8,3.92-12.33,13.5-12.33,21.35,0,3.55,1.14,6.17,3.21,7.36s4.9.87,8-.9c6.8-3.93,12.33-13.5,12.33-21.35,0-3.56-1.14-6.17-3.21-7.37a5.54,5.54,0,0,0-2.81-.71Zm-5.76.63Z" fill="#e0e0e0"/>
        <path id="Path_9128" data-name="Path 9128" d="M338.63,319.94c4.21-2.43,7.61-.46,7.61,4.4a16.81,16.81,0,0,1-7.61,13.18c-4.2,2.43-7.61.46-7.61-4.39a16.84,16.84,0,0,1,7.61-13.19Z" fill="#90caf9"/>
        <path id="Path_9129" data-name="Path 9129" d="M273.72,408.62a7.721,7.721,0,0,1-3.92-1c-2.81-1.62-4.35-4.93-4.35-9.33,0-8.57,6-19,13.46-23.32h0c3.82-2.2,7.46-2.52,10.26-.9s4.34,4.93,4.34,9.33c0,8.57-6,19-13.46,23.32a12.791,12.791,0,0,1-6.33,1.9Zm6.33-31.7c-6.8,3.92-12.33,13.5-12.33,21.35,0,3.55,1.14,6.17,3.21,7.36s4.91.88,8-.9c6.8-3.92,12.33-13.5,12.33-21.35,0-3.55-1.14-6.17-3.21-7.36S283.15,375.14,280.05,376.92Z" fill="#e0e0e0"/>
        <path id="Path_9130" data-name="Path 9130" d="M279.48,382c4.21-2.42,7.61-.45,7.61,4.4a16.79,16.79,0,0,1-7.61,13.18c-4.2,2.43-7.61.46-7.61-4.39A16.84,16.84,0,0,1,279.48,382Z" fill="#90caf9"/>
        <path id="Path_9131" data-name="Path 9131" d="M206.61,400.46a5.82,5.82,0,0,1-3-.76c-2.1-1.21-3.26-3.7-3.26-7,0-6.43,4.53-14.27,10.1-17.49h0c2.86-1.65,5.59-1.89,7.69-.68s3.26,3.7,3.26,7c0,6.43-4.53,14.28-10.1,17.49a9.56,9.56,0,0,1-4.69,1.44Zm8.63-25a7.891,7.891,0,0,0-3.89,1.21h0c-5.09,2.94-9.24,10.12-9.24,16,0,2.66.85,4.62,2.4,5.52s3.68.66,6-.68c5.1-2.94,9.25-10.12,9.25-16,0-2.66-.86-4.62-2.41-5.52a4.1,4.1,0,0,0-2.11-.51Zm-4.31.47Z" fill="#e0e0e0"/>
        <path id="Path_9132" data-name="Path 9132" d="M210.93,380.52c3.15-1.82,5.71-.34,5.71,3.3a12.63,12.63,0,0,1-5.71,9.89c-3.16,1.82-5.71.34-5.71-3.3a12.6,12.6,0,0,1,5.71-9.89Z" fill="#90caf9"/>
        <path id="Path_9133" data-name="Path 9133" d="M243.15,361.08a6,6,0,0,1-3-.78c-2.15-1.24-3.34-3.79-3.34-7.17,0-6.59,4.64-14.63,10.35-17.93h0c2.93-1.69,5.73-1.93,7.88-.69s3.34,3.79,3.34,7.17c0,6.59-4.64,14.63-10.35,17.93a9.819,9.819,0,0,1-4.88,1.47ZM248,336.72c-5.22,3-9.47,10.38-9.47,16.41,0,2.73.88,4.74,2.47,5.66s3.76.67,6.13-.7c5.22-3,9.48-10.37,9.48-16.41,0-2.73-.88-4.74-2.47-5.66s-3.77-.67-6.14.7Z" fill="#e0e0e0"/>
        <path id="Path_9134" data-name="Path 9134" d="M247.58,340.65c3.23-1.87,5.85-.35,5.85,3.38a12.92,12.92,0,0,1-5.85,10.13c-3.23,1.87-5.85.35-5.85-3.38a12.92,12.92,0,0,1,5.85-10.13Z" fill="#90caf9"/>
        <path id="Path_9135" data-name="Path 9135" d="M281.34,343.17a4.73,4.73,0,0,1-2.41-.62c-1.72-1-2.66-3-2.66-5.73,0-5.26,3.7-11.68,8.26-14.31h0c2.34-1.35,4.57-1.54,6.29-.55s2.66,3,2.66,5.73c0,5.26-3.7,11.67-8.26,14.3a7.77,7.77,0,0,1-3.88,1.18Zm3.88-19.45a16.75,16.75,0,0,0-7.56,13.1c0,2.18.7,3.79,2,4.52s3,.54,4.9-.55a16.75,16.75,0,0,0,7.56-13.1c0-2.18-.7-3.79-2-4.52S287.12,322.63,285.22,323.72Z" fill="#e0e0e0"/>
        <path id="Path_9136" data-name="Path 9136" d="M284.88,326.86c2.58-1.49,4.67-.28,4.67,2.7a10.32,10.32,0,0,1-4.67,8.09c-2.58,1.49-4.67.28-4.67-2.7A10.32,10.32,0,0,1,284.88,326.86Z" fill="#90caf9"/>
        <path id="Path_9137" data-name="Path 9137" d="M212.38,331.77a4.8,4.8,0,0,1-2.41-.62c-1.72-1-2.67-3-2.67-5.73,0-5.26,3.71-11.68,8.26-14.31h0c2.34-1.35,4.57-1.55,6.29-.55s2.67,3,2.67,5.72c0,5.26-3.71,11.68-8.26,14.31A7.93,7.93,0,0,1,212.38,331.77Zm3.88-19.45a16.74,16.74,0,0,0-7.56,13.1c0,2.18.7,3.78,2,4.52s3,.53,4.89-.56a16.72,16.72,0,0,0,7.56-13.1c0-2.18-.69-3.78-2-4.52s-3-.53-4.9.56Z" fill="#e0e0e0"/>
        <path id="Path_9138" data-name="Path 9138" d="M215.91,315.46c2.58-1.49,4.67-.28,4.67,2.69a10.32,10.32,0,0,1-4.67,8.09c-2.58,1.49-4.67.29-4.67-2.69a10.32,10.32,0,0,1,4.67-8.09Z" fill="#90caf9"/>
        <path id="Path_9139" data-name="Path 9139" d="M373,309.23a3.259,3.259,0,0,1-1.66-.43,4.27,4.27,0,0,1-1.83-3.94,12.6,12.6,0,0,1,5.68-9.85h0a3.78,3.78,0,0,1,6.17,3.56,12.58,12.58,0,0,1-5.69,9.85A5.39,5.39,0,0,1,373,309.23Zm2.67-13.39a11.5,11.5,0,0,0-5.2,9,2.85,2.85,0,0,0,4.72,2.73,11.52,11.52,0,0,0,5.21-9,2.86,2.86,0,0,0-4.73-2.73Z" fill="#e0e0e0"/>
        <path id="Path_9140" data-name="Path 9140" d="M375.46,298c1.78-1,3.22-.2,3.22,1.86a7.11,7.11,0,0,1-3.22,5.57c-1.77,1-3.21.19-3.21-1.86A7.11,7.11,0,0,1,375.46,298Z" fill="#90caf9"/>
        <path id="Path_9141" data-name="Path 9141" d="M400.13,305.63a3.3,3.3,0,0,1-1.65-.43,4.29,4.29,0,0,1-1.84-3.95,12.58,12.58,0,0,1,5.69-9.85h0a3.79,3.79,0,0,1,6.17,3.6,12.58,12.58,0,0,1-5.69,9.85A5.44,5.44,0,0,1,400.13,305.63ZM405,291.55a4.49,4.49,0,0,0-2.19.68h0a11.55,11.55,0,0,0-5.21,9,2.86,2.86,0,0,0,4.73,2.73,11.51,11.51,0,0,0,5.21-9,3.4,3.4,0,0,0-1.36-3.11,2.35,2.35,0,0,0-1.18-.3Zm-2.43.27Z" fill="#e0e0e0"/>
        <path id="Path_9142" data-name="Path 9142" d="M402.57,294.39c1.77-1,3.21-.19,3.21,1.86a7.11,7.11,0,0,1-3.21,5.57c-1.78,1-3.22.2-3.22-1.86a7.11,7.11,0,0,1,3.22-5.57Z" fill="#90caf9"/>
        <path id="Path_9143" data-name="Path 9143" d="M186.71,367.72a3.26,3.26,0,0,1-1.66-.43,4.26,4.26,0,0,1-1.84-3.94,12.58,12.58,0,0,1,5.69-9.85h0a3.79,3.79,0,0,1,6.17,3.56,12.58,12.58,0,0,1-5.69,9.85,5.39,5.39,0,0,1-2.67.81Zm2.67-13.39a11.53,11.53,0,0,0-5.21,9,2.86,2.86,0,0,0,4.73,2.73,11.55,11.55,0,0,0,5.21-9,2.86,2.86,0,0,0-4.73-2.73Z" fill="#e0e0e0"/>
        <path id="Path_9144" data-name="Path 9144" d="M189.14,356.49c1.78-1,3.22-.19,3.22,1.86a7.11,7.11,0,0,1-3.22,5.57c-1.77,1-3.21.19-3.21-1.86A7.13,7.13,0,0,1,189.14,356.49Z" fill="#90caf9"/>
        <path id="Path_9145" data-name="Path 9145" d="M265.38,305.76a3.37,3.37,0,0,1-1.66-.43,4.3,4.3,0,0,1-1.83-3.95,12.6,12.6,0,0,1,5.68-9.85h0a3.79,3.79,0,0,1,6.17,3.56,12.58,12.58,0,0,1-5.68,9.85,5.47,5.47,0,0,1-2.68.82Zm2.67-13.4a11.54,11.54,0,0,0-5.2,9,2.85,2.85,0,0,0,4.72,2.73,11.49,11.49,0,0,0,5.21-9,2.86,2.86,0,0,0-4.73-2.73Z" fill="#e0e0e0"/>
        <path id="Path_9146" data-name="Path 9146" d="M267.81,294.53c1.78-1,3.22-.2,3.22,1.85a7.09,7.09,0,0,1-3.22,5.57c-1.77,1-3.21.2-3.21-1.85a7.1,7.1,0,0,1,3.21-5.57Z" fill="#90caf9"/>
        <path id="Path_9147" data-name="Path 9147" d="M302.6,255.17a3.21,3.21,0,0,1-1.66-.43,4.26,4.26,0,0,1-1.84-3.94,12.58,12.58,0,0,1,5.69-9.85,3.79,3.79,0,0,1,6.17,3.56,12.58,12.58,0,0,1-5.69,9.85,5.39,5.39,0,0,1-2.67.81Zm4.86-14.07a4.39,4.39,0,0,0-2.19.68h0a11.53,11.53,0,0,0-5.21,9,2.86,2.86,0,0,0,4.73,2.73,11.55,11.55,0,0,0,5.21-9,3.37,3.37,0,0,0-1.36-3.11,2.33,2.33,0,0,0-1.18-.3Zm-2.43.26Z" fill="#e0e0e0"/>
        <path id="Path_9148" data-name="Path 9148" d="M305,243.94c1.78-1,3.22-.2,3.22,1.86a7.11,7.11,0,0,1-3.22,5.57c-1.78,1-3.22.19-3.22-1.86a7.09,7.09,0,0,1,3.22-5.57Z" fill="#90caf9"/>
        <path id="Path_9149" data-name="Path 9149" d="M321.72,303.05a3.37,3.37,0,0,1-1.66-.43,4.3,4.3,0,0,1-1.83-3.95,12.6,12.6,0,0,1,5.68-9.85h0a3.79,3.79,0,0,1,6.17,3.56,12.63,12.63,0,0,1-5.68,9.86A5.56,5.56,0,0,1,321.72,303.05Zm2.68-13.4a11.52,11.52,0,0,0-5.21,9,2.86,2.86,0,0,0,4.73,2.73,11.52,11.52,0,0,0,5.2-9,2.85,2.85,0,0,0-4.72-2.73Z" fill="#e0e0e0"/>
        <path id="Path_9150" data-name="Path 9150" d="M324.16,291.81c1.77-1,3.21-.19,3.21,1.86a7.11,7.11,0,0,1-3.21,5.57c-1.78,1-3.22.2-3.22-1.85a7.11,7.11,0,0,1,3.22-5.58Z" fill="#90caf9"/>
        <path id="Path_9151" data-name="Path 9151" d="M326.48,234a4.63,4.63,0,0,1-2.35-.61c-1.68-1-2.61-3-2.61-5.6,0-5.14,3.63-11.41,8.08-14,2.28-1.32,4.47-1.51,6.15-.54s2.6,3,2.6,5.59c0,5.14-3.62,11.42-8.07,14a7.78,7.78,0,0,1-3.8,1.16Zm6.91-20a6.38,6.38,0,0,0-3.11,1h0a16.35,16.35,0,0,0-7.39,12.8c0,2.13.68,3.7,1.92,4.42s2.94.52,4.79-.54a16.39,16.39,0,0,0,7.4-12.8c0-2.13-.68-3.7-1.92-4.41A3.28,3.28,0,0,0,333.39,214Zm-3.45.38Z" fill="#e0e0e0"/>
        <ellipse id="Ellipse_68" data-name="Ellipse 68" cx="6.46" cy="3.73" rx="6.46" ry="3.73" transform="translate(323.478 227.077) rotate(-60)" fill="#90caf9"/>
        <path id="Path_9152" data-name="Path 9152" d="M344.81,312.55h-.15a.47.47,0,0,1-.29-.59l18.9-54.51a.46.46,0,1,1,.87.3l-18.9,54.51a.46.46,0,0,1-.43.29Z" fill="#e0e0e0"/>
        <path id="Path_9153" data-name="Path 9153" d="M333.13,318.89a.44.44,0,0,1-.41-.27L325,301.14a.454.454,0,1,1,.83-.37l7.76,17.48a.45.45,0,0,1-.23.6.41.41,0,0,1-.23.04Z" fill="#e0e0e0"/>
        <path id="Path_9154" data-name="Path 9154" d="M351.53,321.74a.49.49,0,0,1-.35-.15.47.47,0,0,1,0-.65l18.49-16.42a.46.46,0,1,1,.61.68l-18.49,16.43A.43.43,0,0,1,351.53,321.74Z" fill="#e0e0e0"/>
        <path id="Path_9155" data-name="Path 9155" d="M397.38,299.66h0L380.89,299a.46.46,0,0,1-.44-.47.48.48,0,0,1,.48-.44l16.46.63a.46.46,0,0,1,.44.48.45.45,0,0,1-.45.46Z" fill="#e0e0e0"/>
        <path id="Path_9156" data-name="Path 9156" d="M325.38,289.16h0a.46.46,0,0,1-.42-.49l4.56-56.42a.47.47,0,0,1,.5-.42.46.46,0,0,1,.42.49l-4.57,56.42a.46.46,0,0,1-.49.42Z" fill="#e0e0e0"/>
        <path id="Path_9157" data-name="Path 9157" d="M272.5,292.79a.44.44,0,0,1-.27-.09.45.45,0,0,1-.1-.64l28.14-38.43a.46.46,0,0,1,.74.54L272.87,292.6A.44.44,0,0,1,272.5,292.79Z" fill="#e0e0e0"/>
        <path id="Path_9158" data-name="Path 9158" d="M281.61,326.28a.46.46,0,0,1-.41-.24l-11.64-22.62a.46.46,0,1,1,.81-.42L282,325.62a.45.45,0,0,1-.19.61.41.41,0,0,1-.2.05Z" fill="#e0e0e0"/>
        <path id="Path_9159" data-name="Path 9159" d="M289,375.75a.45.45,0,0,1-.3-.8l38.12-33.18a.46.46,0,0,1,.6.69L289.3,375.64a.45.45,0,0,1-.3.11Z" fill="#e0e0e0"/>
        <path id="Path_9160" data-name="Path 9160" d="M279.48,376.39h-.07a.46.46,0,0,1-.38-.53l5.39-34.54a.48.48,0,0,1,.53-.38.45.45,0,0,1,.38.52L279.94,376a.47.47,0,0,1-.46.39Z" fill="#e0e0e0"/>
        <path id="Path_9161" data-name="Path 9161" d="M274.81,380.1a.45.45,0,0,1-.32-.14L251,356.2a.46.46,0,1,1,.65-.64l23.53,23.76a.46.46,0,0,1,0,.65A.44.44,0,0,1,274.81,380.1Z" fill="#e0e0e0"/>
        <path id="Path_9162" data-name="Path 9162" d="M267.59,392.39h-.08l-44.32-7.62a.45.45,0,0,1-.37-.53.44.44,0,0,1,.52-.37l44.32,7.62a.46.46,0,0,1,.38.52.45.45,0,0,1-.45.38Z" fill="#e0e0e0"/>
        <path id="Path_9163" data-name="Path 9163" d="M211.76,376h0a.46.46,0,0,1-.43-.49l3.37-45.15a.45.45,0,0,1,.49-.42.46.46,0,0,1,.42.49l-3.36,45.15a.46.46,0,0,1-.49.42Z" fill="#e0e0e0"/>
        <path id="Path_9164" data-name="Path 9164" d="M205.51,381.45a.45.45,0,0,1-.34-.15l-14.47-16a.46.46,0,0,1,0-.65.47.47,0,0,1,.65,0l14.47,16a.45.45,0,0,1-.34.76Z" fill="#e0e0e0"/>
        <path id="Path_9165" data-name="Path 9165" d="M389.11,332.52H389a.2.2,0,0,1-.12-.26L399.16,305a.2.2,0,0,1,.26-.12c.11,0,.25.23.21.33l-10.25,27.28C389.35,332.55,389.19,332.52,389.11,332.52Z" fill="#e0e0e0"/>
        <path id="Path_9166" data-name="Path 9166" d="M414.33,313.9a.2.2,0,0,1-.17-.09l-8.54-12.37a.21.21,0,0,1,.05-.29.2.2,0,0,1,.28.05l8.55,12.38a.2.2,0,0,1-.06.28.15.15,0,0,1-.11.04Z" fill="#e0e0e0"/>
        <path id="Path_9167" data-name="Path 9167" d="M320.94,292.52c-.07,0-.33.07-.36,0l-12.45-24.09c-.05-.1.17-.33.27-.38a.21.21,0,0,1,.28.08l12.44,24.09a.21.21,0,0,1-.09.28Z" fill="#e0e0e0"/>
        <path id="Path_9168" data-name="Path 9168" d="M269.84,291.44h0c-.11,0-.35-.16-.33-.27L278,254.8c0-.11.31-.15.42-.12a.19.19,0,0,1,.15.24L270,291.28A.21.21,0,0,1,269.84,291.44Z" fill="#e0e0e0"/>
        <path id="Path_9169" data-name="Path 9169" d="M288.72,322.26h-.08a.2.2,0,0,1-.11-.27l7.13-16.91a.21.21,0,0,1,.27-.11c.1.05.35.09.31.19l-7.13,16.91a.75.75,0,0,1-.39.19Z" fill="#e0e0e0"/>
        <path id="Path_9170" data-name="Path 9170" d="M389.11,328.61c1.77-1,3.21-.2,3.21,1.85a7.11,7.11,0,0,1-3.21,5.57c-1.78,1-3.22.2-3.22-1.85a7.09,7.09,0,0,1,3.22-5.57Z" fill="#90caf9"/>
        <path id="Path_9171" data-name="Path 9171" d="M308.49,263.76c2.05-1.18,3.7-.22,3.7,2.14a8.16,8.16,0,0,1-3.7,6.41c-2,1.18-3.7.22-3.7-2.14A8.19,8.19,0,0,1,308.49,263.76Z" fill="#90caf9"/>
        <path id="Path_9172" data-name="Path 9172" d="M295.85,301.87c1.56-.9,2.83-.17,2.83,1.64a6.26,6.26,0,0,1-2.83,4.9c-1.56.9-2.83.17-2.83-1.63a6.28,6.28,0,0,1,2.83-4.91Z" fill="#90caf9"/>
        <path id="Path_9173" data-name="Path 9173" d="M278.4,251.61c1.57-.91,2.83-.17,2.83,1.63a6.22,6.22,0,0,1-2.83,4.9c-1.56.9-2.83.17-2.83-1.63a6.25,6.25,0,0,1,2.83-4.9Z" fill="#90caf9"/>
        <path id="Path_9174" data-name="Path 9174" d="M414.33,311.21c1.19-.69,2.15-.13,2.15,1.24a4.75,4.75,0,0,1-2.15,3.73c-1.19.69-2.16.13-2.16-1.24a4.78,4.78,0,0,1,2.16-3.73Z" fill="#90caf9"/>
        <g id="Group_207" data-name="Group 207" opacity="0.25">
          <path id="Path_9175" data-name="Path 9175" d="M338.63,319.94c4.21-2.43,7.61-.46,7.61,4.4a16.81,16.81,0,0,1-7.61,13.18c-4.2,2.43-7.61.46-7.61-4.39a16.84,16.84,0,0,1,7.61-13.19Z"/>
          <path id="Path_9176" data-name="Path 9176" d="M279.48,382c4.21-2.42,7.61-.45,7.61,4.4a16.79,16.79,0,0,1-7.61,13.18c-4.2,2.43-7.61.46-7.61-4.39A16.84,16.84,0,0,1,279.48,382Z"/>
          <path id="Path_9177" data-name="Path 9177" d="M210.93,380.52c3.15-1.82,5.71-.34,5.71,3.3a12.63,12.63,0,0,1-5.71,9.89c-3.16,1.82-5.71.34-5.71-3.3a12.6,12.6,0,0,1,5.71-9.89Z"/>
          <path id="Path_9178" data-name="Path 9178" d="M247.58,340.65c3.23-1.87,5.85-.35,5.85,3.38a12.92,12.92,0,0,1-5.85,10.13c-3.23,1.87-5.85.35-5.85-3.38a12.92,12.92,0,0,1,5.85-10.13Z"/>
          <path id="Path_9179" data-name="Path 9179" d="M284.88,326.86c2.58-1.49,4.67-.28,4.67,2.7a10.32,10.32,0,0,1-4.67,8.09c-2.58,1.49-4.67.28-4.67-2.7A10.32,10.32,0,0,1,284.88,326.86Z"/>
          <path id="Path_9180" data-name="Path 9180" d="M215.91,315.46c2.58-1.49,4.67-.28,4.67,2.69a10.32,10.32,0,0,1-4.67,8.09c-2.58,1.49-4.67.29-4.67-2.69a10.32,10.32,0,0,1,4.67-8.09Z"/>
          <path id="Path_9181" data-name="Path 9181" d="M375.46,298c1.78-1,3.22-.2,3.22,1.86a7.11,7.11,0,0,1-3.22,5.57c-1.77,1-3.21.19-3.21-1.86A7.11,7.11,0,0,1,375.46,298Z"/>
          <path id="Path_9182" data-name="Path 9182" d="M402.57,294.39c1.77-1,3.21-.19,3.21,1.86a7.11,7.11,0,0,1-3.21,5.57c-1.78,1-3.22.2-3.22-1.86a7.11,7.11,0,0,1,3.22-5.57Z"/>
          <path id="Path_9183" data-name="Path 9183" d="M189.14,356.49c1.78-1,3.22-.19,3.22,1.86a7.11,7.11,0,0,1-3.22,5.57c-1.77,1-3.21.19-3.21-1.86A7.13,7.13,0,0,1,189.14,356.49Z"/>
          <path id="Path_9184" data-name="Path 9184" d="M267.81,294.53c1.78-1,3.22-.2,3.22,1.85a7.09,7.09,0,0,1-3.22,5.57c-1.77,1-3.21.2-3.21-1.85a7.1,7.1,0,0,1,3.21-5.57Z"/>
          <path id="Path_9185" data-name="Path 9185" d="M305,243.94c1.78-1,3.22-.2,3.22,1.86a7.11,7.11,0,0,1-3.22,5.57c-1.78,1-3.22.19-3.22-1.86a7.09,7.09,0,0,1,3.22-5.57Z"/>
          <path id="Path_9186" data-name="Path 9186" d="M324.16,291.81c1.77-1,3.21-.19,3.21,1.86a7.11,7.11,0,0,1-3.21,5.57c-1.78,1-3.22.2-3.22-1.85a7.11,7.11,0,0,1,3.22-5.58Z"/>
          <ellipse id="Ellipse_69" data-name="Ellipse 69" cx="6.46" cy="3.73" rx="6.46" ry="3.73" transform="translate(323.478 227.077) rotate(-60)"/>
          <path id="Path_9187" data-name="Path 9187" d="M389.11,328.61c1.77-1,3.21-.2,3.21,1.85a7.11,7.11,0,0,1-3.21,5.57c-1.78,1-3.22.2-3.22-1.85a7.09,7.09,0,0,1,3.22-5.57Z"/>
          <path id="Path_9188" data-name="Path 9188" d="M308.49,263.76c2.05-1.18,3.7-.22,3.7,2.14a8.16,8.16,0,0,1-3.7,6.41c-2,1.18-3.7.22-3.7-2.14A8.19,8.19,0,0,1,308.49,263.76Z"/>
          <path id="Path_9189" data-name="Path 9189" d="M295.85,301.87c1.56-.9,2.83-.17,2.83,1.64a6.26,6.26,0,0,1-2.83,4.9c-1.56.9-2.83.17-2.83-1.63a6.28,6.28,0,0,1,2.83-4.91Z"/>
          <path id="Path_9190" data-name="Path 9190" d="M278.4,251.61c1.57-.91,2.83-.17,2.83,1.63a6.22,6.22,0,0,1-2.83,4.9c-1.56.9-2.83.17-2.83-1.63a6.25,6.25,0,0,1,2.83-4.9Z"/>
          <path id="Path_9191" data-name="Path 9191" d="M414.33,311.21c1.19-.69,2.15-.13,2.15,1.24a4.75,4.75,0,0,1-2.15,3.73c-1.19.69-2.16.13-2.16-1.24a4.78,4.78,0,0,1,2.16-3.73Z"/>
        </g>
      </g>
      <g id="freepik--points-2--inject-2">
        <path id="Path_9192" data-name="Path 9192" d="M366.35,162.89a.48.48,0,0,1-.41-.25L345,122.42a.46.46,0,1,1,.81-.43l20.92,40.23a.47.47,0,0,1-.2.62.5.5,0,0,1-.18.05Z" fill="#e0e0e0"/>
        <path id="Path_9193" data-name="Path 9193" d="M372.82,160.05a.22.22,0,0,1-.13,0,.21.21,0,0,1,0-.29L392,134.64a.22.22,0,0,1,.29,0,.21.21,0,0,1,0,.29L373,160a.21.21,0,0,1-.18.05Z" fill="#e0e0e0"/>
        <path id="Path_9194" data-name="Path 9194" d="M370.07,159.57H370a.21.21,0,0,1-.15-.25l5.4-20.85a.19.19,0,0,1,.24-.14.2.2,0,0,1,.15.25l-5.39,20.84a.21.21,0,0,1-.18.15Z" fill="#e0e0e0"/>
        <path id="Path_9195" data-name="Path 9195" d="M373.34,191.57a.45.45,0,0,1-.45-.38l-3.52-21a.45.45,0,0,1,.37-.53.48.48,0,0,1,.53.38l3.52,21a.46.46,0,0,1-.38.52Z" fill="#e0e0e0"/>
        <path id="Path_9196" data-name="Path 9196" d="M378.2,189.81h-.07a.21.21,0,0,1-.13-.26l6.47-18.45a.206.206,0,1,1,.39.13l-6.47,18.46A.21.21,0,0,1,378.2,189.81Z" fill="#e0e0e0"/>
        <path id="Path_9197" data-name="Path 9197" d="M360.83,202.41a.18.18,0,0,1-.19-.14.2.2,0,0,1,.13-.26l7.44-2.48a.2.2,0,1,1,.13.38l-7.44,2.49Z" fill="#e0e0e0"/>
        <path id="Path_9198" data-name="Path 9198" d="M369.91,235.49h-.06a.46.46,0,0,1-.4-.51l3.81-29.71a.46.46,0,0,1,.91.12l-3.81,29.71a.45.45,0,0,1-.45.39Z" fill="#e0e0e0"/>
        <path id="Path_9199" data-name="Path 9199" d="M377.19,237a.45.45,0,0,1-.32-.77l20.67-21.37a.47.47,0,0,1,.65,0,.46.46,0,0,1,0,.65l-20.67,21.36A.43.43,0,0,1,377.19,237Z" fill="#e0e0e0"/>
        <path id="Path_9200" data-name="Path 9200" d="M363.17,241.6a.16.16,0,0,1-.1,0l-6.41-3.6a.2.2,0,0,1-.08-.28.21.21,0,0,1,.27-.08l6.42,3.54a.21.21,0,0,1,.08.28.2.2,0,0,1-.18.14Z" fill="#e0e0e0"/>
        <path id="Path_9201" data-name="Path 9201" d="M349.78,257.33a.2.2,0,0,1-.16-.07.21.21,0,0,1,0-.29l10.4-8.24a.21.21,0,0,1,.29,0,.22.22,0,0,1,0,.29l-10.4,8.24a.22.22,0,0,1-.13.07Z" fill="#e0e0e0"/>
        <path id="Path_9202" data-name="Path 9202" d="M349.78,257.33a.2.2,0,0,1-.2-.14l-6.26-20.48a.21.21,0,0,1,.14-.26.2.2,0,0,1,.25.14L350,257.07a.2.2,0,0,1-.13.26Z" fill="#e0e0e0"/>
        <path id="Path_9203" data-name="Path 9203" d="M349.78,257.33h0l-9.94-1.51a.207.207,0,1,1,.06-.41l9.94,1.52a.2.2,0,1,1,0,.4Z" fill="#e0e0e0"/>
        <path id="Path_9204" data-name="Path 9204" d="M412.47,249.73h0l-35.3-3.1a.47.47,0,0,1-.42-.5.49.49,0,0,1,.5-.42l35.3,3.11a.44.44,0,0,1,.41.49.46.46,0,0,1-.49.42Z" fill="#e0e0e0"/>
        <path id="Path_9205" data-name="Path 9205" d="M365,258.56a5.48,5.48,0,0,1-2.77-.72c-2-1.14-3.07-3.48-3.07-6.59,0-6.06,4.27-13.46,9.51-16.49h0c2.7-1.55,5.27-1.78,7.25-.63s3.07,3.48,3.07,6.59c0,6.06-4.27,13.45-9.51,16.48A9.14,9.14,0,0,1,365,258.56Zm4.48-22.4c-4.81,2.77-8.72,9.54-8.72,15.09,0,2.51.81,4.35,2.27,5.2s3.47.62,5.64-.64c4.81-2.77,8.71-9.54,8.71-15.09,0-2.51-.8-4.36-2.26-5.2s-3.47-.62-5.64.64Z" fill="#e0e0e0"/>
        <path id="Path_9206" data-name="Path 9206" d="M369.08,239.77c3-1.71,5.38-.32,5.38,3.11a11.88,11.88,0,0,1-5.38,9.32c-3,1.71-5.38.32-5.38-3.11A11.91,11.91,0,0,1,369.08,239.77Z" fill="#90caf9"/>
        <path id="Path_9207" data-name="Path 9207" d="M416.15,262.9a5.48,5.48,0,0,1-2.77-.72c-2-1.15-3.07-3.49-3.07-6.6,0-6.06,4.27-13.45,9.51-16.48,2.7-1.56,5.27-1.78,7.25-.64s3.07,3.49,3.07,6.6c0,6.05-4.27,13.45-9.51,16.48A9.14,9.14,0,0,1,416.15,262.9Zm8.14-23.55a7.46,7.46,0,0,0-3.66,1.14h0c-4.81,2.77-8.72,9.54-8.72,15.09,0,2.51.81,4.36,2.27,5.2s3.47.62,5.64-.63c4.81-2.78,8.72-9.55,8.72-15.09,0-2.51-.81-4.36-2.27-5.21a4,4,0,0,0-1.98-.5Zm-4.07.45Z" fill="#e0e0e0"/>
        <path id="Path_9208" data-name="Path 9208" d="M420.22,244.11c3-1.72,5.38-.33,5.38,3.1a11.88,11.88,0,0,1-5.37,9.32c-3,1.72-5.39.33-5.39-3.11A11.87,11.87,0,0,1,420.22,244.11Z" fill="#90caf9"/>
        <path id="Path_9209" data-name="Path 9209" d="M400.88,217.68a3.86,3.86,0,0,1-1.93-.5c-1.37-.8-2.13-2.42-2.13-4.58a14.64,14.64,0,0,1,6.6-11.44c1.87-1.08,3.65-1.23,5-.44s2.13,2.42,2.13,4.58a14.61,14.61,0,0,1-6.6,11.43,6.29,6.29,0,0,1-3.07.95Zm5.64-16.34a5.24,5.24,0,0,0-2.54.79h0a13.39,13.39,0,0,0-6.05,10.47c0,1.74.56,3,1.58,3.61s2.4.43,3.91-.44a13.4,13.4,0,0,0,6.05-10.47c0-1.74-.56-3-1.58-3.61a2.61,2.61,0,0,0-1.37-.35Zm-2.82.31Z" fill="#e0e0e0"/>
        <path id="Path_9210" data-name="Path 9210" d="M403.7,204.64c2.06-1.19,3.73-.23,3.73,2.15a8.26,8.26,0,0,1-3.73,6.47c-2.06,1.19-3.73.23-3.73-2.16a8.24,8.24,0,0,1,3.73-6.46Z" fill="#90caf9"/>
        <path id="Path_9211" data-name="Path 9211" d="M371.64,206.37a3.86,3.86,0,0,1-1.93-.5c-1.37-.79-2.13-2.42-2.13-4.58a14.62,14.62,0,0,1,6.61-11.43h0c1.86-1.08,3.65-1.24,5-.45s2.14,2.42,2.14,4.58a14.65,14.65,0,0,1-6.61,11.44A6.34,6.34,0,0,1,371.64,206.37Zm3.1-15.55a13.39,13.39,0,0,0-6,10.47c0,1.75.56,3,1.57,3.61s2.41.43,3.92-.44a13.37,13.37,0,0,0,6-10.47c0-1.74-.56-3-1.57-3.61S376.25,189.95,374.74,190.82Z" fill="#e0e0e0"/>
        <path id="Path_9212" data-name="Path 9212" d="M374.46,193.33c2.07-1.19,3.74-.22,3.74,2.16a8.23,8.23,0,0,1-3.74,6.46c-2.06,1.19-3.73.23-3.73-2.15a8.26,8.26,0,0,1,3.73-6.47Z" fill="#90caf9"/>
        <path id="Path_9213" data-name="Path 9213" d="M367,171.55a2.78,2.78,0,0,1-1.4-.36,3.63,3.63,0,0,1-1.57-3.35,10.71,10.71,0,0,1,4.84-8.38h0a3.22,3.22,0,0,1,5.24,3,10.68,10.68,0,0,1-4.83,8.37,4.62,4.62,0,0,1-2.28.72Zm2.28-11.38a9.81,9.81,0,0,0-4.43,7.67,2.43,2.43,0,0,0,4,2.32,9.81,9.81,0,0,0,4.43-7.67,2.43,2.43,0,0,0-4-2.32Z" fill="#e0e0e0"/>
        <path id="Path_9214" data-name="Path 9214" d="M369.08,162c1.51-.87,2.74-.16,2.74,1.58a6,6,0,0,1-2.74,4.74c-1.51.87-2.73.16-2.73-1.58a6.07,6.07,0,0,1,2.73-4.74Z" fill="#90caf9"/>
        <path id="Path_9215" data-name="Path 9215" d="M384.66,169.33c.87-.5,1.57-.09,1.57.91a3.46,3.46,0,0,1-1.57,2.72c-.86.5-1.56.09-1.56-.91A3.48,3.48,0,0,1,384.66,169.33Z" fill="#90caf9"/>
        <path id="Path_9216" data-name="Path 9216" d="M360.83,200.4c.87-.5,1.57-.1,1.57.9a3.46,3.46,0,0,1-1.57,2.72c-.87.5-1.57.09-1.57-.91a3.45,3.45,0,0,1,1.57-2.71Z" fill="#90caf9"/>
        <path id="Path_9217" data-name="Path 9217" d="M356.76,236.05c.86-.5,1.56-.09,1.56.91a3.46,3.46,0,0,1-1.56,2.71c-.87.5-1.57.1-1.57-.9A3.46,3.46,0,0,1,356.76,236.05Z" fill="#90caf9"/>
        <path id="Path_9218" data-name="Path 9218" d="M343.52,234.43c1.06-.61,1.91-.11,1.91,1.11a4.23,4.23,0,0,1-1.91,3.32c-1.06.61-1.92.11-1.92-1.11a4.25,4.25,0,0,1,1.92-3.32Z" fill="#90caf9"/>
        <path id="Path_9219" data-name="Path 9219" d="M339.84,254.23c.66-.39,1.2-.08,1.2.69a2.68,2.68,0,0,1-1.2,2.09c-.67.38-1.21.07-1.21-.7a2.64,2.64,0,0,1,1.21-2.08Z" fill="#90caf9"/>
        <path id="Path_9220" data-name="Path 9220" d="M349.78,254.25c1.37-.79,2.49-.15,2.49,1.44a5.5,5.5,0,0,1-2.49,4.31c-1.38.8-2.49.15-2.49-1.43a5.51,5.51,0,0,1,2.49-4.32Z" fill="#90caf9"/>
        <path id="Path_9221" data-name="Path 9221" d="M392.2,131.72c1.45-.83,2.63-.16,2.63,1.52a5.83,5.83,0,0,1-2.63,4.56c-1.45.83-2.63.15-2.63-1.52a5.83,5.83,0,0,1,2.63-4.56Z" fill="#90caf9"/>
        <path id="Path_9222" data-name="Path 9222" d="M375.46,136.72c.87-.5,1.57-.1,1.57.9a3.46,3.46,0,0,1-1.57,2.72c-.86.5-1.56.09-1.56-.91a3.46,3.46,0,0,1,1.56-2.71Z" fill="#90caf9"/>
        <g id="Group_208" data-name="Group 208" opacity="0.15">
          <path id="Path_9223" data-name="Path 9223" d="M369.08,239.77c3-1.71,5.38-.32,5.38,3.11a11.88,11.88,0,0,1-5.38,9.32c-3,1.71-5.38.32-5.38-3.11A11.91,11.91,0,0,1,369.08,239.77Z"/>
          <path id="Path_9224" data-name="Path 9224" d="M420.22,244.11c3-1.72,5.38-.33,5.38,3.1a11.88,11.88,0,0,1-5.37,9.32c-3,1.72-5.39.33-5.39-3.11A11.87,11.87,0,0,1,420.22,244.11Z"/>
          <path id="Path_9225" data-name="Path 9225" d="M403.7,204.64c2.06-1.19,3.73-.23,3.73,2.15a8.26,8.26,0,0,1-3.73,6.47c-2.06,1.19-3.73.23-3.73-2.16a8.24,8.24,0,0,1,3.73-6.46Z"/>
          <path id="Path_9226" data-name="Path 9226" d="M374.46,193.33c2.07-1.19,3.74-.22,3.74,2.16a8.23,8.23,0,0,1-3.74,6.46c-2.06,1.19-3.73.23-3.73-2.15a8.26,8.26,0,0,1,3.73-6.47Z"/>
          <path id="Path_9227" data-name="Path 9227" d="M369.08,162c1.51-.87,2.74-.16,2.74,1.58a6,6,0,0,1-2.74,4.74c-1.51.87-2.73.16-2.73-1.58a6.07,6.07,0,0,1,2.73-4.74Z"/>
          <path id="Path_9228" data-name="Path 9228" d="M384.66,169.33c.87-.5,1.57-.09,1.57.91a3.46,3.46,0,0,1-1.57,2.72c-.86.5-1.56.09-1.56-.91A3.48,3.48,0,0,1,384.66,169.33Z"/>
          <path id="Path_9229" data-name="Path 9229" d="M360.83,200.4c.87-.5,1.57-.1,1.57.9a3.46,3.46,0,0,1-1.57,2.72c-.87.5-1.57.09-1.57-.91a3.45,3.45,0,0,1,1.57-2.71Z"/>
          <path id="Path_9230" data-name="Path 9230" d="M356.76,236.05c.86-.5,1.56-.09,1.56.91a3.46,3.46,0,0,1-1.56,2.71c-.87.5-1.57.1-1.57-.9A3.46,3.46,0,0,1,356.76,236.05Z"/>
          <path id="Path_9231" data-name="Path 9231" d="M343.52,234.43c1.06-.61,1.91-.11,1.91,1.11a4.23,4.23,0,0,1-1.91,3.32c-1.06.61-1.92.11-1.92-1.11a4.25,4.25,0,0,1,1.92-3.32Z"/>
          <path id="Path_9232" data-name="Path 9232" d="M339.84,254.23c.66-.39,1.2-.08,1.2.69a2.68,2.68,0,0,1-1.2,2.09c-.67.38-1.21.07-1.21-.7a2.64,2.64,0,0,1,1.21-2.08Z"/>
          <path id="Path_9233" data-name="Path 9233" d="M349.78,254.25c1.37-.79,2.49-.15,2.49,1.44a5.5,5.5,0,0,1-2.49,4.31c-1.38.8-2.49.15-2.49-1.43a5.51,5.51,0,0,1,2.49-4.32Z"/>
          <path id="Path_9234" data-name="Path 9234" d="M392.2,131.72c1.45-.83,2.63-.16,2.63,1.52a5.83,5.83,0,0,1-2.63,4.56c-1.45.83-2.63.15-2.63-1.52a5.83,5.83,0,0,1,2.63-4.56Z"/>
          <path id="Path_9235" data-name="Path 9235" d="M375.46,136.72c.87-.5,1.57-.1,1.57.9a3.46,3.46,0,0,1-1.57,2.72c-.86.5-1.56.09-1.56-.91a3.46,3.46,0,0,1,1.56-2.71Z"/>
        </g>
      </g>
      <g id="freepik--points-1--inject-2">
        <path id="Path_9236" data-name="Path 9236" d="M328.54,134.45a.15.15,0,0,1-.11,0,.2.2,0,0,1-.07-.28l6.1-9.88a.207.207,0,0,1,.35.22l-6.1,9.88a.19.19,0,0,1-.17.06Z" fill="#e0e0e0"/>
        <path id="Path_9237" data-name="Path 9237" d="M334.63,146.42h0a.2.2,0,0,1-.17-.23l2.83-20.31a.22.22,0,0,1,.24-.18.2.2,0,0,1,.17.23l-2.83,20.32a.21.21,0,0,1-.24.17Z" fill="#e0e0e0"/>
        <path id="Path_9238" data-name="Path 9238" d="M326.59,162.94a.16.16,0,0,1-.09,0,.2.2,0,0,1-.09-.27l8-16.51a.2.2,0,0,1,.27-.1.22.22,0,0,1,.1.28l-8,16.51a.22.22,0,0,1-.19.09Z" fill="#e0e0e0"/>
        <path id="Path_9239" data-name="Path 9239" d="M317.67,156.22a.21.21,0,0,1-.11-.39l17-9.79a.206.206,0,1,1,.2.36l-17,9.79A.19.19,0,0,1,317.67,156.22Z" fill="#e0e0e0"/>
        <path id="Path_9240" data-name="Path 9240" d="M341.69,104.44h0a.45.45,0,0,1-.42-.49L344.41,63a.461.461,0,0,1,.92.07L342.15,104A.46.46,0,0,1,341.69,104.44Z" fill="#e0e0e0"/>
        <path id="Path_9241" data-name="Path 9241" d="M347.63,103a.45.45,0,0,1-.2,0,.46.46,0,0,1-.21-.61l30-61.39a.46.46,0,0,1,.82.4l-30,61.39a.45.45,0,0,1-.41.21Z" fill="#e0e0e0"/>
        <path id="Path_9242" data-name="Path 9242" d="M334.89,112.68a.42.42,0,0,1-.21-.06l-13-6.84a.46.46,0,0,1,.42-.81l13,6.84a.47.47,0,0,1,.2.62A.45.45,0,0,1,334.89,112.68Z" fill="#e0e0e0"/>
        <path id="Path_9243" data-name="Path 9243" d="M237.21,84a.45.45,0,0,1-.45-.36.46.46,0,0,1,.36-.54l54.93-10.92a.459.459,0,0,1,.18.9L237.29,84Z" fill="#e0e0e0"/>
        <path id="Path_9244" data-name="Path 9244" d="M297.33,111.13a.21.21,0,0,1-.19-.13.2.2,0,0,1,.12-.26l15.4-5.68a.2.2,0,1,1,.14.38l-15.4,5.68Z" fill="#e0e0e0"/>
        <path id="Path_9245" data-name="Path 9245" d="M316.28,99.48a.21.21,0,0,1-.17-.09l-8.1-12a.205.205,0,1,1,.34-.23l8.1,12a.21.21,0,0,1-.05.29.27.27,0,0,1-.12.03Z" fill="#e0e0e0"/>
        <path id="Path_9246" data-name="Path 9246" d="M309.58,126.35h-.07a.2.2,0,0,1-.12-.26L315,110.88a.207.207,0,1,1,.39.14l-5.58,15.19a.21.21,0,0,1-.23.14Z" fill="#e0e0e0"/>
        <path id="Path_9247" data-name="Path 9247" d="M293.83,108.07a.21.21,0,0,1-.2-.19l-1.7-35.28a.23.23,0,0,1,.2-.22h0a.2.2,0,0,1,.2.2l1.7,35.28a.2.2,0,0,1-.2.21Z" fill="#e0e0e0"/>
        <path id="Path_9248" data-name="Path 9248" d="M291.3,110.74a.19.19,0,0,1-.15-.07l-9-9.76a.21.21,0,0,1,.31-.28l9,9.77a.21.21,0,0,1,0,.29.24.24,0,0,1-.16.05Z" fill="#e0e0e0"/>
        <path id="Path_9249" data-name="Path 9249" d="M351.31,110.46a.46.46,0,0,1-.45-.41.45.45,0,0,1,.4-.5l23.92-2.72a.46.46,0,0,1,.51.4.48.48,0,0,1-.41.51l-23.91,2.72Z" fill="#e0e0e0"/>
        <path id="Path_9250" data-name="Path 9250" d="M382.24,99.74a.45.45,0,0,1-.42-.62L393.88,68.2a.462.462,0,0,1,.86.34L382.67,99.45A.46.46,0,0,1,382.24,99.74Z" fill="#e0e0e0"/>
        <path id="Path_9251" data-name="Path 9251" d="M420.92,66.52h-.05L402.06,61.7a.206.206,0,1,1,.1-.4L421,66.12a.2.2,0,0,1-.08.4Z" fill="#e0e0e0"/>
        <path id="Path_9252" data-name="Path 9252" d="M402.28,57.19a.19.19,0,0,1-.15-.07.21.21,0,0,1,0-.29l13.57-13a.2.2,0,1,1,.28.29l-13.57,13a.2.2,0,0,1-.13.07Z" fill="#e0e0e0"/>
        <path id="Path_9253" data-name="Path 9253" d="M292.18,69.6c1.42-.82,2.57-.15,2.57,1.48a5.68,5.68,0,0,1-2.57,4.45c-1.41.81-2.56.15-2.56-1.48a5.67,5.67,0,0,1,2.56-4.45Z" fill="#90caf9"/>
        <path id="Path_9254" data-name="Path 9254" d="M308.18,85.64c.77-.45,1.4-.09,1.4.81a3.09,3.09,0,0,1-1.4,2.42c-.77.45-1.4.09-1.4-.81a3.09,3.09,0,0,1,1.4-2.42Z" fill="#90caf9"/>
        <path id="Path_9255" data-name="Path 9255" d="M282.11,99.07c.77-.44,1.4-.08,1.4.81a3.12,3.12,0,0,1-1.4,2.43c-.77.44-1.4.08-1.4-.81a3.12,3.12,0,0,1,1.4-2.43Z" fill="#90caf9"/>
        <path id="Path_9256" data-name="Path 9256" d="M309.58,124.52c.77-.44,1.4-.08,1.4.81a3.12,3.12,0,0,1-1.4,2.43c-.77.44-1.4.08-1.4-.81a3.12,3.12,0,0,1,1.4-2.43Z" fill="#90caf9"/>
        <path id="Path_9257" data-name="Path 9257" d="M328.54,132.62c.77-.44,1.4-.08,1.4.81a3.12,3.12,0,0,1-1.4,2.43c-.77.44-1.4.08-1.4-.81a3.12,3.12,0,0,1,1.4-2.43Z" fill="#90caf9"/>
        <path id="Path_9258" data-name="Path 9258" d="M326.59,161.11c.78-.44,1.4-.08,1.4.81a3.1,3.1,0,0,1-1.4,2.43c-.77.44-1.4.08-1.4-.81a3.12,3.12,0,0,1,1.4-2.43Z" fill="#90caf9"/>
        <path id="Path_9259" data-name="Path 9259" d="M334.63,143.77c1.17-.68,2.12-.13,2.12,1.22a4.7,4.7,0,0,1-2.12,3.68c-1.17.67-2.12.12-2.12-1.23a4.69,4.69,0,0,1,2.12-3.67Z" fill="#90caf9"/>
        <path id="Path_9260" data-name="Path 9260" d="M317.67,153.57c1.17-.68,2.12-.13,2.12,1.22a4.69,4.69,0,0,1-2.12,3.67c-1.17.68-2.12.13-2.12-1.22A4.66,4.66,0,0,1,317.67,153.57Z" fill="#90caf9"/>
        <path id="Path_9261" data-name="Path 9261" d="M415.85,41.57c1.17-.68,2.12-.13,2.12,1.22a4.68,4.68,0,0,1-2.12,3.67c-1.17.68-2.12.13-2.12-1.22a4.68,4.68,0,0,1,2.12-3.67Z" fill="#90caf9"/>
        <path id="Path_9262" data-name="Path 9262" d="M338.18,126.76a5.49,5.49,0,0,1-2.78-.72c-2-1.14-3.07-3.48-3.07-6.59,0-6.06,4.27-13.46,9.52-16.48h0c2.69-1.56,5.26-1.79,7.24-.64s3.07,3.48,3.07,6.59c0,6.06-4.26,13.45-9.51,16.48a9,9,0,0,1-4.47,1.36Zm4.47-22.4c-4.8,2.77-8.71,9.54-8.71,15.09,0,2.51.8,4.36,2.27,5.2s3.46.62,5.64-.64c4.8-2.77,8.71-9.54,8.71-15.09,0-2.51-.81-4.36-2.27-5.2S344.82,103.1,342.65,104.36Z" fill="#e0e0e0"/>
        <path id="Path_9263" data-name="Path 9263" d="M342.25,108c3-1.71,5.38-.32,5.38,3.11a11.91,11.91,0,0,1-5.38,9.32c-3,1.71-5.38.32-5.38-3.11A11.91,11.91,0,0,1,342.25,108Z" fill="#90caf9"/>
        <path id="Path_9264" data-name="Path 9264" d="M379.3,42a4.37,4.37,0,0,1-2.23-.58c-1.6-.92-2.49-2.83-2.49-5.38,0-5,3.56-11.21,7.93-13.74h0c2.21-1.27,4.31-1.46,5.91-.54s2.48,2.84,2.48,5.39c0,5.05-3.55,11.21-7.93,13.73A7.35,7.35,0,0,1,379.3,42ZM383,23.11a16.53,16.53,0,0,0-7.47,12.94c0,2.21.72,3.84,2,4.59s3.08.56,5-.54A16.52,16.52,0,0,0,390,27.16c0-2.21-.72-3.84-2-4.59S384.92,22,383,23.11Z" fill="#e0e0e0"/>
        <path id="Path_9265" data-name="Path 9265" d="M382.74,26.35c2.52-1.45,4.55-.27,4.55,2.63a10,10,0,0,1-4.55,7.87c-2.51,1.45-4.54.28-4.54-2.62a10.05,10.05,0,0,1,4.54-7.88Z" fill="#90caf9"/>
        <path id="Path_9266" data-name="Path 9266" d="M343.36,63.81a3.09,3.09,0,0,1-1.59-.41A4.08,4.08,0,0,1,340,59.65a12,12,0,0,1,5.42-9.39h0a3.61,3.61,0,0,1,5.88,3.39A12,12,0,0,1,345.9,63a5.08,5.08,0,0,1-2.54.81ZM348,50.4a4.24,4.24,0,0,0-2.08.65h0a11,11,0,0,0-5,8.6,2.72,2.72,0,0,0,4.51,2.6,11,11,0,0,0,5-8.6,3.22,3.22,0,0,0-1.29-3A2.24,2.24,0,0,0,348,50.4Zm-2.31.25Z" fill="#e0e0e0"/>
        <path id="Path_9267" data-name="Path 9267" d="M345.68,53.11c1.69-1,3.06-.19,3.06,1.77a6.79,6.79,0,0,1-3.06,5.31c-1.7,1-3.07.18-3.07-1.77a6.76,6.76,0,0,1,3.07-5.31Z" fill="#90caf9"/>
        <path id="Path_9268" data-name="Path 9268" d="M377.92,113.14a3.19,3.19,0,0,1-1.59-.41,4.1,4.1,0,0,1-1.75-3.76A12,12,0,0,1,380,99.58h0a3.61,3.61,0,0,1,5.88,3.4,12,12,0,0,1-5.42,9.39,5.18,5.18,0,0,1-2.54.77Zm2.54-12.76a11,11,0,0,0-5,8.59,2.72,2.72,0,0,0,4.51,2.6,11,11,0,0,0,5-8.59,2.72,2.72,0,0,0-4.51-2.6Z" fill="#e0e0e0"/>
        <path id="Path_9269" data-name="Path 9269" d="M380.23,102.44c1.7-1,3.07-.19,3.07,1.76a6.74,6.74,0,0,1-3.07,5.31c-1.69,1-3.06.19-3.06-1.77a6.76,6.76,0,0,1,3.06-5.3Z" fill="#90caf9"/>
        <path id="Path_9270" data-name="Path 9270" d="M395.06,68.93a3,3,0,0,1-1.58-.41,4.06,4.06,0,0,1-1.75-3.75,12,12,0,0,1,5.42-9.39h0A3.61,3.61,0,0,1,403,58.77a12,12,0,0,1-5.43,9.39A5.18,5.18,0,0,1,395.06,68.93Zm2.55-12.76a11,11,0,0,0-5,8.6,2.72,2.72,0,0,0,4.51,2.6,11,11,0,0,0,5-8.6,2.72,2.72,0,0,0-4.5-2.6Z" fill="#e0e0e0"/>
        <path id="Path_9271" data-name="Path 9271" d="M397.38,58.23c1.69-1,3.06-.19,3.06,1.77a6.79,6.79,0,0,1-3.06,5.31c-1.7,1-3.07.18-3.07-1.77a6.76,6.76,0,0,1,3.07-5.31Z" fill="#90caf9"/>
        <path id="Path_9272" data-name="Path 9272" d="M315.35,111.41a3.12,3.12,0,0,1-1.58-.4,4.09,4.09,0,0,1-1.75-3.76,12,12,0,0,1,5.42-9.39h0a3.61,3.61,0,0,1,5.88,3.39,12,12,0,0,1-5.42,9.39A5.11,5.11,0,0,1,315.35,111.41Zm2.55-12.76a11,11,0,0,0-5,8.6,2.72,2.72,0,0,0,4.51,2.6,11,11,0,0,0,5-8.6,2.72,2.72,0,0,0-4.5-2.6Z" fill="#e0e0e0"/>
        <path id="Path_9273" data-name="Path 9273" d="M317.67,100.71c1.69-1,3.06-.18,3.06,1.77a6.79,6.79,0,0,1-3.06,5.31c-1.7,1-3.07.18-3.07-1.77A6.76,6.76,0,0,1,317.67,100.71Z" fill="#90caf9"/>
        <path id="Path_9274" data-name="Path 9274" d="M292.23,117a2.21,2.21,0,0,1-1.09-.28,2.83,2.83,0,0,1-1.21-2.6,8.31,8.31,0,0,1,3.75-6.5h0a2.5,2.5,0,0,1,4.06,2.35,8.28,8.28,0,0,1-3.75,6.49,3.51,3.51,0,0,1-1.76.54Zm3.21-9.28a3,3,0,0,0-1.45.45h0a7.6,7.6,0,0,0-3.43,6,1.88,1.88,0,0,0,3.12,1.8,7.62,7.62,0,0,0,3.43-6,2.22,2.22,0,0,0-.9-2,1.52,1.52,0,0,0-.77-.28Zm-1.61.18Z" fill="#e0e0e0"/>
        <path id="Path_9275" data-name="Path 9275" d="M293.83,109.57c1.17-.68,2.12-.13,2.12,1.22a4.68,4.68,0,0,1-2.12,3.67c-1.17.68-2.12.13-2.12-1.22a4.68,4.68,0,0,1,2.12-3.67Z" fill="#90caf9"/>
        <path id="Path_9276" data-name="Path 9276" d="M422.21,72.05a2.14,2.14,0,0,1-1.09-.29,2.82,2.82,0,0,1-1.21-2.6,8.31,8.31,0,0,1,3.75-6.49h0A2.5,2.5,0,0,1,427.72,65,8.28,8.28,0,0,1,424,71.51a3.51,3.51,0,0,1-1.79.54ZM424,63.22a7.6,7.6,0,0,0-3.43,5.94,2.24,2.24,0,0,0,.89,2,2.21,2.21,0,0,0,2.23-.25,7.6,7.6,0,0,0,3.4-5.91,1.88,1.88,0,0,0-3.12-1.8Z" fill="#e0e0e0"/>
        <path id="Path_9277" data-name="Path 9277" d="M423.82,64.64c1.17-.67,2.11-.12,2.11,1.23a4.68,4.68,0,0,1-2.11,3.67c-1.18.67-2.12.13-2.12-1.22a4.67,4.67,0,0,1,2.12-3.68Z" fill="#90caf9"/>
      </g>
      <g id="freepik--text-box--inject-2">
        <path id="Path_9278" data-name="Path 9278" d="M407.94,120.47a1.51,1.51,0,0,1-.77-.21,1.92,1.92,0,0,1-.84-1.77V104.38a5.25,5.25,0,0,1,2.41-4.18L429.3,88.33a1.73,1.73,0,0,1,2.8,1.61v14.12a5.27,5.27,0,0,1-2.41,4.18l-20.56,11.87A2.36,2.36,0,0,1,407.94,120.47Zm22.55-31.73a1.71,1.71,0,0,0-.8.25l-20.56,11.87h0a4.58,4.58,0,0,0-2,3.52v14.11a1,1,0,0,0,1.64,1l20.56-11.87a4.54,4.54,0,0,0,2-3.51V89.94a1.19,1.19,0,0,0-.46-1.1.7.7,0,0,0-.38-.1Zm-21.55,11.79Z" fill="#90caf9"/>
        <path id="Path_9279" data-name="Path 9279" d="M410.88,105.63a.39.39,0,0,1-.19-.72l16.67-9.62a.381.381,0,1,1,.38.66l-16.67,9.63a.41.41,0,0,1-.19.05Z" fill="#90caf9"/>
        <path id="Path_9280" data-name="Path 9280" d="M410.88,109.55a.39.39,0,0,1-.19-.72l16.67-9.62a.381.381,0,1,1,.38.66l-16.67,9.62a.33.33,0,0,1-.19.06Z" fill="#90caf9"/>
        <path id="Path_9281" data-name="Path 9281" d="M410.88,113.46a.39.39,0,0,1-.33-.19.38.38,0,0,1,.14-.52l16.67-9.63a.39.39,0,0,1,.52.14.38.38,0,0,1-.14.53l-16.67,9.62a.32.32,0,0,1-.19.05Z" fill="#90caf9"/>
        <path id="Path_9282" data-name="Path 9282" d="M438.3,224a1.61,1.61,0,0,1-.77-.2,1.92,1.92,0,0,1-.84-1.77V208a5.27,5.27,0,0,1,2.41-4.18h0l20.56-11.87a1.73,1.73,0,0,1,2.8,1.62v14.12a5.25,5.25,0,0,1-2.41,4.17l-20.56,11.87A2.39,2.39,0,0,1,438.3,224Zm1.19-19.6a4.54,4.54,0,0,0-2,3.51v14.12a1,1,0,0,0,1.64,1l20.56-11.87a4.56,4.56,0,0,0,2-3.51V193.52a1,1,0,0,0-1.64-1Z" fill="#90caf9"/>
        <path id="Path_9283" data-name="Path 9283" d="M441.24,209.2a.378.378,0,0,1-.19-.71l16.67-9.63a.38.38,0,0,1,.52.15.37.37,0,0,1-.14.52l-16.67,9.62A.32.32,0,0,1,441.24,209.2Z" fill="#90caf9"/>
        <path id="Path_9284" data-name="Path 9284" d="M441.24,213.12a.39.39,0,0,1-.19-.72l16.67-9.62a.39.39,0,0,1,.52.14.38.38,0,0,1-.14.53l-16.67,9.62a.32.32,0,0,1-.19.05Z" fill="#90caf9"/>
        <path id="Path_9285" data-name="Path 9285" d="M441.24,217a.39.39,0,0,1-.33-.19.38.38,0,0,1,.14-.53l16.67-9.62a.37.37,0,0,1,.52.14.38.38,0,0,1-.14.53L441.43,217a.41.41,0,0,1-.19,0Z" fill="#90caf9"/>
        <path id="Path_9286" data-name="Path 9286" d="M395.47,367.1a1.46,1.46,0,0,1-.77-.21,1.92,1.92,0,0,1-.84-1.77V351a5.27,5.27,0,0,1,2.41-4.18h0L416.83,335a1.73,1.73,0,0,1,2.8,1.61v14.12a5.25,5.25,0,0,1-2.42,4.18l-20.55,11.87A2.39,2.39,0,0,1,395.47,367.1Zm1.19-19.61a4.58,4.58,0,0,0-2,3.52v14.11a1,1,0,0,0,1.64.95l20.56-11.87a4.54,4.54,0,0,0,2-3.51V336.57a1.19,1.19,0,0,0-.46-1.1,1.21,1.21,0,0,0-1.19.15Z" fill="#90caf9"/>
        <path id="Path_9287" data-name="Path 9287" d="M398.41,352.26a.39.39,0,0,1-.33-.19.38.38,0,0,1,.14-.53l16.66-9.62a.39.39,0,0,1,.39.67l-16.67,9.62a.45.45,0,0,1-.19.05Z" fill="#90caf9"/>
        <path id="Path_9288" data-name="Path 9288" d="M398.41,356.18a.38.38,0,0,1-.33-.2.37.37,0,0,1,.14-.52l16.66-9.62a.383.383,0,1,1,.39.66l-16.67,9.63a.45.45,0,0,1-.19.05Z" fill="#90caf9"/>
        <path id="Path_9289" data-name="Path 9289" d="M398.41,360.09a.39.39,0,0,1-.33-.19.37.37,0,0,1,.14-.52l16.66-9.63a.4.4,0,0,1,.53.14.39.39,0,0,1-.14.53L398.6,360A.34.34,0,0,1,398.41,360.09Z" fill="#90caf9"/>
        <path id="Path_9290" data-name="Path 9290" d="M222.78,442.74a1.549,1.549,0,0,1-.77-.2,1.92,1.92,0,0,1-.84-1.77V426.65a5.27,5.27,0,0,1,2.41-4.18l20.56-11.87a1.73,1.73,0,0,1,2.8,1.62v14.11a5.25,5.25,0,0,1-2.41,4.18L224,442.38A2.39,2.39,0,0,1,222.78,442.74ZM245.32,411a1.6,1.6,0,0,0-.79.25L224,423.14h0a4.54,4.54,0,0,0-2,3.51v14.12a1.19,1.19,0,0,0,.46,1.1,1.17,1.17,0,0,0,1.18-.15l20.56-11.87a4.58,4.58,0,0,0,2-3.52V412.22a1.21,1.21,0,0,0-.46-1.11.8.8,0,0,0-.42-.11Zm-21.54,11.79Z" fill="#90caf9"/>
        <path id="Path_9291" data-name="Path 9291" d="M225.72,427.9a.39.39,0,0,1-.33-.19.37.37,0,0,1,.14-.52l16.67-9.63a.39.39,0,0,1,.38.67l-16.67,9.62a.32.32,0,0,1-.19.05Z" fill="#90caf9"/>
        <path id="Path_9292" data-name="Path 9292" d="M225.72,431.82a.39.39,0,0,1-.33-.19.38.38,0,0,1,.14-.53l16.67-9.62a.39.39,0,0,1,.38.67l-16.67,9.62a.409.409,0,0,1-.19.05Z" fill="#90caf9"/>
        <path id="Path_9293" data-name="Path 9293" d="M225.72,435.74a.39.39,0,0,1-.33-.19.38.38,0,0,1,.14-.53l16.67-9.62a.37.37,0,0,1,.52.14.38.38,0,0,1-.14.52l-16.67,9.63a.41.41,0,0,1-.19.05Z" fill="#90caf9"/>
        <path id="Path_9294" data-name="Path 9294" d="M322.06,201.31a1.45,1.45,0,0,1-.77-.2,1.92,1.92,0,0,1-.84-1.77V185.22a5.28,5.28,0,0,1,2.41-4.18h0l20.56-11.86a1.73,1.73,0,0,1,2.8,1.61v14.12a5.25,5.25,0,0,1-2.42,4.18L323.24,201a2.44,2.44,0,0,1-1.18.31Zm1.18-19.6a4.57,4.57,0,0,0-2,3.51v14.12a1,1,0,0,0,1.64.95l20.56-11.87a4.54,4.54,0,0,0,2-3.51V170.79a1,1,0,0,0-1.65-.95Z" fill="#90caf9"/>
        <path id="Path_9295" data-name="Path 9295" d="M325,186.48a.4.4,0,0,1-.34-.2.38.38,0,0,1,.15-.52l16.66-9.62a.383.383,0,0,1,.39.66l-16.67,9.63a.45.45,0,0,1-.19.05Z" fill="#90caf9"/>
        <path id="Path_9296" data-name="Path 9296" d="M325,190.39a.42.42,0,0,1-.34-.19.38.38,0,0,1,.15-.52l16.66-9.63a.39.39,0,1,1,.39.67l-16.67,9.62a.34.34,0,0,1-.19.05Z" fill="#90caf9"/>
        <path id="Path_9297" data-name="Path 9297" d="M325,194.31a.42.42,0,0,1-.34-.19.4.4,0,0,1,.15-.53L341.47,184a.39.39,0,0,1,.39.67l-16.67,9.62A.45.45,0,0,1,325,194.31Z" fill="#90caf9"/>
      </g>
      <g id="freepik--Point--inject-2">
        <path id="Path_9298" data-name="Path 9298" d="M228.19,95a3.66,3.66,0,0,1-1.88-.49c-1.35-.77-2.09-2.37-2.09-4.49a14.42,14.42,0,0,1,6.51-11.27c1.83-1.05,3.58-1.21,4.93-.43s2.09,2.37,2.09,4.49a14.4,14.4,0,0,1-6.51,11.27A6.2,6.2,0,0,1,228.19,95Zm5.58-16.14a5.21,5.21,0,0,0-2.53.78,13.29,13.29,0,0,0-6,10.38c0,1.74.56,3,1.57,3.61s2.4.43,3.91-.44a13.29,13.29,0,0,0,6-10.38c0-1.74-.56-3-1.57-3.6a2.67,2.67,0,0,0-1.38-.34Z" fill="#e0e0e0"/>
        <path id="Path_9299" data-name="Path 9299" d="M231,82.17c2-1.18,3.69-.23,3.69,2.13A8.16,8.16,0,0,1,231,90.69c-2,1.17-3.69.22-3.69-2.13A8.15,8.15,0,0,1,231,82.17Z" fill="#90caf9"/>
        <path id="Path_9300" data-name="Path 9300" d="M215.15,74.38a1.45,1.45,0,0,1-.77-.2,1.9,1.9,0,0,1-.83-1.74V54.22a5.1,5.1,0,0,1,2.35-4.06l29.15-16.84a1.94,1.94,0,0,1,1.93-.15,1.9,1.9,0,0,1,.83,1.74V53.14a5.1,5.1,0,0,1-2.35,4.06L235.53,63l-2.92,9.93a1,1,0,0,1-1.86.11l-2.53-5.82L216.31,74a2.41,2.41,0,0,1-1.16.38ZM245.46,34,216.31,50.87a4.34,4.34,0,0,0-1.94,3.35V72.44a1.13,1.13,0,0,0,.43,1,1.15,1.15,0,0,0,1.1-.15L228.61,66l2.89,6.66a.17.17,0,0,0,.17.11.18.18,0,0,0,.15-.13l3-10.23,10.22-5.93A4.35,4.35,0,0,0,247,53.14V34.91a.9.9,0,0,0-1.52-.87Z" fill="#90caf9"/>
        <path id="Path_9301" data-name="Path 9301" d="M220.65,56a.43.43,0,0,1-.36-.21.42.42,0,0,1,.15-.56L240.5,43.65a.41.41,0,1,1,.41.71l-20,11.58a.42.42,0,0,1-.26.06Z" fill="#90caf9"/>
        <path id="Path_9302" data-name="Path 9302" d="M220.65,59.88a.41.41,0,0,1-.36-.21.42.42,0,0,1,.15-.56L240.5,47.53a.42.42,0,0,1,.57.15.41.41,0,0,1-.16.56l-20,11.59A.54.54,0,0,1,220.65,59.88Z" fill="#90caf9"/>
        <path id="Path_9303" data-name="Path 9303" d="M220.65,63.76a.406.406,0,0,1-.21-.76L240.5,51.42a.41.41,0,1,1,.41.71l-20,11.58a.41.41,0,0,1-.26.05Z" fill="#90caf9"/>
      </g>
    </g>
    <g id="freepik--screen-2--inject-12">
      <g id="freepik--screen-1--inject-12">
        <g id="freepik--screen-1--inject-12-2" data-name="freepik--screen-1--inject-12">
          <path id="Path_8743" data-name="Path 8743" d="M410.81,72.64A2.8,2.8,0,0,0,409.59,70h0l-3.15-1.79h0a2.79,2.79,0,0,0-2.88.25L239.65,163.1a8.88,8.88,0,0,0-4,7V362a2.81,2.81,0,0,0,1.2,2.61h0l3.22,1.84h0a2.84,2.84,0,0,0,2.85-.28l163.9-94.63a8.86,8.86,0,0,0,4-7Z" fill="#90caf9" opacity="0.1"/>
          <path id="Path_8744" data-name="Path 8744" d="M406.79,70.32,242.9,165a8.88,8.88,0,0,0-4,7V364c0,2.56,1.8,3.6,4,2.32l163.9-94.63a8.86,8.86,0,0,0,4-7v-192C410.81,70.08,409,69,406.79,70.32Z" fill="#90caf9" opacity="0.1"/>
          <path id="Path_8745" data-name="Path 8745" d="M410.81,72.64v192a8.89,8.89,0,0,1-4,7L242.9,366.2c-2,1.13-3.61.45-4-1.51a4.152,4.152,0,0,0,.71-.34l163.91-94.62a8.92,8.92,0,0,0,4-7v-192a4.142,4.142,0,0,0-.07-.81C409.38,69.29,410.81,70.36,410.81,72.64Z" fill="#90caf9" opacity="0.15"/>
          <path id="Path_8746" data-name="Path 8746" d="M406.79,70.32,364.83,95l-42.06,24.56L280.64,144l-21.06,12.21L249,162.28l-5.27,3a7.81,7.81,0,0,0-3.6,4.13,6.57,6.57,0,0,0-.54,2.69v45.65l-.14,48.7-.2,48.69-.33,48.7-.33-48.7-.21-48.69-.14-48.7V172.1a8.14,8.14,0,0,1,.63-3.24,10.45,10.45,0,0,1,1.67-2.8,10,10,0,0,1,1.18-1.17A10.679,10.679,0,0,1,243,164l5.27-3.05,10.53-6.1,21.11-12.14,42.21-24.28,42.3-24.14Z" fill="#fff"/>
        </g>
        <g id="freepik--chart--inject-12">
          <path id="Path_8747" data-name="Path 8747" d="M257,178l75.69-43.7c1.18-.67,2.13-.12,2.13,1.24v64.31a4.7,4.7,0,0,1-2.13,3.69L257,247.26c-1.18.68-2.13.13-2.13-1.23V181.71A4.71,4.71,0,0,1,257,178Z" fill="#fafafa"/>
          <path id="Path_8748" data-name="Path 8748" d="M264,231.71v1a4.479,4.479,0,0,1-.07.64,2.171,2.171,0,0,1-.17.58,1.71,1.71,0,0,1-.3.5,1.65,1.65,0,0,1-.45.37.79.79,0,0,1-.45.15.42.42,0,0,1-.3-.15.88.88,0,0,1-.17-.39,2.369,2.369,0,0,1-.06-.57q0-.21,0-.48v-.49a3.484,3.484,0,0,1,.06-.65,2.7,2.7,0,0,1,.17-.59,1.8,1.8,0,0,1,.3-.5,1.55,1.55,0,0,1,.45-.39.85.85,0,0,1,.45-.14.34.34,0,0,1,.3.15.79.79,0,0,1,.17.38A3.17,3.17,0,0,1,264,231.71Zm-1.48,1.83a1.07,1.07,0,0,0,.13.56c.07.1.19.11.36,0a.91.91,0,0,0,.37-.43,2.389,2.389,0,0,0,.12-.71v-.94a1.16,1.16,0,0,0-.12-.56c-.08-.11-.2-.11-.37,0a.8.8,0,0,0-.36.43,2,2,0,0,0-.13.7v.95Z" fill="#455a64"/>
          <path id="Path_8749" data-name="Path 8749" d="M269.51,230a.51.51,0,0,1-.43-.24.5.5,0,0,1,.18-.68l57.21-33a.5.5,0,0,1,.5.86l-57.22,33A.5.5,0,0,1,269.51,230Z" fill="#e0e0e0"/>
          <path id="Path_8750" data-name="Path 8750" d="M261.07,217.39a.3.3,0,0,1,0-.1.5.5,0,0,1,0-.13l.8-1.42.06-.1a.22.22,0,0,1,.06-.07l.29-.17a.06.06,0,0,1,.07,0,.12.12,0,0,1,0,.09v3.64a.35.35,0,0,1,0,.13.081.081,0,0,1-.07.08l-.3.17h-.07a.12.12,0,0,1,0-.09v-2.79l-.52.93a.12.12,0,0,1-.07.07.07.07,0,0,1-.07,0Z" fill="#455a64"/>
          <path id="Path_8751" data-name="Path 8751" d="M264.83,215.41v1.01a2.831,2.831,0,0,1-.06.64,3.283,3.283,0,0,1-.17.58,2.29,2.29,0,0,1-.3.5,1.62,1.62,0,0,1-.45.37.84.84,0,0,1-.46.15.44.44,0,0,1-.3-.15,1,1,0,0,1-.17-.39,4.18,4.18,0,0,1-.06-.56v-.98a2.654,2.654,0,0,1,.06-.65,3.389,3.389,0,0,1,.17-.59,2.289,2.289,0,0,1,.3-.5,1.609,1.609,0,0,1,.46-.39.82.82,0,0,1,.45-.14.4.4,0,0,1,.3.15,1,1,0,0,1,.17.39,4.18,4.18,0,0,1,.06.56Zm-1.47,1.83a1.19,1.19,0,0,0,.12.56c.07.1.19.11.37,0a.8.8,0,0,0,.36-.43,2.65,2.65,0,0,0,.13-.71v-.94a1.271,1.271,0,0,0-.13-.56q-.1-.165-.36,0a.78.78,0,0,0-.37.43,2.321,2.321,0,0,0-.12.7q0,.225,0,.48C263.36,216.94,263.35,217.1,263.36,217.24Z" fill="#455a64"/>
          <path id="Path_8752" data-name="Path 8752" d="M269.51,214.19a.49.49,0,0,1-.25-.92l57.21-33a.49.49,0,0,1,.68.18.5.5,0,0,1-.18.67l-57.22,33a.42.42,0,0,1-.24.07Z" fill="#e0e0e0"/>
          <path id="Path_8753" data-name="Path 8753" d="M262.05,201.47a1.339,1.339,0,0,0,.14-.35,1.58,1.58,0,0,0,0-.28.51.51,0,0,0-.09-.34c-.06-.07-.17-.07-.31,0a.72.72,0,0,0-.29.33,1.908,1.908,0,0,0-.14.46.29.29,0,0,1,0,.14.14.14,0,0,1-.06.07l-.29.17a.06.06,0,0,1-.08,0s0-.05,0-.1a1.929,1.929,0,0,1,.08-.52,2.251,2.251,0,0,1,.2-.51,2.282,2.282,0,0,1,.28-.43,1.29,1.29,0,0,1,.36-.31.61.61,0,0,1,.4-.11.4.4,0,0,1,.28.14.75.75,0,0,1,.16.31,1.361,1.361,0,0,1,0,.41,2.43,2.43,0,0,1,0,.27,1,1,0,0,1-.05.29,1.916,1.916,0,0,1-.12.33c0,.12-.12.26-.2.41l-.68,1.35,1-.59h.07v.49a.27.27,0,0,1,0,.12.081.081,0,0,1-.07.08l-1.71,1h-.07a.12.12,0,0,1,0-.09v-.35a.39.39,0,0,1,0-.18.481.481,0,0,1,.06-.14Z" fill="#455a64"/>
          <path id="Path_8754" data-name="Path 8754" d="M265.12,199.44v1a4.321,4.321,0,0,1-.07.64,2.36,2.36,0,0,1-.17.59,1.661,1.661,0,0,1-.3.49,1.68,1.68,0,0,1-.45.38.85.85,0,0,1-.45.14.37.37,0,0,1-.3-.15.79.79,0,0,1-.17-.38,2.488,2.488,0,0,1-.06-.57c0-.14,0-.3,0-.49v-.49a3.49,3.49,0,0,1,.06-.65,2.36,2.36,0,0,1,.17-.59,2.292,2.292,0,0,1,.3-.5,1.521,1.521,0,0,1,.45-.38.88.88,0,0,1,.45-.15.4.4,0,0,1,.3.15.78.78,0,0,1,.17.39,3,3,0,0,1,.07.57Zm-1.48,1.82a1,1,0,0,0,.13.56q.105.165.36,0a.87.87,0,0,0,.37-.43,2.259,2.259,0,0,0,.12-.7v-.95a1.19,1.19,0,0,0-.12-.56c-.08-.1-.2-.11-.37,0a.84.84,0,0,0-.36.43,2.09,2.09,0,0,0-.13.71v.47c0,.17,0,.33,0,.47Z" fill="#455a64"/>
          <path id="Path_8755" data-name="Path 8755" d="M269.51,198.37a.49.49,0,0,1-.25-.91l57.21-33a.5.5,0,0,1,.5.86l-57.22,33a.5.5,0,0,1-.24.05Z" fill="#e0e0e0"/>
          <path id="Path_8756" data-name="Path 8756" d="M262.6,183.6a.06.06,0,0,1,.07,0,.12.12,0,0,1,0,.09v.4a.679.679,0,0,1,0,.14l-.06.12-.53,1.18a.68.68,0,0,1,.3-.05.4.4,0,0,1,.23.1.54.54,0,0,1,.14.26,1.24,1.24,0,0,1,.05.41,2.1,2.1,0,0,1-.07.56,2.28,2.28,0,0,1-.21.51,1.9,1.9,0,0,1-.31.42,1.66,1.66,0,0,1-.4.31,1.12,1.12,0,0,1-.44.17.54.54,0,0,1-.32-.06.46.46,0,0,1-.19-.22,1.159,1.159,0,0,1-.08-.32.279.279,0,0,1,0-.13.19.19,0,0,1,.07-.08l.29-.17h.06a.28.28,0,0,1,.05.08.1.1,0,0,0,.06.09.16.16,0,0,0,.1.05.27.27,0,0,0,.15,0l.22-.1a1,1,0,0,0,.36-.35.86.86,0,0,0,.14-.47c0-.17-.05-.26-.14-.28a.52.52,0,0,0-.36.1l-.3.17h-.07a.12.12,0,0,1,0-.09V186a.35.35,0,0,1,0-.14.61.61,0,0,1,.05-.12l.51-1.12-1,.58a.06.06,0,0,1-.07,0v-.49a.27.27,0,0,1,0-.12.22.22,0,0,1,.07-.09Z" fill="#455a64"/>
          <path id="Path_8757" data-name="Path 8757" d="M265.16,183.6v1a4.321,4.321,0,0,1-.07.64,2.849,2.849,0,0,1-.16.59,1.931,1.931,0,0,1-.31.49,1.681,1.681,0,0,1-.45.38.85.85,0,0,1-.45.14.37.37,0,0,1-.3-.15.89.89,0,0,1-.17-.38,3.221,3.221,0,0,1-.06-.57v-.98a4.617,4.617,0,0,1,.06-.65,2.867,2.867,0,0,1,.17-.59,2.29,2.29,0,0,1,.3-.5,1.52,1.52,0,0,1,.45-.38.88.88,0,0,1,.45-.15.44.44,0,0,1,.31.15.88.88,0,0,1,.16.39,3,3,0,0,1,.07.57Zm-1.48,1.82a1.14,1.14,0,0,0,.13.56q.105.165.36,0a.82.82,0,0,0,.37-.43,2.259,2.259,0,0,0,.12-.7v-.95a1.19,1.19,0,0,0-.12-.56c-.07-.1-.2-.11-.37,0a.84.84,0,0,0-.36.43,2.369,2.369,0,0,0-.13.71v.94Z" fill="#455a64"/>
          <path id="Path_8758" data-name="Path 8758" d="M269.51,182.56a.49.49,0,0,1-.25-.92l57.21-33a.493.493,0,1,1,.5.85l-57.22,33a.42.42,0,0,1-.24.07Z" fill="#e0e0e0"/>
          <path id="Path_8759" data-name="Path 8759" d="M269.51,229.51v-45s5.7-4,9.85,9.22,12.7,7.92,18.37-1.64,8.22-19.19,14.32-22.71,10.53,8.84,14.67,6.45v20.69Z" fill="#90caf9"/>
          <path id="Path_8760" data-name="Path 8760" d="M269.51,229.51v-45s5.7-4,9.85,9.22,12.7,7.92,18.37-1.64,8.22-19.19,14.32-22.71,10.53,8.84,14.67,6.45v20.69Z" opacity="0.2"/>
          <path id="Path_8761" data-name="Path 8761" d="M269.51,222.68s3-14.65,5.86-16.29c3.67-2.12,4.15,11.13,10.5,7.47s8-36.3,14.48-40.06,7.53,14.61,12.33,11.84,5.91-13.1,14-17.79v28.63l-57.21,33Z" fill="#90caf9"/>
          <path id="Path_8762" data-name="Path 8762" d="M321.11,173.12c-3.48,4.85-5,10.56-8.43,12.52-3,1.74-4.55-4.92-6.9-9.13-2.49,4.38-4.73,9.94-8,15.54a27.78,27.78,0,0,1-5.91,7.25c-1.64,7-3.42,13.09-5.95,14.56-6.35,3.66-6.83-9.59-10.49-7.47-2.85,1.64-5.87,16.29-5.87,16.29v6.83l57.21-33V175.79C324.94,176.82,323.1,175.11,321.11,173.12Z" opacity="0.1"/>
        </g>
        <g id="freepik--chart--inject-12-2" data-name="freepik--chart--inject-12">
          <path id="Path_8763" data-name="Path 8763" d="M257,270.37l75.69-43.7c1.18-.68,2.13-.13,2.13,1.23v64.32a4.7,4.7,0,0,1-2.13,3.69L257,339.61c-1.18.68-2.13.13-2.13-1.23V274.06a4.7,4.7,0,0,1,2.13-3.69Z" fill="#fafafa"/>
          <path id="Path_8764" data-name="Path 8764" d="M267.32,322.52l-4.2,2.42V277.99l4.2-2.42Z" fill="#e0e0e0"/>
          <path id="Path_8765" data-name="Path 8765" d="M274.73,318.24l-4.2,2.42V273.71l4.2-2.42Z" fill="#e0e0e0"/>
          <path id="Path_8766" data-name="Path 8766" d="M282.14,313.96l-4.2,2.42V269.44l4.2-2.43Z" fill="#e0e0e0"/>
          <path id="Path_8767" data-name="Path 8767" d="M289.55,309.68l-4.2,2.43V265.16l4.2-2.43Z" fill="#e0e0e0"/>
          <path id="Path_8768" data-name="Path 8768" d="M296.96,305.4l-4.2,2.43V260.88l4.2-2.43Z" fill="#e0e0e0"/>
          <path id="Path_8769" data-name="Path 8769" d="M304.37,301.12l-4.19,2.43V256.6l4.19-2.42Z" fill="#e0e0e0"/>
          <path id="Path_8770" data-name="Path 8770" d="M300.18,256.6l4.19-2.42V275.6l-4.19,2.43Z" fill="#90caf9"/>
          <path id="Path_8771" data-name="Path 8771" d="M311.79,296.85l-4.2,2.42V252.32l4.2-2.42Z" fill="#e0e0e0"/>
          <path id="Path_8772" data-name="Path 8772" d="M319.2,292.57l-4.2,2.42V248.04l4.2-2.42Z" fill="#e0e0e0"/>
          <path id="Path_8773" data-name="Path 8773" d="M326.61,288.29l-4.2,2.42V243.76l4.2-2.42Z" fill="#e0e0e0"/>
          <path id="Path_8774" data-name="Path 8774" d="M263.12,288.24l4.2-2.42v26.21l-4.2,2.43Z" fill="#90caf9"/>
          <path id="Path_8775" data-name="Path 8775" d="M263.12,314.46l4.2-2.43v10.49l-4.2,2.42Z" opacity="0.15"/>
          <path id="Path_8776" data-name="Path 8776" d="M270.53,289.92l4.2-2.42v9.44l-4.2,2.42Z" fill="#90caf9"/>
          <path id="Path_8777" data-name="Path 8777" d="M270.53,299.36l4.2-2.42v21.3l-4.2,2.42Z" opacity="0.15"/>
          <path id="Path_8778" data-name="Path 8778" d="M277.94,273.37l4.2-2.43v8.24l-4.2,2.42Z" fill="#90caf9"/>
          <path id="Path_8779" data-name="Path 8779" d="M277.94,281.6l4.2-2.42v34.78l-4.2,2.42Z" opacity="0.15"/>
          <path id="Path_8780" data-name="Path 8780" d="M285.35,275.41l4.2-2.43v20.75l-4.2,2.42Z" fill="#90caf9"/>
          <path id="Path_8781" data-name="Path 8781" d="M285.35,296.15l4.2-2.42v15.95l-4.2,2.43Z" opacity="0.15"/>
          <path id="Path_8782" data-name="Path 8782" d="M292.76,279.56l4.2-2.43v8.77l-4.2,2.43Z" fill="#90caf9"/>
          <path id="Path_8783" data-name="Path 8783" d="M292.76,288.33l4.2-2.43v19.5l-4.2,2.43Z" opacity="0.15"/>
          <path id="Path_8784" data-name="Path 8784" d="M300.18,278.03l4.19-2.43v25.52l-4.19,2.43Z" opacity="0.15"/>
          <path id="Path_8785" data-name="Path 8785" d="M307.59,277.15l4.2-2.42v10.32l-4.2,2.42Z" fill="#90caf9"/>
          <path id="Path_8786" data-name="Path 8786" d="M307.59,287.47l4.2-2.42v11.8l-4.2,2.42Z" opacity="0.15"/>
          <path id="Path_8787" data-name="Path 8787" d="M315,256.09l4.2-2.43v23.35l-4.2,2.42Z" fill="#90caf9"/>
          <path id="Path_8788" data-name="Path 8788" d="M315,279.43l4.2-2.42v15.56l-4.2,2.42Z" opacity="0.15"/>
          <path id="Path_8789" data-name="Path 8789" d="M322.41,264.53l4.2-2.42v8.12l-4.2,2.42Z" fill="#90caf9"/>
          <path id="Path_8790" data-name="Path 8790" d="M322.41,272.65l4.2-2.42v18.06l-4.2,2.42Z" fill="#90caf9"/>
          <path id="Path_8791" data-name="Path 8791" d="M263.12,314.46l4.2-2.43v10.49l-4.2,2.42Z" fill="#90caf9"/>
          <path id="Path_8792" data-name="Path 8792" d="M263.12,314.46l4.2-2.43v10.49l-4.2,2.42Z" opacity="0.2"/>
          <path id="Path_8793" data-name="Path 8793" d="M270.53,299.36l4.2-2.42v21.3l-4.2,2.42Z" fill="#90caf9"/>
          <path id="Path_8794" data-name="Path 8794" d="M270.53,299.36l4.2-2.42v21.3l-4.2,2.42Z" opacity="0.2"/>
          <path id="Path_8795" data-name="Path 8795" d="M277.94,281.6l4.2-2.42v34.78l-4.2,2.42Z" fill="#90caf9"/>
          <path id="Path_8796" data-name="Path 8796" d="M277.94,281.6l4.2-2.42v34.78l-4.2,2.42Z" opacity="0.2"/>
          <path id="Path_8797" data-name="Path 8797" d="M285.35,296.15l4.2-2.42v15.95l-4.2,2.43Z" fill="#90caf9"/>
          <path id="Path_8798" data-name="Path 8798" d="M285.35,296.15l4.2-2.42v15.95l-4.2,2.43Z" opacity="0.2"/>
          <path id="Path_8799" data-name="Path 8799" d="M292.76,288.33l4.2-2.43v19.5l-4.2,2.43Z" fill="#90caf9"/>
          <path id="Path_8800" data-name="Path 8800" d="M292.76,288.33l4.2-2.43v19.5l-4.2,2.43Z" opacity="0.2"/>
          <path id="Path_8801" data-name="Path 8801" d="M300.18,278.03l4.19-2.43v25.52l-4.19,2.43Z" fill="#90caf9"/>
          <path id="Path_8802" data-name="Path 8802" d="M300.18,278.03l4.19-2.43v25.52l-4.19,2.43Z" opacity="0.2"/>
          <path id="Path_8803" data-name="Path 8803" d="M307.59,287.47l4.2-2.42v11.8l-4.2,2.42Z" fill="#90caf9"/>
          <path id="Path_8804" data-name="Path 8804" d="M307.59,287.47l4.2-2.42v11.8l-4.2,2.42Z" opacity="0.2"/>
          <path id="Path_8805" data-name="Path 8805" d="M315,279.43l4.2-2.42v15.56l-4.2,2.42Z" fill="#90caf9"/>
          <path id="Path_8806" data-name="Path 8806" d="M315,279.43l4.2-2.42v15.56l-4.2,2.42Z" opacity="0.2"/>
          <path id="Path_8807" data-name="Path 8807" d="M322.41,272.65l4.2-2.42v18.06l-4.2,2.42Z" opacity="0.2"/>
        </g>
        <g id="freepik--chart--inject-12-3" data-name="freepik--chart--inject-12">
          <path id="Path_8808" data-name="Path 8808" d="M357.7,156.36l60-34.62c1.17-.68,2.13-.13,2.13,1.23v64.32a4.73,4.73,0,0,1-2.13,3.69l-60,34.62c-1.17.68-2.13.13-2.13-1.23V160.05A4.73,4.73,0,0,1,357.7,156.36Z" fill="#fafafa"/>
          <path id="Path_8809" data-name="Path 8809" d="M356.75,226.39a1.57,1.57,0,0,1-.8-.21,2,2,0,0,1-.88-1.81V160.05a5.22,5.22,0,0,1,2.38-4.13l60-34.61a1.93,1.93,0,0,1,2-.15,2,2,0,0,1,.88,1.81v64.32a5.2,5.2,0,0,1-2.38,4.12L358,226a2.4,2.4,0,0,1-1.25.39ZM418.62,122a1.41,1.41,0,0,0-.7.22l-60,34.62a4.23,4.23,0,0,0-1.88,3.26v64.32a.82.82,0,0,0,1.38.8l60-34.62a4.23,4.23,0,0,0,1.88-3.26V123a1.05,1.05,0,0,0-.38-1A.56.56,0,0,0,418.62,122Z" fill="#e0e0e0"/>
          <path id="Path_8810" data-name="Path 8810" d="M387.69,152.55c3.47-2,6.68-2.34,9.29-1.32l-9.29,22.44Z" fill="#455a64"/>
          <path id="Path_8811" data-name="Path 8811" d="M378.39,162a28.88,28.88,0,0,1,9.3-9.42V173.7Z" fill="#90caf9"/>
          <path id="Path_8812" data-name="Path 8812" d="M372.63,175.84A42.139,42.139,0,0,1,378.39,162l9.3,11.7Z" fill="#90caf9"/>
          <path id="Path_8813" data-name="Path 8813" d="M397,151.23c2.68,1.06,4.72,3.54,5.76,7.22l-15.05,15.22Z" fill="#455a64"/>
          <path id="Path_8814" data-name="Path 8814" d="M372.63,188.89a22.369,22.369,0,0,1-.78-6.08,33.529,33.529,0,0,1,.78-7l15.06-2.17Z" fill="#90caf9"/>
          <path id="Path_8815" data-name="Path 8815" d="M402.74,171.5A42.139,42.139,0,0,1,397,185.37l-9.29-11.7Z" fill="#90caf9"/>
          <path id="Path_8816" data-name="Path 8816" d="M387.69,194.78c-3.48,2-6.69,2.35-9.3,1.32l9.3-22.43Z" fill="#90caf9"/>
          <path id="Path_8817" data-name="Path 8817" d="M372.63,188.89l15.06-15.22-9.3,22.43C375.71,195.05,373.67,192.56,372.63,188.89Z" fill="#90caf9"/>
          <path id="Path_8818" data-name="Path 8818" d="M378.39,162a42.139,42.139,0,0,0-5.76,13.87,33.531,33.531,0,0,0-.78,7,22.369,22.369,0,0,0,.78,6.08c1,3.67,3.08,6.16,5.76,7.21l9.3-22.43Z" opacity="0.1"/>
          <path id="Path_8819" data-name="Path 8819" d="M402.74,158.45a22.372,22.372,0,0,1,.78,6.08,33.677,33.677,0,0,1-.78,7l-15.05,2.17Z" fill="#90caf9"/>
          <path id="Path_8820" data-name="Path 8820" d="M397,185.37a28.91,28.91,0,0,1-9.29,9.41V173.67Z" fill="#90caf9"/>
          <path id="Path_8821" data-name="Path 8821" d="M402.74,158.45l-15.05,15.22-9.3,22.43c2.61,1,5.82.69,9.3-1.32a28.91,28.91,0,0,0,9.29-9.41,42.139,42.139,0,0,0,5.76-13.87,33.681,33.681,0,0,0,.78-7,22.372,22.372,0,0,0-.78-6.05Z" opacity="0.2"/>
          <path id="Path_8822" data-name="Path 8822" d="M380.15,201.72a10,10,0,0,1-5.12-1.34c-4.32-2.49-6.8-8.24-6.8-15.76,0-14.1,8.62-30.55,19.21-36.67,4.72-2.72,9.3-3.08,12.9-1,4.32,2.5,6.8,8.25,6.8,15.77,0,14.1-8.62,30.55-19.21,36.66a15.68,15.68,0,0,1-7.78,2.34Zm15.07-55.12a14.75,14.75,0,0,0-7.29,2.21c-10.32,6-18.72,22-18.72,35.81,0,7.16,2.3,12.6,6.31,14.91,3.29,1.9,7.52,1.54,11.92-1,10.32-6,18.72-22,18.72-35.81,0-7.16-2.3-12.6-6.31-14.91a9.07,9.07,0,0,0-4.63-1.21Z" fill="#e0e0e0"/>
        </g>
        <g id="freepik--speech-bubble--inject-12">
          <path id="Path_8823" data-name="Path 8823" d="M353.47,140.92a1.77,1.77,0,0,1-.87-.23,2.13,2.13,0,0,1-.94-2V118.37a5.74,5.74,0,0,1,2.63-4.56L386.85,95A1.93,1.93,0,0,1,390,96.82v20.35a5.75,5.75,0,0,1-2.63,4.56l-4.82,2.78-3.26,11.07a1.12,1.12,0,0,1-1,.82,1.14,1.14,0,0,1-1.12-.69l-2.8-6.46-19.54,11.27a2.67,2.67,0,0,1-1.36.4Zm33.87-45.06-32.56,18.8a4.82,4.82,0,0,0-2.14,3.71v20.35a1,1,0,0,0,1.65.95l20.49-11.83,3.24,7.48a.157.157,0,0,0,.3-.02l3.36-11.44,5.17-3a4.81,4.81,0,0,0,2.14-3.7V96.82a1,1,0,0,0-1.65-1Z" fill="#90caf9"/>
          <path id="Path_8824" data-name="Path 8824" d="M359.62,120.39a.49.49,0,0,1-.25-.92l22.4-12.93a.491.491,0,0,1,.49.85l-22.4,12.93a.42.42,0,0,1-.24.07Z" fill="#90caf9"/>
          <path id="Path_8825" data-name="Path 8825" d="M359.62,124.72a.49.49,0,0,1-.25-.91l22.4-12.94a.5.5,0,0,1,.67.18.49.49,0,0,1-.18.68l-22.4,12.93A.5.5,0,0,1,359.62,124.72Z" fill="#90caf9"/>
          <path id="Path_8826" data-name="Path 8826" d="M359.62,129.06a.51.51,0,0,1-.43-.24.5.5,0,0,1,.18-.68l22.4-12.93a.5.5,0,0,1,.67.18.48.48,0,0,1-.18.67L359.86,129A.5.5,0,0,1,359.62,129.06Z" fill="#90caf9"/>
        </g>
        <g id="freepik--check-list--inject-12">
          <path id="Path_8827" data-name="Path 8827" d="M346.83,255.91a.5.5,0,0,1-.24-.06.48.48,0,0,1-.25-.43v-9.23a.48.48,0,0,1,.25-.43l8-4.61a.5.5,0,0,1,.74.42v9.24a.48.48,0,0,1-.25.42l-8,4.62a.54.54,0,0,1-.25.06Zm.49-9.44v8.1l7-4v-8.09Z" fill="#90caf9"/>
          <path id="freepik--check--inject-12" d="M355.76,239.26a1,1,0,0,0-1.27.52l-3.66,8.72-.87-.85A1,1,0,0,0,348.6,249l1.9,1.84a.94.94,0,0,0,.67.27.681.681,0,0,0,.2,0,1,1,0,0,0,.7-.57l4.21-10a1,1,0,0,0-.52-1.28Z" fill="#455a64"/>
          <path id="Path_8828" data-name="Path 8828" d="M361.62,240.88l29.42-17c.71-.41,1.28-.12,1.28.65a2.74,2.74,0,0,1-1.28,2.13l-29.42,17c-.7.41-1.28.11-1.28-.65a2.75,2.75,0,0,1,1.28-2.13Z" fill="#455a64"/>
          <path id="Path_8829" data-name="Path 8829" d="M346.83,269.76a.57.57,0,0,1-.25-.06.5.5,0,0,1-.24-.43V260a.5.5,0,0,1,.24-.43l8-4.61a.48.48,0,0,1,.49,0,.47.47,0,0,1,.25.42v9.23a.48.48,0,0,1-.25.43l-8,4.62a.539.539,0,0,1-.24.1Zm.49-9.44v8.1l7-4.05v-8.1Z" fill="#90caf9"/>
          <path id="freepik--check--inject-12-2" data-name="freepik--check--inject-12" d="M355.76,253.11a1,1,0,0,0-1.27.52l-3.66,8.72-.87-.85a1,1,0,0,0-1.36,1.39l1.9,1.84a1,1,0,0,0,.67.27.679.679,0,0,0,.2,0,1,1,0,0,0,.7-.57l4.21-10a1,1,0,0,0-.52-1.32Z" fill="#455a64"/>
          <path id="Path_8830" data-name="Path 8830" d="M361.62,254.68l29.42-17c.71-.4,1.28-.11,1.28.66a2.74,2.74,0,0,1-1.28,2.13l-29.42,17c-.7.41-1.28.12-1.28-.65a2.77,2.77,0,0,1,1.28-2.14Z" fill="#455a64"/>
          <path id="Path_8831" data-name="Path 8831" d="M346.83,283.61a.49.49,0,0,1-.49-.49v-9.23a.5.5,0,0,1,.24-.43l8-4.61a.48.48,0,0,1,.49,0,.47.47,0,0,1,.25.42v9.23a.48.48,0,0,1-.25.43l-8,4.61a.45.45,0,0,1-.24.07Zm.49-9.44v8.1l7-4v-8.1Z" fill="#90caf9"/>
          <path id="freepik--check--inject-12-3" data-name="freepik--check--inject-12" d="M355.76,267a1,1,0,0,0-1.27.51l-3.66,8.72-.87-.84a1,1,0,0,0-1.36,1.39l1.9,1.84a1,1,0,0,0,.67.27h.2a1,1,0,0,0,.7-.57l4.21-10a1,1,0,0,0-.52-1.32Z" fill="#455a64"/>
          <path id="Path_8832" data-name="Path 8832" d="M361.62,268.49l29.42-17c.71-.41,1.28-.12,1.28.65a2.74,2.74,0,0,1-1.28,2.13l-29.42,17c-.7.41-1.28.11-1.28-.65a2.75,2.75,0,0,1,1.28-2.13Z" fill="#455a64"/>
        </g>
      </g>
    </g>
    <g id="freepik--character-1--inject-12">
      <path id="freepik--shadow--inject-12-2" data-name="freepik--shadow--inject-12" d="M461.65,356c17.72,10,17.9,26.47.4,36.83s-46.05,10.66-63.77.69-17.9-26.47-.4-36.83S443.94,346,461.65,356Z" fill="#e0e0e0"/>
      <g id="freepik--character--inject-12">
        <path id="Path_8849" data-name="Path 8849" d="M421.18,191.62l1.2,12.49,11.17-.69-.89-13.86Z" fill="#ffa8a7"/>
        <path id="Path_8850" data-name="Path 8850" d="M435.38,197.15c6.08-1.29,8.76,2.35,11.43,8.86s9.51,20.86,10.62,25.21c.5,1.95-15.79,21.43-15.26,21.17.16-.08-4.82-8.41-4.82-8.41l9.07-12.76L440,221Z" fill="#ffa8a7"/>
        <path id="Path_8851" data-name="Path 8851" d="M464,343.53c-1.25-3.85-5.95-18.55-7.58-22.74-2.58-6.64-4.24-10.16-9.66-13.56,0,0,.29-33.18,0-45-.37-15.12-3.71-20.19-3.71-20.19l-35,2s-3,25.77-3.56,37.64c-.67,13.37-.67,17.57-.34,24.86.21,4.58.86,8.76,1.21,15.72S407.8,364,407.8,364l.05-.08A9,9,0,0,0,408,365c.32,1.25,1.67,2.67,4.14,2.72,3.51.07,4.62-1.68,4.81-2.81a5.95,5.95,0,0,1,.1-.64h.06s2.6-14.83,4.32-26.14a106.61,106.61,0,0,0,1.45-15.78,58.749,58.749,0,0,0-1.53-9.66l5-32.51s4.29,27.68,5,30.33c.48,1.85,11.9,19.51,18.77,30h0c3,4.57,9.75,14.56,10.18,15.12,1.49,2,6.48-5.17,6.48-5.17Z" fill="#ffa8a7"/>
        <path id="Path_8852" data-name="Path 8852" d="M457.71,351.85c3.61,4.92,5.56,17.95,4.51,19.88s4.18,0,4.9-2.92.85-17.19.85-17.19Z" fill="#ffa8a7"/>
        <path id="Path_8853" data-name="Path 8853" d="M407.74,363.41c-.08,3.81-2.65,13.7-6.37,14.87s1.67,3.89,4.49,2.83,7.09-9.5,9.28-11.59,2.32-7.4,2.32-7.4Z" fill="#ffa8a7"/>
        <path id="Path_8854" data-name="Path 8854" d="M407.76,239.9s-1.22,3.85-2.39,18-3.49,34.18-3.65,42.19c0,0,6.18-1.55,8.8-7.2,0,0,4.36,9.43,14.55,11.5s20.42-.69,22.44-6.76c-.06-.66.26-32.59,0-40s-3.1-13.67-5.91-19.93Z" fill="#37474f"/>
        <path id="Path_8855" data-name="Path 8855" d="M405.86,384.81s.84,1.48,5.39-.43,5.84-4.19,5.84-4.19-1.18-9.15-4-6.85S405.86,384.81,405.86,384.81Z" fill="#90caf9"/>
        <path id="Path_8856" data-name="Path 8856" d="M405.86,384.81s.84,1.48,5.39-.43,5.84-4.19,5.84-4.19-1.18-9.15-4-6.85S405.86,384.81,405.86,384.81Z" opacity="0.3"/>
        <path id="Path_8857" data-name="Path 8857" d="M418.15,362.24c-.93-.49-3.41.53-4.86,1.79-1.92,1.65-2.38,3.88-3.36,6.5-1.05,2.8-2.95,6.64-4.48,7.5s-4.34.06-6.66.05-4.11,1.05-4.24,2.74c-.06,1.33,6,4.38,9.76,4.54,3.16.13,4.23.67,6-3.95s2.41-7.22,3.79-4.08S416,387,416,387a2,2,0,0,0,2.79.07,61.277,61.277,0,0,1,.4-6.89c.4-2.84,1.91-7.3,1.72-10.72S419.07,362.7,418.15,362.24Z" fill="#263238"/>
        <path id="Path_8858" data-name="Path 8858" d="M468.75,374.21s1.45.71,4.24-3.37a8,8,0,0,0,1.45-2.7,21.36,21.36,0,0,1-.62-5.62c.23-2.88-4.85-3.86-5.46-1.87C467.3,364.13,468.75,374.21,468.75,374.21Z" fill="#90caf9"/>
        <path id="Path_8859" data-name="Path 8859" d="M468.75,374.21s1.45.71,4.24-3.37a8,8,0,0,0,1.45-2.7,21.36,21.36,0,0,1-.62-5.62c.23-2.88-4.85-3.86-5.46-1.87C467.3,364.13,468.75,374.21,468.75,374.21Z" opacity="0.3"/>
        <path id="Path_8860" data-name="Path 8860" d="M466.39,348.61c-1.05.11-2.53,2.34-3.05,4.19-.67,2.44.19,4.55.83,7.27.69,2.91,1.26,7.16.46,8.73s-3.57,2.47-5.5,3.75-2.83,3.16-2,4.63c.69,1.14,7.39.33,10.63-1.66,2.7-1.65,3.89-1.8,2.77-6.61s-2-7.34.88-5.5,7,7,7,7a2,2,0,0,0,2.35-1.51,60.182,60.182,0,0,1-3.5-5.94c-1.25-2.58-2.48-7.13-4.55-9.86S467.41,348.48,466.39,348.61Z" fill="#263238"/>
        <path id="Path_8861" data-name="Path 8861" d="M442.29,202.58a8.2,8.2,0,0,0-7.63-5.91s-6.72-.22-11.14.17a35.56,35.56,0,0,0-9.38,1.84l-3.84,3.7c-1.77,2.22-4.93,12.19-4.86,29.33,0,3.29-.41,7.32,2.32,8.19,6.41,3.56,22.26,5.15,34.22-1.65,1.74-1.3,1.47-11.41,1.41-16C443.3,216.11,443.08,204.93,442.29,202.58Z" fill="#90caf9"/>
        <path id="Path_8862" data-name="Path 8862" d="M411.31,216l.3-3.73-.53-.05-.3,3.74c-1,12.86-1.66,21.58-.87,25l.59.23C409.55,238,410.41,227.27,411.31,216Z" opacity="0.15"/>
        <path id="Path_8863" data-name="Path 8863" d="M414.14,198.68s-2.61,0-10.7,4.41c-5.35,2.93-16.11,8.45-20.58,10.54-3.36-2.81-16.69-14-17.22-15.06-.6-1.25.41-3.22.93-4.32s1.56-3.56,2-4.21c.76-1.15-1.18-1.27-2.57-.37s-2.45,3.07-3.1,3.33-3.6-5.56-5-8.37-2-4.66-3.57-4c-1.15.45-.86,2,.09,4.31a25.868,25.868,0,0,1,1.21,3.08c.09.4-.52.55-.77.69-.48.25-1.32.65-1.51,1.19a4.511,4.511,0,0,1-.28.88c-.35.61-1.24.71-1.63,1.3-.28.42-.23,1-.45,1.46-.13.29-.38.53-.51.83a2.24,2.24,0,0,0,.22,1.86c1,2,2.77,3.17,4.37,4.66,1.34,1.24,2.84,2,4.42,3.25s18.4,21.55,22.18,22.28a6.51,6.51,0,0,0,3.52-.34c3.36-1,17.44-6.7,24.41-9.15,5.35-2.75,7-3.79,8.14-11.72C418.24,201.32,414.14,198.68,414.14,198.68Z" fill="#ffa8a7"/>
        <path id="Path_8864" data-name="Path 8864" d="M411.34,168.3a2.7,2.7,0,0,1,.33-1.37,1.56,1.56,0,0,1,1.87-.75,6.14,6.14,0,0,1-.82-2.11,2,2,0,0,1,.83-2,3.2,3.2,0,0,1,1.77-.25c3.73.12,7.4-.86,11.11-1.31s7.72-.3,10.81,1.81a8.67,8.67,0,0,1,3.47,4.36,5.38,5.38,0,0,1,.35,2.54,7.1,7.1,0,0,0-.39,2.54,31.745,31.745,0,0,1,.42,4.46c.24,6.17-14.08,10.18-13.8,14.41l-7.63-9.29c0-.39-1.08-1.35-1.32-1.68-.46-.61-.87-1.26-1.29-1.9-1.88-2.87-5.1-5.11-5.64-8.69A5,5,0,0,1,411.34,168.3Z" fill="#263238"/>
        <path id="Path_8865" data-name="Path 8865" d="M412.9,177.9s-2.48,3.68-2.15,4.07a5.88,5.88,0,0,0,1.89.8Z" fill="#f28f8f"/>
        <path id="Path_8866" data-name="Path 8866" d="M420.46,166.26c-2.41,1.22-6.56,3.48-7.63,12.18-1.1,8.94.92,12,2.16,13.21.84.79,5.16,1.08,7.41.39,2.82-.86,8.92-3.82,11.78-8.43,3.37-5.43,4.07-12.66.18-15.5C428.89,164.12,422.49,165.23,420.46,166.26Z" fill="#ffa8a7"/>
        <path id="Path_8867" data-name="Path 8867" d="M415.23,191.81c1,.56,3.88.79,6,.48l-.07-1.61a15.108,15.108,0,0,1-2.85.93A9.94,9.94,0,0,1,415.23,191.81Z" fill="#f28f8f"/>
        <path id="Path_8868" data-name="Path 8868" d="M448.71,164.38a6.74,6.74,0,0,0-9.07-2.94c-2,1-2.2,2.4-1.64,4.07a11.1,11.1,0,0,0-2-1.07,9.492,9.492,0,0,0-1-.3,20.83,20.83,0,0,0-9.74-.21,21.2,21.2,0,0,0-4.65,1.56l-1.14.51a9.3,9.3,0,0,0-2.8,1.61,3.829,3.829,0,0,0-1,1.27,3.061,3.061,0,0,0-.2,1.44,3.85,3.85,0,0,0,2.25,3.1,3.75,3.75,0,0,0-.61,3.11,7.49,7.49,0,0,0,2.21,3.18.46.46,0,0,0,.18.13.5.5,0,0,0,.4-.12c1.51-1,2.44-2.75,4.57-2.05,2.8.92,2.77,5.51.35,7.14a2.19,2.19,0,0,1-2.38.08s.75,6.94-1,8.82c-1.9,2.07-5.26,1.34-5.26,1.34s1.57,7.63,13,6.48c9.66-1,10.17-7,10.17-7a6.78,6.78,0,0,1-2.32,6.05s7.22.68,9.42-4.81c1.65-4.11-2.06-6.87-3-12.08-.38-2.12.51-6.32.35-9.73a3.71,3.71,0,0,0,2-.5,6.73,6.73,0,0,0,2.91-9.08Z" fill="#263238"/>
        <path id="Path_8869" data-name="Path 8869" d="M419.08,182.86a2.06,2.06,0,0,1-1.27-2.66,2.13,2.13,0,0,1,2.71-1.25Z" fill="#263238"/>
      </g>
    </g>
  </g>
</svg>
