<svg xmlns="http://www.w3.org/2000/svg" width="54.617" height="40.963"><path d="M0 0h6.827v34.136H0Zm10.241 0h3.414v34.136h-3.414Zm6.827 0h3.414v34.136h-3.414Zm10.241 0h3.414v34.136h-3.414Zm13.654 0h3.414v34.136h-3.414ZM51.2 0h3.414v34.136H51.2ZM34.136 0h1.707v34.136h-1.707ZM23.9 0h1.7v34.136h-1.7Zm22.183 0h1.707v34.136h-1.707ZM0 37.549h3.414v3.414H0Zm10.241 0h3.414v3.414h-3.414Zm6.827 0h3.414v3.414h-3.414Zm17.068 0h3.414v3.414h-3.414Zm17.068 0h3.414v3.414H51.2Zm-10.241 0h6.827v3.414h-6.827Zm-17.068 0h6.827v3.414H23.9Z" fill="#263238"/></svg>