<svg xmlns="http://www.w3.org/2000/svg" width="30" height="24.438"><g data-name="noun_Sample tubes_1088060"><path data-name="Path 9750" d="M28.562 21.375V6.187a.59.59 0 0 0-.625-.625h-1.874V1.25h.375a.59.59 0 0 0 .625-.625.59.59 0 0 0-.625-.625H20.75a.59.59 0 0 0-.625.625.59.59 0 0 0 .625.625h.375v4.313H17.5V1.25h.375A.59.59 0 0 0 18.5.625.59.59 0 0 0 17.875 0h-5.687a.59.59 0 0 0-.625.625.59.59 0 0 0 .625.625h.312v4.313H8.875V1.25h.375a.59.59 0 0 0 .625-.625A.59.59 0 0 0 9.25 0H3.563a.59.59 0 0 0-.625.625.59.59 0 0 0 .625.625h.375v4.313H2.062a.59.59 0 0 0-.625.625v15.187H0v3.062h30v-3.062ZM24.813 1.25v8.375h-2.438V1.25Zm-11.062 0h2.5v7.125h-2.5Zm-8.563 0h2.437v9.625H5.188Zm-2.5 5.563h1.25v8.437a2.5 2.5 0 1 0 5 0V6.813H12.5v8.437a2.5 2.5 0 1 0 5 0V6.813h3.625v8.437a2.5 2.5 0 1 0 5 0V6.813h1.25v14.562H2.688Z" fill="#263238"/></g></svg>