<svg xmlns="http://www.w3.org/2000/svg" width="30" height="24.792"><g data-name="Group 211"><path data-name="Path 9756" d="M28.542 11.458h-5.834v-10A1.46 1.46 0 0 0 21.25 0H8.75a1.46 1.46 0 0 0-1.458 1.458v10H1.458A1.46 1.46 0 0 0 0 12.917v10.416a1.46 1.46 0 0 0 1.458 1.458h12.5A1.452 1.452 0 0 0 15 24.35a1.452 1.452 0 0 0 1.042.441h12.5A1.46 1.46 0 0 0 30 23.333V12.917a1.46 1.46 0 0 0-1.458-1.459Zm-20.417-10A.626.626 0 0 1 8.75.833h3.75v4.792a.416.416 0 0 0 .667.333L15 4.583l1.833 1.375a.415.415 0 0 0 .25.083.417.417 0 0 0 .417-.417V.833h3.75a.626.626 0 0 1 .625.625v10h-5.833a1.458 1.458 0 0 0-.3.03c-.035.007-.068.022-.1.032a1.448 1.448 0 0 0-.173.055c-.039.017-.074.041-.112.061a1.455 1.455 0 0 0-.137.076c-.036.025-.067.056-.1.084a1.473 1.473 0 0 0-.115.1l-.005.001-.006-.005a1.472 1.472 0 0 0-.115-.1c-.034-.028-.065-.059-.1-.084a1.455 1.455 0 0 0-.137-.076c-.037-.02-.072-.044-.112-.061a1.448 1.448 0 0 0-.173-.055c-.034-.01-.067-.024-.1-.032a1.458 1.458 0 0 0-.3-.03H8.125Zm5.833 22.5h-12.5a.626.626 0 0 1-.625-.625V12.917a.626.626 0 0 1 .625-.625h3.75v4.792a.416.416 0 0 0 .667.333l1.833-1.375 1.833 1.375a.415.415 0 0 0 .25.083.417.417 0 0 0 .417-.417v-4.791h3.75a.626.626 0 0 1 .625.625v10.416a.626.626 0 0 1-.625.625Zm15.208-.625a.626.626 0 0 1-.625.625h-12.5a.626.626 0 0 1-.625-.625V12.917a.626.626 0 0 1 .625-.625h3.75v4.792a.416.416 0 0 0 .667.333l1.833-1.375 1.833 1.375a.415.415 0 0 0 .25.083.417.417 0 0 0 .417-.417v-4.791h3.75a.626.626 0 0 1 .625.625Z" fill="#263238"/></g></svg>