<svg xmlns="http://www.w3.org/2000/svg" width="30" height="32.727"><path d="M10.909 26.592v-15a.674.674 0 0 0-.682-.682H8.864a.674.674 0 0 0-.682.682v15a.674.674 0 0 0 .682.682h1.364a.674.674 0 0 0 .681-.682Zm5.455 0v-15a.674.674 0 0 0-.682-.682h-1.364a.674.674 0 0 0-.682.682v15a.674.674 0 0 0 .682.682h1.364a.674.674 0 0 0 .682-.682Zm5.455 0v-15a.674.674 0 0 0-.682-.682h-1.364a.674.674 0 0 0-.682.682v15a.674.674 0 0 0 .682.682h1.364a.674.674 0 0 0 .681-.682ZM10.227 5.456h9.545L18.75 2.963a.817.817 0 0 0-.363-.235h-6.754a.718.718 0 0 0-.363.235ZM30 6.138v1.363a.674.674 0 0 1-.682.682h-2.045v20.2c0 2.344-1.534 4.346-3.409 4.346H6.136c-1.875 0-3.409-1.917-3.409-4.261V8.182H.682A.674.674 0 0 1 0 7.501V6.136a.674.674 0 0 1 .682-.682h6.583l1.492-3.553a3.315 3.315 0 0 1 2.834-1.9h6.818a3.314 3.314 0 0 1 2.834 1.9l1.492 3.558h6.584a.674.674 0 0 1 .681.677Z" fill="#263238"/></svg>