<svg xmlns="http://www.w3.org/2000/svg" preserveAspectRatio="none" viewBox="0 0 785.12 531.14">
  <g id="Group_216" data-name="Group 216" transform="translate(-539.424 -378.34)">
    <g id="freepik--Floor--inject-9" transform="translate(532.159 256.296)">
      <path id="freepik--floor--inject-9-2" data-name="freepik--floor--inject-9" d="M122.243,587.152c-153.3-88.081-153.3-230.612,0-318.693s401.862-88,555.165,0,153.3,230.612,0,318.693S275.546,675.153,122.243,587.152Z" transform="translate(0 0)" fill="#f5f5f5"/>
    </g>
    <g id="freepik--robotic-arms--inject-3" transform="translate(618.774 379.244)">
      <g id="freepik--mechanical-arm--inject-3" transform="translate(0 86.376)">
        <path id="Path_2559" data-name="Path 2559" d="M446.515,203.118c-4.252-3.919-14.285,3.39-14.285,7.6l47.87,86.217,23.651-11.326Z" transform="translate(-403.471 -142.198)" fill="#90caf9"/>
        <path id="Path_2560" data-name="Path 2560" d="M446.515,203.118c-4.252-3.919-14.285,3.39-14.285,7.6l47.87,86.217,23.651-11.326Z" transform="translate(-403.471 -142.198)" fill="#fff" opacity="0.7"/>
        <path id="Path_2561" data-name="Path 2561" d="M411.812,249.344a13.128,13.128,0,0,1,1.489-6.29L412.713,242l3.292-1.842h0c2.645-1.587,6.31-1.352,10.346,1.058a31.9,31.9,0,0,1,14.128,25.179c0,4.762-1.822,8.034-4.6,9.445h0l-3.253,1.822-.607-1.1a13.01,13.01,0,0,1-6.074-1.96,31.92,31.92,0,0,1-14.128-25.258Z" transform="translate(-300.187 -106.557)" fill="#90caf9"/>
        <path id="Path_2562" data-name="Path 2562" d="M411.812,249.344a13.128,13.128,0,0,1,1.489-6.29L412.713,242l3.292-1.842h0c2.645-1.587,6.31-1.352,10.346,1.058a31.9,31.9,0,0,1,14.128,25.179c0,4.762-1.822,8.034-4.6,9.445h0l-3.253,1.822-.607-1.1a13.01,13.01,0,0,1-6.074-1.96,31.92,31.92,0,0,1-14.128-25.258Z" transform="translate(-300.187 -106.557)" fill="#fff" opacity="0.3"/>
        <path id="Path_2563" data-name="Path 2563" d="M428.219,242.25a31.9,31.9,0,0,1,14.128,25.179c-.137,9.21-6.643,12.874-14.559,8.151A31.939,31.939,0,0,1,413.66,250.4C413.778,241.192,420.3,237.528,428.219,242.25Z" transform="translate(-305.68 -105.557)" fill="#90caf9"/>
        <path id="Path_2564" data-name="Path 2564" d="M428.219,242.25a31.9,31.9,0,0,1,14.128,25.179c-.137,9.21-6.643,12.874-14.559,8.151A31.939,31.939,0,0,1,413.66,250.4C413.778,241.192,420.3,237.528,428.219,242.25Z" transform="translate(-305.68 -105.557)" opacity="0.15"/>
        <path id="Path_2565" data-name="Path 2565" d="M404.643,317.476h0V301.193H416.87c1.254-.843,2.606-1.7,4.056-2.528,21.731-12.541,56.923-12.541,78.653,0q2.175,1.274,4.056,2.528h12.227v16.283h0c.216,6.6-5.193,13.187-16.264,19.595-21.711,12.541-56.923,12.541-78.634,0C409.855,330.664,404.427,324.021,404.643,317.476Z" transform="translate(-361.521 -58.473)" fill="#263238"/>
        <path id="Path_2566" data-name="Path 2566" d="M499.634,333.767c21.711-12.541,21.711-32.86,0-45.4s-56.923-12.541-78.653,0-21.711,32.86,0,45.4S478.08,346.307,499.634,333.767Z" transform="translate(-361.674 -68.355)" fill="#37474f"/>
        <path id="Path_2567" data-name="Path 2567" d="M414.558,348.888h0V274.174h0a36.29,36.29,0,0,1,72.5,0v74.832h0c0,5.349-3.566,10.679-10.679,14.716-14.226,8.093-37.23,8.053-51.319,0-7-4.056-10.522-9.347-10.581-14.637h0Z" transform="translate(-351.999 -106.148)" fill="#455a64"/>
        <path id="Path_2568" data-name="Path 2568" d="M434.286,262.182a13.068,13.068,0,0,1,1.411-6.309l-.588-1.038,3.272-1.96h0c2.626-1.607,6.29-1.43,10.366.941a31.939,31.939,0,0,1,14.383,25.042c0,4.762-1.744,8.053-4.507,9.484h0l-3.233,1.862-.627-1.078a13.462,13.462,0,0,1-6.094-1.959,31.92,31.92,0,0,1-14.383-24.983Z" transform="translate(-366.867 -94.392)" fill="#90caf9"/>
        <path id="Path_2569" data-name="Path 2569" d="M434.286,262.182a13.068,13.068,0,0,1,1.411-6.309l-.588-1.038,3.272-1.96h0c2.626-1.607,6.29-1.43,10.366.941a31.939,31.939,0,0,1,14.383,25.042c0,4.762-1.744,8.053-4.507,9.484h0l-3.233,1.862-.627-1.078a13.462,13.462,0,0,1-6.094-1.959,31.92,31.92,0,0,1-14.383-24.983Z" transform="translate(-366.867 -94.392)" fill="#fff" opacity="0.3"/>
        <path id="Path_2570" data-name="Path 2570" d="M450.621,254.913A31.9,31.9,0,0,1,465,279.955c0,9.21-6.486,12.933-14.461,8.308A31.979,31.979,0,0,1,436.16,263.2C436.18,254.012,442.665,250.289,450.621,254.913Z" transform="translate(-372.425 -93.335)" fill="#90caf9"/>
        <path id="Path_2571" data-name="Path 2571" d="M450.621,254.913A31.9,31.9,0,0,1,465,279.955c0,9.21-6.486,12.933-14.461,8.308A31.979,31.979,0,0,1,436.16,263.2C436.18,254.012,442.665,250.289,450.621,254.913Z" transform="translate(-372.425 -93.335)" fill="#fff" opacity="0.7"/>
        <path id="Path_2572" data-name="Path 2572" d="M453.774,270.808a6.507,6.507,0,0,1-.549,2.782c-1.039,2.253-3.508,2.841-6.368,1.2A15.265,15.265,0,0,1,440,262.814c0-2.88,1.274-4.6,3.233-4.879a5.584,5.584,0,0,1,3.664.9A15.225,15.225,0,0,1,453.774,270.808Z" transform="translate(-368.72 -88.557)" fill="#90caf9"/>
        <path id="Path_2573" data-name="Path 2573" d="M451.092,270.808a6.507,6.507,0,0,1-.549,2.782,5.643,5.643,0,0,1-3.684-.9A15.226,15.226,0,0,1,440,260.737a6.545,6.545,0,0,1,.549-2.8,5.584,5.584,0,0,1,3.664.9A15.225,15.225,0,0,1,451.092,270.808Z" transform="translate(-366.037 -88.557)" fill="#455a64"/>
        <path id="Path_2574" data-name="Path 2574" d="M450.2,288.618a10.679,10.679,0,0,0-4.84-8.347,3.39,3.39,0,0,0-3.527-.294h0l-2.195,1.313.882,1.568v.157a10.679,10.679,0,0,0,4.859,8.367h0l1.019,1.783,2.391-1.43h0a3.37,3.37,0,0,0,1.411-3.116Z" transform="translate(-364.461 -67.726)" fill="#90caf9"/>
        <path id="Path_2575" data-name="Path 2575" d="M450.2,288.618a10.679,10.679,0,0,0-4.84-8.347,3.39,3.39,0,0,0-3.527-.294h0l-2.195,1.313.882,1.568v.157a10.679,10.679,0,0,0,4.859,8.367h0l1.019,1.783,2.391-1.43h0a3.37,3.37,0,0,0,1.411-3.116Z" transform="translate(-364.461 -67.726)" opacity="0.3"/>
        <path id="Path_2576" data-name="Path 2576" d="M440.86,283.74a10.719,10.719,0,0,0,4.84,8.367c2.685,1.548,4.86.313,4.86-2.763a10.679,10.679,0,0,0-4.84-8.347C443.035,279.449,440.86,280.684,440.86,283.74Z" transform="translate(-367.19 -67.042)" fill="#90caf9"/>
        <path id="Path_2577" data-name="Path 2577" d="M450.2,299.208a10.64,10.64,0,0,0-4.84-8.347,3.39,3.39,0,0,0-3.527-.294h0l-2.195,1.313.882,1.548v.176a10.679,10.679,0,0,0,4.859,8.367h0l1.019,1.783,2.391-1.43h0a3.409,3.409,0,0,0,1.411-3.116Z" transform="translate(-364.463 -57.566)" fill="#e0e0e0"/>
        <path id="Path_2578" data-name="Path 2578" d="M440.86,294.33a10.719,10.719,0,0,0,4.84,8.367c2.685,1.548,4.86.314,4.86-2.763a10.64,10.64,0,0,0-4.84-8.347C443.035,290.039,440.86,291.274,440.86,294.33Z" transform="translate(-367.19 -56.881)" fill="#f5f5f5"/>
        <path id="Path_2579" data-name="Path 2579" d="M415.65,206.055l6.114,31.841,8.739-5.055L424.389,201Z" transform="translate(-297.735 -143.156)" fill="#263238"/>
        <path id="Path_2580" data-name="Path 2580" d="M428.208,236.258,402.99,221.366l8.641-5.506,25.336,15.362Z" transform="translate(-279.393 -128.898)" fill="#455a64"/>
        <path id="Path_2581" data-name="Path 2581" d="M411.749,228.52l-8.759,5.036v-4.82l8.759-5.036Z" transform="translate(-254.174 -121.376)" fill="#263238"/>
        <path id="Path_2582" data-name="Path 2582" d="M407.46,202.1l5.055,2.9,5.682,29.568,25.218,14.892v4.84l-29.294-17.459-1-5.251h0Z" transform="translate(-294.601 -142.101)" fill="#37474f"/>
        <path id="Path_2583" data-name="Path 2583" d="M492.323,183.834c-4.252-3.566-8.5-4.507-11.894-3.155h0l-20.986,10.013.49,1.332a15.676,15.676,0,0,0-2.92,7.093c-1.959,10.738,3.409,25.1,11.757,32.077a15.676,15.676,0,0,0,6.741,3.586l.509,1.372,20.947-9.993h0c3.507-1.117,6.192-4.624,7.152-10.15C505.981,205.172,500.69,190.809,492.323,183.834Z" transform="translate(-451.984 -163.22)" fill="#90caf9"/>
        <path id="Path_2584" data-name="Path 2584" d="M492.323,183.834c-4.252-3.566-8.5-4.507-11.894-3.155h0l-20.986,10.013.49,1.332a15.676,15.676,0,0,0-2.92,7.093c-1.959,10.738,3.409,25.1,11.757,32.077a15.676,15.676,0,0,0,6.741,3.586l.509,1.372,20.947-9.993h0c3.507-1.117,6.192-4.624,7.152-10.15C505.981,205.172,500.69,190.809,492.323,183.834Z" transform="translate(-451.984 -163.22)" opacity="0.15"/>
        <path id="Path_2585" data-name="Path 2585" d="M486.465,189.026c8.367,6.976,13.716,21.339,11.757,32.077s-10.15,13.716-18.517,6.8-13.716-21.339-11.757-32.077S478.138,182.05,486.465,189.026Z" transform="translate(-467.543 -158.242)" fill="#90caf9"/>
        <path id="Path_2586" data-name="Path 2586" d="M486.33,208.567a7.661,7.661,0,0,1-1.215,3.135c-1.646,2.43-4.644,2.606-7.661.137A18.164,18.164,0,0,1,471.83,196.5c.588-3.331,2.43-5.114,4.762-5.036a6.8,6.8,0,0,1,4.1,1.783A18.105,18.105,0,0,1,486.33,208.567Z" transform="translate(-463.528 -152.311)" fill="#90caf9"/>
        <path id="Path_2587" data-name="Path 2587" d="M486.33,208.567a7.661,7.661,0,0,1-1.215,3.135c-1.646,2.43-4.644,2.606-7.661.137A18.164,18.164,0,0,1,471.83,196.5c.588-3.331,2.43-5.114,4.762-5.036a6.8,6.8,0,0,1,4.1,1.783A18.105,18.105,0,0,1,486.33,208.567Z" transform="translate(-463.528 -152.311)" opacity="0.3"/>
        <path id="Path_2588" data-name="Path 2588" d="M482.769,208.566a7.661,7.661,0,0,1-1.215,3.135,6.525,6.525,0,0,1-4.1-1.783,17.969,17.969,0,0,1-5.624-15.3,7.584,7.584,0,0,1,1.2-3.155,6.8,6.8,0,0,1,4.1,1.783A18.105,18.105,0,0,1,482.769,208.566Z" transform="translate(-459.968 -152.31)" fill="#455a64"/>
        <path id="Path_2589" data-name="Path 2589" d="M500.273,210.13l-68.954-5.545a7.093,7.093,0,1,1,2.254-13.991h.255l68.347,8.9a5.381,5.381,0,0,1-1.959,10.581Z" transform="translate(-392.175 -153.286)" fill="#90caf9"/>
        <path id="Path_2590" data-name="Path 2590" d="M500.273,210.13l-68.954-5.545a7.093,7.093,0,1,1,2.254-13.991h.255l68.347,8.9a5.381,5.381,0,0,1-1.959,10.581Z" transform="translate(-392.175 -153.286)" fill="#fff" opacity="0.7"/>
        <path id="Path_2591" data-name="Path 2591" d="M440.338,189.529c-3.037-2.528-6.055-3.194-8.465-2.234h0l-14.833,7.622.333.96a11.111,11.111,0,0,0-2.057,5.036,26.9,26.9,0,0,0,8.269,22.808,11.482,11.482,0,0,0,4.781,2.489l.372.98,14.794-7.622h0c2.489-.8,4.409-3.272,5.095-7.211a26.923,26.923,0,0,0-8.289-22.828Z" transform="translate(-315.016 -156.708)" fill="#90caf9"/>
        <path id="Path_2592" data-name="Path 2592" d="M440.338,189.529c-3.037-2.528-6.055-3.194-8.465-2.234h0l-14.833,7.622.333.96a11.111,11.111,0,0,0-2.057,5.036,26.9,26.9,0,0,0,8.269,22.808,11.482,11.482,0,0,0,4.781,2.489l.372.98,14.794-7.622h0c2.489-.8,4.409-3.272,5.095-7.211a26.923,26.923,0,0,0-8.289-22.828Z" transform="translate(-315.016 -156.708)" opacity="0.15"/>
        <path id="Path_2593" data-name="Path 2593" d="M436.162,193.485a26.9,26.9,0,0,1,8.387,22.808c-1.332,7.642-7.23,9.8-13.187,4.84a26.845,26.845,0,0,1-8.367-22.808C424.307,190.683,430.2,188.527,436.162,193.485Z" transform="translate(-325.987 -152.924)" fill="#90caf9"/>
        <path id="Path_2594" data-name="Path 2594" d="M436.047,207.428a5.39,5.39,0,0,1-.862,2.234c-1.176,1.724-3.311,1.842-5.447,0a12.8,12.8,0,0,1-3.919-10.914c.411-2.371,1.724-3.625,3.37-3.566a4.7,4.7,0,0,1,2.92,1.274,12.854,12.854,0,0,1,3.939,10.973Z" transform="translate(-323.109 -148.741)" fill="#90caf9"/>
        <path id="Path_2595" data-name="Path 2595" d="M436.047,207.428a5.39,5.39,0,0,1-.862,2.234c-1.176,1.724-3.311,1.842-5.447,0a12.8,12.8,0,0,1-3.919-10.914c.411-2.371,1.724-3.625,3.37-3.566a4.7,4.7,0,0,1,2.92,1.274,12.854,12.854,0,0,1,3.939,10.973Z" transform="translate(-323.109 -148.741)" opacity="0.3"/>
        <path id="Path_2596" data-name="Path 2596" d="M433.522,207.388a5.39,5.39,0,0,1-.862,2.234,4.82,4.82,0,0,1-2.92-1.274,12.8,12.8,0,0,1-3.919-10.895,5.662,5.662,0,0,1,.843-2.234,4.7,4.7,0,0,1,2.92,1.274A12.854,12.854,0,0,1,433.522,207.388Z" transform="translate(-320.584 -148.702)" fill="#455a64"/>
        <path id="Path_2597" data-name="Path 2597" d="M414.6,207.409l8.759-5.075,8.994-22.064-7.093-1.45Z" transform="translate(-297.528 -164.437)" fill="#263238"/>
        <path id="Path_2598" data-name="Path 2598" d="M406.088,210.748l-3.488-3.841,10.6-26.061h0l2.234-5.506,31.92,17.537v6.31L417.3,183.041Z" transform="translate(-289.016 -167.776)" fill="#37474f"/>
        <path id="Path_2599" data-name="Path 2599" d="M395.9,194.313l13.129-7.564V180.42L395.9,188Z" transform="translate(-237.561 -162.902)" fill="#263238"/>
        <path id="Path_2600" data-name="Path 2600" d="M440.948,189l-31.92-17.518L395.9,179.044l31.92,17.537Z" transform="translate(-269.481 -171.48)" fill="#455a64"/>
      </g>
    </g>
    <g id="freepik--Distiller--inject-17" transform="translate(820.142 323.354)">
      <path id="freepik--shadow--inject-17" d="M280.751,266.247a45.626,45.626,0,0,0,39.287,0c10.842-5.9,10.842-15.491,0-21.391a45.625,45.625,0,0,0-39.287,0C269.91,250.836,269.91,260.427,280.751,266.247Z" transform="translate(100.475 166.86)" opacity="0.15"/>
      <path id="freepik--shadow--inject-17-2" data-name="freepik--shadow--inject-17" d="M298.1,282.169l-55.464-30.39c-.685-.35-.685-.97,0-1.347l43.881-23.924a3.005,3.005,0,0,1,2.482,0l55.493,30.255a.691.691,0,0,1,0,1.347L300.58,282.169A3.005,3.005,0,0,1,298.1,282.169Z" transform="translate(43.956 142.854)" opacity="0.15"/>
      <path id="freepik--shadow--inject-17-3" data-name="freepik--shadow--inject-17" d="M274.672,268.085,219.179,237.83a.691.691,0,0,1,0-1.347l43.881-23.924a3.005,3.005,0,0,1,2.482,0l55.464,30.255a.691.691,0,0,1,0,1.347l-43.881,23.924A2.793,2.793,0,0,1,274.672,268.085Z" transform="translate(0.447 119.221)" opacity="0.15"/>
      <g id="freepik--distiller--inject-17-2" data-name="freepik--distiller--inject-17" transform="translate(218.4 141.917)">
        <path id="Path_3957" data-name="Path 3957" d="M241.341,213.019v53.829l-2.6-1.4L237.29,210.81Z" transform="translate(-183.395 -25.204)" fill="#455a64"/>
        <path id="Path_3958" data-name="Path 3958" d="M238.71,213.019v53.829l2.568-1.4,1.484-54.637Z" transform="translate(-180.763 -25.204)" fill="#37474f"/>
        <path id="Path_3959" data-name="Path 3959" d="M223.6,202.769V256.6l-2.6-1.4L219.55,200.56Z" transform="translate(-216.269 -42.569)" fill="#455a64"/>
        <path id="Path_3960" data-name="Path 3960" d="M220.97,202.769V256.6l2.568-1.4,1.484-54.637Z" transform="translate(-213.638 -42.569)" fill="#37474f"/>
        <path id="Path_3961" data-name="Path 3961" d="M255.221,205.146v53.829l-2.6-1.4L251.17,202.91Z" transform="translate(-157.674 -38.588)" fill="#455a64"/>
        <path id="Path_3962" data-name="Path 3962" d="M252.59,205.146v53.829l2.568-1.4,1.484-54.664Z" transform="translate(-155.042 -38.588)" fill="#37474f"/>
        <path id="Path_3963" data-name="Path 3963" d="M321.454,219.757,265.99,189.529a3.006,3.006,0,0,0-2.482,0l-43.881,23.924a2.667,2.667,0,0,0-1.227,2.021V216.9a2.667,2.667,0,0,0,1.227,2.021l55.493,30.255a2.793,2.793,0,0,0,2.454,0l43.881-23.924a2.671,2.671,0,0,0,1.255-2.021v-1.455A2.67,2.67,0,0,0,321.454,219.757Z" transform="translate(-218.4 -61.712)" fill="#90caf9"/>
        <path id="Path_3964" data-name="Path 3964" d="M321.454,219.757,265.99,189.529a3.006,3.006,0,0,0-2.482,0l-43.881,23.924a2.667,2.667,0,0,0-1.227,2.021V216.9a2.667,2.667,0,0,0,1.227,2.021l55.493,30.255a2.793,2.793,0,0,0,2.454,0l43.881-23.924a2.671,2.671,0,0,0,1.255-2.021v-1.455A2.67,2.67,0,0,0,321.454,219.757Z" transform="translate(-218.4 -61.712)" fill="#fff" opacity="0.7"/>
        <path id="Path_3965" data-name="Path 3965" d="M274.672,245.068,219.179,214.84a.691.691,0,0,1,0-1.347l43.881-23.924a3.006,3.006,0,0,1,2.482,0L321.007,219.8a.691.691,0,0,1,0,1.347l-43.881,23.924A2.792,2.792,0,0,1,274.672,245.068Z" transform="translate(-217.953 -61.644)" fill="#90caf9"/>
        <path id="Path_3966" data-name="Path 3966" d="M274.672,245.068,219.179,214.84a.691.691,0,0,1,0-1.347l43.881-23.924a3.006,3.006,0,0,1,2.482,0L321.007,219.8a.691.691,0,0,1,0,1.347l-43.881,23.924A2.792,2.792,0,0,1,274.672,245.068Z" transform="translate(-217.953 -61.644)" fill="#fff" opacity="0.9"/>
        <g id="freepik--flask--inject-17" transform="translate(22.347 93.365)">
          <path id="Path_3967" data-name="Path 3967" d="M280.948,231.129a5.789,5.789,0,0,0-1.227-3.5l-19-26.295V178.54H246.454v22.792l-19,26.268a5.939,5.939,0,0,0-1.2,3.5v.162h0v.4a5.269,5.269,0,0,0,0,.943,13.907,13.907,0,0,0,7.9,9.214,45.058,45.058,0,0,0,38.631,0c5.364-2.937,8.017-6.762,7.989-10.588Z" transform="translate(-226.233 -173.239)" fill="#90caf9"/>
          <path id="Path_3968" data-name="Path 3968" d="M280.948,231.129a5.789,5.789,0,0,0-1.227-3.5l-19-26.295V178.54H246.454v22.792l-19,26.268a5.939,5.939,0,0,0-1.2,3.5v.162h0v.4a5.269,5.269,0,0,0,0,.943,13.907,13.907,0,0,0,7.9,9.214,45.058,45.058,0,0,0,38.631,0c5.364-2.937,8.017-6.762,7.989-10.588Z" transform="translate(-226.233 -173.239)" fill="#fff" opacity="0.7"/>
          <path id="Path_3969" data-name="Path 3969" d="M275.66,208.077l-4.936-6.816-7.047-9.861H239.6l-7.047,9.887-4.964,6.816a3.356,3.356,0,0,0-.228,1.159,3.005,3.005,0,0,0,0,1h0a12.033,12.033,0,0,0,6.962,7.355,42.6,42.6,0,0,0,34.237,0,12,12,0,0,0,6.933-7.328h0a4.655,4.655,0,0,0,0-1.078h0a3.854,3.854,0,0,0,.171-1.132Z" transform="translate(-224.226 -151.453)" fill="#90caf9"/>
          <path id="Path_3970" data-name="Path 3970" d="M275.66,208.077l-4.936-6.816-7.047-9.861H239.6l-7.047,9.887-4.964,6.816a3.356,3.356,0,0,0-.228,1.159,3.005,3.005,0,0,0,0,1h0a12.033,12.033,0,0,0,6.962,7.355,42.6,42.6,0,0,0,34.237,0,12,12,0,0,0,6.933-7.328h0a4.655,4.655,0,0,0,0-1.078h0a3.854,3.854,0,0,0,.171-1.132Z" transform="translate(-224.226 -151.453)" opacity="0.3"/>
          <path id="Path_3971" data-name="Path 3971" d="M237.65,179.513l1-.323-.086,21.634,11.812,17.431L237.65,201.093Z" transform="translate(-205.075 -172.138)" fill="#fff" opacity="0.2"/>
          <path id="Path_3972" data-name="Path 3972" d="M247.511,182.665s-1.427,1.212-7.076,1.212-7.076-1.185-7.076-1.185V178.57h14.266Z" transform="translate(-213.025 -173.188)" fill="#90caf9" opacity="0.2"/>
          <path id="Path_3973" data-name="Path 3973" d="M247.511,180.618a16.178,16.178,0,0,1-7.076,1.212,16.513,16.513,0,0,1-7.076-1.185V178.57h14.266Z" transform="translate(-213.025 -173.188)" opacity="0.1"/>
          <path id="Path_3974" data-name="Path 3974" d="M247.961,190.366a28.016,28.016,0,0,0-12.9,1.132c-4.793,1.859-4.793,4.9,0,6.762a28.2,28.2,0,0,0,17.632,0c4.936-1.859,4.936-4.9,0-6.762a20.455,20.455,0,0,0-4.736-1.132" transform="translate(-216.527 -153.706)" fill="#90caf9"/>
          <path id="Path_3975" data-name="Path 3975" d="M247.961,190.366a28.016,28.016,0,0,0-12.9,1.132c-4.793,1.859-4.793,4.9,0,6.762a28.2,28.2,0,0,0,17.632,0c4.936-1.859,4.936-4.9,0-6.762a20.455,20.455,0,0,0-4.736-1.132" transform="translate(-216.527 -153.706)" opacity="0.2"/>
          <path id="Path_3976" data-name="Path 3976" d="M247.683,177.563a19.851,19.851,0,0,0-12.382,0c-3.367,1.32-3.367,3.448,0,4.769a19.851,19.851,0,0,0,12.382,0C251.135,181.011,251.135,178.883,247.683,177.563Z" transform="translate(-214.109 -176.572)" fill="#90caf9"/>
          <path id="Path_3977" data-name="Path 3977" d="M247.683,177.563a19.851,19.851,0,0,0-12.382,0c-3.367,1.32-3.367,3.448,0,4.769a19.851,19.851,0,0,0,12.382,0C251.135,181.011,251.135,178.883,247.683,177.563Z" transform="translate(-214.109 -176.572)" fill="#fff" opacity="0.6"/>
          <path id="Path_3978" data-name="Path 3978" d="M234.11,179.158c.6.431,2.625,1.428,7.76.862,4.536-.485,3.909-2.694.285-2.91a18.532,18.532,0,0,0-8.046,2.047Z" transform="translate(-211.635 -175.662)" fill="#fff" opacity="0.2"/>
          <path id="Path_3979" data-name="Path 3979" d="M243.493,177.46a18.284,18.284,0,0,0-8.017,0c-2.168.593-2.168,1.563,0,2.182a18.283,18.283,0,0,0,8.017,0C245.69,179.022,245.69,178.052,243.493,177.46Z" transform="translate(-212.117 -175.823)" fill="#90caf9"/>
          <path id="Path_3980" data-name="Path 3980" d="M243.493,177.46a18.284,18.284,0,0,0-8.017,0c-2.168.593-2.168,1.563,0,2.182a18.283,18.283,0,0,0,8.017,0C245.69,179.022,245.69,178.052,243.493,177.46Z" transform="translate(-212.117 -175.823)" fill="#fff" opacity="0.5"/>
          <path id="Path_3981" data-name="Path 3981" d="M254.238,197.373c-6.077,2.694-15.806,1.132-18.488-1.293s1.084-4.957,3.966-5.9a19.045,19.045,0,0,0-4.65,1.132c-4.793,1.859-4.793,4.9,0,6.762a28.2,28.2,0,0,0,17.632,0,13.306,13.306,0,0,0,1.541-.7Z" transform="translate(-216.527 -153.52)" fill="#fff" opacity="0.2" style="mix-blend-mode: hard-light;isolation: isolate"/>
          <path id="Path_3982" data-name="Path 3982" d="M247.669,181.471a4.838,4.838,0,0,0,2.283-1.482c-3.024,2.236-10.414,1.913-13.5.943s-3.2-2.937-1.969-3.853c-2.511,1.32-2.254,3.179.8,4.391a19.851,19.851,0,0,0,12.382,0Z" transform="translate(-214.096 -175.713)" fill="#90caf9" opacity="0.2"/>
          <path id="Path_3983" data-name="Path 3983" d="M239.806,177.468a17.5,17.5,0,0,0-3.966-.458v3.071a16.154,16.154,0,0,0,3.966-.431C242,179.031,242,178.061,239.806,177.468Z" transform="translate(-208.429 -175.831)" opacity="0.1"/>
          <path id="Path_3984" data-name="Path 3984" d="M244.486,177.558a20.553,20.553,0,0,0-9.986-.647,23.6,23.6,0,0,1,9.986.808c2.853,1.4,2.71,2.694,1.969,3.449C247.738,180.037,247.139,178.555,244.486,177.558Z" transform="translate(-210.912 -176.568)" fill="#fff" opacity="0.2"/>
          <path id="Path_3985" data-name="Path 3985" d="M249.83,203.233V179.39a15.393,15.393,0,0,1-3.11-.62v22.981l-19.2,26.456a6.467,6.467,0,0,0,.685,6.3,16.155,16.155,0,0,0,5.506,4.957,31.227,31.227,0,0,0,11.412,3.88s-7.875-3.88-9.444-6.816a9.439,9.439,0,0,1,1.569-8.325Z" transform="translate(-224.816 -172.85)" fill="#fff" opacity="0.2" style="mix-blend-mode: hard-light;isolation: isolate"/>
        </g>
        <path id="Path_3986" data-name="Path 3986" d="M269.722,244.451v12.636l-7.39-4.014L258.11,238.12Z" transform="translate(-144.813 21.063)" fill="#455a64"/>
        <path id="Path_3987" data-name="Path 3987" d="M262.18,244.451v12.636l7.361-4.014,4.223-14.952Z" transform="translate(-137.271 21.063)" fill="#37474f"/>
        <path id="Path_3988" data-name="Path 3988" d="M254.634,235.734V248.37l-7.361-4.014L243.05,229.43Z" transform="translate(-172.721 6.341)" fill="#455a64"/>
        <path id="Path_3989" data-name="Path 3989" d="M247.11,235.734V248.37l7.39-4.014,4.223-14.926Z" transform="translate(-165.197 6.341)" fill="#37474f"/>
        <path id="Path_3990" data-name="Path 3990" d="M281.484,237.624V250.26l-7.361-4.014L269.9,231.32Z" transform="translate(-122.965 9.542)" fill="#455a64"/>
        <path id="Path_3991" data-name="Path 3991" d="M273.96,237.624V250.26l7.39-4.014,4.194-14.925Z" transform="translate(-115.441 9.542)" fill="#37474f"/>
        <path id="Path_3992" data-name="Path 3992" d="M344.934,250.034,289.47,219.779a3.005,3.005,0,0,0-2.482,0L243.107,243.7a2.667,2.667,0,0,0-1.227,2.021v1.455a2.667,2.667,0,0,0,1.227,2.021l55.464,30.228a3.005,3.005,0,0,0,2.482,0L344.934,255.5a2.667,2.667,0,0,0,1.227-2.021v-1.428A2.666,2.666,0,0,0,344.934,250.034Z" transform="translate(-174.889 -10.465)" fill="#37474f"/>
        <path id="Path_3993" data-name="Path 3993" d="M298.1,275.288,242.634,245.06c-.685-.35-.685-.97,0-1.347l43.881-23.924a3.005,3.005,0,0,1,2.482,0l55.493,30.228a.691.691,0,0,1,0,1.347l-43.881,23.924A3,3,0,0,1,298.1,275.288Z" transform="translate(-174.444 -10.448)" fill="#455a64"/>
        <path id="Path_3994" data-name="Path 3994" d="M257.983,154.2l28.16,15.33L288,166.485l-28.16-15.33h0a.989.989,0,0,0-.941,0,2.668,2.668,0,0,0-1.312,2.155A.817.817,0,0,0,257.983,154.2Z" transform="translate(-145.827 -126.47)" fill="#455a64"/>
        <path id="Path_3995" data-name="Path 3995" d="M270.065,157.637a2.668,2.668,0,0,1-1.312,2.155.812.812,0,0,1-1.312-.727,2.668,2.668,0,0,1,1.312-2.155C269.494,156.505,270.065,156.829,270.065,157.637Z" transform="translate(-127.524 -116.814)" fill="#37474f"/>
        <path id="Path_3996" data-name="Path 3996" d="M270.928,369V154.49H267.19V369.024h0a.9.9,0,0,0,.571.7,3,3,0,0,0,2.625,0,.839.839,0,0,0,.542-.727Z" transform="translate(-127.987 -120.618)" fill="#37474f"/>
        <path id="Path_3997" data-name="Path 3997" d="M267.725,154.424a3,3,0,0,1,2.653,0,.744.744,0,0,1,0,1.455,3,3,0,0,1-2.625,0C267.012,155.448,267.012,154.8,267.725,154.424Z" transform="translate(-127.98 -121.253)" fill="#455a64"/>
        <path id="Path_3998" data-name="Path 3998" d="M268.177,168.714l28.16,15.33,1.854-3.071-28.16-15.33h0a1.021,1.021,0,0,0-.942,0,2.668,2.668,0,0,0-1.312,2.155.816.816,0,0,0,.4.916Z" transform="translate(-126.948 -101.919)" fill="#455a64"/>
        <path id="Path_3999" data-name="Path 3999" d="M280.255,172.11a2.668,2.668,0,0,1-1.312,2.155.808.808,0,0,1-1.312-.7,2.668,2.668,0,0,1,1.312-2.155C279.684,171.006,280.255,171.329,280.255,172.11Z" transform="translate(-108.641 -92.249)" fill="#37474f"/>
        <path id="Path_4000" data-name="Path 4000" d="M323.039,272.924h0V228.74H273.88v44.184h0c0,3.448,2.4,6.9,7.19,9.51a40.522,40.522,0,0,0,34.779,0C320.671,279.821,323.068,276.372,323.039,272.924Z" transform="translate(-115.59 5.172)" fill="#90caf9"/>
        <path id="Path_4001" data-name="Path 4001" d="M323.039,272.924h0V228.74H273.88v44.184h0c0,3.448,2.4,6.9,7.19,9.51a40.522,40.522,0,0,0,34.779,0C320.671,279.821,323.068,276.372,323.039,272.924Z" transform="translate(-115.59 5.172)" fill="#fff" opacity="0.6"/>
        <path id="Path_4002" data-name="Path 4002" d="M275,236v24.463h0a10.1,10.1,0,0,0,6.248,8.244,35.114,35.114,0,0,0,30.214,0,10.133,10.133,0,0,0,6.277-8.244V236Z" transform="translate(-113.514 17.471)" fill="#37474f"/>
        <path id="Path_4003" data-name="Path 4003" d="M281.258,251.579c-8.331-4.526-8.331-11.908,0-16.461a35.113,35.113,0,0,1,30.214,0c8.36,4.553,8.36,11.935,0,16.461a35.113,35.113,0,0,1-30.214,0Z" transform="translate(-113.496 10.19)" fill="#455a64"/>
        <path id="Path_4004" data-name="Path 4004" d="M291.46,230.33v40.25l-1.17,2.506V231.569Z" transform="translate(-85.18 7.865)" fill="#fff" opacity="0.7"/>
        <path id="Path_4005" data-name="Path 4005" d="M274.64,230.65v37.96c0,4.553,6.534,12.447,22.4,12.716a40.591,40.591,0,0,1-11.412-4.1,10.684,10.684,0,0,1-5.706-9.295V233.21Z" transform="translate(-114.181 8.407)" fill="#fff" opacity="0.3"/>
        <path id="Path_4006" data-name="Path 4006" d="M325.721,232.229a17.868,17.868,0,0,0-6.106-5.065,45.057,45.057,0,0,0-38.688,0,17.867,17.867,0,0,0-6.106,5.065H272.91v5.254h0c0,3.906,2.539,7.813,7.989,10.776a45.056,45.056,0,0,0,38.688,0c5.449-2.964,8.1-6.87,7.989-10.777h0v-5.254Z" transform="translate(-117.387 -4.891)" fill="#90caf9"/>
        <path id="Path_4007" data-name="Path 4007" d="M325.721,232.229a17.868,17.868,0,0,0-6.106-5.065,45.057,45.057,0,0,0-38.688,0,17.867,17.867,0,0,0-6.106,5.065H272.91v5.254h0c0,3.906,2.539,7.813,7.989,10.776a45.056,45.056,0,0,0,38.688,0c5.449-2.964,8.1-6.87,7.989-10.777h0v-5.254Z" transform="translate(-117.387 -4.891)" fill="#fff" opacity="0.4"/>
        <path id="Path_4008" data-name="Path 4008" d="M319.634,242.33c.713-.4,1.4-.808,2.026-1.239a58.134,58.134,0,0,1-17.119,4.5,44.477,44.477,0,0,1-24.651-5.927,12.947,12.947,0,0,1-6.077-9.51V226.3H272.9v5.254h0c0,3.906,2.539,7.813,7.989,10.776a45.056,45.056,0,0,0,38.745,0Z" transform="translate(-117.406 1.038)" opacity="0.1"/>
        <ellipse id="Ellipse_58" data-name="Ellipse 58" cx="27.361" cy="14.925" rx="27.361" ry="14.925" transform="translate(155.523 212.412)" fill="#90caf9"/>
        <ellipse id="Ellipse_59" data-name="Ellipse 59" cx="27.361" cy="14.925" rx="27.361" ry="14.925" transform="translate(155.523 212.412)" fill="#fff" opacity="0.7"/>
        <path id="Path_4009" data-name="Path 4009" d="M281.094,244.144c-9.615-5.254-9.615-13.713,0-18.859a40.461,40.461,0,0,1,34.751,0c9.615,5.254,9.615,13.74,0,18.859a40.461,40.461,0,0,1-34.751,0Z" transform="translate(-115.585 -7.323)" fill="#90caf9"/>
        <path id="Path_4010" data-name="Path 4010" d="M281.094,244.144c-9.615-5.254-9.615-13.713,0-18.859a40.461,40.461,0,0,1,34.751,0c9.615,5.254,9.615,13.74,0,18.859a40.461,40.461,0,0,1-34.751,0Z" transform="translate(-115.585 -7.323)" fill="#fff" opacity="0.4"/>
        <path id="Path_4011" data-name="Path 4011" d="M307.192,225.787a40.745,40.745,0,0,0-26.135,2.99,14.006,14.006,0,0,0-6.534,6.466c-1.854-4.338.342-9.106,6.534-12.474-3.081,1.913-3.823,5.388-1.6,4.957S293.183,221.154,307.192,225.787Z" transform="translate(-115.577 -4.942)" opacity="0.1"/>
        <path id="Path_4012" data-name="Path 4012" d="M315.423,227.478a40.278,40.278,0,0,0-34.751,0,13.845,13.845,0,0,0-6.562,6.466,14.066,14.066,0,0,0,6.562,6.466,40.461,40.461,0,0,0,34.751,0,14.067,14.067,0,0,0,6.562-6.466,13.845,13.845,0,0,0-6.562-6.466Z" transform="translate(-115.163 -3.642)" fill="#fff" opacity="0.4"/>
        <path id="Path_4013" data-name="Path 4013" d="M321.957,233.952a6.04,6.04,0,0,1-.428.862,14.976,14.976,0,0,0-6.106-5.523,40.339,40.339,0,0,0-34.779,0,14.975,14.975,0,0,0-6.106,5.523,6.043,6.043,0,0,1-.428-.862,14.006,14.006,0,0,1,6.534-6.466,40.521,40.521,0,0,1,34.779,0,14.006,14.006,0,0,1,6.534,6.466Z" transform="translate(-115.163 -3.596)" opacity="0.1"/>
        <path id="Path_4014" data-name="Path 4014" d="M315.973,241.747a35.1,35.1,0,0,1-14.808,4.068,42.157,42.157,0,0,1-15.407-1.778,25.991,25.991,0,0,1-6.9-3.449,12.408,12.408,0,0,1-4.679-5.873,8.21,8.21,0,0,1-.257-3.718,8.773,8.773,0,0,1,1.455-3.422,16.2,16.2,0,0,1,5.849-4.8,15.408,15.408,0,0,0-5.535,4.957,8.6,8.6,0,0,0-1.37,3.341,8.111,8.111,0,0,0,.314,3.5,11.737,11.737,0,0,0,4.594,5.55,25.657,25.657,0,0,0,6.79,3.287,41.474,41.474,0,0,0,15.121,1.94A38,38,0,0,0,315.973,241.747Z" transform="translate(-115.714 -4.925)" fill="#fff"/>
        <path id="Path_4015" data-name="Path 4015" d="M344.934,217.194,289.47,186.939a3.005,3.005,0,0,0-2.482,0l-43.881,23.924a2.667,2.667,0,0,0-1.227,2.021v1.455a2.667,2.667,0,0,0,1.227,2.021l55.464,30.228a3.005,3.005,0,0,0,2.482,0l43.881-24a2.667,2.667,0,0,0,1.227-2.021v-1.428a2.487,2.487,0,0,0-1.227-1.94Z" transform="translate(-174.889 -66.1)" fill="#37474f"/>
        <path id="Path_4016" data-name="Path 4016" d="M298.114,242.465,242.649,212.21a.691.691,0,0,1,0-1.347l43.881-23.924a3.005,3.005,0,0,1,2.482,0l55.493,30.255c.685.35.685.97,0,1.347l-43.881,23.924A3,3,0,0,1,298.114,242.465Z" transform="translate(-174.46 -66.1)" fill="#455a64"/>
        <path id="freepik--shadow--inject-17-4" data-name="freepik--shadow--inject-17" d="M257.808,195.626c-10.014,5.388-10.014,14.306,0,19.775a42.264,42.264,0,0,0,36.235,0c10.014-5.388,10.014-14.306,0-19.775a42.264,42.264,0,0,0-36.235,0Z" transform="translate(-159.291 -57.841)" fill="#37474f"/>
        <g id="freepik--flask--inject-17-2" data-name="freepik--flask--inject-17" transform="translate(88.958 74.55)">
          <path id="Path_4017" data-name="Path 4017" d="M258.259,195.921a29.588,29.588,0,0,1,25.336,0c7.019,3.826,7.019,10.022,0,13.821a29.406,29.406,0,0,1-25.336,0C251.24,205.944,251.24,199.747,258.259,195.921Z" transform="translate(-243.249 -129.803)" fill="#90caf9"/>
          <g id="Group_130" data-name="Group 130" transform="translate(9.746 63.269)" opacity="0.3">
            <path id="Path_4018" data-name="Path 4018" d="M258.259,195.921a29.588,29.588,0,0,1,25.336,0c7.019,3.826,7.019,10.022,0,13.821a29.406,29.406,0,0,1-25.336,0C251.24,205.944,251.24,199.747,258.259,195.921Z" transform="translate(-252.995 -193.073)" fill="#fff"/>
          </g>
          <path id="Path_4019" data-name="Path 4019" d="M285.017,195.428V171.8H269.382v23.6c-13.166,3.669-21.48,15.913-19.517,28.742s13.607,22.35,27.334,22.35,25.371-9.521,27.334-22.35-6.351-25.073-19.517-28.742Z" transform="translate(-249.579 -165.842)" fill="#90caf9"/>
          <path id="Path_4020" data-name="Path 4020" d="M285.017,195.428V171.8H269.382v23.6c-13.166,3.669-21.48,15.913-19.517,28.742s13.607,22.35,27.334,22.35,25.371-9.521,27.334-22.35-6.351-25.073-19.517-28.742Z" transform="translate(-249.579 -165.842)" fill="#fff" opacity="0.7"/>
          <path id="Path_4021" data-name="Path 4021" d="M261.9,194.457l.514-21.957-1.141.35v21.607Z" transform="translate(-227.915 -164.656)" fill="#fff" opacity="0.2"/>
          <path id="Path_4022" data-name="Path 4022" d="M272.155,176.336s-1.569,1.347-7.817,1.347-7.818-1.32-7.818-1.32V171.81h15.635Z" transform="translate(-236.717 -165.825)" fill="#90caf9" opacity="0.2"/>
          <path id="Path_4023" data-name="Path 4023" d="M272.155,173.884a17.768,17.768,0,0,1-7.817,1.347,18.012,18.012,0,0,1-7.818-1.32v-2.1h15.635Z" transform="translate(-236.717 -165.825)" opacity="0.1"/>
          <path id="Path_4024" data-name="Path 4024" d="M272.357,170.687a21.93,21.93,0,0,0-13.666,0c-3.738,1.455-3.738,3.8,0,5.254a21.93,21.93,0,0,0,13.666,0C276.18,174.539,276.18,172.2,272.357,170.687Z" transform="translate(-237.889 -169.578)" fill="#90caf9"/>
          <path id="Path_4025" data-name="Path 4025" d="M272.357,170.687a21.93,21.93,0,0,0-13.666,0c-3.738,1.455-3.738,3.8,0,5.254a21.93,21.93,0,0,0,13.666,0C276.18,174.539,276.18,172.2,272.357,170.687Z" transform="translate(-237.889 -169.578)" fill="#fff" opacity="0.6"/>
          <path id="Path_4026" data-name="Path 4026" d="M257.37,172.423c.685.485,2.853,1.563,8.559.943,4.993-.539,4.308-2.91.285-3.206A20.41,20.41,0,0,0,257.37,172.423Z" transform="translate(-235.142 -168.62)" fill="#fff" opacity="0.2"/>
          <path id="Path_4027" data-name="Path 4027" d="M267.746,170.585a20.4,20.4,0,0,0-8.845,0c-2.425.674-2.425,1.751,0,2.4a19.608,19.608,0,0,0,8.845,0C270.228,172.336,270.228,171.259,267.746,170.585Z" transform="translate(-235.675 -168.722)" fill="#90caf9"/>
          <path id="Path_4028" data-name="Path 4028" d="M267.746,170.585a20.4,20.4,0,0,0-8.845,0c-2.425.674-2.425,1.751,0,2.4a19.608,19.608,0,0,0,8.845,0C270.228,172.336,270.228,171.259,267.746,170.585Z" transform="translate(-235.675 -168.722)" fill="#fff" opacity="0.5"/>
          <path id="Path_4029" data-name="Path 4029" d="M272.371,175.049a5.492,5.492,0,0,0,2.511-1.643c-3.338,2.479-11.412,2.128-14.922,1.024s-3.509-3.233-2.168-4.23c-2.853,1.455-2.482,3.529.913,4.849a21.929,21.929,0,0,0,13.666,0Z" transform="translate(-237.903 -168.553)" fill="#90caf9" opacity="0.2"/>
          <path id="Path_4030" data-name="Path 4030" d="M263.674,170.586a18.084,18.084,0,0,0-4.394-.485v3.368a18.084,18.084,0,0,0,4.394-.485C266.156,172.337,266.156,171.259,263.674,170.586Z" transform="translate(-231.603 -168.723)" opacity="0.1"/>
          <path id="Path_4031" data-name="Path 4031" d="M268.813,170.7a22.148,22.148,0,0,0-11.013-.727,25.635,25.635,0,0,1,10.9,1.024c3.167,1.536,3,2.883,2.169,3.8C272.436,173.391,271.752,171.856,268.813,170.7Z" transform="translate(-234.345 -169.589)" fill="#fff" opacity="0.2"/>
          <path id="Path_4032" data-name="Path 4032" d="M299.519,201.625c0,9.353-5.995,17.78-15.168,21.319a25.444,25.444,0,0,1-26.645-5.2,22.092,22.092,0,0,1-4.978-25.254,13.451,13.451,0,0,1,6.106-5.9,37.938,37.938,0,0,1,32.583,0,13.591,13.591,0,0,1,6.106,5.9A21.785,21.785,0,0,1,299.519,201.625Z" transform="translate(-247.447 -147.011)" fill="#90caf9"/>
          <path id="Path_4033" data-name="Path 4033" d="M299.519,201.625c0,9.353-5.995,17.78-15.168,21.319a25.444,25.444,0,0,1-26.645-5.2,22.092,22.092,0,0,1-4.978-25.254,13.451,13.451,0,0,1,6.106-5.9,37.938,37.938,0,0,1,32.583,0,13.591,13.591,0,0,1,6.106,5.9A21.785,21.785,0,0,1,299.519,201.625Z" transform="translate(-247.447 -147.011)" opacity="0.1"/>
          <path id="Path_4034" data-name="Path 4034" d="M283.674,195.535a21.809,21.809,0,0,0-1.969-9.025c-1.912,3.1-7.589,12.5-7.589,12.5,0,8.379-6.391,19.532-14.836,19.532a25.117,25.117,0,0,0,17.247-6.729,22.378,22.378,0,0,0,7.147-16.279Z" transform="translate(-231.603 -140.921)" opacity="0.1"/>
          <path id="Path_4035" data-name="Path 4035" d="M290.55,204.373a37.938,37.938,0,0,1-32.582,0c-5.906-3.233-7.932-7.759-6.106-11.881a13.452,13.452,0,0,1,6.106-5.9,37.938,37.938,0,0,1,32.582,0,13.591,13.591,0,0,1,6.106,5.9C298.453,196.614,296.427,201.14,290.55,204.373Z" transform="translate(-246.552 -147.011)" fill="#90caf9"/>
          <path id="Path_4036" data-name="Path 4036" d="M258.224,199.009c-5.706-5.55-1.2-13.471,2.853-15.249a22.885,22.885,0,0,0-3.11,1.4,13.452,13.452,0,0,0-6.106,5.9c-1.826,4.122.2,8.648,6.106,11.881a38.574,38.574,0,0,0,28.1,1.886C276.027,206.256,263.93,204.5,258.224,199.009Z" transform="translate(-246.552 -145.58)" fill="#fff" opacity="0.2" style="mix-blend-mode: hard-light;isolation: isolate"/>
          <path id="Path_4037" data-name="Path 4037" d="M276.009,198.246V172.76a20.184,20.184,0,0,1-5.278-.62v23.87c-11.813,2.262-20.369,11.978-20.571,23.358,0,12.824,8.788,24.786,26.02,24.786-10.419-3.31-17.451-12.516-17.49-22.9S265.615,201.625,276.009,198.246Z" transform="translate(-248.503 -165.266)" fill="#fff" opacity="0.2" style="mix-blend-mode: hard-light;isolation: isolate"/>
        </g>
        <path id="Path_4038" data-name="Path 4038" d="M284.774,171.883,264.06,160.595a3.006,3.006,0,0,0-2.454,0l-9.13,4.984a2.667,2.667,0,0,0-1.227,2.021v4.984a2.667,2.667,0,0,0,1.227,2.021l11.213,6.089a8.011,8.011,0,0,1,4.28,7v.647c0,.431.6.862,1.826,1.185a19.609,19.609,0,0,0,8.845,0c1.255-.323,1.883-.781,1.855-1.212v-.4a8.016,8.016,0,0,1,4.28-6.924h0A2.666,2.666,0,0,0,286,178.969v-4.984a2.661,2.661,0,0,0-1.227-2.1Z" transform="translate(-157.525 -110.719)" fill="#37474f"/>
        <path id="Path_4039" data-name="Path 4039" d="M252.1,166.888l20.229,11.019a2.732,2.732,0,0,0,2.425,0l8.9-4.849c.656-.35.656-.943,0-1.32l-20.229-11.019a2.732,2.732,0,0,0-2.425,0l-8.9,4.849a.688.688,0,0,0,0,1.32Z" transform="translate(-156.864 -110.547)" fill="#455a64"/>
        <path id="Path_4040" data-name="Path 4040" d="M270.928,282V154.49H267.19V282h0a.9.9,0,0,0,.571.727,3,3,0,0,0,2.625,0A.892.892,0,0,0,270.928,282Z" transform="translate(-127.987 -120.618)" fill="#37474f"/>
        <path id="Path_4041" data-name="Path 4041" d="M287.654,237.731l-.827,1.994a1.952,1.952,0,0,1-3.595,0l-.827-1.994a16.629,16.629,0,0,1-1.284-6.412V221h7.818v10.265A17.167,17.167,0,0,1,287.654,237.731Z" transform="translate(-102.173 -7.941)" fill="#455a64"/>
        <path id="Path_4042" data-name="Path 4042" d="M282.867,238.054a11.933,11.933,0,0,0,.342-3.987V221h-.685v13.147A10.477,10.477,0,0,0,282.867,238.054Z" transform="translate(-99.669 -7.941)" fill="#fff" opacity="0.4"/>
        <path id="Path_4043" data-name="Path 4043" d="M284.455,221H283v16.165h0a12.244,12.244,0,0,0,1.427-5.739Z" transform="translate(-98.689 -7.941)" fill="#fff" opacity="0.4"/>
        <path id="Path_4044" data-name="Path 4044" d="M296.545,223.865v1.994a4.035,4.035,0,0,1-2.482,3.287,14.118,14.118,0,0,1-12.069,0,5.62,5.62,0,0,1-1.855-1.536,2.986,2.986,0,0,1-.628-1.751v-1.994a1.91,1.91,0,0,1,0-.539,4.383,4.383,0,0,1,2.4-2.694h.143a14.091,14.091,0,0,1,11.926,0,4.443,4.443,0,0,1,2.425,2.694,3.843,3.843,0,0,1,.143.539Z" transform="translate(-105.188 -10.807)" fill="#fafafa"/>
        <path id="Path_4045" data-name="Path 4045" d="M288.672,227.782v-2.964c0-1.185.314-2.964-1.854-2.964a6.14,6.14,0,0,1-4.736-2.074h-.143a4.384,4.384,0,0,0-2.4,2.694,1.911,1.911,0,0,0,0,.539v2.021a2.987,2.987,0,0,0,.628,1.751,5.62,5.62,0,0,0,1.854,1.536,14.119,14.119,0,0,0,12.069,0C291.639,229.317,288.672,228.886,288.672,227.782Z" transform="translate(-105.132 -10.008)" fill="#e0e0e0"/>
        <path id="Path_4046" data-name="Path 4046" d="M282.006,227.221a3.392,3.392,0,0,1,0-6.547,13.876,13.876,0,0,1,12.04,0,3.392,3.392,0,0,1,0,6.547,14.058,14.058,0,0,1-12.04,0Z" transform="translate(-105.17 -10.821)" fill="#455a64"/>
        <path id="Path_4047" data-name="Path 4047" d="M296.455,221.719v5.011a3.781,3.781,0,0,1,0,.566,4.443,4.443,0,0,1-2.425,2.694,12.212,12.212,0,0,1-5.335,1.32,13.421,13.421,0,0,1-6.733-1.32,5.62,5.62,0,0,1-1.854-1.536,2.616,2.616,0,0,1-.542-1.212,1.629,1.629,0,0,1,0-.539v-5.065a4.034,4.034,0,0,1,2.482-3.287l.457-.215a14.185,14.185,0,0,1,11.612.215A4.011,4.011,0,0,1,296.455,221.719Z" transform="translate(-105.097 -14.721)" fill="#fafafa"/>
        <path id="Path_4048" data-name="Path 4048" d="M280.142,227.742A5.62,5.62,0,0,0,282,229.277a13.419,13.419,0,0,0,6.733,1.32v-1.832c0-1.185.371-2.694-1.855-2.964A8.921,8.921,0,0,1,281,222.838a3.939,3.939,0,0,1,1.455-5.388l-.456.216a4.034,4.034,0,0,0-2.482,3.287v5.065a1.629,1.629,0,0,0,0,.539,2.639,2.639,0,0,0,.628,1.185Z" transform="translate(-105.19 -13.955)" fill="#e0e0e0"/>
        <path id="Path_4049" data-name="Path 4049" d="M315.414,194.231h0a6.891,6.891,0,0,0,2.853,5.658l27.39,14.952c3.823,2.074,6.933,8.271,6.933,13.821v.135c0,5.55-3.11,8.352-6.933,6.277l-27.39-14.925c-1.569-.862-2.853.3-2.853,2.694h0a6.891,6.891,0,0,0,2.853,5.658l27.39,14.952c3.823,2.074,6.933,8.271,6.933,13.821v.135c0,5.55-3.11,8.352-6.933,6.277l-27.39-14.926c-1.569-.862-2.853.3-2.853,2.694h0a6.891,6.891,0,0,0,2.853,5.658l27.39,14.952c3.823,2.075,6.933,8.271,6.933,13.821v.135c0,5.55-3.11,8.352-6.933,6.277l-27.39-14.925c-1.569-.862-2.853.3-2.853,2.694v.135a6.968,6.968,0,0,0,2.853,5.685l27.39,14.926c3.823,2.074,6.933,8.271,6.933,13.821h0c0,5.55-3.11,8.352-6.933,6.277l-27.39-14.925c-1.569-.862-2.853.3-2.853,2.694v.135a6.968,6.968,0,0,0,2.853,5.685l27.39,14.925c3.823,2.074,6.933,8.271,6.933,13.821s-3.11,8.352-6.933,6.277l-14.266-7.84c-1.569-.835-2.853.323-2.853,2.694v4.257a.976.976,0,0,1-.6.781,3.365,3.365,0,0,1-2.853,0,.976.976,0,0,1-.6-.781v-6.466c0-5.55,3.11-8.379,6.933-6.3l14.266,7.84c1.569.862,2.853-.3,2.853-2.694a6.89,6.89,0,0,0-2.853-5.658L318.3,320.424c-3.795-2.1-6.9-8.3-6.9-13.848h0c0-5.55,3.11-8.352,6.9-6.277l27.39,14.925c1.569.862,2.853-.3,2.853-2.559V312.5a6.891,6.891,0,0,0-2.853-5.658L318.3,291.893c-3.795-2.074-6.9-8.271-6.9-13.821v-.135c0-5.55,3.11-8.352,6.9-6.277l27.39,14.925c1.569.862,2.853-.3,2.853-2.559v-.162a6.89,6.89,0,0,0-2.853-5.658L318.3,263.255c-3.795-2.075-6.9-8.271-6.9-13.821V249.3c0-5.55,3.11-8.352,6.9-6.277l27.39,14.925c1.569.862,2.853-.3,2.853-2.559v-.162a6.89,6.89,0,0,0-2.853-5.658L318.3,234.616c-3.795-2.074-6.9-8.271-6.9-13.821v-.135c0-5.55,3.11-8.352,6.9-6.277l27.39,14.925c1.569.862,2.853-.3,2.853-2.694h0a6.89,6.89,0,0,0-2.853-5.658L318.3,206c-3.795-2.074-6.9-8.271-6.9-13.821v-.135c0-5.55,3.11-8.352,6.9-6.277l27.39,14.926c1.569.862,2.853-.3,2.853-2.694v-.135a6.89,6.89,0,0,0-2.853-5.658l-80.03-43.672c-1.569-.835-2.853.323-2.853,2.694v51.593a.945.945,0,0,1-.571.781,3.364,3.364,0,0,1-2.853,0,.976.976,0,0,1-.6-.781V148.942c0-5.55,3.081-8.379,6.9-6.3l80.03,43.672c3.823,2.074,6.933,8.271,6.933,13.821v.135c0,5.55-3.11,8.352-6.933,6.277l-27.39-14.926C316.67,190.782,315.414,191.941,315.414,194.231Z" transform="translate(-143.572 -141.85)" fill="#90caf9"/>
        <path id="Path_4050" data-name="Path 4050" d="M314.911,193.328h0a7.722,7.722,0,0,0,.913,3.529,6,6,0,0,0,2.4,3.233l27.39,14.952A12.96,12.96,0,0,1,350.66,221a18.638,18.638,0,0,1,1.4,6.762v.135c0,5.55-3.11,8.352-6.933,6.277l-27.39-14.926c-1.569-.862-2.853.3-2.853,2.694h0a7.721,7.721,0,0,0,.913,3.529,6,6,0,0,0,2.4,3.233l27.39,14.952a12.967,12.967,0,0,1,5.107,5.981,18.636,18.636,0,0,1,1.4,6.762v.135c0,5.55-3.11,8.352-6.933,6.277l-27.39-14.925c-1.569-.862-2.853.3-2.853,2.694h0a7.721,7.721,0,0,0,.913,3.529,6,6,0,0,0,2.4,3.233l27.39,14.952a12.96,12.96,0,0,1,5.05,5.954,18.637,18.637,0,0,1,1.4,6.762v.135c0,5.55-3.11,8.352-6.933,6.277L317.735,276.5c-1.569-.862-2.853.3-2.853,2.694h0a7.722,7.722,0,0,0,.913,3.529,6.181,6.181,0,0,0,2.4,3.26l27.39,14.926a12.96,12.96,0,0,1,5.05,5.954,18.636,18.636,0,0,1,1.4,6.762v.135c0,5.55-3.11,8.379-6.933,6.277l-27.39-14.925c-1.569-.862-2.853.3-2.853,2.694v.135a7.72,7.72,0,0,0,.913,3.529,6.18,6.18,0,0,0,2.4,3.26l27.39,14.925a12.961,12.961,0,0,1,5.05,5.954,18.636,18.636,0,0,1,1.4,6.762c0,5.55-3.11,8.352-6.933,6.277l-14.266-7.84c-1.569-.835-2.853.323-2.853,2.694v6.062h0a3.365,3.365,0,0,1-2.853,0,.976.976,0,0,1-.6-.781v-6.466c0-5.55,3.11-8.379,6.933-6.3l14.266,7.84c1.569.862,2.853-.3,2.853-2.694a7.725,7.725,0,0,0-.941-3.529,5.752,5.752,0,0,0-2.4-3.233l-27.39-14.926a13.423,13.423,0,0,1-5.05-5.954,18.759,18.759,0,0,1-1.37-6.789h0c0-5.55,3.11-8.352,6.9-6.277l27.39,14.925c1.569.862,2.853-.3,2.853-2.559v-.162a7.726,7.726,0,0,0-.941-3.529,5.753,5.753,0,0,0-2.4-3.233l-27.39-14.925a13.425,13.425,0,0,1-5.05-5.954,18.756,18.756,0,0,1-1.37-6.789v-.135c0-5.55,3.11-8.352,6.9-6.277l27.39,14.925c1.569.862,2.853-.3,2.853-2.559v-.162a7.725,7.725,0,0,0-.942-3.529,5.752,5.752,0,0,0-2.4-3.233l-27.39-14.925a13.424,13.424,0,0,1-5.05-5.954,18.757,18.757,0,0,1-1.369-6.789v-.135c0-5.55,3.11-8.352,6.9-6.277L345.7,258.1c1.569.862,2.853-.3,2.853-2.559v-.243a7.725,7.725,0,0,0-.941-3.529,5.753,5.753,0,0,0-2.4-3.233l-27.39-14.952a13.123,13.123,0,0,1-5.05-5.954,18.5,18.5,0,0,1-1.37-6.762v-.135c0-5.55,3.11-8.352,6.9-6.277l27.39,14.926c1.569.862,2.853-.3,2.853-2.694h0a7.725,7.725,0,0,0-.941-3.529,5.753,5.753,0,0,0-2.4-3.233l-27.39-14.952a13.124,13.124,0,0,1-5.05-5.954,18.5,18.5,0,0,1-1.37-6.762v-.135c0-5.55,3.11-8.352,6.9-6.277l27.39,14.925c1.569.862,2.853-.3,2.853-2.694v-.135a7.725,7.725,0,0,0-.942-3.529,5.753,5.753,0,0,0-2.4-3.233L265.1,147.528c-1.569-.835-2.853.323-2.853,2.694v53.344h0a3.365,3.365,0,0,1-2.853,0,.976.976,0,0,1-.6-.781V148.9c0-5.55,3.081-8.379,6.9-6.3l80.03,43.672a12.96,12.96,0,0,1,5.05,5.954,18.532,18.532,0,0,1,1.4,6.762h0c0,5.55-3.11,8.352-6.933,6.277l-27.39-14.926C316.166,189.745,314.911,190.9,314.911,193.328Z" transform="translate(-143.553 -141.917)" fill="#fff" opacity="0.5"/>
        <path id="Path_4051" data-name="Path 4051" d="M350.759,192.256a13.39,13.39,0,0,0-5.021-5.954L265.68,142.657c-3.795-2.1-6.9.727-6.9,6.277v9.672a68.452,68.452,0,0,1,.856-12.716,3.71,3.71,0,0,1,2.278-2.716,4.079,4.079,0,0,1,3.656.291l80.914,44.13a15.823,15.823,0,0,1,5.107,7.193,16.455,16.455,0,0,0-.827-2.533Z" transform="translate(-143.624 -141.842)" fill="#fff"/>
        <path id="Path_4052" data-name="Path 4052" d="M313.229,192.14h0a10.29,10.29,0,0,0,4.194,8.406l27.39,14.925a13.539,13.539,0,0,1,5.564,11.1v.377c0,4.472-2.482,6.735-5.564,5.065l-27.39-14.925c-2.311-1.266-4.194.431-4.194,3.8h0a10.29,10.29,0,0,0,4.194,8.406l27.39,14.925a13.539,13.539,0,0,1,5.564,11.1v.162c0,4.445-2.482,6.708-5.564,5.038l-27.39-14.925c-2.311-1.266-4.194.431-4.194,3.8h0a10.29,10.29,0,0,0,4.194,8.406l27.39,14.926a13.539,13.539,0,0,1,5.564,11.1v.162c0,4.445-2.482,6.708-5.564,5.038L317.423,274.1c-2.311-1.266-4.194.431-4.194,3.8v.243a10.29,10.29,0,0,0,4.194,8.406l27.39,14.926a13.539,13.539,0,0,1,5.564,11.1v.162c0,4.445-2.482,6.708-5.564,5.038l-27.39-14.925c-2.311-1.266-4.194.431-4.194,3.8v.135a10.29,10.29,0,0,0,4.194,8.406l27.39,14.925a13.539,13.539,0,0,1,5.564,11.1c0,4.472-2.482,6.735-5.564,5.065l-14.266-7.84c-2.34-1.266-4.223.458-4.223,3.826v6.008a3.741,3.741,0,0,1-1.341,0V341.5c0-4.445,2.482-6.708,5.564-5.038l14.266,7.813c2.311,1.266,4.194-.431,4.194-3.8a10.29,10.29,0,0,0-4.194-8.406l-27.39-14.925a13.617,13.617,0,0,1-5.564-11.1h0c0-4.472,2.511-6.735,5.564-5.065l27.39,14.952c2.311,1.239,4.194-.458,4.194-3.826v-.135a10.29,10.29,0,0,0-4.194-8.406l-27.39-14.925a13.617,13.617,0,0,1-5.564-11.1v-.135c0-4.472,2.511-6.735,5.564-5.065l27.39,14.952c2.311,1.239,4.194-.458,4.194-3.826h0a10.29,10.29,0,0,0-4.194-8.406l-27.39-14.926a13.617,13.617,0,0,1-5.564-11.1v-.135c0-4.472,2.511-6.735,5.564-5.065l27.39,14.952c2.311,1.239,4.194-.458,4.194-3.826h0a10.29,10.29,0,0,0-4.194-8.406l-27.39-14.925a13.617,13.617,0,0,1-5.564-11.1V220.4c0-4.472,2.511-6.735,5.564-5.065l27.39,14.952c2.311,1.239,4.194-.458,4.194-3.826v-.135a10.29,10.29,0,0,0-4.194-8.406L317.423,203a13.617,13.617,0,0,1-5.564-11.1v-.135c0-4.472,2.511-6.735,5.564-5.065l27.39,14.925c2.311,1.266,4.194-.431,4.194-3.8v-.512a10.29,10.29,0,0,0-4.194-8.406l-80.03-43.645c-2.311-1.266-4.194.431-4.194,3.8v53.371a3.016,3.016,0,0,1-1.369,0V148.361c0-4.472,2.511-6.735,5.564-5.065l80.03,43.672a13.539,13.539,0,0,1,5.564,11.1v.135c0,4.472-2.482,6.735-5.564,5.065l-27.39-14.925C315.112,187.075,313.229,188.773,313.229,192.14Z" transform="translate(-142.756 -140.514)" fill="#fff" opacity="0.7"/>
        <path id="Path_4053" data-name="Path 4053" d="M285.9,232.473a2,2,0,0,1-2.054,1.94,2.029,2.029,0,0,1-2.083-1.94c0-1.078,1.2-2.1,2.083-3.933C284.727,230.4,285.9,231.45,285.9,232.473Z" transform="translate(-100.987 4.833)" fill="#37474f"/>
        <path id="Path_4054" data-name="Path 4054" d="M257.693,241.677c-6.391-3.5-6.391-9.16,0-12.635a26.852,26.852,0,0,1,23.167,0c6.391,3.475,6.391,9.133,0,12.635a27.034,27.034,0,0,1-23.167,0Z" transform="translate(-154.468 1.233)" fill="#37474f"/>
        <path id="Path_4055" data-name="Path 4055" d="M282.877,232.526h-3.509a6.346,6.346,0,0,0-3.138-3.233,18.713,18.713,0,0,0-16.091,0A6.345,6.345,0,0,0,257,232.526H253.49l4.993,4.391h0a9.568,9.568,0,0,0,1.655,1.158,18.713,18.713,0,0,0,16.091,0,8.334,8.334,0,0,0,1.541-1.1h0Z" transform="translate(-153.375 3.029)" fill="#90caf9"/>
        <path id="Path_4056" data-name="Path 4056" d="M282.877,232.526h-3.509a6.346,6.346,0,0,0-3.138-3.233,18.713,18.713,0,0,0-16.091,0A6.345,6.345,0,0,0,257,232.526H253.49l4.993,4.391h0a9.568,9.568,0,0,0,1.655,1.158,18.713,18.713,0,0,0,16.091,0,8.334,8.334,0,0,0,1.541-1.1h0Z" transform="translate(-153.375 3.029)" fill="#fff" opacity="0.2"/>
        <path id="Path_4057" data-name="Path 4057" d="M284.57,228.284h0L279.663,224h-19.43l-4.993,4.391h0c-4.251,3.664-3.481,8.567,2.368,11.773a28.626,28.626,0,0,0,24.565,0C288.08,236.851,288.85,232.082,284.57,228.284Z" transform="translate(-155.125 -2.859)" fill="#90caf9"/>
        <path id="Path_4058" data-name="Path 4058" d="M284.57,228.284h0L279.663,224h-19.43l-4.993,4.391h0c-4.251,3.664-3.481,8.567,2.368,11.773a28.626,28.626,0,0,0,24.565,0C288.08,236.851,288.85,232.082,284.57,228.284Z" transform="translate(-155.125 -2.859)" fill="#fff" opacity="0.4"/>
        <path id="Path_4059" data-name="Path 4059" d="M278.141,241.155c-9.7,1.805-18.631-1.994-20.885-4.2-3.823-3.691-2.283-6.978,2.853-10.777l-.8-1.886-4.08,3.583h0c-4.251,3.664-3.481,8.567,2.368,11.773A28.954,28.954,0,0,0,278.141,241.155Z" transform="translate(-155.143 -2.367)" fill="#fff" opacity="0.7"/>
        <path id="Path_4060" data-name="Path 4060" d="M276.619,226.785a7.786,7.786,0,0,0-2.539-2.1,18.713,18.713,0,0,0-16.091,0,7.5,7.5,0,0,0-2.539,2.1h-.8v2.209h0a5.411,5.411,0,0,0,3.338,4.472,18.713,18.713,0,0,0,16.091,0,5.408,5.408,0,0,0,3.31-4.472h0v-2.209Z" transform="translate(-151.225 -4.781)" fill="#90caf9"/>
        <path id="Path_4061" data-name="Path 4061" d="M276.619,226.785a7.786,7.786,0,0,0-2.539-2.1,18.713,18.713,0,0,0-16.091,0,7.5,7.5,0,0,0-2.539,2.1h-.8v2.209h0a5.411,5.411,0,0,0,3.338,4.472,18.713,18.713,0,0,0,16.091,0,5.408,5.408,0,0,0,3.31-4.472h0v-2.209Z" transform="translate(-151.225 -4.781)" fill="#fff" opacity="0.4"/>
        <path id="Path_4062" data-name="Path 4062" d="M274.08,231l.827-.512a23.878,23.878,0,0,1-7.1,1.859A18.329,18.329,0,0,1,257.56,229.9a5.352,5.352,0,0,1-2.539-3.96V224.32h-.371v2.209h0A5.412,5.412,0,0,0,257.988,231,18.713,18.713,0,0,0,274.08,231Z" transform="translate(-151.225 -2.317)" opacity="0.1"/>
        <path id="Path_4063" data-name="Path 4063" d="M257.988,232.649c-4.451-2.425-4.451-6.331,0-8.756a18.713,18.713,0,0,1,16.092,0c4.451,2.425,4.451,6.331,0,8.756a18.714,18.714,0,0,1-16.092,0Z" transform="translate(-151.225 -6.119)" fill="#90caf9"/>
        <path id="Path_4064" data-name="Path 4064" d="M257.988,232.649c-4.451-2.425-4.451-6.331,0-8.756a18.713,18.713,0,0,1,16.092,0c4.451,2.425,4.451,6.331,0,8.756a18.714,18.714,0,0,1-16.092,0Z" transform="translate(-151.225 -6.119)" fill="#fff" opacity="0.7"/>
        <path id="Path_4065" data-name="Path 4065" d="M258.166,230.508a3.392,3.392,0,0,1,0-6.547,13.937,13.937,0,0,1,11.983,0,3.392,3.392,0,0,1,0,6.547A14.12,14.12,0,0,1,258.166,230.508Z" transform="translate(-149.348 -5.218)" fill="#90caf9"/>
        <path id="Path_4066" data-name="Path 4066" d="M258.166,230.508a3.392,3.392,0,0,1,0-6.547,13.937,13.937,0,0,1,11.983,0,3.392,3.392,0,0,1,0,6.547,13.937,13.937,0,0,1-11.983,0Z" transform="translate(-149.348 -5.218)" fill="#fff" opacity="0.4"/>
        <path id="Path_4067" data-name="Path 4067" d="M267.141,224.134a14.061,14.061,0,0,0-8.987,1.051,4.9,4.9,0,0,0-2.254,2.236c-.628-1.509,0-3.125,2.254-4.311-1.056.674-1.312,1.859-.542,1.724a14.137,14.137,0,0,1,9.529-.7Z" transform="translate(-149.336 -4.366)" opacity="0.1"/>
        <path id="Path_4068" data-name="Path 4068" d="M270.061,224.731a13.937,13.937,0,0,0-11.983,0,2.24,2.24,0,1,0,0,4.472,13.937,13.937,0,0,0,11.983,0,2.24,2.24,0,1,0,0-4.472Z" transform="translate(-149.261 -3.913)" fill="#90caf9" opacity="0.4"/>
        <path id="Path_4069" data-name="Path 4069" d="M272.148,226.967v.3a5.576,5.576,0,0,0-2.111-1.913,13.937,13.937,0,0,0-11.983,0,5.242,5.242,0,0,0-2.111,1.913,1.421,1.421,0,0,1-.143-.3,4.9,4.9,0,0,1,2.254-2.236,13.937,13.937,0,0,1,11.983,0,5.011,5.011,0,0,1,2.111,2.236Z" transform="translate(-149.094 -3.913)" opacity="0.1"/>
        <path id="Path_4070" data-name="Path 4070" d="M270.14,229.657a12.425,12.425,0,0,1-5.107,1.4,14.785,14.785,0,0,1-5.307-.62,6.023,6.023,0,0,1-3.994-3.206,3.687,3.687,0,0,1,2.425-4.122,3.648,3.648,0,0,0-2.254,4.068,5.868,5.868,0,0,0,3.909,3.044,14.206,14.206,0,0,0,5.364.674,13.5,13.5,0,0,0,4.964-1.239Z" transform="translate(-149.339 -4.366)" fill="#fff"/>
        <g id="freepik--Flame--inject-17" transform="translate(108.835 192.61)">
          <path id="Path_4071" data-name="Path 4071" d="M262.434,237.172c3.738-.242,6.505-4.176,3.852-9.7s-4.251-8.487-3.281-14.063a33.3,33.3,0,0,0-4.394,8.271,29.737,29.737,0,0,0-2.026,8.083C256.186,234.694,258.868,237.172,262.434,237.172Z" transform="translate(-256.546 -213.41)" fill="#90caf9"/>
          <path id="Path_4072" data-name="Path 4072" d="M262.434,237.172c3.738-.242,6.505-4.176,3.852-9.7s-4.251-8.487-3.281-14.063a33.3,33.3,0,0,0-4.394,8.271,29.737,29.737,0,0,0-2.026,8.083C256.186,234.694,258.868,237.172,262.434,237.172Z" transform="translate(-256.546 -213.41)" fill="#fff" opacity="0.6"/>
          <path id="Path_4073" data-name="Path 4073" d="M261.451,233.6A4.665,4.665,0,0,0,264.5,230.9a7.091,7.091,0,0,0-.428-6.277l-.428-.862a29.685,29.685,0,0,1-3.081-8.433c-.485,1-1,2.128-1.484,3.422a27.247,27.247,0,0,0-1.94,7.6,6.641,6.641,0,0,0,1.141,5.092A5.7,5.7,0,0,0,261.451,233.6Z" transform="translate(-255.649 -210.157)" fill="#fff" opacity="0.8"/>
          <path id="Path_4074" data-name="Path 4074" d="M260.27,227.455a3.457,3.457,0,0,0,1.455-3.718c-.371-1.778-2.168-4.149-2.168-4.957a14.151,14.151,0,0,0-1.74,4.688,3.7,3.7,0,0,0,2.454,3.987Z" transform="translate(-254.267 -204.312)" fill="#90caf9"/>
          <path id="Path_4075" data-name="Path 4075" d="M260.27,227.455a3.457,3.457,0,0,0,1.455-3.718c-.371-1.778-2.168-4.149-2.168-4.957a14.151,14.151,0,0,0-1.74,4.688,3.7,3.7,0,0,0,2.454,3.987Z" transform="translate(-254.267 -204.312)" opacity="0.15"/>
          <path id="Path_4076" data-name="Path 4076" d="M258.675,233.158a1.031,1.031,0,0,1-.2-.889l.171-.728a3.867,3.867,0,0,1,.2-1.482,9.515,9.515,0,0,0,0-1.563,5.038,5.038,0,0,0-.171-1.589,31.209,31.209,0,0,1-.285-3.314,14.263,14.263,0,0,1,.4-3.314h0a17.437,17.437,0,0,0,.171,3.233c.171,1.051.485,2.1.742,3.179l.342,1.643a11.01,11.01,0,0,1,.2,1.724,6.018,6.018,0,0,1-.2,1.751,4.393,4.393,0,0,1-.285.862,1.043,1.043,0,0,1-.827.647Z" transform="translate(-253.129 -201.771)" fill="#37474f"/>
        </g>
        <path id="Path_4077" data-name="Path 4077" d="M241.044,183.623l-.827,1.994a1.985,1.985,0,0,1-3.595,0l-.827-1.994a16.631,16.631,0,0,1-1.284-6.412V167h7.818v10.265A16.632,16.632,0,0,1,241.044,183.623Z" transform="translate(-188.546 -99.424)" fill="#455a64"/>
        <path id="Path_4078" data-name="Path 4078" d="M236.268,183.946a11.932,11.932,0,0,0,.342-3.987V167H235.9v13.147A10.2,10.2,0,0,0,236.268,183.946Z" transform="translate(-186.054 -99.424)" fill="#fff" opacity="0.4"/>
        <path id="Path_4079" data-name="Path 4079" d="M237.827,167H236.4v16.165h0a12.244,12.244,0,0,0,1.427-5.738Z" transform="translate(-185.044 -99.424)" fill="#fff" opacity="0.4"/>
        <path id="Path_4080" data-name="Path 4080" d="M249.9,169.865v1.994a3.969,3.969,0,0,1-2.454,3.395,14.058,14.058,0,0,1-12.04,0,5.879,5.879,0,0,1-1.883-1.536,3.034,3.034,0,0,1-.6-1.751v-2.1a1.806,1.806,0,0,1,0-.539,4.443,4.443,0,0,1,2.425-2.694h0a14.09,14.09,0,0,1,11.926,0,4.442,4.442,0,0,1,2.425,2.694,1.946,1.946,0,0,1,.2.539Z" transform="translate(-191.525 -102.29)" fill="#fafafa"/>
        <path id="Path_4081" data-name="Path 4081" d="M241.989,173.715v-2.937c0-1.185.314-2.964-1.854-2.964a6.14,6.14,0,0,1-4.736-2.074h0a4.443,4.443,0,0,0-2.425,2.694,1.8,1.8,0,0,0,0,.539v2.021a3.034,3.034,0,0,0,.6,1.751,5.881,5.881,0,0,0,1.883,1.536,14.058,14.058,0,0,0,12.04,0C244.985,175.277,241.989,174.846,241.989,173.715Z" transform="translate(-191.432 -101.559)" fill="#e0e0e0"/>
        <path id="Path_4082" data-name="Path 4082" d="M235.384,173.185a3.416,3.416,0,0,1,0-6.574,14.058,14.058,0,0,1,12.04,0,3.416,3.416,0,0,1,0,6.574,14.058,14.058,0,0,1-12.04,0Z" transform="translate(-191.531 -102.376)" fill="#455a64"/>
        <path id="Path_4083" data-name="Path 4083" d="M249.845,167.644v5.011a1.911,1.911,0,0,1,0,.566,4.443,4.443,0,0,1-2.425,2.694,12.482,12.482,0,0,1-5.335,1.32,12.965,12.965,0,0,1-6.7-1.347,5.635,5.635,0,0,1-1.883-1.509,3.245,3.245,0,0,1-.542-1.212,1.657,1.657,0,0,1,0-.539v-5.011a4.034,4.034,0,0,1,2.482-3.287,2.341,2.341,0,0,1,.457-.216,14.125,14.125,0,0,1,11.584.216A3.965,3.965,0,0,1,249.845,167.644Z" transform="translate(-191.47 -106.238)" fill="#fafafa"/>
        <path id="Path_4084" data-name="Path 4084" d="M233.513,173.7a5.635,5.635,0,0,0,1.883,1.509,12.965,12.965,0,0,0,6.7,1.347v-1.832c0-1.185.371-2.694-1.855-2.964A8.715,8.715,0,0,1,234.4,168.8a3.914,3.914,0,0,1,1.455-5.388,2.338,2.338,0,0,0-.457.216,4.035,4.035,0,0,0-2.482,3.287v5.065a1.656,1.656,0,0,0,0,.539,3.266,3.266,0,0,0,.6,1.185Z" transform="translate(-191.544 -105.506)" fill="#e0e0e0"/>
        <path id="Path_4085" data-name="Path 4085" d="M296.488,195.08v.269a.98.98,0,0,1-.571.7,3.3,3.3,0,0,1-2.853,0,1.157,1.157,0,0,1-.542-.566.788.788,0,0,1,0-.269c-.2-13.067-7.532-27.507-16.491-32.33l-20.2-10.992c-9.1-4.957-16.519,1.751-16.519,14.979v33.65a.949.949,0,0,1-.6.781,3.365,3.365,0,0,1-2.853,0,.949.949,0,0,1-.6-.781V164.61c0-16.488,9.244-24.894,20.6-18.7l20.2,10.992C286.673,162.724,295.489,179.4,296.488,195.08Z" transform="translate(-187.157 -138.604)" fill="#90caf9"/>
        <path id="Path_4086" data-name="Path 4086" d="M295.934,196.077a3.274,3.274,0,0,1-2.853,0,1.158,1.158,0,0,1-.542-.566.863.863,0,0,0,0-.269c-.2-13.067-7.532-27.507-16.491-32.33l-.685-.377L255.848,151.92l-.685-.377c-9.1-4.957-16.491,1.778-16.491,15.006v34.808a3.334,3.334,0,0,1-2.853,0,.949.949,0,0,1-.6-.781V164.61c0-16.488,9.244-24.894,20.6-18.7l19.515,10.615c10.614,5.792,19.4,22.307,20.485,37.933A10.266,10.266,0,0,1,295.934,196.077Z" transform="translate(-187.231 -138.604)" fill="#fff" opacity="0.5"/>
        <path id="Path_4087" data-name="Path 4087" d="M254.95,145.908c-8.759-4.769-16.263-.862-19.23,8.783a15.259,15.259,0,0,1,9.073-9.133,13.67,13.67,0,0,1,8.559.4l20.286,10.13Z" transform="translate(-186.304 -138.599)" fill="#fff" opacity="0.7"/>
        <path id="Path_4088" data-name="Path 4088" d="M293.618,193.591a5.7,5.7,0,0,1-.884-3.044c-1.484-12.986-8.816-26.241-17.6-31.009l-20.2-10.992c-9.843-5.388-17.86,1.886-17.86,16.165v35.4a3.017,3.017,0,0,1-1.369,0v-36.1c0-15.384,8.559-23.223,19.23-17.458l20.2,10.992c9.529,5.2,17.461,19.667,18.973,33.731C294.3,192.756,294.075,193.806,293.618,193.591Z" transform="translate(-186.341 -137.277)" fill="#fff" opacity="0.7"/>
      </g>
    </g>
    <g id="freepik--Microscope--inject-17" transform="translate(813.172 378.34)">
      <path id="freepik--shadow--inject-17-5" data-name="freepik--shadow--inject-17" d="M396.573,363.709l71.718-41.368a1.108,1.108,0,0,0,0-2.119L356.085,255.415a4.14,4.14,0,0,0-3.716,0l-71.718,41.368a1.141,1.141,0,0,0,0,2.152l112.206,64.774a4.14,4.14,0,0,0,3.716,0Z" transform="translate(-279.89 -107.771)" opacity="0.15"/>
      <g id="freepik--microscope--inject-17-2" data-name="freepik--microscope--inject-17" transform="translate(18.459)">
        <path id="Path_3797" data-name="Path 3797" d="M303.194,268.695v6.715l94.765,54.7V323.4a16.3,16.3,0,0,0-8.28-11.475l-78.238-45.15a7.238,7.238,0,0,0-6.52-1.108A3.26,3.26,0,0,0,303.194,268.695Z" transform="translate(-303.19 -84.376)" fill="#263238"/>
        <path id="Path_3798" data-name="Path 3798" d="M340.639,256.161h0a7.041,7.041,0,0,1,6.748,1.043l78.238,45.15a16.1,16.1,0,0,1,8.247,11.475v6.715l-54.245,31.328v-6.715a16.3,16.3,0,0,0-8.28-11.475l-78.238-45.15a7.237,7.237,0,0,0-6.52-1.108Z" transform="translate(-284.989 -106.071)" fill="#455a64"/>
        <path id="Path_3799" data-name="Path 3799" d="M375.974,283.922a43.422,43.422,0,0,0-24.058-4.792l-32.827-18.94-25.3,14.6,32.827,18.94c-1.076,4.955,1.7,10.106,8.28,13.92a45.444,45.444,0,0,0,41.107,0C387.351,301.1,387.351,290.474,375.974,283.922Z" transform="translate(-259.102 -95.985)" fill="#37474f"/>
        <path id="Path_3800" data-name="Path 3800" d="M317.594,265v11.181l19.364,11.116V276.112a21.483,21.483,0,0,0-9.78-16.788,6.682,6.682,0,0,0-6.911-.619A6.781,6.781,0,0,0,317.594,265Z" transform="translate(-288.969 -100.889)" fill="#90caf9"/>
        <path id="Path_3801" data-name="Path 3801" d="M317.594,265v11.181l19.364,11.116V276.112a21.483,21.483,0,0,0-9.78-16.788,6.682,6.682,0,0,0-6.911-.619A6.781,6.781,0,0,0,317.594,265Z" transform="translate(-288.969 -100.889)" fill="#fff" opacity="0.6"/>
        <path id="Path_3802" data-name="Path 3802" d="M333.413,254.559h0a6.846,6.846,0,0,1,6.813.685,21.515,21.515,0,0,1,9.78,16.788v11.214l-23.276,13.4V285.463a21.482,21.482,0,0,0-9.78-16.788,6.944,6.944,0,0,0-6.52-.782Z" transform="translate(-278.838 -110.077)" fill="#90caf9"/>
        <path id="Path_3803" data-name="Path 3803" d="M333.413,254.559h0a6.846,6.846,0,0,1,6.813.685,21.515,21.515,0,0,1,9.78,16.788v11.214l-23.276,13.4V285.463a21.482,21.482,0,0,0-9.78-16.788,6.944,6.944,0,0,0-6.52-.782Z" transform="translate(-278.838 -110.077)" fill="#fff" opacity="0.7"/>
        <path id="Path_3804" data-name="Path 3804" d="M322.285,261.693c-1.434-.848-2.575,0-2.575,1.5a5.672,5.672,0,0,0,2.575,4.466,1.619,1.619,0,0,0,2.608-1.5,5.705,5.705,0,0,0-2.608-4.466Z" transform="translate(-283.978 -93.348)" fill="#455a64"/>
        <path id="Path_3805" data-name="Path 3805" d="M331.644,244.011l-5.9-9.78s13.822-7.889,18.027-10.432l7.009,9.78c-9.421,8.769-18.321,29.991-14.376,54.179,2.282,13.887,7.172,24.449,16.071,38.434l-18.027,10.4A98.416,98.416,0,0,1,315.9,299.43C310.683,282.315,314.79,253.041,331.644,244.011Z" transform="translate(-292.228 -178.222)" fill="#37474f"/>
        <path id="Path_3806" data-name="Path 3806" d="M347.369,236.825c-6.226,3.716-19.559,21.124-15.191,51.441,2.021,13.92,10.2,26.568,17.995,40.977a9.772,9.772,0,0,0-1.434-.945,6.52,6.52,0,0,0-6.911-.652l-2.478,1.434a4.171,4.171,0,0,0-1.5,1.4,101.057,101.057,0,0,1-18.321-49.518c-2.184-31.588,12.42-48.312,21.939-53.984Z" transform="translate(-307.953 -171.036)" fill="#263238"/>
        <path id="Path_3807" data-name="Path 3807" d="M316.53,230.026a33.642,33.642,0,0,1,16.006-4.466l1.826,10.595a18.973,18.973,0,0,0-11.931,3.716Z" transform="translate(-283.08 -174.245)" fill="#263238"/>
        <path id="Path_3808" data-name="Path 3808" d="M300.28,283.546v-8.932l25.3-14.6v8.932Z" transform="translate(-221.322 -96.392)" fill="#90caf9"/>
        <path id="Path_3809" data-name="Path 3809" d="M300.28,283.546v-8.932l25.3-14.6v8.932Z" transform="translate(-221.322 -96.392)" opacity="0.15"/>
        <path id="Path_3810" data-name="Path 3810" d="M352.31,291.14l-44.27-25.558V256.65l44.27,25.558Z" transform="translate(-273.351 -103.985)" fill="#90caf9"/>
        <path id="Path_3811" data-name="Path 3811" d="M352.31,291.14l-44.27-25.558V256.65l44.27,25.558Z" transform="translate(-273.351 -103.985)" opacity="0.25"/>
        <path id="Path_3812" data-name="Path 3812" d="M369.846,277.728,325.577,252.17l-25.3,14.6,44.27,25.557Z" transform="translate(-265.591 -114.109)" fill="#90caf9"/>
        <path id="Path_3813" data-name="Path 3813" d="M351.891,282.937v-8.215c0-4.3-2.8-8.606-8.508-11.866a45.378,45.378,0,0,0-41.075,0c-5.672,3.26-8.508,7.563-8.508,11.866h0v8.215h0c0,4.336,2.771,8.7,8.508,12.029a45.444,45.444,0,0,0,41.107,0C349.153,291.706,351.956,287.273,351.891,282.937Z" transform="translate(-226.511 -101.064)" fill="#90caf9"/>
        <path id="Path_3814" data-name="Path 3814" d="M351.891,282.937v-8.215c0-4.3-2.8-8.606-8.508-11.866a45.378,45.378,0,0,0-41.075,0c-5.672,3.26-8.508,7.563-8.508,11.866h0v8.215h0c0,4.336,2.771,8.7,8.508,12.029a45.444,45.444,0,0,0,41.107,0C349.153,291.706,351.956,287.273,351.891,282.937Z" transform="translate(-226.511 -101.064)" opacity="0.25"/>
        <path id="Path_3815" data-name="Path 3815" d="M302.319,262.856a45.378,45.378,0,0,1,41.075,0c11.377,6.52,11.377,17.18,0,23.732a45.444,45.444,0,0,1-41.107,0C290.942,280.036,290.942,269.409,302.319,262.856Z" transform="translate(-226.49 -101.063)" fill="#90caf9"/>
        <path id="Path_3816" data-name="Path 3816" d="M339.715,275.993v-6.161a10.791,10.791,0,0,0-6.52-8.9,34.131,34.131,0,0,0-30.839,0,10.855,10.855,0,0,0-6.357,8.9h0v6.161h0a10.757,10.757,0,0,0,6.357,9.03,34.033,34.033,0,0,0,30.839,0,10.758,10.758,0,0,0,6.52-9.03Z" transform="translate(-221.508 -102.628)" fill="#e0e0e0"/>
        <ellipse id="Ellipse_55" data-name="Ellipse 55" cx="21.776" cy="12.583" rx="21.776" ry="12.583" transform="translate(74.558 154.458)" fill="#fafafa"/>
        <path id="Path_3817" data-name="Path 3817" d="M302.419,260.9a32.175,32.175,0,0,1,29.078,0c8.019,4.629,8.019,12.127,0,16.756a31.98,31.98,0,0,1-29.078,0C294.4,273.024,294.4,265.526,302.419,260.9Z" transform="translate(-220.625 -102.234)" fill="#e6e6e6"/>
        <path id="Path_3818" data-name="Path 3818" d="M331.08,262.637a32.176,32.176,0,0,0-29.078,0,12.485,12.485,0,0,0-5.411,5.542A12.193,12.193,0,0,0,302,273.721a31.98,31.98,0,0,0,29.078,0,12.03,12.03,0,0,0,5.411-5.542A12.324,12.324,0,0,0,331.08,262.637Z" transform="translate(-220.207 -98.302)" fill="#f0f0f0"/>
        <path id="Path_3819" data-name="Path 3819" d="M302.649,261.89a8.149,8.149,0,0,1,7.367,0,2.249,2.249,0,0,1,0,4.27,8.149,8.149,0,0,1-7.367,0,2.249,2.249,0,0,1,0-4.27Z" transform="translate(-209.999 -94.132)" fill="#90caf9"/>
        <path id="Path_3820" data-name="Path 3820" d="M300.57,262.812a2.38,2.38,0,0,1,2.282,0,.685.685,0,0,1,0,1.3,2.543,2.543,0,0,1-2.282,0A.719.719,0,0,1,300.57,262.812Z" transform="translate(-198.661 -90.718)" fill="#90caf9"/>
        <path id="Path_3821" data-name="Path 3821" d="M305.2,262.321c0,.554-.815,1.01-1.793,1.01s-1.793-.456-1.793-1.01.815-1.011,1.793-1.011S305.2,261.766,305.2,262.321Z" transform="translate(-205.276 -93.454)" fill="#fff" opacity="0.6"/>
        <path id="Path_3822" data-name="Path 3822" d="M301.438,262.936c0,.163-.261.326-.554.326s-.554-.163-.554-.326.228-.326.554-.326S301.438,262.773,301.438,262.936Z" transform="translate(-197.346 -90.516)" fill="#fff" opacity="0.6"/>
        <path id="Path_3823" data-name="Path 3823" d="M295,263.339V240.52h15.648v22.819h0a3.977,3.977,0,0,1-2.347,3.26,12.388,12.388,0,0,1-11.181,0A3.912,3.912,0,0,1,295,263.339Z" transform="translate(-189.18 -140.437)" fill="#263238"/>
        <path id="Path_3824" data-name="Path 3824" d="M310.811,246.08a4.01,4.01,0,0,1-2.347,3.26,12.388,12.388,0,0,1-11.182,0A3.977,3.977,0,0,1,295,246.08v4.76a3.912,3.912,0,0,0,2.282,3.26,12.388,12.388,0,0,0,11.182,0,3.977,3.977,0,0,0,2.347-3.26h0v-4.727Z" transform="translate(-189.343 -127.872)" fill="#90caf9"/>
        <path id="Path_3825" data-name="Path 3825" d="M310.811,246.08a4.01,4.01,0,0,1-2.347,3.26,12.388,12.388,0,0,1-11.182,0A3.977,3.977,0,0,1,295,246.08v4.76a3.912,3.912,0,0,0,2.282,3.26,12.388,12.388,0,0,0,11.182,0,3.977,3.977,0,0,0,2.347-3.26h0v-4.727Z" transform="translate(-189.343 -127.872)" fill="#fff" opacity="0.6"/>
        <path id="Path_3826" data-name="Path 3826" d="M321.411,263.339V240.52H305.6v22.819h0a3.945,3.945,0,0,0,2.315,3.26,12.388,12.388,0,0,0,11.182,0,3.977,3.977,0,0,0,2.315-3.26Z" transform="translate(-234.498 -140.437)" fill="#263238"/>
        <path id="Path_3827" data-name="Path 3827" d="M305.6,246.08a3.977,3.977,0,0,0,2.315,3.26,12.388,12.388,0,0,0,11.182,0,4.009,4.009,0,0,0,2.315-3.26v4.759a3.977,3.977,0,0,1-2.315,3.26,12.387,12.387,0,0,1-11.182,0,3.944,3.944,0,0,1-2.315-3.26h0v-4.727Z" transform="translate(-234.498 -127.872)" fill="#90caf9"/>
        <path id="Path_3828" data-name="Path 3828" d="M305.6,246.08a3.977,3.977,0,0,0,2.315,3.26,12.388,12.388,0,0,0,11.182,0,4.009,4.009,0,0,0,2.315-3.26v4.759a3.977,3.977,0,0,1-2.315,3.26,12.387,12.387,0,0,1-11.182,0,3.944,3.944,0,0,1-2.315-3.26h0v-4.727Z" transform="translate(-234.498 -127.872)" opacity="0.25"/>
        <path id="Path_3829" data-name="Path 3829" d="M300.28,266.409V243.59h15.811v22.819h0a3.977,3.977,0,0,1-2.347,3.26,12.387,12.387,0,0,1-11.182,0A3.814,3.814,0,0,1,300.28,266.409Z" transform="translate(-211.835 -133.499)" fill="#37474f"/>
        <path id="Path_3830" data-name="Path 3830" d="M316.091,249.15a3.977,3.977,0,0,1-2.347,3.26,12.387,12.387,0,0,1-11.181,0,3.912,3.912,0,0,1-2.282-3.26v4.727a3.814,3.814,0,0,0,2.282,3.26,12.387,12.387,0,0,0,11.181,0,3.977,3.977,0,0,0,2.347-3.26h0Z" transform="translate(-211.835 -120.934)" fill="#90caf9"/>
        <path id="Path_3831" data-name="Path 3831" d="M364.5,260.16a11.54,11.54,0,0,0-5.216-9.062,34.259,34.259,0,0,1-5.574-5.509l-7.563-9.193a35.859,35.859,0,0,0-37.815-11.866,28.784,28.784,0,0,0-6.292,2.673c-5.574,3.26-8.085,7.5-7.53,11.7v26.373c-.326,4.042,2.184,8.15,7.53,11.279l18.353,10.562a40.521,40.521,0,0,0,36.641,0c5.053-2.9,7.6-6.683,7.6-10.5S364.5,263.974,364.5,260.16Z" transform="translate(-241.3 -179.767)" fill="#37474f"/>
        <path id="Path_3832" data-name="Path 3832" d="M311.92,239.681l6.324,3.651v-3.651l-6.324-3.651Z" transform="translate(-251.934 -150.584)" fill="#90caf9"/>
        <path id="Path_3833" data-name="Path 3833" d="M312.817,261.474a35.859,35.859,0,0,0,37.847,11.866,30.194,30.194,0,0,0,6.291-2.673c9.291-5.314,10.073-13.724,2.38-19.559a34.263,34.263,0,0,1-5.575-5.509l-7.563-9.193a35.859,35.859,0,0,0-37.815-11.866,28.784,28.784,0,0,0-6.292,2.673c-9.291,5.314-10.106,13.724-2.38,19.559a33.9,33.9,0,0,1,5.542,5.477Z" transform="translate(-241.356 -179.744)" fill="#455a64"/>
        <path id="Path_3834" data-name="Path 3834" d="M356.922,256.477a40.423,40.423,0,0,1-36.641,0l-18.288-10.562a13.039,13.039,0,0,1-7.563-10.595v3.26c0,3.847,2.51,7.661,7.563,10.627l18.418,10.334a40.521,40.521,0,0,0,36.641,0c5.053-2.9,7.6-6.683,7.6-10.5v-3.26C364.518,249.761,361.975,253.575,356.922,256.477Z" transform="translate(-241.323 -152.189)" fill="#90caf9"/>
        <path id="Path_3835" data-name="Path 3835" d="M300.1,240.052V222.09h51.832v17.962h0c0,3.847-2.543,7.661-7.628,10.562a40.456,40.456,0,0,1-36.609,0C302.708,247.876,300.1,243.9,300.1,240.052Z" transform="translate(-247.09 -182.087)" fill="#37474f"/>
        <path id="Path_3836" data-name="Path 3836" d="M351.9,222.14H300.07v4.01a13.039,13.039,0,0,0,7.563,10.595,40.423,40.423,0,0,0,36.641,0,13.04,13.04,0,0,0,7.628-10.529C351.87,222.3,351.9,222.14,351.9,222.14Z" transform="translate(-246.963 -181.974)" fill="#90caf9"/>
        <path id="Path_3837" data-name="Path 3837" d="M344.326,221.925a40.52,40.52,0,0,0-36.641,0c-10.138,5.835-10.171,15.289,0,21.157a40.521,40.521,0,0,0,36.641,0C354.4,237.279,354.432,227.793,344.326,221.925Z" transform="translate(-246.949 -192.354)" fill="#90caf9"/>
        <path id="Path_3838" data-name="Path 3838" d="M344.326,221.925a40.52,40.52,0,0,0-36.641,0c-10.138,5.835-10.171,15.289,0,21.157a40.521,40.521,0,0,0,36.641,0C354.4,237.279,354.432,227.793,344.326,221.925Z" transform="translate(-246.949 -192.354)" fill="#fff" opacity="0.5"/>
        <path id="Path_3839" data-name="Path 3839" d="M304.59,243.955V211.78h22.4v32.175h0a5.542,5.542,0,0,1-3.26,4.564,17.505,17.505,0,0,1-15.843,0A5.575,5.575,0,0,1,304.59,243.955Z" transform="translate(-236.78 -205.386)" fill="#37474f"/>
        <path id="Path_3840" data-name="Path 3840" d="M326.986,211.8h-22.4v4.727a5.575,5.575,0,0,0,3.26,4.564,17.506,17.506,0,0,0,15.843,0,5.639,5.639,0,0,0,3.26-4.564Z" transform="translate(-236.78 -205.341)" fill="#90caf9"/>
        <path id="Path_3841" data-name="Path 3841" d="M323.72,211.714a17.505,17.505,0,0,0-15.843,0c-4.368,2.51-4.4,6.52,0,9.16a17.6,17.6,0,0,0,15.843,0C328.056,218.331,328.089,214.224,323.72,211.714Z" transform="translate(-236.775 -209.819)" fill="#90caf9"/>
        <path id="Path_3842" data-name="Path 3842" d="M323.72,211.714a17.505,17.505,0,0,0-15.843,0c-4.368,2.51-4.4,6.52,0,9.16a17.6,17.6,0,0,0,15.843,0C328.056,218.331,328.089,214.224,323.72,211.714Z" transform="translate(-236.775 -209.819)" opacity="0.25"/>
        <path id="Path_3843" data-name="Path 3843" d="M319.286,211.738a12.583,12.583,0,0,0-11.41,0,3.455,3.455,0,0,0,0,6.52,12.486,12.486,0,0,0,11.377,0,3.456,3.456,0,0,0,.033-6.52Z" transform="translate(-234.557 -208.572)" fill="#263238"/>
        <path id="Path_3844" data-name="Path 3844" d="M307.161,213.14a6.518,6.518,0,0,0-1.271.978,5.864,5.864,0,0,0,1.271.945,12.485,12.485,0,0,0,11.377,0,5.867,5.867,0,0,0,1.271-.945,5.475,5.475,0,0,0-1.239-.978,12.681,12.681,0,0,0-11.41,0Z" transform="translate(-233.842 -205.377)" fill="#455a64"/>
        <path id="Path_3845" data-name="Path 3845" d="M311,212.766a1.089,1.089,0,0,1-.913,1.011c-.587.13-1.173,0-1.271-.522s.326-.913.913-1.043A1.011,1.011,0,0,1,311,212.766Z" transform="translate(-234.517 -204.547)" fill="#fafafa"/>
        <path id="Path_3846" data-name="Path 3846" d="M309.22,212.425a.435.435,0,1,1-.848.2.456.456,0,0,1,.359-.522.391.391,0,0,1,.489.326Z" transform="translate(-231.337 -204.695)" fill="#fafafa"/>
        <path id="Path_3847" data-name="Path 3847" d="M316.192,223.949a5.835,5.835,0,0,1,6.129.522,14.507,14.507,0,0,1,3.651,3.064c.293.293.522.619.782.913h0a20.4,20.4,0,0,1,3.26,5.966,15.125,15.125,0,0,1,.815,4.694,6.1,6.1,0,0,1-2.38,5.444l-2.836,1.63a4.3,4.3,0,0,0,1.141-1.043,7.27,7.27,0,0,0,1.239-4.4,18.777,18.777,0,0,0-8.508-14.7,7.074,7.074,0,0,0-4.433-1.108,4.043,4.043,0,0,0-1.63.554h0Z" transform="translate(-269.441 -179.317)" fill="#90caf9"/>
        <path id="Path_3848" data-name="Path 3848" d="M316.192,223.949a5.835,5.835,0,0,1,6.129.522,14.507,14.507,0,0,1,3.651,3.064c.293.293.522.619.782.913h0a20.4,20.4,0,0,1,3.26,5.966,15.125,15.125,0,0,1,.815,4.694,6.1,6.1,0,0,1-2.38,5.444l-2.836,1.63a4.3,4.3,0,0,0,1.141-1.043,7.27,7.27,0,0,0,1.239-4.4,18.777,18.777,0,0,0-8.508-14.7,7.074,7.074,0,0,0-4.433-1.108,4.043,4.043,0,0,0-1.63.554h0Z" transform="translate(-269.441 -179.317)" fill="#fff" opacity="0.7"/>
        <path id="Path_3849" data-name="Path 3849" d="M316.615,224.4a4.042,4.042,0,0,1,1.63-.554,7.074,7.074,0,0,1,4.433,1.108,18.777,18.777,0,0,1,8.508,14.7,7.271,7.271,0,0,1-1.239,4.4,4.3,4.3,0,0,1-1.141,1.043h0a4.336,4.336,0,0,1-2.347.554,7.856,7.856,0,0,1-3.651-1.141,18.744,18.744,0,0,1-8.476-14.735,6,6,0,0,1,2.282-5.379Z" transform="translate(-272.635 -178.172)" fill="#90caf9"/>
        <path id="Path_3850" data-name="Path 3850" d="M316.615,224.4a4.042,4.042,0,0,1,1.63-.554,7.074,7.074,0,0,1,4.433,1.108,18.777,18.777,0,0,1,8.508,14.7,7.271,7.271,0,0,1-1.239,4.4,4.3,4.3,0,0,1-1.141,1.043h0a4.336,4.336,0,0,1-2.347.554,7.856,7.856,0,0,1-3.651-1.141,18.744,18.744,0,0,1-8.476-14.735,6,6,0,0,1,2.282-5.379Z" transform="translate(-272.635 -178.172)" fill="#fff" opacity="0.6"/>
        <path id="Path_3851" data-name="Path 3851" d="M319.12,226.332c-1.891-1.108-3.26-.228-3.26,1.956a7.563,7.563,0,0,0,3.26,5.933c1.891,1.108,3.423.2,3.423-1.988a7.5,7.5,0,0,0-3.423-5.9Z" transform="translate(-269.077 -173.583)" fill="#455a64"/>
      </g>
    </g>
    <g id="freepik--Gears--inject-3" transform="translate(737.136 383.398)">
      <g id="freepik--shadows--inject-3">
        <path id="Path_9304" data-name="Path 9304" d="M249.42,416.05a4.21,4.21,0,0,1-4.08-3.38l-1-5a53.224,53.224,0,0,1-6.33-1.55h-.16l-8.8,4.08a4.87,4.87,0,0,1-2,.43,5,5,0,0,1-2.5-.64l-8.76-5.06a3.47,3.47,0,0,1-.3-5.93l5.31-3.82a19.276,19.276,0,0,1-1.33-2l-11.17-.7a4,4,0,0,1-3.74-4V382a4,4,0,0,1,3.74-4l11.17-.71a19.274,19.274,0,0,1,1.33-2l-5.31-3.82a3.47,3.47,0,0,1,.3-5.93l8.76-5.06a5.08,5.08,0,0,1,2.5-.64,5,5,0,0,1,2.05.43l8.79,4.08H238a54.583,54.583,0,0,1,6.41-1.58l1-5a4.21,4.21,0,0,1,4.08-3.38H262.3a4.22,4.22,0,0,1,4.08,3.38l.95,5a58,58,0,0,1,6.33,1.55h.16l8.79-4.08a5.157,5.157,0,0,1,4.55.21l8.76,5.06a3.47,3.47,0,0,1,.3,5.93l-5.31,3.82a19.27,19.27,0,0,1,1.33,2l11.17.71a4,4,0,0,1,3.74,4v6.52a4,4,0,0,1-3.74,4l-11.17.7a19.266,19.266,0,0,1-1.33,2l5.31,3.82a3.47,3.47,0,0,1-.3,5.93L287.16,410a5,5,0,0,1-2.5.64,4.87,4.87,0,0,1-2-.43l-8.8-4.08h-.12a56.638,56.638,0,0,1-6.41,1.57l-.95,5a4.21,4.21,0,0,1-4.08,3.38ZM255.86,376a27.25,27.25,0,0,0-13.39,3.17c-3,1.73-4.72,4-4.72,6.09s1.72,4.37,4.72,6.1a29.95,29.95,0,0,0,26.78,0c3-1.73,4.72-3.95,4.72-6.1s-1.72-4.36-4.72-6.09A27.25,27.25,0,0,0,255.86,376Z" fill="#e0e0e0"/>
        <path id="Path_9305" data-name="Path 9305" d="M166.93,363.19a3.44,3.44,0,0,1-.86-.1l-9.82-2.35a3.38,3.38,0,0,1-2.34-1.89,3.63,3.63,0,0,1,.07-3.18l1.49-2.95a26.265,26.265,0,0,1-2.57-1.57l-8.82,1.48a4.9,4.9,0,0,1-.77.07,4.18,4.18,0,0,1-3.42-1.61l-3.81-5.31-.82-.5.15-2.29.1-.22a3.35,3.35,0,0,1,.3-.67l.07-.12a3.89,3.89,0,0,1,2.12-1.6l6.81-2.15v-.66l-7-2.22a3.39,3.39,0,0,1-2.31-2.6l-.06-.18v-.46a3.73,3.73,0,0,1,.74-2.2L139.7,325a4.62,4.62,0,0,1,3.61-1.88,3.18,3.18,0,0,1,.62.05l9,1.5h0c.6-.41,1.29-.85,2-1.26.17-.1.34-.2.52-.29l-1.59-3.16a3.33,3.33,0,0,1-.35-1.52,3.6,3.6,0,0,1,2.91-3.39l9.42-2.26a5.138,5.138,0,0,1,1.13-.13,4.24,4.24,0,0,1,3.1,1.23l4.09,4.3c.89,0,1.85-.08,2.79-.08s2,0,3,.09l3.87-4.07a4.85,4.85,0,0,1,3.39-1.48,3.909,3.909,0,0,1,.91.1l9.78,2.34a3.46,3.46,0,0,1,2.65,2.93v.54a3.83,3.83,0,0,1-.43,1.64l-1.47,2.92.47.26c.74.42,1.44.85,2.09,1.31l8.83-1.49a5,5,0,0,1,.76-.06,4.18,4.18,0,0,1,3.43,1.61l3.91,5.45a3.23,3.23,0,0,1,.61,1.89v.18a3.64,3.64,0,0,1-2.67,3.19l-6.77,2.15v.66l7,2.22a3.38,3.38,0,0,1,2.38,3.22,3.92,3.92,0,0,1-.7,2.17l-3.59,5a4.55,4.55,0,0,1-3.6,1.88,4.48,4.48,0,0,1-.64,0l-9-1.51h0a29.617,29.617,0,0,1-2.54,1.57l1.59,3.15a3.29,3.29,0,0,1,.05,2.87,3.82,3.82,0,0,1-2.57,2.05L188.27,363a4.6,4.6,0,0,1-1.13.13A4.27,4.27,0,0,1,184,362l-4.1-4.32c-.91.05-1.88.08-2.85.08s-1.93,0-2.9-.08l-3.87,4.06A4.82,4.82,0,0,1,166.93,363.19Zm-3.1-27.92a3.076,3.076,0,0,0-.24.29c-.11.14-.18.25-.26.37s-.18.29-.18.29a3.3,3.3,0,0,0,.3,3.83,7.809,7.809,0,0,0,1.71,1.68,10.265,10.265,0,0,0,1.2.78,22.36,22.36,0,0,0,10.71,2.5,25.672,25.672,0,0,0,5.93-.68,18,18,0,0,0,4.77-1.82,9.686,9.686,0,0,0,1.16-.75,7.35,7.35,0,0,0,1.95-2h0l.24-.41.1-.24a3.3,3.3,0,0,0-.55-3.32c-2.13-3-7.6-5-13.62-5a25.578,25.578,0,0,0-5.92.68,14.891,14.891,0,0,0-7,3.5Z" fill="#e0e0e0"/>
        <path id="Path_9306" data-name="Path 9306" d="M149.05,423.36a3.412,3.412,0,0,1-.85-.1l-9.83-2.35A3.46,3.46,0,0,1,136,419a3.59,3.59,0,0,1,.08-3.18l1.49-2.95a27.919,27.919,0,0,1-2.57-1.58l-8.83,1.49a4.722,4.722,0,0,1-.77.06,4.19,4.19,0,0,1-3.41-1.6l-3.81-5.32-.83-.49.16-2.41.15-.25a2.79,2.79,0,0,1,.24-.53l.07-.11a3.84,3.84,0,0,1,2.13-1.6l6.8-2.15v-.66l-7-2.23a3.38,3.38,0,0,1-2.3-2.59l-.06-.18v-.47a3.76,3.76,0,0,1,.74-2.2l3.54-4.94a4.63,4.63,0,0,1,3.6-1.88,3.207,3.207,0,0,1,.63.06l9,1.5h0c.6-.42,1.28-.85,2-1.27l.52-.29L136,380.09a3.33,3.33,0,0,1-.35-1.52,3.63,3.63,0,0,1,2.91-3.4l9.43-2.25a4.522,4.522,0,0,1,1.12-.13,4.27,4.27,0,0,1,3.1,1.22l4.1,4.31c.89-.05,1.84-.08,2.79-.08s2,0,3,.08l3.86-4.06a4.88,4.88,0,0,1,3.39-1.49,3.928,3.928,0,0,1,.92.11l9.77,2.34a3.46,3.46,0,0,1,2.66,3v.49a3.7,3.7,0,0,1-.43,1.64l-1.46,2.91.46.26c.74.42,1.44.86,2.09,1.31l8.84-1.48a4.768,4.768,0,0,1,.76-.07,4.19,4.19,0,0,1,3.43,1.62l3.91,5.44a3.23,3.23,0,0,1,.61,1.89v.19a3.61,3.61,0,0,1-2.67,3.19l-6.76,2.14v.67l7,2.22a3.36,3.36,0,0,1,2.37,3.22,3.84,3.84,0,0,1-.7,2.17l-3.59,5a4.53,4.53,0,0,1-3.59,1.88,3.492,3.492,0,0,1-.65-.06l-9-1.5h0a28.335,28.335,0,0,1-2.55,1.57l1.6,3.15a3.3,3.3,0,0,1,.05,2.86,3.81,3.81,0,0,1-2.58,2.05l-9.46,2.26a4.6,4.6,0,0,1-1.13.13,4.25,4.25,0,0,1-3.1-1.22l-4.1-4.31c-.9.05-1.87.08-2.84.08s-1.94,0-2.91-.08l-3.86,4.06A4.84,4.84,0,0,1,149.05,423.36ZM159.18,391a25.579,25.579,0,0,0-5.92.68,14.711,14.711,0,0,0-7,3.5l-.29.3-.25.3a3.376,3.376,0,0,0-.25.36,3.58,3.58,0,0,0,.11,4.13,7.649,7.649,0,0,0,1.72,1.68,10.6,10.6,0,0,0,1.19.78,22.4,22.4,0,0,0,10.72,2.5,25.728,25.728,0,0,0,5.93-.68,18.45,18.45,0,0,0,4.77-1.82,9.533,9.533,0,0,0,1.15-.75,7.14,7.14,0,0,0,2-2h0l.23-.4v-.11l.06-.15a3.28,3.28,0,0,0-.55-3.31C170.67,392.94,165.2,391,159.18,391Z" fill="#e0e0e0"/>
      </g>
      <g id="freepik--gears--inject-3-2" data-name="freepik--gears--inject-3">
        <path id="Path_9679" data-name="Path 9679" d="M304.32,372.46v-5.22a1.19,1.19,0,0,0-1.09-1.17l-8.31-.52V353.87h0a.7.7,0,0,0-.4-.64l-8.77-5.06a2.39,2.39,0,0,0-1.94-.09l-8.88,4.12a3.28,3.28,0,0,1-2,.12,52.594,52.594,0,0,0-6.9-1.64,1.67,1.67,0,0,1-1.28-1.25l-1.11-5.85a1.37,1.37,0,0,0-1.3-1.07H249.42a1.37,1.37,0,0,0-1.3,1.07L247,349.44a1.67,1.67,0,0,1-1.29,1.25,52.439,52.439,0,0,0-6.89,1.64,3.28,3.28,0,0,1-2-.12l-8.89-4.12a2.36,2.36,0,0,0-1.93.09l-8.77,5.06a.69.69,0,0,0-.4.62h0v11.7l-8.32.52a1.19,1.19,0,0,0-1.09,1.17v6.51h0v4.56h0v6.51h0c0,.14.11.24.16.37a1.15,1.15,0,0,0,.17.41,1.08,1.08,0,0,0,.55.26c.08,0,.13.1.21.11h.16l8.16.51h0v6.72h0v5h0a.44.44,0,0,0,.07.24h0a.89.89,0,0,0,.31.3L226,403.9h0a1.871,1.871,0,0,0,.84.22h.23a1.611,1.611,0,0,0,.31,0v-.05a2.9,2.9,0,0,0,.54-.09l8.88-4.12a3.28,3.28,0,0,1,2-.12,52.592,52.592,0,0,0,6.9,1.64,1.67,1.67,0,0,1,1.28,1.25l1.11,5.85c0,.14.15.23.22.35V409c0,.07.12.11.18.17a1.071,1.071,0,0,0,.16.14,1.28,1.28,0,0,0,.74.28H262.3a1.29,1.29,0,0,0,.82-.3h0a1.32,1.32,0,0,0,.48-.76l1.11-5.85a1.67,1.67,0,0,1,1.29-1.25,52.441,52.441,0,0,0,6.89-1.64,3.27,3.27,0,0,1,2,.12l8.89,4.12a2.16,2.16,0,0,0,.83.15h0a2.23,2.23,0,0,0,1.11-.22l8.76-5.06a.74.74,0,0,0,.41-.6h0V386.53l8.31-.52a1.19,1.19,0,0,0,1.09-1.17V372.68a1.638,1.638,0,0,0,.03-.22Zm-31.94,5.46a18.928,18.928,0,0,1-1.72,1.12c-8.17,4.72-21.43,4.72-29.6,0a16.522,16.522,0,0,1-1.72-1.13c.53-.37,1.1-.73,1.72-1.09,8.17-4.72,21.43-4.72,29.61,0,.62.36,1.18.73,1.71,1.1Z" fill="#37474f"/>
        <path id="Path_9680" data-name="Path 9680" d="M304.35,372.69v12.15a1.17,1.17,0,0,1-1.09,1.16l-8.31.53v11.71a.74.74,0,0,1-.41.6l-8.77,5.06a2.26,2.26,0,0,1-1.1.23h0a1.81,1.81,0,0,1-.83-.16l-8.89-4.11a2.59,2.59,0,0,0-.83-.2h0a3.32,3.32,0,0,0-1.2.09,54.087,54.087,0,0,1-6.89,1.64,1.449,1.449,0,0,0-.55.22v.07a1.56,1.56,0,0,0-.74,1l-1.11,5.85a1.32,1.32,0,0,1-.48.76h0a1.29,1.29,0,0,1-.82.3H249.18a1.38,1.38,0,0,1-.84-.56v-.13c-.07-.12-.19-.22-.22-.35L247,402.64a1.6,1.6,0,0,0-.52-.85h0a1.5,1.5,0,0,0-.76-.39,54.246,54.246,0,0,1-6.9-1.64,3.16,3.16,0,0,0-1.35-.07h0a2.621,2.621,0,0,0-.68.15L227.92,404a1.529,1.529,0,0,1-.54.09v.06h0a2.33,2.33,0,0,1-1.38-.23h0l-8.76-5.06a1,1,0,0,1-.19-.14,1.139,1.139,0,0,1-.15-.17.629.629,0,0,1-.07-.26h0V386.54l-1.52-.1-6.65-.42h-.14a1.18,1.18,0,0,1-1.09-1.14V373.75a1.18,1.18,0,0,0,1.09,1.16l11.68.74a2.18,2.18,0,0,1,1.58,1.05,17.22,17.22,0,0,0,2.48,3.44.92.92,0,0,1-.13,1.42l-6.94,5a.65.65,0,0,0,.06,1.19l8.76,5.06a2.35,2.35,0,0,0,1.94.08l8.87-4.11a3.24,3.24,0,0,1,2-.12,52.21,52.21,0,0,0,6.9,1.64,1.67,1.67,0,0,1,1.28,1.24l1.11,5.86a1.39,1.39,0,0,0,1.3,1.07H262.3a1.37,1.37,0,0,0,1.3-1.07l1.11-5.86A1.69,1.69,0,0,1,266,390.3a50.7,50.7,0,0,0,6.9-1.65,3.28,3.28,0,0,1,2,.13l8.89,4.11a2.32,2.32,0,0,0,1.93-.08l8.77-5.06a.66.66,0,0,0,.06-1.19l-6.95-5a.92.92,0,0,1-.13-1.42A17.22,17.22,0,0,0,290,376.7a2.18,2.18,0,0,1,1.58-1.05l11.68-.73a1.2,1.2,0,0,0,1.09-1.17v-1.3a1.75,1.75,0,0,1,0,.24Z" fill="#263238"/>
        <path id="Path_9681" data-name="Path 9681" d="M294.92,353.88v11.67l-3.37-.22a2.14,2.14,0,0,1-1.58-1,16.941,16.941,0,0,0-2.48-3.44.94.94,0,0,1,.13-1.43l6.95-5a.76.76,0,0,0,.34-.55Z" fill="#263238"/>
        <path id="Path_9682" data-name="Path 9682" d="M224.23,360.85a17.22,17.22,0,0,0-2.48,3.44,2.14,2.14,0,0,1-1.58,1l-3.36.22v-11.7a.8.8,0,0,0,.36.58l6.94,5a.94.94,0,0,1,.12,1.46Z" fill="#263238"/>
        <path id="Path_9683" data-name="Path 9683" d="M226,348.18l-8.77,5.06a.66.66,0,0,0-.06,1.19l6.95,5a.94.94,0,0,1,.13,1.43,17.22,17.22,0,0,0-2.48,3.44,2.18,2.18,0,0,1-1.58,1l-11.68.73a1.19,1.19,0,0,0-1.09,1.17v6.51a1.18,1.18,0,0,0,1.09,1.16l11.68.74a2.18,2.18,0,0,1,1.58,1.05,17.22,17.22,0,0,0,2.48,3.44.92.92,0,0,1-.13,1.42l-6.95,5a.66.66,0,0,0,.06,1.19l8.77,5.06a2.32,2.32,0,0,0,1.93.08l8.89-4.11a3.21,3.21,0,0,1,2-.12,54.241,54.241,0,0,0,6.9,1.64A1.67,1.67,0,0,1,247,391.5l1.11,5.86a1.37,1.37,0,0,0,1.3,1.07H262.3a1.37,1.37,0,0,0,1.3-1.07l1.11-5.86a1.67,1.67,0,0,1,1.29-1.2,53.85,53.85,0,0,0,6.9-1.64,3.21,3.21,0,0,1,2,.12l8.88,4.11a2.35,2.35,0,0,0,1.94-.08l8.77-5.06a.66.66,0,0,0,.06-1.19l-6.95-5a.93.93,0,0,1-.13-1.43A17.222,17.222,0,0,0,290,376.7a2.18,2.18,0,0,1,1.58-1.05l11.68-.74a1.18,1.18,0,0,0,1.09-1.16v-6.51a1.19,1.19,0,0,0-1.09-1.17l-11.68-.74a2.14,2.14,0,0,1-1.58-1,17.217,17.217,0,0,0-2.48-3.44.93.93,0,0,1,.13-1.43l6.95-5a.66.66,0,0,0-.06-1.19l-8.77-5.06a2.39,2.39,0,0,0-1.94-.09l-8.88,4.12a3.28,3.28,0,0,1-2,.12,52.588,52.588,0,0,0-6.9-1.64,1.67,1.67,0,0,1-1.28-1.25l-1.11-5.85a1.37,1.37,0,0,0-1.3-1.07H249.42a1.37,1.37,0,0,0-1.3,1.07L247,349.44a1.67,1.67,0,0,1-1.29,1.25,52.439,52.439,0,0,0-6.89,1.64,3.28,3.28,0,0,1-2-.12l-8.89-4.12a2.36,2.36,0,0,0-1.93.09ZM270.66,362c8.18,4.72,8.18,12.37,0,17.09s-21.43,4.72-29.6,0-8.18-12.37,0-17.09S262.49,357.23,270.66,362Z" fill="#455a64"/>
        <path id="Path_9684" data-name="Path 9684" d="M216.8,387.15a.74.74,0,0,1,.36-.59l3.49-2.52v-8.27a1.41,1.41,0,0,0-.48-.12l-11.68-.74a1.18,1.18,0,0,1-1.09-1.16v11.11a1.18,1.18,0,0,0,1.09,1.14h.14l6.65.42,1.52.1S216.8,387.37,216.8,387.15Z" fill="#37474f"/>
        <path id="Path_9685" data-name="Path 9685" d="M237.47,388.6a2.6,2.6,0,0,0-.68.18l-8.87,4.11a2.25,2.25,0,0,1-1.14.15v11.09a2.33,2.33,0,0,0,.59,0h0v-.06a1.53,1.53,0,0,0,.54-.09l8.88-4.11a2.539,2.539,0,0,1,.67-.15Z" fill="#37474f"/>
        <path id="Path_9686" data-name="Path 9686" d="M248.29,397.81a1.23,1.23,0,0,1-.17-.41L247,391.54a1.491,1.491,0,0,0-.17-.44v11.1a1.39,1.39,0,0,1,.17.44l1.11,5.85a.68.68,0,0,0,.17.28Z" fill="#37474f"/>
        <path id="Path_9687" data-name="Path 9687" d="M264.88,391.1a1.489,1.489,0,0,0-.17.44l-1.11,5.86a1.28,1.28,0,0,1-.17.42v11.09a1.28,1.28,0,0,0,.17-.42l1.11-5.85a1.1,1.1,0,0,1,.17-.4Z" opacity="0.15"/>
        <path id="Path_9688" data-name="Path 9688" d="M284.94,393a2.2,2.2,0,0,1-1.13-.15l-8.89-4.11a2.52,2.52,0,0,0-.67-.18v11.1a2.121,2.121,0,0,1,.67.17l8.89,4.11a1.81,1.81,0,0,0,.83.16h.3Z" opacity="0.15"/>
        <path id="Path_9689" data-name="Path 9689" d="M303.23,374.92l-11.68.73a1.409,1.409,0,0,0-.48.12V384l3.5,2.52a.75.75,0,0,1,.35.59v-.62l8.31-.53a1.17,1.17,0,0,0,1.09-1.16V372.65a1.749,1.749,0,0,0,0-.24v1.3a1.2,1.2,0,0,1-1.09,1.21Z" opacity="0.15"/>
        <path id="Path_9690" data-name="Path 9690" d="M138.2,329v9.93a.4.4,0,0,0,.09.24l3.9,5.44a1.6,1.6,0,0,0,1.43.43l9-1.52a2.39,2.39,0,0,1,1.61.28c.69.48,1.42.95,2.19,1.38v7.46a.62.62,0,0,0,.5.54l9.79,2.34a1.83,1.83,0,0,0,1.57-.58l4-4.24A2.45,2.45,0,0,1,174,350a50.137,50.137,0,0,0,6.13,0,2.1,2.1,0,0,1,1.48.46l4.51,4.74a1.72,1.72,0,0,0,1.52.29l9.42-2.25c.47-.12.76-.41.74-.71v-7.35c.65-.38,1.27-.76,1.85-1.17a2.93,2.93,0,0,1,1.77-.51l9.28,1.57a1.69,1.69,0,0,0,1.46-.69l3.55-4.95a1,1,0,0,0,.21-.58V331.7a.47.47,0,0,0,.07-.22V317.35h0a.37.37,0,0,0-.08-.24l-3.9-5.44a1.6,1.6,0,0,0-1.43-.42l-9,1.52a2.51,2.51,0,0,1-1.61-.28c-.69-.49-1.42-.95-2.19-1.39v-7.4a.65.65,0,0,0-.51-.65l-9.79-2.33a1.83,1.83,0,0,0-1.58.58l-4,4.24a2.45,2.45,0,0,1-1.66.72,48.369,48.369,0,0,0-6.14,0,2.17,2.17,0,0,1-1.48-.46l-4.5-4.74a1.72,1.72,0,0,0-1.52-.29L157.1,303c-.46.11-.75.39-.74.69h0v7.38c-.64.37-1.26.76-1.84,1.16a2.86,2.86,0,0,1-1.77.51l-9.28-1.56a1.7,1.7,0,0,0-1.47.69l-3.55,4.95a.89.89,0,0,0-.19.54h0v11.37h0a.43.43,0,0,0-.06.22h0Zm51,1.22a21,21,0,0,1-5.52,2.12c-6.6,1.57-13.91.61-18.69-2.11a14.485,14.485,0,0,1-1.48-1c.42-.3.88-.59,1.37-.88,6.73-3.88,17.63-3.88,24.36,0a13.592,13.592,0,0,1,1.4.88,13.753,13.753,0,0,1-1.46.99Z" fill="#37474f"/>
        <path id="Path_9691" data-name="Path 9691" d="M195.57,309.94c.75.35,1.47.72,2.17,1.11v-7.32a1,1,0,0,1-.11.38l-2.35,4.65a.85.85,0,0,0,.29,1.18Z" fill="#263238"/>
        <path id="Path_9692" data-name="Path 9692" d="M206.37,321.57a9.879,9.879,0,0,1,0,3.07,1,1,0,0,0,.63,1.08l8.47,2.68a.54.54,0,0,1,.4.54c0,.17,0,2.75,0,2.75a.48.48,0,0,0,.07-.2c0-4.82,0-12.86,0-13.56v-.59c0,.25-.27.5-.68.63l-8,2.54C206.68,320.69,206.3,321.16,206.37,321.57Z" opacity="0.15"/>
        <path id="Path_9693" data-name="Path 9693" d="M201.06,333.55v9.94a1.258,1.258,0,0,1,.34,0l9.28,1.55a1.13,1.13,0,0,0,.48,0v-9.93a1.23,1.23,0,0,1-.5,0l-9.28-1.56A1.111,1.111,0,0,0,201.06,333.55Z" opacity="0.15"/>
        <path id="Path_9694" data-name="Path 9694" d="M197.79,345.16c.64-.37,1.26-.75,1.84-1.16a3.33,3.33,0,0,1,1.43-.51v-9.94a3.18,3.18,0,0,0-1.45.52,27.44,27.44,0,0,1-3.76,2.16c-.55.27-.86.75-.68,1.12l2.55,5a.41.41,0,0,1,.05.21C197.77,342.9,197.79,345.16,197.79,345.16Z" fill="#263238"/>
        <path id="Path_9695" data-name="Path 9695" d="M181,340.19v9.94a1.47,1.47,0,0,1,.57.32l4.51,4.74a1.37,1.37,0,0,0,.82.33v-9.94a1.32,1.32,0,0,1-.84-.32l-4.51-4.75A1.38,1.38,0,0,0,181,340.19Z" opacity="0.15"/>
        <path id="Path_9696" data-name="Path 9696" d="M173.39,340.13v9.94A2.291,2.291,0,0,1,174,350a52.394,52.394,0,0,0,6.14,0,2.349,2.349,0,0,1,.91.14V340.2a2.419,2.419,0,0,0-.93-.14,48.217,48.217,0,0,1-6.13,0,1.829,1.829,0,0,0-.6.07Z" fill="#263238"/>
        <path id="Path_9697" data-name="Path 9697" d="M167.4,345.54v9.93a2.08,2.08,0,0,0,.89-.53l4-4.25a2.57,2.57,0,0,1,1.06-.62v-9.94a2.73,2.73,0,0,0-1.08.63l-4,4.24a2,2,0,0,1-.87.54Z" opacity="0.15"/>
        <path id="Path_9698" data-name="Path 9698" d="M156.41,342.72v2.46h0v7.46a.62.62,0,0,0,.5.54l9.79,2.34a1.36,1.36,0,0,0,.68,0v-9.93a1.561,1.561,0,0,1-.7,0l-9.79-2.35a.6.6,0,0,1-.48-.52Z" fill="#37474f"/>
        <path id="Path_9699" data-name="Path 9699" d="M153.25,333.56v9.94a2.141,2.141,0,0,1,1,.3,23.925,23.925,0,0,0,2.19,1.38V342.6a1,1,0,0,1,.11-.4l2.35-4.66a.84.84,0,0,0-.3-1.18,27.592,27.592,0,0,1-4.35-2.49A2,2,0,0,0,153.25,333.56Z" opacity="0.15"/>
        <path id="Path_9700" data-name="Path 9700" d="M138.2,329v9.93a.54.54,0,0,0,.09.25l3.9,5.43a1.14,1.14,0,0,0,.67.39v-9.93a1.19,1.19,0,0,1-.69-.39l-3.9-5.44a.37.37,0,0,1-.07-.24Z" fill="#37474f"/>
        <path id="Path_9701" data-name="Path 9701" d="M197.22,303.05l-9.79-2.33a1.83,1.83,0,0,0-1.58.58l-4,4.24a2.45,2.45,0,0,1-1.66.72,48.38,48.38,0,0,0-6.14,0,2.17,2.17,0,0,1-1.48-.46l-4.5-4.74a1.72,1.72,0,0,0-1.52-.29L157.1,303c-.46.11-.75.39-.74.69a.36.36,0,0,0,0,.2L159,309c.18.36-.13.84-.68,1.11s-1.31.65-1.92,1-1.26.76-1.84,1.16a2.86,2.86,0,0,1-1.77.51l-9.28-1.56a1.7,1.7,0,0,0-1.47.69l-3.55,4.95a.89.89,0,0,0-.19.54h0a.52.52,0,0,0,.38.52l8.48,2.69a1,1,0,0,1,.63,1.08,9.82,9.82,0,0,0,0,3.06c.07.42-.31.88-.87,1.06l-8,2.54a1.1,1.1,0,0,0-.62.42h0a.43.43,0,0,0-.06.22h0a.37.37,0,0,0,.08.24l3.9,5.44a1.57,1.57,0,0,0,1.43.41l9-1.51a2.51,2.51,0,0,1,1.61.28,27.3,27.3,0,0,0,4.35,2.5.84.84,0,0,1,.3,1.18l-2.35,4.66a.67.67,0,0,0,.4,1l9.79,2.35a1.89,1.89,0,0,0,1.57-.58l4-4.25a2.43,2.43,0,0,1,1.66-.71,50.149,50.149,0,0,0,6.13,0,2.14,2.14,0,0,1,1.48.46l4.51,4.75a1.76,1.76,0,0,0,1.52.28l9.42-2.25c.56-.14.87-.53.7-.89l-2.56-5.06c-.18-.36.13-.84.68-1.11a27.44,27.44,0,0,0,3.76-2.16,2.86,2.86,0,0,1,1.77-.51l9.28,1.56a1.65,1.65,0,0,0,1.46-.69l3.56-4.94a1,1,0,0,0,.2-.55.54.54,0,0,0-.4-.54L207,325.72a1,1,0,0,1-.63-1.08,9.58,9.58,0,0,0,0-3.07c-.07-.41.31-.88.88-1.06l8-2.54c.41-.13.67-.38.68-.63h0a.37.37,0,0,0-.08-.24l-3.9-5.44a1.6,1.6,0,0,0-1.43-.42l-9,1.52a2.51,2.51,0,0,1-1.61-.28c-.69-.49-1.42-.95-2.19-1.39s-1.41-.76-2.16-1.11a.84.84,0,0,1-.29-1.18l2.34-4.65a1,1,0,0,0,.11-.38h0A.65.65,0,0,0,197.22,303.05ZM170.48,314c8.78-2.1,18.86.31,22.5,5.38a6.11,6.11,0,0,1,.88,6l-.09.21-.09.21-.1.19h0a9.61,9.61,0,0,1-2.94,3.26,13.751,13.751,0,0,1-1.44.94,21,21,0,0,1-5.52,2.12c-6.6,1.57-13.91.61-18.69-2.11a14.491,14.491,0,0,1-1.48-1,10.519,10.519,0,0,1-2.34-2.32,6.08,6.08,0,0,1-.47-6.86l.09-.16.21-.33c.12-.17.23-.34.37-.51a4.776,4.776,0,0,1,.34-.42l.17-.19.24-.24a17.34,17.34,0,0,1,8.36-4.17Z" fill="#455a64"/>
        <path id="Path_9702" data-name="Path 9702" d="M120.32,389.17v9.92a.39.39,0,0,0,.08.25l3.9,5.44a1.57,1.57,0,0,0,1.43.42l9-1.52a2.5,2.5,0,0,1,1.61.28,17.644,17.644,0,0,0,2.19,1.39v7.46a.64.64,0,0,0,.5.54l9.79,2.34a1.88,1.88,0,0,0,1.58-.58l4-4.25a2.39,2.39,0,0,1,1.65-.71,52.381,52.381,0,0,0,6.14,0,2.07,2.07,0,0,1,1.48.46l4.5,4.74a1.77,1.77,0,0,0,1.53.28l9.41-2.25c.47-.11.77-.4.75-.7v-7.36c.64-.37,1.26-.76,1.84-1.16a2.87,2.87,0,0,1,1.78-.51l9.27,1.56a1.69,1.69,0,0,0,1.47-.68l3.55-5a1,1,0,0,0,.2-.58V391.8a.4.4,0,0,0,.08-.23V377.45h0a.41.41,0,0,0-.08-.24l-3.91-5.44a1.6,1.6,0,0,0-1.43-.42l-9,1.51a2.46,2.46,0,0,1-1.61-.27,25.27,25.27,0,0,0-2.18-1.39v-7.32h0a.64.64,0,0,0-.51-.65l-9.79-2.34a1.87,1.87,0,0,0-1.57.58l-4,4.24a2.41,2.41,0,0,1-1.66.73,50.107,50.107,0,0,0-6.13,0,2.07,2.07,0,0,1-1.48-.46l-4.51-4.74a1.75,1.75,0,0,0-1.52-.28l-9.42,2.25c-.46.11-.75.39-.74.69h0v7.38c-.65.37-1.27.76-1.84,1.16a2.9,2.9,0,0,1-1.78.51l-9.28-1.56a1.7,1.7,0,0,0-1.46.68l-3.55,5a.88.88,0,0,0-.2.54h0v11.37h0a.52.52,0,0,0-.07.22h0Zm51,1.22a21,21,0,0,1-5.52,2.11c-6.59,1.58-13.91.62-18.69-2.1a13.99,13.99,0,0,1-1.48-1c.42-.29.88-.58,1.37-.87,6.73-3.88,17.64-3.88,24.37,0a13.4,13.4,0,0,1,1.39.89,11.928,11.928,0,0,1-1.46.97Z" fill="#37474f"/>
        <path id="Path_9703" data-name="Path 9703" d="M177.69,370.11c.75.34,1.48.72,2.17,1.11V363.9a.85.85,0,0,1-.11.38l-2.34,4.64a.86.86,0,0,0,.28,1.19Z" fill="#263238"/>
        <path id="Path_9704" data-name="Path 9704" d="M188.49,381.73a9.59,9.59,0,0,1,0,3.07,1,1,0,0,0,.62,1.09l8.48,2.68a.53.53,0,0,1,.39.53v2.76a.37.37,0,0,0,.07-.2c0-4.82,0-12.86,0-13.57v-.59c0,.26-.26.51-.67.64l-8,2.54A1.1,1.1,0,0,0,188.49,381.73Z" opacity="0.15"/>
        <path id="Path_9705" data-name="Path 9705" d="M183.19,393.71v10a1.928,1.928,0,0,1,.34,0l9.28,1.56a1,1,0,0,0,.47,0v-9.92a1.379,1.379,0,0,1-.49,0l-9.28-1.56A1.668,1.668,0,0,0,183.19,393.71Z" opacity="0.15"/>
        <path id="Path_9706" data-name="Path 9706" d="M179.91,405.33c.64-.37,1.26-.76,1.84-1.16a3.33,3.33,0,0,1,1.44-.51v-10a3.12,3.12,0,0,0-1.45.53A29.871,29.871,0,0,1,178,396.4c-.56.27-.86.75-.68,1.11l2.55,5.05a.54.54,0,0,1,.05.21C179.9,403.07,179.91,405.33,179.91,405.33Z" fill="#263238"/>
        <path id="Path_9707" data-name="Path 9707" d="M163.16,400.36v9.94a1.31,1.31,0,0,1,.57.32l4.5,4.74a1.44,1.44,0,0,0,.82.33v-9.94a1.35,1.35,0,0,1-.84-.32l-4.51-4.75A1.34,1.34,0,0,0,163.16,400.36Z" opacity="0.15"/>
        <path id="Path_9708" data-name="Path 9708" d="M155.52,400.3v9.94a1.879,1.879,0,0,1,.59-.09,52.381,52.381,0,0,0,6.14,0,2.4,2.4,0,0,1,.91.14v-9.94a2.48,2.48,0,0,0-.93-.14,50.131,50.131,0,0,1-6.13,0,1.52,1.52,0,0,0-.58.09Z" fill="#263238"/>
        <path id="Path_9709" data-name="Path 9709" d="M149.52,405.7v9.94a2.05,2.05,0,0,0,.9-.53l4-4.25a2.6,2.6,0,0,1,1.07-.62V400.3a2.6,2.6,0,0,0-1.08.63l-4,4.24A2,2,0,0,1,149.52,405.7Z" opacity="0.15"/>
        <path id="Path_9710" data-name="Path 9710" d="M138.53,402.89v2.46h0v7.46a.65.65,0,0,0,.5.54l9.8,2.34a1.309,1.309,0,0,0,.67-.05V405.7a1.4,1.4,0,0,1-.69.06l-9.8-2.35a.61.61,0,0,1-.48-.52Z" fill="#37474f"/>
        <path id="Path_9711" data-name="Path 9711" d="M135.38,393.73v9.94a2.14,2.14,0,0,1,1,.3c.68.48,1.41.94,2.18,1.38v-2.58a.91.91,0,0,1,.1-.41l2.35-4.65a.84.84,0,0,0-.29-1.18,26.86,26.86,0,0,1-4.35-2.5A2,2,0,0,0,135.38,393.73Z" opacity="0.15"/>
        <path id="Path_9712" data-name="Path 9712" d="M120.32,389.17v9.93a.69.69,0,0,0,.09.25l3.91,5.43a1.1,1.1,0,0,0,.66.38v-9.92a1.23,1.23,0,0,1-.69-.39l-3.9-5.44a.43.43,0,0,1-.07-.24Z" fill="#37474f"/>
        <path id="Path_9713" data-name="Path 9713" d="M179.34,363.22l-9.79-2.34a1.87,1.87,0,0,0-1.57.58l-4,4.24a2.41,2.41,0,0,1-1.66.73,50.113,50.113,0,0,0-6.13,0,2.07,2.07,0,0,1-1.48-.46l-4.51-4.74a1.75,1.75,0,0,0-1.52-.28l-9.42,2.25c-.46.11-.75.39-.74.69a.53.53,0,0,0,.05.2l2.55,5.06c.19.35-.12.84-.68,1.1s-1.3.66-1.91,1-1.27.76-1.84,1.16a2.9,2.9,0,0,1-1.78.51l-9.28-1.56a1.7,1.7,0,0,0-1.46.68l-3.55,5a.88.88,0,0,0-.2.54h0a.55.55,0,0,0,.39.52l8.48,2.68a1,1,0,0,1,.63,1.09,9.809,9.809,0,0,0,0,3.06c.07.41-.31.88-.87,1.06l-8,2.53a1,1,0,0,0-.61.43h0a.52.52,0,0,0-.07.22h0a.4.4,0,0,0,.09.24l3.89,5.44a1.59,1.59,0,0,0,1.43.41l9-1.51a2.46,2.46,0,0,1,1.61.28,27.181,27.181,0,0,0,4.35,2.5.85.85,0,0,1,.29,1.18l-2.35,4.65a.69.69,0,0,0,.4,1.05l9.8,2.35a1.92,1.92,0,0,0,1.57-.59l4-4.24a2.42,2.42,0,0,1,1.65-.72,50.3,50.3,0,0,0,6.14,0,2.15,2.15,0,0,1,1.48.46l4.51,4.75a1.74,1.74,0,0,0,1.52.28l9.42-2.25c.56-.14.87-.54.69-.9l-2.55-5.05c-.18-.36.12-.84.67-1.11a27.569,27.569,0,0,0,3.77-2.16,2.72,2.72,0,0,1,1.77-.51l9.27,1.56a1.69,1.69,0,0,0,1.47-.69l3.55-5a1,1,0,0,0,.2-.55.53.53,0,0,0-.4-.53l-8.47-2.68a1,1,0,0,1-.63-1.09,9.52,9.52,0,0,0,0-3.06,1.1,1.1,0,0,1,.88-1.06l8-2.54c.42-.13.67-.38.69-.63h0a.41.41,0,0,0-.08-.24l-3.91-5.44a1.6,1.6,0,0,0-1.43-.42l-9,1.51a2.46,2.46,0,0,1-1.61-.27,25.268,25.268,0,0,0-2.18-1.39c-.69-.39-1.42-.76-2.17-1.11a.84.84,0,0,1-.29-1.18l2.35-4.65a.94.94,0,0,0,.1-.38h0a.64.64,0,0,0-.52-.66ZM152.6,374.13c8.78-2.1,18.86.31,22.5,5.38a6.06,6.06,0,0,1,.88,6,1.451,1.451,0,0,1-.09.22l-.09.21a1.747,1.747,0,0,1-.1.19h0a9.44,9.44,0,0,1-2.94,3.27,11.934,11.934,0,0,1-1.44.94,21,21,0,0,1-5.52,2.11c-6.59,1.58-13.91.62-18.69-2.1a14,14,0,0,1-1.48-1,10.429,10.429,0,0,1-2.33-2.31,6.08,6.08,0,0,1-.47-6.87l.09-.15a3,3,0,0,1,.21-.33,5.875,5.875,0,0,1,.36-.51c.11-.15.23-.29.35-.43a1.41,1.41,0,0,1,.17-.18l.24-.25A17.38,17.38,0,0,1,152.6,374.13Z" fill="#455a64"/>
      </g>
    </g>
  </g>
</svg>
