<svg xmlns="http://www.w3.org/2000/svg" width="24" height="20" viewBox="0 0 24 20">
  <g id="eye-svgrepo-com" transform="translate(0 -82.344)">
    <g id="Group_565" data-name="Group 565" transform="translate(0 82.344)">
      <g id="Group_564" data-name="Group 564">
        <path id="Path_9947" data-name="Path 9947" d="M23.952,92.055c-2.042-5.9-6.734-9.711-11.952-9.711S2.09,86.156.048,92.055a.894.894,0,0,0,0,.578c2.042,5.9,6.734,9.712,11.952,9.712s9.91-3.812,11.952-9.712A.894.894,0,0,0,23.952,92.055ZM12,100.868c-4.65,0-8.839-3.335-10.743-8.524C3.161,87.155,7.35,83.82,12,83.82s8.839,3.335,10.743,8.523C20.839,97.532,16.65,100.868,12,100.868Z" transform="translate(0 -82.344)" fill="#263238"/>
        <path id="Path_9948" data-name="Path 9948" d="M163.554,157.825a5.654,5.654,0,1,0,5.728,5.653A5.7,5.7,0,0,0,163.554,157.825Zm0,9.831a4.178,4.178,0,1,1,4.232-4.177A4.21,4.21,0,0,1,163.554,167.656Z" transform="translate(-151.554 -153.478)" fill="#263238"/>
        <path id="Path_9949" data-name="Path 9949" d="M206.918,203.878a3.025,3.025,0,0,0-3.041,3,.748.748,0,0,0,1.5,0,1.537,1.537,0,0,1,1.546-1.525.738.738,0,1,0,0-1.476Z" transform="translate(-194.66 -196.879)" fill="#263238"/>
      </g>
    </g>
  </g>
</svg>
