<svg xmlns="http://www.w3.org/2000/svg" width="32.727" height="30"><path d="M7.5 24.545v2.727H0v-2.727Zm7.5-2.727a1.373 1.373 0 0 1 1.364 1.364v5.455A1.373 1.373 0 0 1 15 30H9.545a1.373 1.373 0 0 1-1.364-1.364v-5.454a1.373 1.373 0 0 1 1.364-1.364Zm3.409-8.182v2.727H0v-2.727ZM4.773 2.727v2.728H0V2.727Zm27.954 21.818v2.727H17.045v-2.727ZM12.273 0a1.373 1.373 0 0 1 1.364 1.364v5.455a1.373 1.373 0 0 1-1.364 1.364H6.818a1.373 1.373 0 0 1-1.364-1.364V1.364A1.373 1.373 0 0 1 6.818 0Zm13.636 10.909a1.373 1.373 0 0 1 1.364 1.364v5.455a1.373 1.373 0 0 1-1.364 1.364h-5.454a1.373 1.373 0 0 1-1.364-1.364v-5.455a1.373 1.373 0 0 1 1.364-1.364Zm6.818 2.727v2.727h-4.772v-2.727Zm0-10.909v2.728H14.318V2.727Z" fill="#263238"/></svg>