<svg xmlns="http://www.w3.org/2000/svg" width="30" height="32.603"><path d="m10.409 27.274.806 3.221a2.935 2.935 0 0 0 2.7 2.108h2.174a2.935 2.935 0 0 0 2.7-2.108l.806-3.221a2.09 2.09 0 0 1 2.615-1.508l3.192.912a2.934 2.934 0 0 0 3.178-1.285l1.087-1.884a2.94 2.94 0 0 0-.476-3.4l-2.389-2.301a2.088 2.088 0 0 1 0-3.021l2.382-2.306a2.936 2.936 0 0 0 .478-3.393L28.573 7.2a2.934 2.934 0 0 0-3.171-1.281l-3.189.913a2.093 2.093 0 0 1-2.617-1.508l-.8-3.217A2.935 2.935 0 0 0 16.088 0h-2.173a2.935 2.935 0 0 0-2.7 2.108l-.8 3.217a2.1 2.1 0 0 1-2.617 1.511l-3.196-.913a2.933 2.933 0 0 0-3.178 1.282L.341 9.09a2.937 2.937 0 0 0 .478 3.4l2.382 2.3a2.1 2.1 0 0 1 0 3.023L.815 20.116a2.94 2.94 0 0 0-.476 3.4L1.428 25.4a2.934 2.934 0 0 0 3.174 1.28l3.189-.913a2.087 2.087 0 0 1 2.615 1.506Zm4.593-15.32a4.347 4.347 0 1 1-4.348 4.346 4.347 4.347 0 0 1 4.348-4.346Z" fill="#263238"/></svg>