<svg xmlns="http://www.w3.org/2000/svg" width="30" height="32.727"><path data-name="Path 9751" d="M26.4 12.927h2.4a1.2 1.2 0 0 1 1.2 1.2v17.4a1.2 1.2 0 0 1-1.2 1.2h-2.4a1.2 1.2 0 0 1-1.2-1.2v-17.4a1.2 1.2 0 0 1 1.2-1.2Z" fill="#263238"/><path data-name="Path 9752" d="M18 20.727h2.4a1.2 1.2 0 0 1 1.2 1.2v9.6a1.2 1.2 0 0 1-1.2 1.2H18a1.2 1.2 0 0 1-1.2-1.2v-9.6a1.2 1.2 0 0 1 1.2-1.2Z" fill="#263238"/><path data-name="Path 9753" d="M9.6 15.327H12a1.2 1.2 0 0 1 1.2 1.2v15a1.2 1.2 0 0 1-1.2 1.2H9.6a1.2 1.2 0 0 1-1.2-1.2v-15a1.2 1.2 0 0 1 1.2-1.2Z" fill="#263238"/><path data-name="Path 9754" d="M1.2 19.527h2.4a1.2 1.2 0 0 1 1.2 1.2v10.8a1.2 1.2 0 0 1-1.2 1.2H1.2a1.2 1.2 0 0 1-1.2-1.2v-10.8a1.2 1.2 0 0 1 1.2-1.2Z" fill="#263238"/><g data-name="Group 210"><g data-name="Group 209"><path data-name="Path 9755" d="M30 2.399a2.587 2.587 0 0 1-2.727 2.4 2.219 2.219 0 0 1-1.091-.24l-4.909 5.4a2.21 2.21 0 0 1-.545 3.36 2.968 2.968 0 0 1-3.818-.48 2.255 2.255 0 0 1-.545-1.44 2.159 2.159 0 0 1 .2-.9l-3.951-2.64A2.906 2.906 0 0 1 9 7.679l-3.614 1.86a2.176 2.176 0 0 1 .068.66 2.587 2.587 0 0 1-2.727 2.4A2.587 2.587 0 0 1 0 10.199a2.587 2.587 0 0 1 2.727-2.4 2.644 2.644 0 0 1 1.909.72l3.614-1.86a2.176 2.176 0 0 1-.068-.66 2.587 2.587 0 0 1 2.727-2.4 2.587 2.587 0 0 1 2.727 2.4 2.159 2.159 0 0 1-.2.9l3.955 2.64a2.844 2.844 0 0 1 1.7-.54 2.219 2.219 0 0 1 1.091.24l4.909-5.4a2.21 2.21 0 0 1 .545-3.36 2.968 2.968 0 0 1 3.818.48A2.255 2.255 0 0 1 30 2.399Z" fill="#263238"/></g></g></svg>