<svg xmlns="http://www.w3.org/2000/svg" width="195.395" height="86.076"><path d="M3.846 72.266a22.486 22.486 0 0 0-3.127 5.78 17.046 17.046 0 0 0-.7 5.764 2.265 2.265 0 1 0 4.53 0 13.722 13.722 0 0 1 1.089-5.583q.287-.64.621-1.264c5.852.026 20.658.042 28 .049q.327.611.605 1.235a13.742 13.742 0 0 1 1.079 5.563 2.265 2.265 0 0 0 4.53 0c-.034-8.306-5.407-14.989-12.325-19.136l-3.506-2.1 4.447-2.667-4.06-2.848-4.8 2.878-6.513-3.915c-.483-.287-.924-.6-1.373-.907h4.787a2.265 2.265 0 1 0 0-4.53H7.404a13.243 13.243 0 0 1-2.592-5.3l6.278-.016a2.265 2.265 0 1 0-.013-4.53l-6.216.016a13.439 13.439 0 0 1 2.688-5.271h8.091a2.265 2.265 0 1 0 0-4.53h-3.013c.43-.287.854-.581 1.318-.854l6.3-3.707 3.772 2.218 4.828-2.411-4.133-2.439 3.792-2.232a27.725 27.725 0 0 0 8.912-8.044 18.831 18.831 0 0 0 3.065-11.22 2.265 2.265 0 1 0-4.53 0v2.357a12.494 12.494 0 0 1-1.241 4.439H5.79a12.494 12.494 0 0 1-1.241-4.439V2.265a2.265 2.265 0 1 0-4.53 0 19.08 19.08 0 0 0 2.962 11.088 27.085 27.085 0 0 0 9 8.177l3.8 2.233-4.135 2.437C4.307 30.52.067 36.648.017 43.013s4.1 12.533 11.378 16.9l4.447 2.667-3.5 2.1a28.549 28.549 0 0 0-8.496 7.586ZM14.29 17.631a25.591 25.591 0 0 1-5.256-4.04h22.43a25.6 25.6 0 0 1-5.258 4.04l-5.959 3.508Zm5.945 47.6 5.595 3.333a25.87 25.87 0 0 1 5.051 3.92H9.626a25.87 25.87 0 0 1 5.048-3.924Z" fill="#455a64"/><text transform="translate(114.395 62.198)" fill="#455a64" font-size="50" font-family="Lato-Regular, Lato"><tspan x="-80.15" y="0">LIMase</tspan></text></svg>