<svg xmlns="http://www.w3.org/2000/svg" preserveAspectRatio="none" viewBox="0 0 195.395 86.076">
  <g id="Group_563" data-name="Group 563" transform="translate(-38.605 -27.802)">
    <g id="noun_DNA_3692014" transform="translate(6.599 25.802)">
      <path id="Path_9748" data-name="Path 9748" d="M16.365,74.266a22.486,22.486,0,0,0-3.127,5.78,17.046,17.046,0,0,0-.7,5.764,2.265,2.265,0,1,0,4.53,0,13.722,13.722,0,0,1,1.089-5.583q.287-.64.621-1.264c5.852.026,20.658.042,28,.049q.327.611.605,1.235a13.742,13.742,0,0,1,1.079,5.563,2.265,2.265,0,0,0,4.53,0c-.034-8.306-5.407-14.989-12.325-19.136l-3.506-2.1,4.447-2.667-4.06-2.848-4.8,2.878-6.513-3.915c-.483-.287-.924-.6-1.373-.907h4.787a2.265,2.265,0,1,0,0-4.53H19.923a13.243,13.243,0,0,1-2.592-5.3l6.278-.016a2.265,2.265,0,1,0-.013-4.53l-6.216.016a13.439,13.439,0,0,1,2.688-5.271h8.091a2.265,2.265,0,1,0,0-4.53H25.146c.43-.287.854-.581,1.318-.854l6.3-3.707,3.772,2.218L41.364,28.2l-4.133-2.439,3.792-2.232a27.725,27.725,0,0,0,8.912-8.044A18.831,18.831,0,0,0,53,4.265a2.265,2.265,0,1,0-4.53,0V6.622a12.494,12.494,0,0,1-1.241,4.439H18.309a12.494,12.494,0,0,1-1.241-4.439V4.265a2.265,2.265,0,1,0-4.53,0A19.08,19.08,0,0,0,15.5,15.353a27.085,27.085,0,0,0,9,8.177L28.3,25.763,24.165,28.2c-7.339,4.32-11.579,10.448-11.629,16.813s4.1,12.533,11.378,16.9l4.447,2.667-3.5,2.1A28.549,28.549,0,0,0,16.365,74.266ZM26.809,19.631a25.591,25.591,0,0,1-5.256-4.04h22.43a25.6,25.6,0,0,1-5.258,4.04l-5.959,3.508Zm5.945,47.6,5.595,3.333A25.87,25.87,0,0,1,43.4,74.484H22.145a25.87,25.87,0,0,1,5.048-3.924Z" transform="translate(19.487 0)" fill="#455a64"/>
    </g>
    <text id="LIMase" transform="translate(153 90)" fill="#455a64" font-size="50" font-family="Lato-Regular, Lato"><tspan x="-80.15" y="0">LIMase</tspan></text>
  </g>
</svg>
