<svg xmlns="http://www.w3.org/2000/svg" width="30" height="46.465"><g fill="#263238"><path data-name="Path 9747" d="M30 23.218c-.027-3.436-2.315-6.744-6.277-9.076l-2.607 1.3 1.366.8c.251.147.478.305.711.461h-1.974a1.223 1.223 0 0 0 0 2.446h4.716a7.28 7.28 0 0 1 1.438 2.814l-8.62.023a1.224 1.224 0 0 0-1.22 1.223 1.224 1.224 0 0 0 1.227 1.223l8.66-.023a7.135 7.135 0 0 1-1.409 2.9h-3.982a1.223 1.223 0 0 0 0 2.446h1.313c-.242.165-.479.332-.741.489l-.934.56 2.192 1.537c3.928-2.361 6.168-5.682 6.141-9.123Z"/><path data-name="Path 9748" d="M2.081 39.01a12.138 12.138 0 0 0-1.688 3.12 9.2 9.2 0 0 0-.376 3.112 1.223 1.223 0 1 0 2.446 0 7.407 7.407 0 0 1 .588-3.014q.155-.345.335-.682c3.159.014 11.151.022 15.115.026q.177.33.327.667a7.418 7.418 0 0 1 .582 3 1.223 1.223 0 0 0 2.446 0c-.019-4.484-2.919-8.091-6.653-10.33l-1.898-1.129 2.4-1.44-2.191-1.54-2.59 1.553-3.516-2.113c-.261-.155-.5-.324-.741-.489h2.584a1.223 1.223 0 1 0 0-2.446H3.997a7.149 7.149 0 0 1-1.4-2.861l3.389-.009a1.223 1.223 0 0 0-.007-2.446L2.624 22a7.255 7.255 0 0 1 1.451-2.845h4.368a1.223 1.223 0 1 0 0-2.446H6.816c.232-.155.461-.314.712-.461l3.4-2 2.036 1.2 2.606-1.3-2.231-1.316 2.047-1.2a14.966 14.966 0 0 0 4.811-4.342 10.165 10.165 0 0 0 1.655-6.057 1.223 1.223 0 0 0-2.446 0V2.5a6.744 6.744 0 0 1-.67 2.4H3.126a6.744 6.744 0 0 1-.67-2.4V1.223a1.223 1.223 0 0 0-2.446 0 10.3 10.3 0 0 0 1.6 5.985 14.621 14.621 0 0 0 4.859 4.414l2.047 1.2-2.231 1.316C2.323 16.47.035 19.778.008 23.214s2.212 6.765 6.142 9.122l2.4 1.44-1.888 1.132a15.411 15.411 0 0 0-4.581 4.102ZM7.719 9.517a13.814 13.814 0 0 1-2.838-2.18h12.1a13.819 13.819 0 0 1-2.838 2.181l-3.217 1.893Zm3.209 25.693 3.02 1.8a13.965 13.965 0 0 1 2.725 2.118H5.196a13.965 13.965 0 0 1 2.725-2.118Z"/></g></svg>