<svg xmlns="http://www.w3.org/2000/svg" width="30" height="30"><path data-name="Path 9749" d="M0 27.1V30h30v-2.9h-3.968a11.129 11.129 0 0 0-10.9-9.677L12.769 12.1h.3a4.839 4.839 0 0 0 4.616-3.387h3.755a7.258 7.258 0 0 0 7.113 5.806H30v-2.9h-1.452a4.355 4.355 0 0 1 0-8.71H30V0h-1.452a7.258 7.258 0 0 0-7.113 5.808h-3.754a4.839 4.839 0 0 0-4.616-3.387H5.323A4.839 4.839 0 0 0 .9 9.221l5.473 12.31a11.081 11.081 0 0 0-2.42 5.569ZM3.7 6.2a1.935 1.935 0 0 1 1.621-.881h7.742a1.936 1.936 0 1 1 0 3.871H8.41a.073.073 0 0 0-.068.1l3.779 8.5a11.086 11.086 0 0 0-3.508 1.64L3.557 8.04A1.935 1.935 0 0 1 3.7 6.2ZM15 20.323a8.226 8.226 0 0 1 8.09 6.777h-5.356a2.9 2.9 0 0 0-5.468 0H6.91A8.226 8.226 0 0 1 15 20.323Z" fill="#263238"/></svg>