<svg xmlns="http://www.w3.org/2000/svg" width="30" height="36.258"><path data-name="Path 9757" d="m29.735 19.779-2.134-2.134a.907.907 0 0 0-1.282 0l-4.525 4.525a.906.906 0 0 0 0 1.282l.673.673a10.921 10.921 0 0 1-5.064 4.811v-.088a4.777 4.777 0 0 0-.853-2.727l11.457-11.459a.907.907 0 0 0-1.282-1.282L15.259 24.847a4.792 4.792 0 0 0-6.474 1.076 7.96 7.96 0 0 1-.835-13.267 3.623 3.623 0 0 0 3.206.041l3.074 3.074c.008.008.016.013.024.02a.91.91 0 0 0 .111.1l3.154 2.392a.984.984 0 0 0 1.277-.059l3.587-3.587a.922.922 0 0 0 .142-.191.878.878 0 0 0 .043-.082l.018-.038a.9.9 0 0 0-.106-.9l-2.429-3.214a.908.908 0 0 0-.109-.117l-.016-.019-8.455-8.458a.933.933 0 0 0-1.282 0l-.463.463L7.909.265a.906.906 0 0 0-1.282 0L4.419 2.473a.907.907 0 0 0 0 1.282L6.234 5.57l-.463.463a.906.906 0 0 0 0 1.282l.513.513c-.043.09-.081.181-.116.275a12.735 12.735 0 0 0 .253 21.971h-.265a5.7 5.7 0 0 0-5.651 5.2.906.906 0 0 0 .9.981h22.37a.906.906 0 0 0 .9-.981 5.7 5.7 0 0 0-5.548-5.2 12.722 12.722 0 0 0 4.666-4.622l.128.128a.907.907 0 0 0 1.282 0l4.525-4.525a.907.907 0 0 0 .007-1.276Zm-17.141 6.072a3 3 0 0 1 3 3v1.227H9.598v-1.231a3 3 0 0 1 2.996-2.996ZM7.744 9.388a1.851 1.851 0 1 1 1.851 1.851 1.853 1.853 0 0 1-1.851-1.851Zm11.451 2.7 1.367 1.813-2.516 2.516-1.806-1.37Zm-1.192-1.372-3.132 3.134-2.313-2.313a3.658 3.658 0 0 0-4.094-5.636l2.364-2.36Zm-11.661-7.6.926-.926 1.174 1.174-.926.926Zm-4.529 15.9a10.962 10.962 0 0 1 4.258-8.654 3.648 3.648 0 0 0 .5 1.079 9.775 9.775 0 0 0 1.4 16.106 4.791 4.791 0 0 0-.178 1.2 10.973 10.973 0 0 1-5.98-9.734Zm20.849 15.429H2.526a3.886 3.886 0 0 1 3.631-2.558h12.874a3.886 3.886 0 0 1 3.631 2.558Zm1.909-10.782-.852-.852 3.243-3.243.852.852Z" fill="#263238"/></svg>