<svg xmlns="http://www.w3.org/2000/svg" width="30" height="40.396"><path data-name="Path 9763" d="M28 16.363h-.852v-1.108a4.092 4.092 0 0 0-4.091-4.091h-7.035V7.883h.852a2.074 2.074 0 0 0 2.046-2.045V2.045A2.074 2.074 0 0 0 16.874 0h-3.75a2.074 2.074 0 0 0-2.045 2.045V5.8a2.074 2.074 0 0 0 2.045 2.045h.852v3.281H6.988A4.092 4.092 0 0 0 2.9 15.212v1.108h-.852A2.074 2.074 0 0 0 0 18.366v3.75a2.074 2.074 0 0 0 2.045 2.045H5.8a2.074 2.074 0 0 0 2.045-2.045v-3.75A2.074 2.074 0 0 0 5.8 16.32h-.852v-1.108a2.046 2.046 0 0 1 2.045-2.045h6.988v3.153h-.852a2.074 2.074 0 0 0-2.045 2.045v3.75a2.074 2.074 0 0 0 2.045 2.045h3.75a2.074 2.074 0 0 0 2.045-2.045v-3.75a2.074 2.074 0 0 0-2.045-2.045h-.852v-3.153h6.983a2.046 2.046 0 0 1 2.045 2.045v1.108H24.2a2.074 2.074 0 0 0-2.045 2.045v3.75a2.074 2.074 0 0 0 2.045 2.046h.852v1.023a2.046 2.046 0 0 1-2.045 2.045H15a1.037 1.037 0 0 0-1.023 1.023v4.3h-.852a2.074 2.074 0 0 0-2.046 2.048v3.75a2.074 2.074 0 0 0 2.045 2.05h3.75a2.074 2.074 0 0 0 2.046-2.05V34.6a2.074 2.074 0 0 0-2.045-2.045h-.852v-3.281h6.987a4.092 4.092 0 0 0 4.09-4.091v-1.022h.852A2.074 2.074 0 0 0 30 22.115v-3.75a1.974 1.974 0 0 0-2-2.002ZM13.124 5.8V2.045h3.75V5.8ZM5.8 22.158H2.05v-3.75H5.8Zm11.079 0h-3.75v-3.75h3.75Zm0 16.278h-3.75v-3.75h3.75ZM28 22.158h-3.75v-3.75H28Z" fill="#263238"/></svg>