<svg xmlns="http://www.w3.org/2000/svg" width="30" height="30"><path d="M7.5 27.5h15V20h-15Zm17.5 0h2.5V10a2.889 2.889 0 0 0-.586-1.426l-5.489-5.489A2.717 2.717 0 0 0 20 2.5v8.125a1.876 1.876 0 0 1-1.876 1.875H6.874A1.876 1.876 0 0 1 5 10.624V2.5H2.5v25H5v-8.126A1.876 1.876 0 0 1 6.874 17.5h16.25A1.876 1.876 0 0 1 25 19.374V27.5ZM17.5 9.375v-6.25a.642.642 0 0 0-.625-.625h-3.75a.642.642 0 0 0-.625.625v6.25a.642.642 0 0 0 .625.625h3.75a.642.642 0 0 0 .625-.625ZM30 10v18.125A1.876 1.876 0 0 1 28.125 30H1.875A1.876 1.876 0 0 1 0 28.125V1.875A1.876 1.876 0 0 1 1.875 0H20a5.174 5.174 0 0 1 3.2 1.328L28.671 6.8A5.17 5.17 0 0 1 30 10Z" fill="#263238"/></svg>