<svg xmlns="http://www.w3.org/2000/svg" width="40" height="60"><g fill="#fff" stroke="#263238" stroke-width="2"><g data-name="Rectangle 466"><rect width="40" height="60" rx="10" stroke="none"/><rect x="1" y="1" width="38" height="58" rx="9" fill="none"/></g><g data-name="Rectangle 467"><path stroke="none" d="M38.695 10.344v3.065H1.149v-3.065z"/><path fill="none" d="M37.695 11.344v1.065H2.149v-1.065z"/></g><g data-name="Rectangle 468"><path stroke="none" d="M38.695 18.007v3.065H1.149v-3.065z"/><path fill="none" d="M37.695 19.007v1.065H2.149v-1.065z"/></g><g data-name="Rectangle 469"><path stroke="none" d="M38.695 25.669v3.065H1.149v-3.065z"/><path fill="none" d="M37.695 26.669v1.065H2.149v-1.065z"/></g><g data-name="Rectangle 470"><path stroke="none" d="M38.695 33.331v3.065H1.149v-3.065z"/><path fill="none" d="M37.695 34.331v1.065H2.149v-1.065z"/></g><g data-name="Rectangle 471"><path stroke="none" d="M38.695 40.994v3.065H1.149v-3.065z"/><path fill="none" d="M37.695 41.994v1.065H2.149v-1.065z"/></g><g data-name="Rectangle 472"><path stroke="none" d="M38.695 48.656v3.065H1.149v-3.065z"/><path fill="none" d="M37.695 49.656v1.065H2.149v-1.065z"/></g></g></svg>