<svg xmlns="http://www.w3.org/2000/svg" preserveAspectRatio="none" viewBox="0 0 664.645 500.624">
  <g id="Manufacturing_Process-amico" data-name="Manufacturing Process-amico" transform="translate(309.236 5.737)">
    <g id="freepik--Floor--inject-3" transform="translate(-321.346 -45.11)">
      <ellipse id="freepik--floor--inject-3-2" data-name="freepik--floor--inject-3" cx="332.322" cy="175.473" rx="332.322" ry="175.473" transform="translate(12.11 189.05)" fill="#f0f0f0"/>
    </g>
    <g id="freepik--character-2--inject-3" transform="translate(-130.481 220.998)">
      <g id="freepik--character--inject-3" transform="translate(0 0)">
        <ellipse id="Ellipse_47" data-name="Ellipse 47" cx="7.064" cy="5.678" rx="7.064" ry="5.678" transform="translate(15.068 40.885) rotate(-120)" fill="#263238"/>
        <path id="Path_2679" data-name="Path 2679" d="M187.021,95.005s4.2-.98,7.233,6.106c1.69,3.943,7.435,18.555,7.435,18.555s8.179.744,13.8.777v7.334c-6.669.518-16.775,1.194-18.758.079-2.726-1.532-11.424-22.813-11.424-22.813C184.408,97.258,187.021,95.005,187.021,95.005Z" transform="translate(-151.046 -58.652)" fill="#37474f"/>
        <path id="Path_2680" data-name="Path 2680" d="M175.134,117.94a4.675,4.675,0,0,0,1.8-2.636,10.14,10.14,0,0,0,.338-3.729c.09-1.059,1.645-.327,2.062,1.42.3,1.273.068,2.433.541,2.693a11.131,11.131,0,0,0,2.253-.507c1.036-.417,2.884-1.048,3.977-.27a1.386,1.386,0,0,1,.575,1.127,5.091,5.091,0,0,0,0,1.893,3.978,3.978,0,0,1,.27.9,8.221,8.221,0,0,1-.282,1.127c-.068.451.406,1.036.361,1.577s-.338.71-.428,1.127,0,.507-.1.755a1.724,1.724,0,0,1-1.025,1.014,12.471,12.471,0,0,1-4.754,1.025,39.5,39.5,0,0,1-4.732-.079c-.518,0-2.85.2-5.9.451v-7.4C172.577,118.447,174.56,118.324,175.134,117.94Z" transform="translate(-105.654 -56.611)" fill="#b16668"/>
        <path id="Path_2681" data-name="Path 2681" d="M210.858,121.745a41.481,41.481,0,0,0-7.143,14.713c-3.222,13.023,1.791,40.861,1.791,40.861-.158,1.881-2.321,5.633-3.121,13.913-.946,9.824,1.757,36.13,1.757,36.13a6.286,6.286,0,0,0,6.354.135s6.883-38.642,8.111-48.443c1.127-8.528,3.267-26.238,3.267-26.238l4.923,26.193s-.687,4.765-1.048,8.4C225.2,193.159,230.8,222,230.8,222a7.886,7.886,0,0,0,6.331-.124s2.479-37.256,3-44.173c.541-7.12-1.318-23.726-2.681-36.941-.406-3.977-2.433-16.279-3.132-19.681Z" transform="translate(-195.002 -55.345)" fill="#90caf9"/>
        <path id="Path_2682" data-name="Path 2682" d="M210.858,121.745a41.481,41.481,0,0,0-7.143,14.713c-3.222,13.023,1.791,40.861,1.791,40.861-.158,1.881-2.321,5.633-3.121,13.913-.946,9.824,1.757,36.13,1.757,36.13a6.286,6.286,0,0,0,6.354.135s6.883-38.642,8.111-48.443c1.127-8.528,3.267-26.238,3.267-26.238l4.923,26.193s-.687,4.765-1.048,8.4C225.2,193.159,230.8,222,230.8,222a7.886,7.886,0,0,0,6.331-.124s2.479-37.256,3-44.173c.541-7.12-1.318-23.726-2.681-36.941-.406-3.977-2.433-16.279-3.132-19.681Z" transform="translate(-195.002 -55.345)" opacity="0.4"/>
        <path id="Path_2683" data-name="Path 2683" d="M193.329,208.394c-.687-4.506-2.952-10.139-1.127-10.68l.338,2.005s1.307,1.036,4.506,1.036a7.559,7.559,0,0,0,5.047-1.836l.113-1.6c.969.248.913.935.5,3.808s-1.127,10.962-.834,12.483-.789,2.6,2.816,5.633,6.241,5.261,8.652,6.545,4.506,2.58,1.51,4.4h0a7.616,7.616,0,0,1-4.6,1.307,12.7,12.7,0,0,1-7.345-2.9,12.719,12.719,0,0,0-5.272-3.121c-1.656-.282-4.067-1.859-4.27-2.918a13.789,13.789,0,0,1,.406-4.506c.1-.406.158-.8.214-1.127C194.264,214.455,194.016,212.878,193.329,208.394Z" transform="translate(-159.076 -45.695)" fill="#263238"/>
        <path id="Path_2684" data-name="Path 2684" d="M209.01,150.561l1.127-8.066a19.918,19.918,0,0,0,9.486-3.064,12.088,12.088,0,0,1-7.942,4.439l-.744,7.221,2.355,22.532Z" transform="translate(-182.092 -53.023)" fill="#263238" opacity="0.6"/>
        <path id="Path_2685" data-name="Path 2685" d="M227.24,220.947c0-3.549-.924-12.088-1.127-14.826s.5-2.5.5-2.5l.124,1.679a7.266,7.266,0,0,0,4.382,1.239,9.925,9.925,0,0,0,5.058-1.127c.1-.744.27-1.555.27-1.555.9.507.214,2.411-.755,7.65s-1.386,5.239-.676,12.235.958,10.6.744,12.64l-.146.056a10.883,10.883,0,0,1-1.07,3.583c-1.453,3.064-4.9,1.419-6.207-.394a7.739,7.739,0,0,1-1.746-4.506h0v-1.746c.068-2.118.439-3.38.642-5.261l.056-.6v-.428C227.286,226.93,227.308,224.507,227.24,220.947Z" transform="translate(-218.562 -44.898)" fill="#263238"/>
        <path id="Path_2686" data-name="Path 2686" d="M230.311,116.456c-.124,2.366-.586,8.01-.586,8.01-9.677,6.545-23.5.6-23.5.6l-1.972-13.722s5.047-7.064.3-14.51l7.559-1.5,9.013-.732,5.25.473c2.963,2.163,4.923,6.568,5.87,9.013a11.446,11.446,0,0,1-1.938,12.37Z" transform="translate(-190.369 -58.697)" fill="#455a64"/>
        <path id="Path_2687" data-name="Path 2687" d="M209.922,125.283l-.518-13.519s4.9-7.537.158-14.984l7.886-1.769v.744l-1.487.3c.924,2.58,6.489,7.886,12.291,8.81,2.783-2.557,1.127-6.76,0-9.013l-.958-.27a1.926,1.926,0,0,1-.608-.946l5.25.473c2.963,2.163,5.171,6.76,6.117,9.238a11.165,11.165,0,0,1-1.972,12.2c-.124,2.366-.158,7.987-.158,7.987l2.614,16.4c-21.552,6.94-34.395-1.611-34.395-1.611C206.182,134.476,209.922,125.283,209.922,125.283Z" transform="translate(-196.038 -58.692)" fill="#90caf9"/>
        <path id="Path_2688" data-name="Path 2688" d="M233.195,119.916c-.913,1.791-9.238,2.174-14.736,2.017a41.435,41.435,0,0,1-11.536-2.433l-.113-2.839a42.81,42.81,0,0,0,11.649,2.433c5.5.158,13.823-.225,14.736-2.005Z" transform="translate(-193.185 -55.905)" fill="#fafafa"/>
        <path id="Path_2689" data-name="Path 2689" d="M206.81,124.364l1.014-2.524h0a41.853,41.853,0,0,0,11.424,2.355c5.5.158,13.823-.225,14.736-2.005v2.828c-.913,1.791-9.238,2.174-14.736,2.017C214.741,126.887,208.8,125.028,206.81,124.364Z" transform="translate(-193.974 -55.249)" fill="#fafafa"/>
        <path id="Path_2690" data-name="Path 2690" d="M214.815,142.135c-.867.1-1.712.169-2.535.225a121.1,121.1,0,0,0,3.053-15.952,125.569,125.569,0,0,0,0-22.678C217.733,109.5,217.328,128.447,214.815,142.135Z" transform="translate(-183.087 -57.542)" opacity="0.15"/>
        <path id="Path_2691" data-name="Path 2691" d="M225.882,119.93l-24.5,1.645L188.93,149.187l23.4-2.174Z" transform="translate(-165.729 -55.491)" fill="#37474f"/>
        <path id="Path_2692" data-name="Path 2692" d="M219.8,136.88a5.554,5.554,0,0,1-4.382,3.492,12.111,12.111,0,0,1-6.365-1.127l1.048-2.31Z" transform="translate(-182.312 -53.345)" opacity="0.15"/>
        <path id="Path_2693" data-name="Path 2693" d="M205.785,122.65l.372-.856c.192-.462-1.127-.755-3.053-.631l-3.605.225c-1.881.124-3.571.6-3.774,1.127l-.361.856Z" transform="translate(-153.27 -55.338)" opacity="0.15"/>
        <path id="Path_2694" data-name="Path 2694" d="M206.539,120.012c.124-.293-.417-.484-1.205-.417l-1.431.113s.777-1.848-2.366-1.757A4.822,4.822,0,0,0,197.3,120.1l-1.532.135a2.681,2.681,0,0,0-1.8.653l-.282.518,12.618-.856Z" transform="translate(-151.76 -55.742)" fill="#90caf9"/>
        <path id="Path_2695" data-name="Path 2695" d="M206.539,120.012c.124-.293-.417-.484-1.205-.417l-1.431.113s.777-1.848-2.366-1.757A4.822,4.822,0,0,0,197.3,120.1l-1.532.135a2.681,2.681,0,0,0-1.8.653l-.282.518,12.618-.856Z" transform="translate(-151.76 -55.742)" opacity="0.3"/>
        <path id="Path_2696" data-name="Path 2696" d="M195.32,122.7c.169-.394,1.374-.789,2.85-.98a.686.686,0,0,0,.056-.135c.169-.406,0-.7-.856-.642V120.6l8.731-.518-.417.3c-1.127.056-1.634.113-1.949.834l-.068.169c1.352,0,2.253.27,2.084.653l-.361.856-10.432.665Z" transform="translate(-152.743 -55.472)" fill="#90caf9"/>
        <path id="Path_2697" data-name="Path 2697" d="M195.32,122.7c.169-.394,1.374-.789,2.85-.98a.686.686,0,0,0,.056-.135c.169-.406,0-.7-.856-.642V120.6l8.731-.518-.417.3c-1.127.056-1.634.113-1.949.834l-.068.169c1.352,0,2.253.27,2.084.653l-.361.856-10.432.665Z" transform="translate(-152.743 -55.472)" opacity="0.4"/>
        <path id="Path_2698" data-name="Path 2698" d="M211.414,129.06c.732.473,1.4.879,1.926,1.183s1.667-.135,2.4-.282a17.53,17.53,0,0,1,5.092,0c1.453.068,2.253-.338,2.388,0a1.645,1.645,0,0,1-1.014,2.005,11.355,11.355,0,0,1-2.659.721,15.354,15.354,0,0,0,4.743,1.374c3.752.473,5.081,1.7,1.611,5.07-2.174,2.118-5.216,2.433-11.48-.822-1.228-.642-3.752-2.073-6.129-3.38Z" transform="translate(-189.577 -54.335)" fill="#b16668"/>
        <path id="Path_2699" data-name="Path 2699" d="M228.38,105.187c2.174-7.773,5.216-8.416,9.756-8.787,4.7,8.269-1.273,15.322-1.273,15.322L232.571,124.6c.665.71,7.886,5.824,12.2,8.618l-3.121,5.892c-1.127-.608-2.186-1.127-3.076-1.622-6.613-3.29-15.457-6.76-15.592-10.139S226.082,113.355,228.38,105.187Z" transform="translate(-222.98 -58.47)" fill="#37474f"/>
        <path id="Path_2700" data-name="Path 2700" d="M229.8,83.65l.462-.18a5.193,5.193,0,0,0,2.253-1.757,4.664,4.664,0,0,0,.642-3.481,6.85,6.85,0,0,0-2.445-3.752c-.53-.473-.428-.259-.9-.789a9.137,9.137,0,0,1-1.217-1.949l-.5-.969-.822-1.611a2.726,2.726,0,0,0-.935-.89,13.665,13.665,0,0,0-2.445-1.442,14.443,14.443,0,0,0-5.858-1.251,16,16,0,0,0-7.571,1.848c-2.467,1.307-4.281,2.828-5.148,5.532a28.761,28.761,0,0,0-1.825,9.092,12.685,12.685,0,0,0,2.253,6.3c2.726,4.168,4.236,5.227,5.16,7.976.3.924,1.735-.372,2.467-.552,2.422-.631,4.946-1.127,7.334-1.825a6.455,6.455,0,0,0,3.076-2.828c.406-.6.766-1.228,1.127-1.87a18.4,18.4,0,0,1,3.019-4.506,3.234,3.234,0,0,1,1-.744A3.883,3.883,0,0,1,229.8,83.65Z" transform="translate(-189.507 -62.371)" fill="#263238"/>
        <path id="Path_2701" data-name="Path 2701" d="M227.29,73.806c1.7.935,3.154,2.174,3.2,11.018,0,7.492-2.355,9.407-3.56,9.97s-3.56.3-5.858,0v3.38s1.712,3.875-2.794,4.18c-6.241.428-7.131-3.628-7.131-3.628l-.192-9.891s-1.622,1.284-3.447-.653-1.6-4.506-.484-5.351c1.634-1.307,3.222-.958,4.326,1.127,4.9,0,6.76-6.23,7.075-9.632C221.161,71.53,224.473,78.875,227.29,73.806Z" transform="translate(-189.748 -61.347)" fill="#b16668"/>
        <path id="Path_2702" data-name="Path 2702" d="M222.263,85.789l-1.127-3.842c1.07-.361,2.535-.1,2.614,1a2.647,2.647,0,0,1-1.487,2.839Z" transform="translate(-199.919 -60.318)" fill="#263238"/>
        <path id="Path_2703" data-name="Path 2703" d="M218.2,73.351s-1.217,7.03-11.007,7.244V72.63Z" transform="translate(-178.616 -61.478)" fill="#263238"/>
        <path id="Path_2704" data-name="Path 2704" d="M216.011,82.1a.98.98,0,0,1-.89,1.127,1.014,1.014,0,1,1,.89-1.127Z" transform="translate(-184.102 -60.393)" fill="#263238"/>
        <path id="Path_2705" data-name="Path 2705" d="M212.136,87.37l2.985.856a1.521,1.521,0,0,1-1.893,1.127,1.634,1.634,0,0,1-1.093-1.983Z" transform="translate(-181.049 -59.613)" fill="#9a4a4d"/>
        <path id="Path_2706" data-name="Path 2706" d="M208.752,79.588l-1.9-1.239a1.127,1.127,0,0,1,1.543-.361,1.183,1.183,0,0,1,.361,1.6Z" transform="translate(-168.957 -60.821)" fill="#263238"/>
        <path id="Path_2707" data-name="Path 2707" d="M209.1,81.67a.973.973,0,1,1-1.048-.98.991.991,0,0,1,1.048.98Z" transform="translate(-169.471 -60.458)" fill="#263238"/>
        <path id="Path_2708" data-name="Path 2708" d="M208.87,81.19l.113,6.038,2.907-.991Z" transform="translate(-174.201 -60.395)" fill="#9a4a4d"/>
        <path id="Path_2709" data-name="Path 2709" d="M222.578,92.79c-2.377-.248-7.266-1.521-8.078-3.38a5.025,5.025,0,0,0,1.78,2.411c1.487,1.205,6.3,2.49,6.3,2.49Z" transform="translate(-191.232 -59.354)" fill="#9a4a4d"/>
        <path id="Path_2710" data-name="Path 2710" d="M205.851,78.37a13.959,13.959,0,0,0,.9,4c.3-.372.653-.732,1-1.127a24.008,24.008,0,0,1,7.019-4.664h0c6.016-2.693,13.339-3.526,19.152-1.814a14,14,0,0,0-1.036-3.38,14.172,14.172,0,0,0-27.038,6.929Z" transform="translate(-192.79 -62.689)" fill="#90caf9"/>
        <path id="Path_2711" data-name="Path 2711" d="M211.794,64.408c.721-.338,4.3-1.352,4.6-1.431a8.472,8.472,0,0,1,7.886,2.107,14.432,14.432,0,0,1,4.664,7.8l-3.819,1.127-1.205.09c-.406-2.794-3.988-8.866-9.159-9.17a5.3,5.3,0,0,0-.732,0,6.883,6.883,0,0,0-2.107.361,20.209,20.209,0,0,0-2.028,1.577A3.177,3.177,0,0,1,211.794,64.408Z" transform="translate(-192.401 -62.731)" fill="#90caf9"/>
        <path id="Path_2712" data-name="Path 2712" d="M211.794,64.408c.721-.338,4.3-1.352,4.6-1.431a8.472,8.472,0,0,1,7.886,2.107,14.432,14.432,0,0,1,4.664,7.8l-3.819,1.127-1.205.09c-.406-2.794-3.988-8.866-9.159-9.17a5.3,5.3,0,0,0-.732,0,6.883,6.883,0,0,0-2.107.361,20.209,20.209,0,0,0-2.028,1.577A3.177,3.177,0,0,1,211.794,64.408Z" transform="translate(-192.401 -62.731)" fill="#fff" opacity="0.45"/>
        <path id="Path_2713" data-name="Path 2713" d="M227.245,73.993c-.473-3.256-5.306-11.029-11.885-8.81a18.318,18.318,0,0,0-2.039,1.577,3.188,3.188,0,0,1,1.848-2.478c1.724-.789,5.148-1.127,8.63,1.814a14.33,14.33,0,0,1,4.653,7.8Z" transform="translate(-195.775 -62.605)" fill="#90caf9"/>
        <path id="Path_2714" data-name="Path 2714" d="M227.245,73.993c-.473-3.256-5.306-11.029-11.885-8.81a18.318,18.318,0,0,0-2.039,1.577,3.188,3.188,0,0,1,1.848-2.478c1.724-.789,5.148-1.127,8.63,1.814a14.33,14.33,0,0,1,4.653,7.8Z" transform="translate(-195.775 -62.605)" opacity="0.3"/>
        <path id="Path_2715" data-name="Path 2715" d="M201.675,74.88a15.919,15.919,0,0,1,6.4-5.509c2.929-1.51,8.9-1.487,11.57-1.408,4.687.158,5.779,1.127,5.836,1.859,0,.158.056.924.079,1.127a.631.631,0,0,1-.1.439c-.721,1.059-4.506,2.828-4.506,2.828C215.126,72.5,207.8,73.337,201.8,76.03Z" transform="translate(-179.77 -62.073)" fill="#90caf9"/>
        <path id="Path_2716" data-name="Path 2716" d="M201.675,74.88a15.919,15.919,0,0,1,6.4-5.509c2.929-1.51,8.9-1.487,11.57-1.408,4.687.158,5.779,1.127,5.836,1.859,0,.158.056.924.079,1.127a.631.631,0,0,1-.1.439c-.721,1.059-4.506,2.828-4.506,2.828C215.126,72.5,207.8,73.337,201.8,76.03Z" transform="translate(-179.77 -62.073)" opacity="0.15"/>
        <path id="Path_2717" data-name="Path 2717" d="M201.7,75.868c6.016-2.693,13.339-3.526,19.152-1.814,0,0,3.808-1.769,4.506-2.828.383-.575.068-2.084-5.723-2.253-2.67-.079-8.641-.1-11.57,1.408a15.919,15.919,0,0,0-6.365,5.486Z" transform="translate(-179.706 -61.945)" fill="#90caf9"/>
        <path id="Path_2718" data-name="Path 2718" d="M201.7,75.868c6.016-2.693,13.339-3.526,19.152-1.814,0,0,3.808-1.769,4.506-2.828.383-.575.068-2.084-5.723-2.253-2.67-.079-8.641-.1-11.57,1.408a15.919,15.919,0,0,0-6.365,5.486Z" transform="translate(-179.706 -61.945)" opacity="0.3"/>
      </g>
    </g>
    <g id="freepik--Boxes--inject-9" transform="translate(-364.639 169.403)">
      <g id="freepik--boxes--inject-9-2" data-name="freepik--boxes--inject-9" transform="translate(-28 -54.14)">
        <path id="Path_9843" data-name="Path 9843" d="M368.2,246.28l44.28-25.61,50.28,29.1-44.28,25.61Z" fill="#90caf9"/>
        <g id="Group_472" data-name="Group 472" opacity="0.8">
          <path id="Path_9844" data-name="Path 9844" d="M368.2,246.28l44.28-25.61,50.28,29.1-44.28,25.61Z" fill="#fff"/>
        </g>
        <path id="Path_9845" data-name="Path 9845" d="M457.58,246.77l-42.77,24.8-45.1-26.1,42.77-24.8Z" opacity="0.1"/>
        <path id="Path_9846" data-name="Path 9846" d="M418.48,308.64l-50.28-29.1V246.28l50.28,29.1Z" fill="#90caf9"/>
        <g id="Group_473" data-name="Group 473" opacity="0.7">
          <path id="Path_9847" data-name="Path 9847" d="M418.48,308.64l-50.28-29.1V246.28l50.28,29.1Z" fill="#fff"/>
        </g>
        <path id="Path_9848" data-name="Path 9848" d="M412.32,297.43a3.19,3.19,0,0,1-1.36-2.57v-3.94l2.77,1.62h.18v.26h0v3.52a1.33,1.33,0,0,1-.54,1.2,1,1,0,0,1-.44.11,1.25,1.25,0,0,1-.61-.2Zm.31-4.24-.2,1.38h-1v.29a2.79,2.79,0,0,0,1.14,2.19.59.59,0,0,0,.59.06c.21-.11.32-.41.32-.81V293Zm-.39-.38.81-.15-1.64-1v2.44h.64Z" fill="#455a64"/>
        <path id="Path_9849" data-name="Path 9849" d="M412.43,300.42a.22.22,0,0,0,.23-.22v-3a.225.225,0,0,0-.45,0v3A.22.22,0,0,0,412.43,300.42Z" fill="#455a64"/>
        <path id="Path_9850" data-name="Path 9850" d="M413.72,301.16a.22.22,0,0,0,.11-.41l-2.57-1.49a.224.224,0,1,0-.22.39l2.57,1.48A.23.23,0,0,0,413.72,301.16Z" fill="#455a64"/>
        <path id="Path_9851" data-name="Path 9851" d="M404.55,296.06a.54.54,0,0,0,.25-.06.6.6,0,0,0,.26-.53v-.61a.22.22,0,0,0-.44,0v.61c0,.09,0,.14-.05.15a.64.64,0,0,1-.14,0,1.34,1.34,0,0,1-.41-1v-3.94a.22.22,0,1,0-.44,0v3.94a1.71,1.71,0,0,0,.62,1.38.69.69,0,0,0,.35.06Z" fill="#455a64"/>
        <path id="Path_9852" data-name="Path 9852" d="M401,289.22v-.13a1.87,1.87,0,0,1,3.05-1.76,6.25,6.25,0,0,1,2.84,4.91v.38Zm1.13-1.7a1.65,1.65,0,0,0-.69,1.45l5,2.87a5.84,5.84,0,0,0-2.59-4.13,2.32,2.32,0,0,0-1.1-.34,1.19,1.19,0,0,0-.62.15Z" fill="#455a64"/>
        <path id="Path_9853" data-name="Path 9853" d="M396.6,291.53a.22.22,0,0,0,.22-.22v-7.54a.22.22,0,1,0-.44,0v7.54A.22.22,0,0,0,396.6,291.53Z" fill="#455a64"/>
        <path id="Path_9854" data-name="Path 9854" d="M397.24,285.49h.09a.22.22,0,0,0,.12-.29l-.79-1.83-.88,1a.22.22,0,1,0,.33.29l.42-.48.51,1.17A.22.22,0,0,0,397.24,285.49Z" fill="#455a64"/>
        <path id="Path_9855" data-name="Path 9855" d="M394.55,290.36a.22.22,0,0,0,.22-.22V282.6a.22.22,0,1,0-.44,0v7.54a.22.22,0,0,0,.22.22Z" fill="#455a64"/>
        <path id="Path_9856" data-name="Path 9856" d="M395.2,284.32h.08a.22.22,0,0,0,.12-.29l-.79-1.82-.88,1a.22.22,0,0,0,0,.31.23.23,0,0,0,.32,0l.41-.48.51,1.17a.23.23,0,0,0,.23.11Z" fill="#455a64"/>
        <path id="Path_9857" data-name="Path 9857" d="M418.48,308.64l44.28-25.61V249.77l-44.28,25.61Z" fill="#90caf9"/>
        <g id="Group_474" data-name="Group 474" opacity="0.6">
          <path id="Path_9858" data-name="Path 9858" d="M418.48,308.64l44.28-25.61V249.77l-44.28,25.61Z" fill="#fff"/>
        </g>
        <path id="Path_9859" data-name="Path 9859" d="M442.79,266.36l-3.26,1.88v-5.06l3.26-1.88Z" fill="#37474f"/>
        <path id="Path_9860" data-name="Path 9860" d="M439.53,263.18l-50.28-29.1,3.26-1.88,50.28,29.1Z" fill="#455a64"/>
        <path id="Path_9861" data-name="Path 9861" d="M437.63,258.31l-3.25,1.89-1.85-1.06,3.27-1.89Z" fill="#37474f"/>
        <path id="Path_9862" data-name="Path 9862" d="M456.43,270.7l-11.51,6.65a1.13,1.13,0,0,0-.52.9v8c0,.66.46.93,1,.6L457,280.2a1.18,1.18,0,0,0,.52-.9v-8C457.47,270.64,457,270.37,456.43,270.7Z" fill="#fafafa"/>
        <path id="Path_9863" data-name="Path 9863" d="M456.72,271.94l-.4.23v7.06l.4-.23Z" fill="#455a64"/>
        <path id="Path_9864" data-name="Path 9864" d="M455.12,272.86l-.67.4v7.06l.67-.39Z" fill="#455a64"/>
        <path id="Path_9865" data-name="Path 9865" d="M453.53,273.78l-.4.23.01,7.06.39-.22Z" fill="#455a64"/>
        <path id="Path_9866" data-name="Path 9866" d="M452.32,274.46l-.78.47v7.06l.78-.46Z" fill="#455a64"/>
        <path id="Path_9867" data-name="Path 9867" d="M450.34,275.62l-.39.23v7.06l.39-.22Z" fill="#455a64"/>
        <path id="Path_9868" data-name="Path 9868" d="M449.19,276.27l-.84.5v7.06l.84-.5Z" fill="#455a64"/>
        <path id="Path_9869" data-name="Path 9869" d="M447.15,277.46l-.39.23v7.06l.39-.23Z" fill="#455a64"/>
        <path id="Path_9870" data-name="Path 9870" d="M446.24,277.98l-.2.11v7.07l.2-.12Z" fill="#455a64"/>
        <path id="Path_9871" data-name="Path 9871" d="M447.88,277.08l-.2.11v7.06l.2-.11Z" fill="#455a64"/>
        <path id="Path_9872" data-name="Path 9872" d="M451.09,275.2l-.2.11v7.06l.2-.11Z" fill="#455a64"/>
        <path id="Path_9873" data-name="Path 9873" d="M452.85,274.19l-.2.11v7.06l.2-.11Z" fill="#455a64"/>
        <path id="Path_9874" data-name="Path 9874" d="M454.11,273.49l-.2.11.01,7.07.19-.12Z" fill="#455a64"/>
        <path id="Path_9875" data-name="Path 9875" d="M455.82,272.45l-.19.11v7.07l.19-.12Z" fill="#455a64"/>
        <path id="Path_9876" data-name="Path 9876" d="M445.56,278.38l-.4.23v7.06l.4-.22Z" fill="#455a64"/>
        <path id="Path_9877" data-name="Path 9877" d="M363.87,207.42l44.28-25.62,50.28,29.11-44.28,25.61Z" fill="#90caf9"/>
        <g id="Group_475" data-name="Group 475" opacity="0.7">
          <path id="Path_9878" data-name="Path 9878" d="M363.87,207.42l44.28-25.62,50.28,29.11-44.28,25.61Z" fill="#fff"/>
        </g>
        <path id="Path_9879" data-name="Path 9879" d="M458.43,210.91l-41.07,23.75L371.6,208.18l41.08-23.76Z" opacity="0.1"/>
        <path id="Path_9880" data-name="Path 9880" d="M414.15,269.78l-50.28-29.1V207.42l50.28,29.1Z" fill="#90caf9"/>
        <g id="Group_476" data-name="Group 476" opacity="0.6">
          <path id="Path_9881" data-name="Path 9881" d="M414.15,269.78l-50.28-29.1V207.42l50.28,29.1Z" fill="#fff"/>
        </g>
        <path id="Path_9882" data-name="Path 9882" d="M408,258.57a3.22,3.22,0,0,1-1.36-2.58v-3.93l2.76,1.62h.18v.26h0v3.53a1.32,1.32,0,0,1-.54,1.19.82.82,0,0,1-.43.12,1.22,1.22,0,0,1-.61-.21Zm.31-4.25-.21,1.38h-1v.3a2.79,2.79,0,0,0,1.14,2.19.64.64,0,0,0,.6.07.91.91,0,0,0,.32-.81v-3.27Zm-.4-.38.82-.14-1.65-1v2.43h.64Z" fill="#455a64"/>
        <path id="Path_9883" data-name="Path 9883" d="M408.1,261.56a.22.22,0,0,0,.22-.23v-3a.22.22,0,0,0-.44,0v3a.22.22,0,0,0,.22.23Z" fill="#455a64"/>
        <path id="Path_9884" data-name="Path 9884" d="M409.39,262.3a.23.23,0,0,0,.19-.11.24.24,0,0,0-.08-.31l-2.58-1.48a.22.22,0,1,0-.22.38l2.57,1.49a.27.27,0,0,0,.12.03Z" fill="#455a64"/>
        <path id="Path_9885" data-name="Path 9885" d="M400.22,257.2a.5.5,0,0,0,.24-.06.59.59,0,0,0,.27-.54V256a.225.225,0,0,0-.45,0v.75a.17.17,0,0,1-.14,0,1.31,1.31,0,0,1-.42-1v-3.93a.22.22,0,0,0-.44,0v3.93a1.69,1.69,0,0,0,.63,1.39A.69.69,0,0,0,400.22,257.2Z" fill="#455a64"/>
        <path id="Path_9886" data-name="Path 9886" d="M396.66,250.36v-.13a1.885,1.885,0,0,1,3.06-1.81,6.3,6.3,0,0,1,2.83,4.91v.39Zm1.13-1.7a1.61,1.61,0,0,0-.68,1.44l5,2.88a5.88,5.88,0,0,0-2.59-4.13,2.24,2.24,0,0,0-1.11-.34,1.21,1.21,0,0,0-.62.15Z" fill="#455a64"/>
        <path id="Path_9887" data-name="Path 9887" d="M392.26,252.66a.22.22,0,0,0,.22-.22V244.9a.22.22,0,1,0-.44,0v7.54a.22.22,0,0,0,.22.22Z" fill="#455a64"/>
        <path id="Path_9888" data-name="Path 9888" d="M392.91,246.62a.15.15,0,0,0,.09,0,.22.22,0,0,0,.11-.29l-.79-1.82-.88,1a.21.21,0,0,0,0,.31.22.22,0,0,0,.31,0l.42-.49.51,1.18a.21.21,0,0,0,.23.11Z" fill="#455a64"/>
        <path id="Path_9889" data-name="Path 9889" d="M390.21,251.5a.22.22,0,0,0,.22-.23v-7.54a.22.22,0,0,0-.44,0v7.54a.22.22,0,0,0,.22.23Z" fill="#455a64"/>
        <path id="Path_9890" data-name="Path 9890" d="M390.86,245.45a.15.15,0,0,0,.09,0,.21.21,0,0,0,.11-.29l-.78-1.82-.88,1a.21.21,0,0,0,0,.31.22.22,0,0,0,.31,0l.42-.48.51,1.17A.21.21,0,0,0,390.86,245.45Z" fill="#455a64"/>
        <path id="Path_9891" data-name="Path 9891" d="M414.15,269.78l44.28-25.62V210.91l-44.28,25.61Z" fill="#90caf9"/>
        <g id="Group_477" data-name="Group 477" opacity="0.4">
          <path id="Path_9892" data-name="Path 9892" d="M414.15,269.78l44.28-25.62V210.91l-44.28,25.61Z" fill="#fff"/>
        </g>
        <path id="Path_9893" data-name="Path 9893" d="M458.43,222.02l-41.07,23.76V234.66l41.07-23.75Z" opacity="0.1"/>
        <path id="Path_9894" data-name="Path 9894" d="M438.45,227.49l-3.25,1.88v-5.05l3.25-1.88Z" fill="#37474f"/>
        <path id="Path_9895" data-name="Path 9895" d="M435.2,224.32l-50.28-29.1,3.25-1.88,50.28,29.1Z" fill="#455a64"/>
        <path id="Path_9896" data-name="Path 9896" d="M452.09,231.83l-11.51,6.65a1.18,1.18,0,0,0-.52.9v8c0,.66.47.93,1,.6l11.51-6.65a1.13,1.13,0,0,0,.52-.9v-8C453.13,231.77,452.66,231.5,452.09,231.83Z" fill="#fafafa"/>
        <path id="Path_9897" data-name="Path 9897" d="M452.38,233.08l-.39.22v7.07l.39-.23Z" fill="#455a64"/>
        <path id="Path_9898" data-name="Path 9898" d="M450.79,234l-.68.4v7.06l.68-.4Z" fill="#455a64"/>
        <path id="Path_9899" data-name="Path 9899" d="M449.19,234.92l-.39.23v7.06l.39-.23Z" fill="#455a64"/>
        <path id="Path_9900" data-name="Path 9900" d="M447.99,235.6l-.78.46v7.07l.78-.47Z" fill="#455a64"/>
        <path id="Path_9901" data-name="Path 9901" d="M446,236.76l-.39.23v7.06l.39-.23Z" fill="#455a64"/>
        <path id="Path_9902" data-name="Path 9902" d="M444.86,237.41l-.84.5v7.06l.84-.5Z" fill="#455a64"/>
        <path id="Path_9903" data-name="Path 9903" d="M442.81,238.6l-.39.22v7.07l.39-.23Z" fill="#455a64"/>
        <path id="Path_9904" data-name="Path 9904" d="M441.9,239.12l-.19.11v7.06l.19-.11Z" fill="#455a64"/>
        <path id="Path_9905" data-name="Path 9905" d="M443.54,238.21l-.19.12v7.06l.19-.11Z" fill="#455a64"/>
        <path id="Path_9906" data-name="Path 9906" d="M446.75,236.33l-.19.12v7.06l.19-.11Z" fill="#455a64"/>
        <path id="Path_9907" data-name="Path 9907" d="M448.51,235.32l-.19.12v7.06l.19-.11Z" fill="#455a64"/>
        <path id="Path_9908" data-name="Path 9908" d="M449.77,234.63l-.19.11v7.06l.19-.11Z" fill="#455a64"/>
        <path id="Path_9909" data-name="Path 9909" d="M451.49,233.59l-.2.11v7.06l.2-.11Z" fill="#455a64"/>
        <path id="Path_9910" data-name="Path 9910" d="M441.22,239.52l-.39.23v7.06l.39-.23Z" fill="#455a64"/>
        <path id="Path_9911" data-name="Path 9911" d="M374.3,174.82l44.28-25.61,50.28,29.1-44.28,25.61Z" fill="#90caf9"/>
        <g id="Group_478" data-name="Group 478" opacity="0.8">
          <path id="Path_9912" data-name="Path 9912" d="M374.3,174.82l44.28-25.61,50.28,29.1-44.28,25.61Z" fill="#fff"/>
        </g>
        <path id="Path_9913" data-name="Path 9913" d="M424.58,237.18l-50.28-29.1V174.82l50.28,29.1Z" fill="#90caf9"/>
        <g id="Group_479" data-name="Group 479" opacity="0.7">
          <path id="Path_9914" data-name="Path 9914" d="M424.58,237.18l-50.28-29.1V174.82l50.28,29.1Z" fill="#fff"/>
        </g>
        <path id="Path_9915" data-name="Path 9915" d="M418.42,226a3.19,3.19,0,0,1-1.36-2.57v-3.94l2.76,1.62H420v.26h0v3.52a1.28,1.28,0,0,1-.54,1.19.8.8,0,0,1-.43.12,1.25,1.25,0,0,1-.61-.2Zm.31-4.24-.2,1.38h-1v.29a2.78,2.78,0,0,0,1.14,2.18.59.59,0,0,0,.6.07.91.91,0,0,0,.32-.81v-3.26Zm-.39-.39.81-.14-1.65-1v2.43h.64Z" fill="#455a64"/>
        <path id="Path_9916" data-name="Path 9916" d="M418.53,229a.22.22,0,0,0,.22-.22v-3a.22.22,0,1,0-.44,0v3A.22.22,0,0,0,418.53,229Z" fill="#455a64"/>
        <path id="Path_9917" data-name="Path 9917" d="M419.82,229.7a.22.22,0,0,0,.11-.41l-2.57-1.49a.23.23,0,0,0-.31.08.22.22,0,0,0,.09.3l2.57,1.49a.2.2,0,0,0,.11.03Z" fill="#455a64"/>
        <path id="Path_9918" data-name="Path 9918" d="M410.65,224.6a.48.48,0,0,0,.24-.06.59.59,0,0,0,.27-.53v-.61a.22.22,0,1,0-.44,0v.6c0,.09,0,.14-.05.15a.29.29,0,0,1-.14,0,1.3,1.3,0,0,1-.41-1v-3.94a.225.225,0,0,0-.45,0v3.94a1.69,1.69,0,0,0,.63,1.38.69.69,0,0,0,.35.07Z" fill="#455a64"/>
        <path id="Path_9919" data-name="Path 9919" d="M407.1,217.76v-.13a1.87,1.87,0,0,1,3-1.76,6.28,6.28,0,0,1,2.84,4.91v.38Zm1.13-1.7a1.64,1.64,0,0,0-.69,1.44l5,2.88a5.84,5.84,0,0,0-2.59-4.13,2.22,2.22,0,0,0-1.11-.34A1.15,1.15,0,0,0,408.23,216.06Z" fill="#455a64"/>
        <path id="Path_9920" data-name="Path 9920" d="M402.7,220.07a.22.22,0,0,0,.22-.23V212.3a.225.225,0,0,0-.45,0v7.54a.23.23,0,0,0,.23.23Z" fill="#455a64"/>
        <path id="Path_9921" data-name="Path 9921" d="M403.34,214h.09a.24.24,0,0,0,.12-.3l-.79-1.82-.88,1a.22.22,0,0,0,.33.29l.42-.48.51,1.17A.23.23,0,0,0,403.34,214Z" fill="#455a64"/>
        <path id="Path_9922" data-name="Path 9922" d="M400.65,218.9a.22.22,0,0,0,.22-.22v-7.54a.23.23,0,1,0-.45,0v7.54a.22.22,0,0,0,.23.22Z" fill="#455a64"/>
        <path id="Path_9923" data-name="Path 9923" d="M401.29,212.86h.09a.22.22,0,0,0,.12-.29l-.79-1.83-.88,1a.22.22,0,0,0,.33.29l.42-.48.51,1.17a.22.22,0,0,0,.2.14Z" fill="#455a64"/>
        <path id="Path_9924" data-name="Path 9924" d="M424.58,237.18l44.28-25.61V178.31l-44.28,25.61Z" fill="#90caf9"/>
        <g id="Group_480" data-name="Group 480" opacity="0.6">
          <path id="Path_9925" data-name="Path 9925" d="M424.58,237.18l44.28-25.61V178.31l-44.28,25.61Z" fill="#fff"/>
        </g>
        <path id="Path_9926" data-name="Path 9926" d="M448.89,194.89l-3.26,1.88v-5.05l3.26-1.88Z" fill="#37474f"/>
        <path id="Path_9927" data-name="Path 9927" d="M445.63,191.72l-50.28-29.1,3.26-1.88,50.28,29.1Z" fill="#455a64"/>
        <path id="Path_9928" data-name="Path 9928" d="M462.53,199.24,451,205.88a1.15,1.15,0,0,0-.52.9v8c0,.65.46.92,1,.6L463,208.73a1.18,1.18,0,0,0,.52-.9v-8C463.57,199.18,463.1,198.91,462.53,199.24Z" fill="#fafafa"/>
        <path id="Path_9929" data-name="Path 9929" d="M462.81,200.48l-.39.23v7.06l.39-.23Z" fill="#455a64"/>
        <path id="Path_9930" data-name="Path 9930" d="M461.22,201.4l-.67.4v7.06l.67-.4Z" fill="#455a64"/>
        <path id="Path_9931" data-name="Path 9931" d="M459.63,202.32l-.4.23v7.06l.4-.23Z" fill="#455a64"/>
        <path id="Path_9932" data-name="Path 9932" d="M458.42,203l-.78.47v7.06l.78-.47Z" fill="#455a64"/>
        <path id="Path_9933" data-name="Path 9933" d="M456.44,204.16l-.39.23v7.06l.39-.23Z" fill="#455a64"/>
        <path id="Path_9934" data-name="Path 9934" d="M455.29,204.81l-.84.5v7.06l.84-.5Z" fill="#455a64"/>
        <path id="Path_9935" data-name="Path 9935" d="M453.25,206l-.39.23v7.06l.39-.23Z" fill="#455a64"/>
        <path id="Path_9936" data-name="Path 9936" d="M452.34,206.52l-.2.11v7.06l.2-.11Z" fill="#455a64"/>
        <path id="Path_9937" data-name="Path 9937" d="M453.98,205.62l-.2.11v7.06l.2-.11Z" fill="#455a64"/>
        <path id="Path_9938" data-name="Path 9938" d="M457.19,203.74l-.2.11v7.06l.2-.11Z" fill="#455a64"/>
        <path id="Path_9939" data-name="Path 9939" d="M458.94,202.73l-.19.11v7.06l.19-.11Z" fill="#455a64"/>
        <path id="Path_9940" data-name="Path 9940" d="M460.21,202.03l-.2.11v7.06l.2-.11Z" fill="#455a64"/>
        <path id="Path_9941" data-name="Path 9941" d="M461.92,200.99l-.19.11v7.06l.19-.11Z" fill="#455a64"/>
        <path id="Path_9942" data-name="Path 9942" d="M451.65,206.92l-.39.23v7.06l.39-.23Z" fill="#455a64"/>
      </g>
      <g id="freepik--boxes--inject-9-3" data-name="freepik--boxes--inject-9" transform="translate(111.45 -32)">
        <path id="Path_9777" data-name="Path 9777" d="M306.6,224.13l44.28-25.61,50.29,29.1-44.29,25.62Z" fill="#90caf9"/>
        <g id="Group_466" data-name="Group 466" opacity="0.7">
          <path id="Path_9778" data-name="Path 9778" d="M306.6,224.13l44.28-25.61,50.29,29.1-44.29,25.62Z" fill="#fff"/>
        </g>
        <path id="Path_9779" data-name="Path 9779" d="M395.99,224.62l-42.98,24.87-45.1-26.11,42.97-24.86Z" opacity="0.1"/>
        <path id="Path_9780" data-name="Path 9780" d="M356.88,286.49l-50.28-29.1V224.13l50.28,29.11Z" fill="#90caf9"/>
        <g id="Group_467" data-name="Group 467" opacity="0.6">
          <path id="Path_9781" data-name="Path 9781" d="M356.88,286.49l-50.28-29.1V224.13l50.28,29.11Z" fill="#fff"/>
        </g>
        <path id="Path_9782" data-name="Path 9782" d="M350.72,275.28a3.19,3.19,0,0,1-1.36-2.57v-3.94l2.77,1.62h.18v.26h0v3.52a1.33,1.33,0,0,1-.54,1.2,1,1,0,0,1-.44.11,1.25,1.25,0,0,1-.61-.2ZM351,271l-.2,1.38h-1v.29a2.79,2.79,0,0,0,1.2,2.23.59.59,0,0,0,.59.06c.21-.11.32-.41.32-.81v-3.26Zm-.39-.38.81-.15-1.64-1V272h.64Z" fill="#455a64"/>
        <path id="Path_9783" data-name="Path 9783" d="M350.84,278.27a.22.22,0,0,0,.22-.22v-3a.225.225,0,0,0-.45,0v3a.22.22,0,0,0,.23.22Z" fill="#455a64"/>
        <path id="Path_9784" data-name="Path 9784" d="M352.12,279a.21.21,0,0,0,.19-.11.22.22,0,0,0-.08-.3l-2.57-1.48a.21.21,0,0,0-.3.08.22.22,0,0,0,.08.3L352,279a.23.23,0,0,0,.12,0Z" fill="#455a64"/>
        <path id="Path_9785" data-name="Path 9785" d="M343,273.92a.45.45,0,0,0,.25-.07.59.59,0,0,0,.26-.53v-.61a.22.22,0,0,0-.44,0v.61a.24.24,0,0,1,0,.15h-.15a1.3,1.3,0,0,1-.41-1v-3.94a.22.22,0,1,0-.44,0v3.94a1.67,1.67,0,0,0,.63,1.38.65.65,0,0,0,.3.07Z" fill="#455a64"/>
        <path id="Path_9786" data-name="Path 9786" d="M339.4,267.07v-.13a1.87,1.87,0,0,1,3.05-1.76,6.27,6.27,0,0,1,2.84,4.91v.38Zm1.13-1.7a1.67,1.67,0,0,0-.69,1.45l5,2.87a5.82,5.82,0,0,0-2.59-4.12,2.23,2.23,0,0,0-1.1-.35A1.19,1.19,0,0,0,340.53,265.37Z" fill="#455a64"/>
        <path id="Path_9787" data-name="Path 9787" d="M335,269.38a.22.22,0,0,0,.22-.22v-7.54a.22.22,0,0,0-.44,0v7.54A.22.22,0,0,0,335,269.38Z" fill="#455a64"/>
        <path id="Path_9788" data-name="Path 9788" d="M335.64,263.34h.09a.22.22,0,0,0,.12-.29l-.79-1.82-.88,1a.22.22,0,1,0,.33.29l.42-.48.51,1.17a.22.22,0,0,0,.2.13Z" fill="#455a64"/>
        <path id="Path_9789" data-name="Path 9789" d="M333,268.21a.22.22,0,0,0,.22-.22v-7.54a.22.22,0,0,0-.44,0V268A.22.22,0,0,0,333,268.21Z" fill="#455a64"/>
        <path id="Path_9790" data-name="Path 9790" d="M333.6,262.17h.08a.22.22,0,0,0,.12-.29L333,260l-.88,1a.223.223,0,0,0,.34.29l.41-.48.51,1.18A.23.23,0,0,0,333.6,262.17Z" fill="#455a64"/>
        <path id="Path_9791" data-name="Path 9791" d="M356.88,286.5l44.29-25.62V227.62l-44.29,25.62Z" fill="#90caf9"/>
        <g id="Group_468" data-name="Group 468" opacity="0.4">
          <path id="Path_9792" data-name="Path 9792" d="M356.88,286.5l44.29-25.62V227.62l-44.29,25.62Z" fill="#fff"/>
        </g>
        <path id="Path_9793" data-name="Path 9793" d="M381.19,244.21l-3.25,1.88v-5.06l3.25-1.88Z" fill="#37474f"/>
        <path id="Path_9794" data-name="Path 9794" d="M377.94,241.03l-50.29-29.1,3.26-1.88,50.28,29.1Z" fill="#455a64"/>
        <path id="Path_9795" data-name="Path 9795" d="M376.03,236.17l-3.25,1.88L370.93,237l3.27-1.89Z" fill="#37474f"/>
        <path id="Path_9796" data-name="Path 9796" d="M394.83,248.55l-11.51,6.65a1.13,1.13,0,0,0-.52.9v8c0,.66.47.93,1,.6l11.51-6.65a1.18,1.18,0,0,0,.52-.9v-8C395.87,248.49,395.4,248.22,394.83,248.55Z" fill="#fafafa"/>
        <path id="Path_9797" data-name="Path 9797" d="M395.12,249.79l-.39.23v7.06l.39-.22Z" fill="#455a64"/>
        <path id="Path_9798" data-name="Path 9798" d="M393.52,250.71l-.67.4v7.06l.67-.39Z" fill="#455a64"/>
        <path id="Path_9799" data-name="Path 9799" d="M391.93,251.63l-.39.23v7.06l.39-.22Z" fill="#455a64"/>
        <path id="Path_9800" data-name="Path 9800" d="M390.73,252.32l-.79.46v7.06l.79-.46Z" fill="#455a64"/>
        <path id="Path_9801" data-name="Path 9801" d="M388.74,253.47l-.39.23v7.06l.39-.22Z" fill="#455a64"/>
        <path id="Path_9802" data-name="Path 9802" d="M387.59,254.12l-.84.5v7.06l.84-.49Z" fill="#455a64"/>
        <path id="Path_9803" data-name="Path 9803" d="M385.55,255.31l-.39.23v7.06l.39-.22Z" fill="#455a64"/>
        <path id="Path_9804" data-name="Path 9804" d="M384.64,255.83l-.2.11v7.07l.2-.12Z" fill="#455a64"/>
        <path id="Path_9805" data-name="Path 9805" d="M386.28,254.93l-.2.11v7.07l.2-.12Z" fill="#455a64"/>
        <path id="Path_9806" data-name="Path 9806" d="M389.49,253.05l-.2.11v7.07l.2-.12Z" fill="#455a64"/>
        <path id="Path_9807" data-name="Path 9807" d="M391.25,252.04l-.2.11v7.06l.2-.11Z" fill="#455a64"/>
        <path id="Path_9808" data-name="Path 9808" d="M392.51,251.34l-.2.12v7.06l.2-.12Z" fill="#455a64"/>
        <path id="Path_9809" data-name="Path 9809" d="M394.22,250.3l-.19.11v7.07l.19-.12Z" fill="#455a64"/>
        <path id="Path_9810" data-name="Path 9810" d="M383.96,256.23l-.4.23v7.06l.4-.22Z" fill="#455a64"/>
        <path id="Path_9811" data-name="Path 9811" d="M302.27,185.27l44.28-25.61,50.28,29.1-44.28,25.61Z" fill="#90caf9"/>
        <g id="Group_469" data-name="Group 469" opacity="0.8">
          <path id="Path_9812" data-name="Path 9812" d="M302.27,185.27l44.28-25.61,50.28,29.1-44.28,25.61Z" fill="#fff"/>
        </g>
        <path id="Path_9813" data-name="Path 9813" d="M352.55,247.63l-50.28-29.1V185.27l50.28,29.1Z" fill="#90caf9"/>
        <g id="Group_470" data-name="Group 470" opacity="0.7">
          <path id="Path_9814" data-name="Path 9814" d="M352.55,247.63l-50.28-29.1V185.27l50.28,29.1Z" fill="#fff"/>
        </g>
        <path id="Path_9815" data-name="Path 9815" d="M346.39,236.42a3.19,3.19,0,0,1-1.36-2.58v-3.93l2.76,1.62h.18v.26h0v3.52a1.3,1.3,0,0,1-.54,1.19.82.82,0,0,1-.43.12,1.22,1.22,0,0,1-.61-.2Zm.31-4.25-.21,1.39h-1v.28a2.77,2.77,0,0,0,1.14,2.19.59.59,0,0,0,.6.07.91.91,0,0,0,.32-.81V232Zm-.4-.38.82-.14-1.65-1v2.43h.64Z" fill="#455a64"/>
        <path id="Path_9816" data-name="Path 9816" d="M346.5,239.41a.22.22,0,0,0,.22-.22v-3a.22.22,0,0,0-.44,0v3A.22.22,0,0,0,346.5,239.41Z" fill="#455a64"/>
        <path id="Path_9817" data-name="Path 9817" d="M347.79,240.15A.23.23,0,0,0,348,240a.22.22,0,0,0-.08-.3l-2.58-1.49a.22.22,0,0,0-.22.38l2.58,1.49a.2.2,0,0,0,.09.07Z" fill="#455a64"/>
        <path id="Path_9818" data-name="Path 9818" d="M338.62,235.05a.5.5,0,0,0,.24-.06.59.59,0,0,0,.27-.53v-.61a.225.225,0,0,0-.45,0v.76a.26.26,0,0,1-.14,0,1.3,1.3,0,0,1-.42-1v-3.94a.22.22,0,0,0-.44,0v3.94a1.69,1.69,0,0,0,.63,1.38.69.69,0,0,0,.31.06Z" fill="#455a64"/>
        <path id="Path_9819" data-name="Path 9819" d="M335.06,228.21v-.13a2.1,2.1,0,0,1,.91-2,2.13,2.13,0,0,1,2.15.19,6.27,6.27,0,0,1,2.83,4.91v.38Zm1.13-1.7a1.61,1.61,0,0,0-.68,1.44l5,2.88a5.9,5.9,0,0,0-2.59-4.13,2.24,2.24,0,0,0-1.11-.34,1.21,1.21,0,0,0-.62.15Z" fill="#455a64"/>
        <path id="Path_9820" data-name="Path 9820" d="M330.66,230.52a.22.22,0,0,0,.22-.23v-7.54a.22.22,0,1,0-.44,0v7.54a.22.22,0,0,0,.22.23Z" fill="#455a64"/>
        <path id="Path_9821" data-name="Path 9821" d="M331.31,224.47h.09a.23.23,0,0,0,.11-.3l-.79-1.82-.88,1a.21.21,0,0,0,0,.31.22.22,0,0,0,.31,0l.42-.48.51,1.17A.21.21,0,0,0,331.31,224.47Z" fill="#455a64"/>
        <path id="Path_9822" data-name="Path 9822" d="M328.61,229.35a.22.22,0,0,0,.22-.22v-7.54a.22.22,0,0,0-.44,0v7.54A.22.22,0,0,0,328.61,229.35Z" fill="#455a64"/>
        <path id="Path_9823" data-name="Path 9823" d="M329.26,223.31h.09a.22.22,0,0,0,.11-.29l-.78-1.83-.88,1a.22.22,0,0,0,.33.29l.42-.48.51,1.17A.23.23,0,0,0,329.26,223.31Z" fill="#455a64"/>
        <path id="Path_9824" data-name="Path 9824" d="M352.55,247.63l44.28-25.61V188.76l-44.28,25.61Z" fill="#90caf9"/>
        <g id="Group_471" data-name="Group 471" opacity="0.6">
          <path id="Path_9825" data-name="Path 9825" d="M352.55,247.63l44.28-25.61V188.76l-44.28,25.61Z" fill="#fff"/>
        </g>
        <path id="Path_9826" data-name="Path 9826" d="M376.86,205.34l-3.26,1.88v-5.05l3.26-1.88Z" fill="#37474f"/>
        <path id="Path_9827" data-name="Path 9827" d="M373.6,202.17l-50.28-29.1,3.25-1.88,50.29,29.1Z" fill="#455a64"/>
        <path id="Path_9828" data-name="Path 9828" d="M390.49,209.68,379,216.33a1.18,1.18,0,0,0-.52.9v8c0,.65.47.92,1,.59L391,219.19a1.15,1.15,0,0,0,.52-.9v-8C391.53,209.62,391.07,209.36,390.49,209.68Z" fill="#fafafa"/>
        <path id="Path_9829" data-name="Path 9829" d="M390.78,210.93l-.39.23v7.06l.39-.23Z" fill="#455a64"/>
        <path id="Path_9830" data-name="Path 9830" d="M389.19,211.85l-.68.4v7.06l.68-.4Z" fill="#455a64"/>
        <path id="Path_9831" data-name="Path 9831" d="M387.59,212.77l-.39.23v7.06l.39-.23Z" fill="#455a64"/>
        <path id="Path_9832" data-name="Path 9832" d="M386.39,213.45l-.78.47v7.06l.78-.47Z" fill="#455a64"/>
        <path id="Path_9833" data-name="Path 9833" d="M384.4,214.61l-.39.23v7.06l.39-.23Z" fill="#455a64"/>
        <path id="Path_9834" data-name="Path 9834" d="M383.26,215.26l-.84.5v7.06l.84-.5Z" fill="#455a64"/>
        <path id="Path_9835" data-name="Path 9835" d="M381.21,216.45l-.39.23v7.06l.39-.23Z" fill="#455a64"/>
        <path id="Path_9836" data-name="Path 9836" d="M380.31,216.97l-.2.11v7.06l.2-.11Z" fill="#455a64"/>
        <path id="Path_9837" data-name="Path 9837" d="M381.94,216.06l-.19.12v7.06l.19-.11Z" fill="#455a64"/>
        <path id="Path_9838" data-name="Path 9838" d="M385.15,214.19l-.19.11v7.06l.19-.11Z" fill="#455a64"/>
        <path id="Path_9839" data-name="Path 9839" d="M386.91,213.18l-.19.11v7.06l.19-.11Z" fill="#455a64"/>
        <path id="Path_9840" data-name="Path 9840" d="M388.18,212.48l-.2.11v7.06l.2-.11Z" fill="#455a64"/>
        <path id="Path_9841" data-name="Path 9841" d="M389.89,211.44l-.2.11v7.06l.2-.11Z" fill="#455a64"/>
        <path id="Path_9842" data-name="Path 9842" d="M379.62,217.37l-.39.23v7.06l.39-.23Z" fill="#455a64"/>
      </g>
      <g id="freepik--boxes--inject-9-4" data-name="freepik--boxes--inject-9" transform="translate(68 -8)">
        <path id="Path_9777-2" data-name="Path 9777" d="M306.6,224.13l44.28-25.61,50.29,29.1-44.29,25.62Z" fill="#90caf9"/>
        <g id="Group_466-2" data-name="Group 466" opacity="0.7">
          <path id="Path_9778-2" data-name="Path 9778" d="M306.6,224.13l44.28-25.61,50.29,29.1-44.29,25.62Z" fill="#fff"/>
        </g>
        <path id="Path_9779-2" data-name="Path 9779" d="M395.99,224.62l-42.98,24.87-45.1-26.11,42.97-24.86Z" opacity="0.1"/>
        <path id="Path_9780-2" data-name="Path 9780" d="M356.88,286.49l-50.28-29.1V224.13l50.28,29.11Z" fill="#90caf9"/>
        <g id="Group_467-2" data-name="Group 467" opacity="0.6">
          <path id="Path_9781-2" data-name="Path 9781" d="M356.88,286.49l-50.28-29.1V224.13l50.28,29.11Z" fill="#fff"/>
        </g>
        <path id="Path_9782-2" data-name="Path 9782" d="M350.72,275.28a3.19,3.19,0,0,1-1.36-2.57v-3.94l2.77,1.62h.18v.26h0v3.52a1.33,1.33,0,0,1-.54,1.2,1,1,0,0,1-.44.11,1.25,1.25,0,0,1-.61-.2ZM351,271l-.2,1.38h-1v.29a2.79,2.79,0,0,0,1.2,2.23.59.59,0,0,0,.59.06c.21-.11.32-.41.32-.81v-3.26Zm-.39-.38.81-.15-1.64-1V272h.64Z" fill="#455a64"/>
        <path id="Path_9783-2" data-name="Path 9783" d="M350.84,278.27a.22.22,0,0,0,.22-.22v-3a.225.225,0,0,0-.45,0v3a.22.22,0,0,0,.23.22Z" fill="#455a64"/>
        <path id="Path_9784-2" data-name="Path 9784" d="M352.12,279a.21.21,0,0,0,.19-.11.22.22,0,0,0-.08-.3l-2.57-1.48a.21.21,0,0,0-.3.08.22.22,0,0,0,.08.3L352,279a.23.23,0,0,0,.12,0Z" fill="#455a64"/>
        <path id="Path_9785-2" data-name="Path 9785" d="M343,273.92a.45.45,0,0,0,.25-.07.59.59,0,0,0,.26-.53v-.61a.22.22,0,0,0-.44,0v.61a.24.24,0,0,1,0,.15h-.15a1.3,1.3,0,0,1-.41-1v-3.94a.22.22,0,1,0-.44,0v3.94a1.67,1.67,0,0,0,.63,1.38.65.65,0,0,0,.3.07Z" fill="#455a64"/>
        <path id="Path_9786-2" data-name="Path 9786" d="M339.4,267.07v-.13a1.87,1.87,0,0,1,3.05-1.76,6.27,6.27,0,0,1,2.84,4.91v.38Zm1.13-1.7a1.67,1.67,0,0,0-.69,1.45l5,2.87a5.82,5.82,0,0,0-2.59-4.12,2.23,2.23,0,0,0-1.1-.35A1.19,1.19,0,0,0,340.53,265.37Z" fill="#455a64"/>
        <path id="Path_9787-2" data-name="Path 9787" d="M335,269.38a.22.22,0,0,0,.22-.22v-7.54a.22.22,0,0,0-.44,0v7.54A.22.22,0,0,0,335,269.38Z" fill="#455a64"/>
        <path id="Path_9788-2" data-name="Path 9788" d="M335.64,263.34h.09a.22.22,0,0,0,.12-.29l-.79-1.82-.88,1a.22.22,0,1,0,.33.29l.42-.48.51,1.17a.22.22,0,0,0,.2.13Z" fill="#455a64"/>
        <path id="Path_9789-2" data-name="Path 9789" d="M333,268.21a.22.22,0,0,0,.22-.22v-7.54a.22.22,0,0,0-.44,0V268A.22.22,0,0,0,333,268.21Z" fill="#455a64"/>
        <path id="Path_9790-2" data-name="Path 9790" d="M333.6,262.17h.08a.22.22,0,0,0,.12-.29L333,260l-.88,1a.223.223,0,0,0,.34.29l.41-.48.51,1.18A.23.23,0,0,0,333.6,262.17Z" fill="#455a64"/>
        <path id="Path_9791-2" data-name="Path 9791" d="M356.88,286.5l44.29-25.62V227.62l-44.29,25.62Z" fill="#90caf9"/>
        <g id="Group_468-2" data-name="Group 468" opacity="0.4">
          <path id="Path_9792-2" data-name="Path 9792" d="M356.88,286.5l44.29-25.62V227.62l-44.29,25.62Z" fill="#fff"/>
        </g>
        <path id="Path_9793-2" data-name="Path 9793" d="M381.19,244.21l-3.25,1.88v-5.06l3.25-1.88Z" fill="#37474f"/>
        <path id="Path_9794-2" data-name="Path 9794" d="M377.94,241.03l-50.29-29.1,3.26-1.88,50.28,29.1Z" fill="#455a64"/>
        <path id="Path_9795-2" data-name="Path 9795" d="M376.03,236.17l-3.25,1.88L370.93,237l3.27-1.89Z" fill="#37474f"/>
        <path id="Path_9796-2" data-name="Path 9796" d="M394.83,248.55l-11.51,6.65a1.13,1.13,0,0,0-.52.9v8c0,.66.47.93,1,.6l11.51-6.65a1.18,1.18,0,0,0,.52-.9v-8C395.87,248.49,395.4,248.22,394.83,248.55Z" fill="#fafafa"/>
        <path id="Path_9797-2" data-name="Path 9797" d="M395.12,249.79l-.39.23v7.06l.39-.22Z" fill="#455a64"/>
        <path id="Path_9798-2" data-name="Path 9798" d="M393.52,250.71l-.67.4v7.06l.67-.39Z" fill="#455a64"/>
        <path id="Path_9799-2" data-name="Path 9799" d="M391.93,251.63l-.39.23v7.06l.39-.22Z" fill="#455a64"/>
        <path id="Path_9800-2" data-name="Path 9800" d="M390.73,252.32l-.79.46v7.06l.79-.46Z" fill="#455a64"/>
        <path id="Path_9801-2" data-name="Path 9801" d="M388.74,253.47l-.39.23v7.06l.39-.22Z" fill="#455a64"/>
        <path id="Path_9802-2" data-name="Path 9802" d="M387.59,254.12l-.84.5v7.06l.84-.49Z" fill="#455a64"/>
        <path id="Path_9803-2" data-name="Path 9803" d="M385.55,255.31l-.39.23v7.06l.39-.22Z" fill="#455a64"/>
        <path id="Path_9804-2" data-name="Path 9804" d="M384.64,255.83l-.2.11v7.07l.2-.12Z" fill="#455a64"/>
        <path id="Path_9805-2" data-name="Path 9805" d="M386.28,254.93l-.2.11v7.07l.2-.12Z" fill="#455a64"/>
        <path id="Path_9806-2" data-name="Path 9806" d="M389.49,253.05l-.2.11v7.07l.2-.12Z" fill="#455a64"/>
        <path id="Path_9807-2" data-name="Path 9807" d="M391.25,252.04l-.2.11v7.06l.2-.11Z" fill="#455a64"/>
        <path id="Path_9808-2" data-name="Path 9808" d="M392.51,251.34l-.2.12v7.06l.2-.12Z" fill="#455a64"/>
        <path id="Path_9809-2" data-name="Path 9809" d="M394.22,250.3l-.19.11v7.07l.19-.12Z" fill="#455a64"/>
        <path id="Path_9810-2" data-name="Path 9810" d="M383.96,256.23l-.4.23v7.06l.4-.22Z" fill="#455a64"/>
        <path id="Path_9811-2" data-name="Path 9811" d="M302.27,185.27l44.28-25.61,50.28,29.1-44.28,25.61Z" fill="#90caf9"/>
        <g id="Group_469-2" data-name="Group 469" opacity="0.8">
          <path id="Path_9812-2" data-name="Path 9812" d="M302.27,185.27l44.28-25.61,50.28,29.1-44.28,25.61Z" fill="#fff"/>
        </g>
        <path id="Path_9813-2" data-name="Path 9813" d="M352.55,247.63l-50.28-29.1V185.27l50.28,29.1Z" fill="#90caf9"/>
        <g id="Group_470-2" data-name="Group 470" opacity="0.7">
          <path id="Path_9814-2" data-name="Path 9814" d="M352.55,247.63l-50.28-29.1V185.27l50.28,29.1Z" fill="#fff"/>
        </g>
        <path id="Path_9815-2" data-name="Path 9815" d="M346.39,236.42a3.19,3.19,0,0,1-1.36-2.58v-3.93l2.76,1.62h.18v.26h0v3.52a1.3,1.3,0,0,1-.54,1.19.82.82,0,0,1-.43.12,1.22,1.22,0,0,1-.61-.2Zm.31-4.25-.21,1.39h-1v.28a2.77,2.77,0,0,0,1.14,2.19.59.59,0,0,0,.6.07.91.91,0,0,0,.32-.81V232Zm-.4-.38.82-.14-1.65-1v2.43h.64Z" fill="#455a64"/>
        <path id="Path_9816-2" data-name="Path 9816" d="M346.5,239.41a.22.22,0,0,0,.22-.22v-3a.22.22,0,0,0-.44,0v3A.22.22,0,0,0,346.5,239.41Z" fill="#455a64"/>
        <path id="Path_9817-2" data-name="Path 9817" d="M347.79,240.15A.23.23,0,0,0,348,240a.22.22,0,0,0-.08-.3l-2.58-1.49a.22.22,0,0,0-.22.38l2.58,1.49a.2.2,0,0,0,.09.07Z" fill="#455a64"/>
        <path id="Path_9818-2" data-name="Path 9818" d="M338.62,235.05a.5.5,0,0,0,.24-.06.59.59,0,0,0,.27-.53v-.61a.225.225,0,0,0-.45,0v.76a.26.26,0,0,1-.14,0,1.3,1.3,0,0,1-.42-1v-3.94a.22.22,0,0,0-.44,0v3.94a1.69,1.69,0,0,0,.63,1.38.69.69,0,0,0,.31.06Z" fill="#455a64"/>
        <path id="Path_9819-2" data-name="Path 9819" d="M335.06,228.21v-.13a2.1,2.1,0,0,1,.91-2,2.13,2.13,0,0,1,2.15.19,6.27,6.27,0,0,1,2.83,4.91v.38Zm1.13-1.7a1.61,1.61,0,0,0-.68,1.44l5,2.88a5.9,5.9,0,0,0-2.59-4.13,2.24,2.24,0,0,0-1.11-.34,1.21,1.21,0,0,0-.62.15Z" fill="#455a64"/>
        <path id="Path_9820-2" data-name="Path 9820" d="M330.66,230.52a.22.22,0,0,0,.22-.23v-7.54a.22.22,0,1,0-.44,0v7.54a.22.22,0,0,0,.22.23Z" fill="#455a64"/>
        <path id="Path_9821-2" data-name="Path 9821" d="M331.31,224.47h.09a.23.23,0,0,0,.11-.3l-.79-1.82-.88,1a.21.21,0,0,0,0,.31.22.22,0,0,0,.31,0l.42-.48.51,1.17A.21.21,0,0,0,331.31,224.47Z" fill="#455a64"/>
        <path id="Path_9822-2" data-name="Path 9822" d="M328.61,229.35a.22.22,0,0,0,.22-.22v-7.54a.22.22,0,0,0-.44,0v7.54A.22.22,0,0,0,328.61,229.35Z" fill="#455a64"/>
        <path id="Path_9823-2" data-name="Path 9823" d="M329.26,223.31h.09a.22.22,0,0,0,.11-.29l-.78-1.83-.88,1a.22.22,0,0,0,.33.29l.42-.48.51,1.17A.23.23,0,0,0,329.26,223.31Z" fill="#455a64"/>
        <path id="Path_9824-2" data-name="Path 9824" d="M352.55,247.63l44.28-25.61V188.76l-44.28,25.61Z" fill="#90caf9"/>
        <g id="Group_471-2" data-name="Group 471" opacity="0.6">
          <path id="Path_9825-2" data-name="Path 9825" d="M352.55,247.63l44.28-25.61V188.76l-44.28,25.61Z" fill="#fff"/>
        </g>
        <path id="Path_9826-2" data-name="Path 9826" d="M376.86,205.34l-3.26,1.88v-5.05l3.26-1.88Z" fill="#37474f"/>
        <path id="Path_9827-2" data-name="Path 9827" d="M373.6,202.17l-50.28-29.1,3.25-1.88,50.29,29.1Z" fill="#455a64"/>
        <path id="Path_9828-2" data-name="Path 9828" d="M390.49,209.68,379,216.33a1.18,1.18,0,0,0-.52.9v8c0,.65.47.92,1,.59L391,219.19a1.15,1.15,0,0,0,.52-.9v-8C391.53,209.62,391.07,209.36,390.49,209.68Z" fill="#fafafa"/>
        <path id="Path_9829-2" data-name="Path 9829" d="M390.78,210.93l-.39.23v7.06l.39-.23Z" fill="#455a64"/>
        <path id="Path_9830-2" data-name="Path 9830" d="M389.19,211.85l-.68.4v7.06l.68-.4Z" fill="#455a64"/>
        <path id="Path_9831-2" data-name="Path 9831" d="M387.59,212.77l-.39.23v7.06l.39-.23Z" fill="#455a64"/>
        <path id="Path_9832-2" data-name="Path 9832" d="M386.39,213.45l-.78.47v7.06l.78-.47Z" fill="#455a64"/>
        <path id="Path_9833-2" data-name="Path 9833" d="M384.4,214.61l-.39.23v7.06l.39-.23Z" fill="#455a64"/>
        <path id="Path_9834-2" data-name="Path 9834" d="M383.26,215.26l-.84.5v7.06l.84-.5Z" fill="#455a64"/>
        <path id="Path_9835-2" data-name="Path 9835" d="M381.21,216.45l-.39.23v7.06l.39-.23Z" fill="#455a64"/>
        <path id="Path_9836-2" data-name="Path 9836" d="M380.31,216.97l-.2.11v7.06l.2-.11Z" fill="#455a64"/>
        <path id="Path_9837-2" data-name="Path 9837" d="M381.94,216.06l-.19.12v7.06l.19-.11Z" fill="#455a64"/>
        <path id="Path_9838-2" data-name="Path 9838" d="M385.15,214.19l-.19.11v7.06l.19-.11Z" fill="#455a64"/>
        <path id="Path_9839-2" data-name="Path 9839" d="M386.91,213.18l-.19.11v7.06l.19-.11Z" fill="#455a64"/>
        <path id="Path_9840-2" data-name="Path 9840" d="M388.18,212.48l-.2.11v7.06l.2-.11Z" fill="#455a64"/>
        <path id="Path_9841-2" data-name="Path 9841" d="M389.89,211.44l-.2.11v7.06l.2-.11Z" fill="#455a64"/>
        <path id="Path_9842-2" data-name="Path 9842" d="M379.62,217.37l-.39.23v7.06l.39-.23Z" fill="#455a64"/>
      </g>
    </g>
    <g id="freepik--boxes--inject-9-5" data-name="freepik--boxes--inject-9" transform="translate(173.082 233.918)">
      <path id="Path_9777-3" data-name="Path 9777" d="M401.17,224.13l-44.28-25.61-50.29,29.1,44.29,25.62Z" transform="translate(-306.6 -159.66)" fill="#90caf9"/>
      <g id="Group_466-3" data-name="Group 466" transform="translate(0 38.86)" opacity="0.7">
        <path id="Path_9778-3" data-name="Path 9778" d="M401.17,224.13l-44.28-25.61-50.29,29.1,44.29,25.62Z" transform="translate(-306.6 -198.52)" fill="#fff"/>
      </g>
      <path id="Path_9780-3" data-name="Path 9780" d="M306.6,286.49l50.28-29.1V224.13L306.6,253.24Z" transform="translate(-262.31 -159.66)" fill="#90caf9"/>
      <g id="Group_467-3" data-name="Group 467" transform="translate(44.29 64.47)" opacity="0.6">
        <path id="Path_9781-3" data-name="Path 9781" d="M306.6,286.49l50.28-29.1V224.13L306.6,253.24Z" transform="translate(-306.6 -224.13)" fill="#fff"/>
      </g>
      <path id="Path_9782-3" data-name="Path 9782" d="M350.956,275.28a3.19,3.19,0,0,0,1.36-2.57v-3.94l-2.77,1.62h-.18v.26h0v3.52a1.33,1.33,0,0,0,.54,1.2,1,1,0,0,0,.44.11,1.25,1.25,0,0,0,.61-.2Zm-.28-4.28.2,1.38h1v.29a2.79,2.79,0,0,1-1.2,2.23.59.59,0,0,1-.59.06c-.21-.11-.32-.41-.32-.81v-3.26Zm.39-.38-.81-.15,1.64-1V272h-.64Z" transform="translate(-300.506 -159.66)" fill="#455a64"/>
      <path id="Path_9783-3" data-name="Path 9783" d="M350.83,278.27a.22.22,0,0,1-.22-.22v-3a.225.225,0,0,1,.45,0v3a.22.22,0,0,1-.23.22Z" transform="translate(-300.5 -159.66)" fill="#455a64"/>
      <path id="Path_9784-3" data-name="Path 9784" d="M349.55,279a.21.21,0,0,1-.19-.11.22.22,0,0,1,.08-.3l2.57-1.48a.21.21,0,0,1,.3.08.22.22,0,0,1-.08.3L349.67,279a.23.23,0,0,1-.12,0Z" transform="translate(-300.5 -159.66)" fill="#455a64"/>
      <path id="Path_9785-3" data-name="Path 9785" d="M342.58,273.92a.45.45,0,0,1-.25-.07.59.59,0,0,1-.26-.53v-.61a.22.22,0,0,1,.44,0v.61a.24.24,0,0,0,0,.15h.15a1.3,1.3,0,0,0,.41-1v-3.94a.22.22,0,1,1,.44,0v3.94a1.67,1.67,0,0,1-.63,1.38.65.65,0,0,1-.3.07Z" transform="translate(-284.41 -159.66)" fill="#455a64"/>
      <path id="Path_9786-3" data-name="Path 9786" d="M345.26,267.07v-.13a1.87,1.87,0,0,0-3.05-1.76,6.27,6.27,0,0,0-2.84,4.91v.38Zm-1.13-1.7a1.67,1.67,0,0,1,.69,1.45l-5,2.87a5.82,5.82,0,0,1,2.59-4.12,2.23,2.23,0,0,1,1.1-.35A1.19,1.19,0,0,1,344.13,265.37Z" transform="translate(-283.49 -159.66)" fill="#455a64"/>
      <path id="Path_9787-3" data-name="Path 9787" d="M335,269.38a.22.22,0,0,1-.22-.22v-7.54a.22.22,0,0,1,.44,0v7.54A.22.22,0,0,1,335,269.38Z" transform="translate(-268.83 -159.66)" fill="#455a64"/>
      <path id="Path_9788-3" data-name="Path 9788" d="M334.344,263.34h-.09a.22.22,0,0,1-.12-.29l.79-1.82.88,1a.22.22,0,1,1-.33.29l-.42-.48-.51,1.17a.22.22,0,0,1-.2.13Z" transform="translate(-268.814 -159.66)" fill="#455a64"/>
      <path id="Path_9789-3" data-name="Path 9789" d="M333,268.21a.22.22,0,0,1-.22-.22v-7.54a.22.22,0,0,1,.44,0V268A.22.22,0,0,1,333,268.21Z" transform="translate(-264.83 -159.66)" fill="#455a64"/>
      <path id="Path_9790-3" data-name="Path 9790" d="M332.284,262.17h-.08a.22.22,0,0,1-.12-.29l.8-1.88.88,1a.223.223,0,0,1-.34.29l-.41-.48-.51,1.18A.23.23,0,0,1,332.284,262.17Z" transform="translate(-264.714 -159.66)" fill="#455a64"/>
      <path id="Path_9791-3" data-name="Path 9791" d="M401.17,286.5l-44.29-25.62V227.62l44.29,25.62Z" transform="translate(-356.88 -159.66)" fill="#90caf9"/>
      <g id="Group_468-3" data-name="Group 468" transform="translate(0 67.96)" opacity="0.4">
        <path id="Path_9792-3" data-name="Path 9792" d="M401.17,286.5l-44.29-25.62V227.62l44.29,25.62Z" transform="translate(-356.88 -227.62)" fill="#fff"/>
      </g>
      <path id="Path_9793-3" data-name="Path 9793" d="M377.94,244.21l3.25,1.88v-5.06l-3.25-1.88Z" transform="translate(-357.96 -159.66)" fill="#37474f"/>
      <path id="Path_9794-3" data-name="Path 9794" d="M330.9,241.03l50.29-29.1-3.26-1.88-50.28,29.1Z" transform="translate(-307.67 -159.66)" fill="#455a64"/>
      <path id="Path_9796-3" data-name="Path 9796" d="M383.8,248.55l11.51,6.65a1.13,1.13,0,0,1,.52.9v8c0,.66-.47.93-1,.6l-11.51-6.65a1.18,1.18,0,0,1-.52-.9v-8C382.762,248.49,383.232,248.22,383.8,248.55Z" transform="translate(-377.462 -159.66)" fill="#fafafa"/>
      <path id="Path_9797-3" data-name="Path 9797" d="M394.73,249.79l.39.23v7.06l-.39-.22Z" transform="translate(-388.68 -159.66)" fill="#455a64"/>
      <path id="Path_9798-3" data-name="Path 9798" d="M392.85,250.71l.67.4v7.06l-.67-.39Z" transform="translate(-385.2 -159.66)" fill="#455a64"/>
      <path id="Path_9799-3" data-name="Path 9799" d="M391.54,251.63l.39.23v7.06l-.39-.22Z" transform="translate(-382.3 -159.66)" fill="#455a64"/>
      <path id="Path_9800-3" data-name="Path 9800" d="M389.94,252.32l.79.46v7.06l-.79-.46Z" transform="translate(-379.5 -159.66)" fill="#455a64"/>
      <path id="Path_9801-3" data-name="Path 9801" d="M388.35,253.47l.39.23v7.06l-.39-.22Z" transform="translate(-375.92 -159.66)" fill="#455a64"/>
      <path id="Path_9802-3" data-name="Path 9802" d="M386.75,254.12l.84.5v7.06l-.84-.49Z" transform="translate(-373.17 -159.66)" fill="#455a64"/>
      <path id="Path_9803-3" data-name="Path 9803" d="M385.16,255.31l.39.23v7.06l-.39-.22Z" transform="translate(-369.54 -159.66)" fill="#455a64"/>
      <path id="Path_9804-3" data-name="Path 9804" d="M384.44,255.83l.2.11v7.07l-.2-.12Z" transform="translate(-367.91 -159.66)" fill="#455a64"/>
      <path id="Path_9805-3" data-name="Path 9805" d="M386.08,254.93l.2.11v7.07l-.2-.12Z" transform="translate(-371.19 -159.66)" fill="#455a64"/>
      <path id="Path_9806-3" data-name="Path 9806" d="M389.29,253.05l.2.11v7.07l-.2-.12Z" transform="translate(-377.61 -159.66)" fill="#455a64"/>
      <path id="Path_9807-3" data-name="Path 9807" d="M391.05,252.04l.2.11v7.06l-.2-.11Z" transform="translate(-381.13 -159.66)" fill="#455a64"/>
      <path id="Path_9808-3" data-name="Path 9808" d="M392.31,251.34l.2.12v7.06l-.2-.12Z" transform="translate(-383.65 -159.66)" fill="#455a64"/>
      <path id="Path_9809-3" data-name="Path 9809" d="M394.03,250.3l.19.11v7.07l-.19-.12Z" transform="translate(-387.08 -159.66)" fill="#455a64"/>
      <path id="Path_9810-3" data-name="Path 9810" d="M383.56,256.23l.4.23v7.06l-.4-.22Z" transform="translate(-366.35 -159.66)" fill="#455a64"/>
    </g>
    <g id="freepik--Gears--inject-13" transform="translate(-298.235 -65.774)">
      <path id="Path_8565" data-name="Path 8565" d="M374.89,108.37l-28.58-16.5a46.569,46.569,0,0,0-3.25-14.74A27.64,27.64,0,0,1,359.65,80l.63.37C368.49,85.11,373.88,94.76,374.89,108.37Z" fill="#90caf9"/>
      <path id="Path_8566" data-name="Path 8566" d="M374.89,108.37l-28.58-16.5a46.569,46.569,0,0,0-3.25-14.74A27.64,27.64,0,0,1,359.65,80l.63.37C368.49,85.11,373.88,94.76,374.89,108.37Z" opacity="0.3"/>
      <path id="Path_8567" data-name="Path 8567" d="M370.71,112.64h0a1.43,1.43,0,0,0-.95.1l-10.7,4.82a1.27,1.27,0,0,1-1.78-.82c-.42-1.35-7.75-2.91-8.35-4.07L353,102.46Z" fill="#455a64"/>
      <path id="Path_8568" data-name="Path 8568" d="M353.05,102.49h0a1,1,0,0,0-.93,0l-7.9-18.28a1.63,1.63,0,0,0-.63-2.1l-7.74-4.46a1.61,1.61,0,0,0-2.13.49l-8.89,13.37a3,3,0,0,1-2.33,1.16,21.839,21.839,0,0,0-3.1.14V83l-5.94-3.43h0a1,1,0,0,0-1,.09l-12,6.94A3.27,3.27,0,0,0,299,88.87l-1.2,13.37a4.43,4.43,0,0,1-1.25,2.5,72.569,72.569,0,0,0-6.68,7.07,2.32,2.32,0,0,1-2.36.67l-7.71-2.7a1.89,1.89,0,0,0-2.17.81l-8.84,15.3a1.89,1.89,0,0,0,.39,2.28l6.19,5.34a2.29,2.29,0,0,1,.6,2.38,71,71,0,0,0-2.78,9.31,4.41,4.41,0,0,1-1.54,2.33l-11,7.73a3.25,3.25,0,0,0-1.23,2.37v13.88a1,1,0,0,0,.43.89h0l13.91,8-5.07,10.23a1.61,1.61,0,0,0,.63,2.09l18.92,11a1.61,1.61,0,0,0,2.13-.49l8.6-8.8a1,1,0,0,0,.46.83l17.62,10.17.47-13.8s-3.72-4.81-3.65-5.64l19.21-20.92a1.88,1.88,0,0,0,2.17-.8l8.84-15.3a1.89,1.89,0,0,0-.39-2.28l8.51-27.1a3.2,3.2,0,0,0,1.22-2.36Zm-46.57,58.39c-5.16,3-9.42,3.61-12.52,2.17-3.64-1.69,25.87-52.27,29-49.51,2.51,2.23,3.87,6.37,3.87,12.16-.04,12.96-9.14,28.7-20.35,35.18Z" fill="#263238"/>
      <path id="Path_8569" data-name="Path 8569" d="M356,91l-2.39,4.83-7.68,8.86-9.05-5.23L324.2,92.13a2.11,2.11,0,0,0,.64-.62l8.89-13.36a1.62,1.62,0,0,1,2.11-.51l7.76,4.48,11.77,6.79A1.62,1.62,0,0,1,356,91Z" fill="#455a64"/>
      <path id="Path_8570" data-name="Path 8570" d="M272.49,146.68a3.48,3.48,0,0,1-.81.85l-11,7.73a3,3,0,0,0-.76.88l18.47,10.68L293,158.53Z" fill="#455a64"/>
      <path id="Path_8571" data-name="Path 8571" d="M279.1,109.7a1.88,1.88,0,0,0-1.44.89l-8.84,15.3a1.85,1.85,0,0,0-.2,1.18L288,138.27l12.1-16.37Z" fill="#455a64"/>
      <path id="Path_8572" data-name="Path 8572" d="M331.13,89.8v4.4l-10.7,6.18-21.2-12.25a3.2,3.2,0,0,1,1.24-1.5l12-6.94a1.24,1.24,0,0,1,.6-.18.75.75,0,0,1,.37.09l5.79,3.33.15.09,8,4.62Z" fill="#455a64"/>
      <path id="Path_8573" data-name="Path 8573" d="M371.15,127.43V113.55a.89.89,0,0,0-1.36-.88l-10.7,4.82a1.27,1.27,0,0,1-1.78-.83,24.5,24.5,0,0,0-2.39-5.3,3,3,0,0,1-.16-2.59l7.13-14.38a1.63,1.63,0,0,0-.63-2.1l-7.74-4.47a1.62,1.62,0,0,0-2.13.5l-8.89,13.37a2.93,2.93,0,0,1-2.33,1.15,24.51,24.51,0,0,0-5.78.59,1.27,1.27,0,0,1-1.61-1.13l-1.17-11.68a.9.9,0,0,0-1.45-.74l-12,6.94a3.23,3.23,0,0,0-1.43,2.24l-1.21,13.38a4.43,4.43,0,0,1-1.25,2.5,72.568,72.568,0,0,0-6.68,7.07,2.32,2.32,0,0,1-2.36.67L297.5,120a1.89,1.89,0,0,0-2.17.8l-8.84,15.31a1.89,1.89,0,0,0,.39,2.28l6.19,5.34a2.29,2.29,0,0,1,.6,2.38,71,71,0,0,0-2.78,9.31,4.41,4.41,0,0,1-1.54,2.33l-11,7.73a3.25,3.25,0,0,0-1.23,2.37v13.88a.9.9,0,0,0,1.37.88l10.7-4.82a1.27,1.27,0,0,1,1.78.82,23.9,23.9,0,0,0,2.39,5.31,3,3,0,0,1,.16,2.59l-7.13,14.38A1.61,1.61,0,0,0,287,203l7.74,4.47a1.61,1.61,0,0,0,2.13-.5l8.89-13.36a3,3,0,0,1,2.32-1.16,23.58,23.58,0,0,0,5.79-.59,1.28,1.28,0,0,1,1.61,1.13l1.17,11.68a.9.9,0,0,0,1.45.75l12-6.94a3.23,3.23,0,0,0,1.43-2.25l1.21-13.37a4.43,4.43,0,0,1,1.25-2.5,72.412,72.412,0,0,0,6.67-7.07,2.31,2.31,0,0,1,2.37-.67l7.71,2.7a1.9,1.9,0,0,0,2.17-.81l8.84-15.31a1.88,1.88,0,0,0-.39-2.27l-6.19-5.34a2.29,2.29,0,0,1-.6-2.38,73.845,73.845,0,0,0,2.78-9.32,4.49,4.49,0,0,1,1.54-2.33l11-7.73a3.2,3.2,0,0,0,1.26-2.4Zm-47,43.65c-11.22,6.47-20.31,1.22-20.31-11.73s9.09-28.7,20.31-35.17,20.31-1.23,20.31,11.72S335.36,164.6,324.15,171.08Z" fill="#37474f"/>
      <path id="Path_8574" data-name="Path 8574" d="M334.35,132.88,329,129.8h-.05c-2.37-1.34-5.63-1.14-9.23.94-7.24,4.18-13.12,14.36-13.12,22.73,0,4.17,1.47,7.11,3.83,8.48h0l4.86,2.78,1.16-1.94a13.509,13.509,0,0,0,3.76-1.47c7.25-4.18,13.12-14.36,13.13-22.73a13.76,13.76,0,0,0-.42-3.35Z" fill="#90caf9"/>
      <path id="Path_8575" data-name="Path 8575" d="M306.6,153.45c0,4.18,1.47,7.11,3.83,8.48h0l4.86,2.78,1.16-1.94a13.63,13.63,0,0,0,3.76-1.47A27.28,27.28,0,0,0,330,150.63l-19-11a27.29,27.29,0,0,0-4.4,13.82Z" opacity="0.1"/>
      <path id="Path_8576" data-name="Path 8576" d="M334.35,132.88,329,129.8h-.06c-2.37-1.34-5.63-1.14-9.23.94a26.1,26.1,0,0,0-8.75,8.93l19,11a26.23,26.23,0,0,0,3.36-12,13.763,13.763,0,0,0-.42-3.35Z" fill="#fff" opacity="0.4"/>
      <path id="Path_8577" data-name="Path 8577" d="M324.8,133.63c-7.25,4.18-13.12,14.36-13.12,22.73s5.87,11.76,13.12,7.57,13.12-14.36,13.12-22.73S332.05,129.44,324.8,133.63Z" fill="#90caf9"/>
      <path id="Path_8578" data-name="Path 8578" d="M327.81,139.64a.18.18,0,0,1,.25,0,.41.41,0,0,1,.1.32v2.12a1.29,1.29,0,0,1-.09.45,4,4,0,0,1-.17.4l-1.57,3.34a1.82,1.82,0,0,1,1.65.4,2.82,2.82,0,0,1,.64,2.14,7.69,7.69,0,0,1-1,4,7.6,7.6,0,0,1-2.83,2.77,4.3,4.3,0,0,1-1.65.62,2.07,2.07,0,0,1-1.22-.2,1.81,1.81,0,0,1-.76-.83,3.06,3.06,0,0,1-.28-1.29.8.8,0,0,1,.09-.36.45.45,0,0,1,.2-.24l1.64-.95c.18-.1.32-.12.41-.05l.32.23a.89.89,0,0,0,.45.14,1.46,1.46,0,0,0,.8-.27,3.24,3.24,0,0,0,1-.91,2,2,0,0,0,.41-1.26c0-.47-.13-.73-.41-.78a1.51,1.51,0,0,0-1,.27l-1.08.63a.18.18,0,0,1-.24,0,.43.43,0,0,1-.11-.32v-1.72a1.2,1.2,0,0,1,.09-.45c.06-.16.13-.3.19-.43l1.37-2.93-3.39,1.95a.18.18,0,0,1-.24,0,.44.44,0,0,1-.11-.32V144a1,1,0,0,1,.11-.44.66.66,0,0,1,.24-.31Z" fill="#37474f"/>
      <path id="Path_8579" data-name="Path 8579" d="M332.3,63.84l-.48-.28c-9.2-5.46-22-4.76-36.14,3.4-28,16.17-50.77,55.55-50.77,87.94s-22.74,71.79-50.78,88a49.59,49.59,0,0,1-18.75,6.69,27.68,27.68,0,0,0,10.8,13.32l.5.3c9.2,5.42,22,4.69,36.07-3.45,28-16.19,50.77-55.58,50.77-88S296.25,100,324.3,83.82a49.46,49.46,0,0,1,18.76-6.69A27.64,27.64,0,0,1,359.65,80Z" fill="#90caf9"/>
      <path id="Path_8580" data-name="Path 8580" d="M243.09,189.25l24.7-5.54h-.05l-10.56-6.11-9.8-5.67a1.37,1.37,0,0,0-.69-.2l-8.67-.49a1.41,1.41,0,0,1-1.46-1.41,46.69,46.69,0,0,0,0-8.36,4.16,4.16,0,0,1,1-2.56l13.87-1.13c.59-.72,11.94-11.67,11.94-11.67h-.06L242.93,134.3a.83.83,0,0,0-.39-.08c-5.87-3.39-16.16-9.35-16.4-9.5a1.64,1.64,0,0,0-1-.19l-10.11,1a2.82,2.82,0,0,0-2.21,1.54l-5.48,14.7a4.83,4.83,0,0,1-2.21,2.14c-1.07.5-2.14,1.07-3.22,1.69l-10.61-6.14c-.42-.28-1.09-.1-1.64.48l-11.1,11.72a2.93,2.93,0,0,0-.86,2.44l3.09,10.46a3.51,3.51,0,0,1-.57,2.52,84.594,84.594,0,0,0-5.1,8.87,4,4,0,0,1-2.41,1.79l-9.5,2.29a3.12,3.12,0,0,0-2.15,1.79l-4.78,16.09a1,1,0,0,0,.36,1.17c.21.17,10.76,6.24,10.76,6.24a33.971,33.971,0,0,0,.18,4.31,4.12,4.12,0,0,1-.94,2.56l-9.69,11.72a2.64,2.64,0,0,0-.58,2.41l4.6,10.17a.73.73,0,0,0,.29.33l20.41,11.81h0a.23.23,0,0,0,.06-.09l.3.18h0l16.41,9.49h0c.28-.76,8.61-35.27,9-34.72l5.18,7.91a.93.93,0,0,0,.16.18l9.87,5.73,10.65,6.17h0l-7.7-24C232.4,221.75,247.91,192.5,243.09,189.25Zm-59.8,16.06,37.53-39.61a19.74,19.74,0,0,1,1.55,8.24,22.747,22.747,0,0,1,2.55-1.3q.12,1.31.12,2.76c0,13-9.09,28.7-20.31,35.18-.82.47-1.63.89-2.4,1.25a21.739,21.739,0,0,1-.16-2.94C194.16,213.57,186.55,212.5,183.29,205.31Z" fill="#263238"/>
      <path id="Path_8581" data-name="Path 8581" d="M181.65,248.59l-1-9.46-24.36-14.06a1.87,1.87,0,0,0,0,1.2l4.6,10.17a.73.73,0,0,0,.29.33h.05Z" fill="#455a64"/>
      <path id="Path_8582" data-name="Path 8582" d="M184.73,194.58l-23.37-13.44a1.82,1.82,0,0,0-.34.62l-4.78,16.1a1,1,0,0,0,.36,1.17l.17.11,10.53,6.09h.06l9.79,5.67Z" fill="#455a64"/>
      <path id="Path_8583" data-name="Path 8583" d="M177.73,153l20.44,11.73,13.48-13.52L191.26,139.4h0c-.42-.27-1.08-.09-1.63.49l-11.11,11.72A3.56,3.56,0,0,0,177.73,153Z" fill="#455a64"/>
      <path id="Path_8584" data-name="Path 8584" d="M226.1,124.67a1.57,1.57,0,0,0-1-.19l-10.11,1a2.91,2.91,0,0,0-1.69.8l26.58,15.35,6.79-3.93-.19-1.23S226.43,124.88,226.1,124.67Z" fill="#455a64"/>
      <path id="Path_8585" data-name="Path 8585" d="M267.79,183.71h-.05a1.5,1.5,0,0,0-.63-.16l-8.67-.49a1.41,1.41,0,0,1-1.46-1.41c.12-1.37.19-2.73.2-4.05a40.591,40.591,0,0,0-.19-4.31,4.2,4.2,0,0,1,.95-2.56L267.62,159a2.65,2.65,0,0,0,.59-2.41l-4.6-10.17a.68.68,0,0,0-.28-.32h-.06a1.41,1.41,0,0,0-1.48.46L251.45,156a1.83,1.83,0,0,1-2.26.38,16.07,16.07,0,0,0-4.42-2.57,1.65,1.65,0,0,1-1-1.81l3.19-14.47a.9.9,0,0,0-.44-1,1.69,1.69,0,0,0-1-.17l-10.11,1a2.78,2.78,0,0,0-2.21,1.54l-5.48,14.7a4.72,4.72,0,0,1-2.21,2.13,45.63,45.63,0,0,0-6.26,3.63c-.85.57-1.8.61-2.17,0l-5.17-7.9c-.37-.56-1.2-.44-1.87.25l-11.1,11.73a2.92,2.92,0,0,0-.86,2.43l3.09,10.47a3.57,3.57,0,0,1-.56,2.52,84.557,84.557,0,0,0-5.11,8.86,4,4,0,0,1-2.41,1.8l-9.5,2.29a3.15,3.15,0,0,0-2.15,1.78l-4.78,16.1a1.14,1.14,0,0,0,1.18,1.45l8.68.49A1.41,1.41,0,0,1,188,213a45.808,45.808,0,0,0,0,8.36,4.08,4.08,0,0,1-1,2.64l-9.68,11.73a2.64,2.64,0,0,0-.59,2.41l4.6,10.16a.63.63,0,0,0,.28.32h0a.74.74,0,0,0,.36.09h0a1.79,1.79,0,0,0,1.13-.53l10.33-9.45a1.84,1.84,0,0,1,2.26-.38,16.369,16.369,0,0,0,4.42,2.57,1.64,1.64,0,0,1,1,1.81L198,257.18a.89.89,0,0,0,.42,1h0a1.57,1.57,0,0,0,1,.17l10.11-1a2.82,2.82,0,0,0,2.21-1.54l5.49-14.7a4.78,4.78,0,0,1,2.21-2.14c1.06-.5,2.14-1.07,3.21-1.69s2-1.24,3.05-1.93c.84-.58,1.8-.62,2.16-.06l5.18,7.91a.68.68,0,0,0,.25.23c.42.26,1.07.08,1.61-.49L246,231.22a2.94,2.94,0,0,0,.85-2.43l-3.09-10.46a3.56,3.56,0,0,1,.57-2.52,82.858,82.858,0,0,0,5.1-8.87,4,4,0,0,1,2.42-1.79l9.49-2.29a3.1,3.1,0,0,0,2.15-1.79L268.3,185a1.07,1.07,0,0,0-.51-1.29ZM217.1,223l-.56.14-.4.09q-.45.09-.9.15c-.36.06-.7.08-1.05.11h-.95a10.15,10.15,0,0,1-9.52-6.41,17.44,17.44,0,0,1-1.39-5.3,21.739,21.739,0,0,1-.16-2.94c.06-9.17,4.77-20.53,12.54-28.74a34.841,34.841,0,0,1,7.66-6.21,22.745,22.745,0,0,1,2.55-1.3,16.13,16.13,0,0,1,7.17-1.52h.81a2.6,2.6,0,0,1,.39.05,10.14,10.14,0,0,1,8,6.28c4.29,9.49-.63,26-11,37C225.91,219.08,221.3,222,217.1,223Z" fill="#37474f"/>
      <line id="Line_1" data-name="Line 1" x2="20.44" y2="11.83" transform="translate(242.88 134.25)" fill="#263238"/>
      <path id="Path_8586" data-name="Path 8586" d="M232.8,182.2l-5.34-3.08h0c-2.37-1.34-5.63-1.14-9.23.94-7.24,4.18-13.12,14.36-13.12,22.73,0,4.18,1.46,7.11,3.83,8.49h0l4.86,2.77,1.16-1.94a13.261,13.261,0,0,0,3.77-1.47c7.25-4.18,13.12-14.36,13.12-22.73a13.84,13.84,0,0,0-.41-3.35Z" fill="#90caf9"/>
      <path id="Path_8587" data-name="Path 8587" d="M205.05,202.77c0,4.18,1.46,7.11,3.83,8.49h0l4.87,2.77,1.16-1.94a13.63,13.63,0,0,0,3.76-1.47A27.25,27.25,0,0,0,228.45,200l-19-11a27.37,27.37,0,0,0-4.4,13.77Z" opacity="0.1"/>
      <path id="Path_8588" data-name="Path 8588" d="M232.8,182.2l-5.34-3.08h0c-2.37-1.34-5.62-1.14-9.22.94a26.21,26.21,0,0,0-8.76,8.93l19,11a26.3,26.3,0,0,0,3.36-12.06,13.82,13.82,0,0,0-.42-3.35Z" fill="#fff" opacity="0.4"/>
      <path id="Path_8589" data-name="Path 8589" d="M223.25,183c-7.25,4.18-13.13,14.36-13.13,22.73s5.88,11.76,13.13,7.58,13.12-14.36,13.12-22.73S230.5,178.76,223.25,183Z" fill="#90caf9"/>
      <path id="Path_8590" data-name="Path 8590" d="M226.79,192.89a7.669,7.669,0,0,1-.08,1.17,7.839,7.839,0,0,1-.26,1.2,12.507,12.507,0,0,1-.49,1.3c-.21.45-.46.92-.75,1.43l-1.82,3.17,3.26-1.89a.21.21,0,0,1,.25,0,.44.44,0,0,1,.1.32v2.12a1,1,0,0,1-.1.44.67.67,0,0,1-.25.31l-6.86,4a.21.21,0,0,1-.25,0,.44.44,0,0,1-.1-.32v-1.72a3.4,3.4,0,0,1,.08-.69,2.449,2.449,0,0,1,.3-.71l3.88-6.52a4.539,4.539,0,0,0,.57-1.28,3.85,3.85,0,0,0,.12-.9,3,3,0,0,0,0-.37.92.92,0,0,0-.15-.41.5.5,0,0,0-.33-.24.8.8,0,0,0-.58.15,1.89,1.89,0,0,0-.59.53,3.079,3.079,0,0,0-.35.63,2.529,2.529,0,0,0-.18.6l-.09.42a1,1,0,0,1-.52.76l-1.6.92a.15.15,0,0,1-.2,0,.35.35,0,0,1-.08-.27,8.541,8.541,0,0,1,.23-1.8,9.37,9.37,0,0,1,.67-1.9,8.46,8.46,0,0,1,1.12-1.74,5.63,5.63,0,0,1,1.58-1.33,3.09,3.09,0,0,1,1.51-.49,1.67,1.67,0,0,1,1.1.41,2.52,2.52,0,0,1,.67,1.11,5.521,5.521,0,0,1,.19,1.59Z" fill="#37474f"/>
      <path id="Path_8591" data-name="Path 8591" d="M175.38,249.57A49.79,49.79,0,0,1,172,230.39c0-16-5.53-27.28-14.51-32.67l-.91-.53A27.49,27.49,0,0,0,140,194.36a49.93,49.93,0,0,1,3.4,19.17c0,16.11,5.61,27.45,14.71,32.8l28.11,16.56A27.68,27.68,0,0,1,175.38,249.57Z" fill="#90caf9"/>
      <path id="Path_8592" data-name="Path 8592" d="M175.38,249.57A49.79,49.79,0,0,1,172,230.39c0-16-5.53-27.28-14.51-32.67l-.91-.53A27.49,27.49,0,0,0,140,194.36a49.93,49.93,0,0,1,3.4,19.17c0,16.11,5.61,27.45,14.71,32.8l28.11,16.56A27.68,27.68,0,0,1,175.38,249.57Z" opacity="0.3"/>
      <path id="Path_8593" data-name="Path 8593" d="M167.81,229.79h0a1.36,1.36,0,0,0-.95.09l-10.7,4.82a1.27,1.27,0,0,1-1.78-.82c-.42-1.35-7.75-2.9-8.35-4.06l4.11-10.22Z" fill="#455a64"/>
      <path id="Path_8594" data-name="Path 8594" d="M150.15,219.64h0a1,1,0,0,0-.93,0l-7.9-18.28a1.62,1.62,0,0,0-.63-2.09l-7.69-4.5a1.62,1.62,0,0,0-2.13.5l-8.89,13.37a3,3,0,0,1-2.33,1.15,21.878,21.878,0,0,0-3.1.15v-9.78l-5.94-3.42h0a1,1,0,0,0-1,.09l-12,6.94A3.25,3.25,0,0,0,96.13,206l-1.2,13.38a4.43,4.43,0,0,1-1.25,2.49A73.733,73.733,0,0,0,87,229a2.3,2.3,0,0,1-2.36.67l-7.71-2.69a1.87,1.87,0,0,0-2.17.8L65.92,243a1.89,1.89,0,0,0,.39,2.28l6.19,5.33a2.29,2.29,0,0,1,.6,2.38,71.139,71.139,0,0,0-2.78,9.32,4.45,4.45,0,0,1-1.54,2.33l-11,7.73a3.23,3.23,0,0,0-1.23,2.36v13.88a1,1,0,0,0,.43.89h0l13.91,8-5.07,10.24a1.61,1.61,0,0,0,.63,2.09l18.92,11a1.62,1.62,0,0,0,2.13-.5l8.6-8.79a1,1,0,0,0,.46.82l17.62,10.17.47-13.8S111,304,111,303.14l19.21-20.92a1.9,1.9,0,0,0,2.17-.8l8.84-15.31a1.89,1.89,0,0,0-.39-2.28l8.51-27.09a3.27,3.27,0,0,0,1.22-2.36ZM103.58,278c-5.16,3-9.42,3.62-12.52,2.18-3.64-1.7,25.87-52.28,29-49.52,2.51,2.24,3.87,6.38,3.87,12.17C123.89,255.8,114.79,271.55,103.58,278Z" fill="#263238"/>
      <path id="Path_8595" data-name="Path 8595" d="M131.64,249.37l-5.34-3.08h0c-2.37-1.34-5.62-1.14-9.22.94-7.25,4.18-13.13,14.36-13.13,22.73,0,4.18,1.47,7.11,3.84,8.49h0l4.86,2.77,1.16-1.94a13.349,13.349,0,0,0,3.76-1.46c7.25-4.19,13.13-14.37,13.13-22.74a14.36,14.36,0,0,0-.41-3.35Z" fill="#90caf9"/>
      <path id="Path_8596" data-name="Path 8596" d="M103.9,269.94c0,4.18,1.46,7.11,3.82,8.49h0l4.86,2.77,1.16-1.94a13.391,13.391,0,0,0,3.76-1.47,27.25,27.25,0,0,0,9.77-10.67l-19-11a27.27,27.27,0,0,0-4.37,13.82Z" opacity="0.1"/>
      <path id="Path_8597" data-name="Path 8597" d="M131.64,249.37l-5.34-3.08h-.05c-2.37-1.34-5.62-1.14-9.22.94a26.12,26.12,0,0,0-8.76,8.93l19,11a26.3,26.3,0,0,0,3.36-12.06,14.36,14.36,0,0,0-.41-3.35Z" fill="#fff" opacity="0.4"/>
      <path id="Path_8598" data-name="Path 8598" d="M122.09,250.12c-7.25,4.19-13.12,14.36-13.12,22.73s5.87,11.76,13.12,7.58,13.13-14.36,13.13-22.73S129.34,245.94,122.09,250.12Z" fill="#90caf9"/>
      <path id="Path_8599" data-name="Path 8599" d="M118.26,264.8a.48.48,0,0,1-.07-.37,1.41,1.41,0,0,1,.14-.44l2.8-4.91c.06-.12.15-.26.25-.43a1,1,0,0,1,.34-.35l1.59-.92a.18.18,0,0,1,.24,0,.41.41,0,0,1,.11.32v12.92a1.06,1.06,0,0,1-.11.44.58.58,0,0,1-.24.3l-1.7,1a.18.18,0,0,1-.25,0,.4.4,0,0,1-.1-.31v-8.74L119.71,266a.54.54,0,0,1-.26.26.18.18,0,0,1-.23-.08Z" fill="#37474f"/>
      <path id="Path_8600" data-name="Path 8600" d="M153.09,208.12,150.7,213l-7.7,8.81-9-5.23-12.68-7.33a2.11,2.11,0,0,0,.64-.62l8.89-13.36a1.62,1.62,0,0,1,2.11-.51l7.76,4.48L152.46,206A1.62,1.62,0,0,1,153.09,208.12Z" fill="#455a64"/>
      <path id="Path_8601" data-name="Path 8601" d="M69.59,263.82a3.53,3.53,0,0,1-.81.86l-11,7.73a2.75,2.75,0,0,0-.76.88L75.51,284l14.58-8.29Z" fill="#455a64"/>
      <path id="Path_8602" data-name="Path 8602" d="M76.2,226.85a1.87,1.87,0,0,0-1.44.88L65.92,243a1.84,1.84,0,0,0-.2,1.18l19.35,11.19,12.1-16.36Z" fill="#455a64"/>
      <path id="Path_8603" data-name="Path 8603" d="M128.23,206.94v4.4l-10.7,6.18-21.2-12.25a3.2,3.2,0,0,1,1.24-1.5l12-6.94a1.24,1.24,0,0,1,.6-.18.75.75,0,0,1,.37.09l5.79,3.33.15.09,8,4.62Z" fill="#455a64"/>
      <path id="Path_8604" data-name="Path 8604" d="M168.25,244.57V230.69a.89.89,0,0,0-1.36-.88l-10.7,4.82a1.27,1.27,0,0,1-1.78-.82A24.37,24.37,0,0,0,152,228.5a3,3,0,0,1-.16-2.59L159,211.53a1.62,1.62,0,0,0-.63-2.09L150.62,205a1.61,1.61,0,0,0-2.13.5l-8.89,13.36a3,3,0,0,1-2.33,1.16,23.509,23.509,0,0,0-5.78.59,1.28,1.28,0,0,1-1.61-1.13l-1.17-11.68a.89.89,0,0,0-1.45-.74l-12,6.94a3.19,3.19,0,0,0-1.43,2.24l-1.21,13.37a4.43,4.43,0,0,1-1.25,2.5,73.733,73.733,0,0,0-6.68,7.07,2.3,2.3,0,0,1-2.36.67l-7.71-2.69a1.87,1.87,0,0,0-2.17.8l-8.84,15.31a1.88,1.88,0,0,0,.39,2.27l6.19,5.34a2.29,2.29,0,0,1,.6,2.38A70.691,70.691,0,0,0,88,272.55a4.45,4.45,0,0,1-1.54,2.33l-11,7.73A3.21,3.21,0,0,0,74.24,285v13.88a.9.9,0,0,0,1.37.89l10.7-4.83a1.27,1.27,0,0,1,1.78.83,24,24,0,0,0,2.39,5.3,3,3,0,0,1,.16,2.6L83.51,318a1.61,1.61,0,0,0,.63,2.09l7.74,4.47a1.62,1.62,0,0,0,2.13-.5l8.89-13.37a3,3,0,0,1,2.32-1.15A24.6,24.6,0,0,0,111,309a1.28,1.28,0,0,1,1.61,1.13l1.17,11.68a.9.9,0,0,0,1.45.74l12-6.94a3.21,3.21,0,0,0,1.43-2.24L129.9,300a4.46,4.46,0,0,1,1.25-2.5,71.161,71.161,0,0,0,6.67-7.06,2.29,2.29,0,0,1,2.37-.67l7.71,2.69a1.9,1.9,0,0,0,2.17-.8l8.84-15.31a1.89,1.89,0,0,0-.39-2.28l-6.19-5.33a2.3,2.3,0,0,1-.6-2.38,74.854,74.854,0,0,0,2.78-9.32,4.41,4.41,0,0,1,1.54-2.33l11-7.73a3.24,3.24,0,0,0,1.2-2.41Zm-47,43.65c-11.22,6.48-20.31,1.23-20.31-11.72s9.09-28.7,20.31-35.18,20.31-1.22,20.31,11.73S132.46,281.75,121.25,288.22Z" fill="#37474f"/>
      <path id="Path_8605" data-name="Path 8605" d="M156.55,197.19A27.49,27.49,0,0,0,140,194.36a49.5,49.5,0,0,0-18.77,6.69c-26.64,15.38-48.48,51.7-50.6,83.06L42,267.26c2.11-31.36,24-67.69,50.61-83.07,13.85-8,26.4-8.84,35.56-3.74l1.08.64Z" fill="#90caf9"/>
    </g>
    <g id="freepik--Boxes--inject-9-6" data-name="freepik--Boxes--inject-9" transform="translate(-314.639 -1.032)">
      <g id="freepik--boxes--inject-9-7" data-name="freepik--boxes--inject-9" transform="translate(111.45 -32)">
        <path id="Path_9777-4" data-name="Path 9777" d="M306.6,224.13l44.28-25.61,50.29,29.1-44.29,25.62Z" fill="#90caf9"/>
        <g id="Group_466-4" data-name="Group 466" opacity="0.7">
          <path id="Path_9778-4" data-name="Path 9778" d="M306.6,224.13l44.28-25.61,50.29,29.1-44.29,25.62Z" fill="#fff"/>
        </g>
        <path id="Path_9779-3" data-name="Path 9779" d="M395.99,224.62l-42.98,24.87-45.1-26.11,42.97-24.86Z" opacity="0.1"/>
        <path id="Path_9780-4" data-name="Path 9780" d="M356.88,286.49l-50.28-29.1V224.13l50.28,29.11Z" fill="#90caf9"/>
        <g id="Group_467-4" data-name="Group 467" opacity="0.6">
          <path id="Path_9781-4" data-name="Path 9781" d="M356.88,286.49l-50.28-29.1V224.13l50.28,29.11Z" fill="#fff"/>
        </g>
        <path id="Path_9782-4" data-name="Path 9782" d="M350.72,275.28a3.19,3.19,0,0,1-1.36-2.57v-3.94l2.77,1.62h.18v.26h0v3.52a1.33,1.33,0,0,1-.54,1.2,1,1,0,0,1-.44.11,1.25,1.25,0,0,1-.61-.2ZM351,271l-.2,1.38h-1v.29a2.79,2.79,0,0,0,1.2,2.23.59.59,0,0,0,.59.06c.21-.11.32-.41.32-.81v-3.26Zm-.39-.38.81-.15-1.64-1V272h.64Z" fill="#455a64"/>
        <path id="Path_9783-4" data-name="Path 9783" d="M350.84,278.27a.22.22,0,0,0,.22-.22v-3a.225.225,0,0,0-.45,0v3a.22.22,0,0,0,.23.22Z" fill="#455a64"/>
        <path id="Path_9784-4" data-name="Path 9784" d="M352.12,279a.21.21,0,0,0,.19-.11.22.22,0,0,0-.08-.3l-2.57-1.48a.21.21,0,0,0-.3.08.22.22,0,0,0,.08.3L352,279a.23.23,0,0,0,.12,0Z" fill="#455a64"/>
        <path id="Path_9785-4" data-name="Path 9785" d="M343,273.92a.45.45,0,0,0,.25-.07.59.59,0,0,0,.26-.53v-.61a.22.22,0,0,0-.44,0v.61a.24.24,0,0,1,0,.15h-.15a1.3,1.3,0,0,1-.41-1v-3.94a.22.22,0,1,0-.44,0v3.94a1.67,1.67,0,0,0,.63,1.38.65.65,0,0,0,.3.07Z" fill="#455a64"/>
        <path id="Path_9786-4" data-name="Path 9786" d="M339.4,267.07v-.13a1.87,1.87,0,0,1,3.05-1.76,6.27,6.27,0,0,1,2.84,4.91v.38Zm1.13-1.7a1.67,1.67,0,0,0-.69,1.45l5,2.87a5.82,5.82,0,0,0-2.59-4.12,2.23,2.23,0,0,0-1.1-.35A1.19,1.19,0,0,0,340.53,265.37Z" fill="#455a64"/>
        <path id="Path_9787-4" data-name="Path 9787" d="M335,269.38a.22.22,0,0,0,.22-.22v-7.54a.22.22,0,0,0-.44,0v7.54A.22.22,0,0,0,335,269.38Z" fill="#455a64"/>
        <path id="Path_9788-4" data-name="Path 9788" d="M335.64,263.34h.09a.22.22,0,0,0,.12-.29l-.79-1.82-.88,1a.22.22,0,1,0,.33.29l.42-.48.51,1.17a.22.22,0,0,0,.2.13Z" fill="#455a64"/>
        <path id="Path_9789-4" data-name="Path 9789" d="M333,268.21a.22.22,0,0,0,.22-.22v-7.54a.22.22,0,0,0-.44,0V268A.22.22,0,0,0,333,268.21Z" fill="#455a64"/>
        <path id="Path_9790-4" data-name="Path 9790" d="M333.6,262.17h.08a.22.22,0,0,0,.12-.29L333,260l-.88,1a.223.223,0,0,0,.34.29l.41-.48.51,1.18A.23.23,0,0,0,333.6,262.17Z" fill="#455a64"/>
        <path id="Path_9791-4" data-name="Path 9791" d="M356.88,286.5l44.29-25.62V227.62l-44.29,25.62Z" fill="#90caf9"/>
        <g id="Group_468-4" data-name="Group 468" opacity="0.4">
          <path id="Path_9792-4" data-name="Path 9792" d="M356.88,286.5l44.29-25.62V227.62l-44.29,25.62Z" fill="#fff"/>
        </g>
        <path id="Path_9793-4" data-name="Path 9793" d="M381.19,244.21l-3.25,1.88v-5.06l3.25-1.88Z" fill="#37474f"/>
        <path id="Path_9794-4" data-name="Path 9794" d="M377.94,241.03l-50.29-29.1,3.26-1.88,50.28,29.1Z" fill="#455a64"/>
        <path id="Path_9795-3" data-name="Path 9795" d="M376.03,236.17l-3.25,1.88L370.93,237l3.27-1.89Z" fill="#37474f"/>
        <path id="Path_9796-4" data-name="Path 9796" d="M394.83,248.55l-11.51,6.65a1.13,1.13,0,0,0-.52.9v8c0,.66.47.93,1,.6l11.51-6.65a1.18,1.18,0,0,0,.52-.9v-8C395.87,248.49,395.4,248.22,394.83,248.55Z" fill="#fafafa"/>
        <path id="Path_9797-4" data-name="Path 9797" d="M395.12,249.79l-.39.23v7.06l.39-.22Z" fill="#455a64"/>
        <path id="Path_9798-4" data-name="Path 9798" d="M393.52,250.71l-.67.4v7.06l.67-.39Z" fill="#455a64"/>
        <path id="Path_9799-4" data-name="Path 9799" d="M391.93,251.63l-.39.23v7.06l.39-.22Z" fill="#455a64"/>
        <path id="Path_9800-4" data-name="Path 9800" d="M390.73,252.32l-.79.46v7.06l.79-.46Z" fill="#455a64"/>
        <path id="Path_9801-4" data-name="Path 9801" d="M388.74,253.47l-.39.23v7.06l.39-.22Z" fill="#455a64"/>
        <path id="Path_9802-4" data-name="Path 9802" d="M387.59,254.12l-.84.5v7.06l.84-.49Z" fill="#455a64"/>
        <path id="Path_9803-4" data-name="Path 9803" d="M385.55,255.31l-.39.23v7.06l.39-.22Z" fill="#455a64"/>
        <path id="Path_9804-4" data-name="Path 9804" d="M384.64,255.83l-.2.11v7.07l.2-.12Z" fill="#455a64"/>
        <path id="Path_9805-4" data-name="Path 9805" d="M386.28,254.93l-.2.11v7.07l.2-.12Z" fill="#455a64"/>
        <path id="Path_9806-4" data-name="Path 9806" d="M389.49,253.05l-.2.11v7.07l.2-.12Z" fill="#455a64"/>
        <path id="Path_9807-4" data-name="Path 9807" d="M391.25,252.04l-.2.11v7.06l.2-.11Z" fill="#455a64"/>
        <path id="Path_9808-4" data-name="Path 9808" d="M392.51,251.34l-.2.12v7.06l.2-.12Z" fill="#455a64"/>
        <path id="Path_9809-4" data-name="Path 9809" d="M394.22,250.3l-.19.11v7.07l.19-.12Z" fill="#455a64"/>
        <path id="Path_9810-4" data-name="Path 9810" d="M383.96,256.23l-.4.23v7.06l.4-.22Z" fill="#455a64"/>
        <path id="Path_9811-3" data-name="Path 9811" d="M302.27,185.27l44.28-25.61,50.28,29.1-44.28,25.61Z" fill="#90caf9"/>
        <g id="Group_469-3" data-name="Group 469" opacity="0.8">
          <path id="Path_9812-3" data-name="Path 9812" d="M302.27,185.27l44.28-25.61,50.28,29.1-44.28,25.61Z" fill="#fff"/>
        </g>
        <path id="Path_9813-3" data-name="Path 9813" d="M352.55,247.63l-50.28-29.1V185.27l50.28,29.1Z" fill="#90caf9"/>
        <g id="Group_470-3" data-name="Group 470" opacity="0.7">
          <path id="Path_9814-3" data-name="Path 9814" d="M352.55,247.63l-50.28-29.1V185.27l50.28,29.1Z" fill="#fff"/>
        </g>
        <path id="Path_9815-3" data-name="Path 9815" d="M346.39,236.42a3.19,3.19,0,0,1-1.36-2.58v-3.93l2.76,1.62h.18v.26h0v3.52a1.3,1.3,0,0,1-.54,1.19.82.82,0,0,1-.43.12,1.22,1.22,0,0,1-.61-.2Zm.31-4.25-.21,1.39h-1v.28a2.77,2.77,0,0,0,1.14,2.19.59.59,0,0,0,.6.07.91.91,0,0,0,.32-.81V232Zm-.4-.38.82-.14-1.65-1v2.43h.64Z" fill="#455a64"/>
        <path id="Path_9816-3" data-name="Path 9816" d="M346.5,239.41a.22.22,0,0,0,.22-.22v-3a.22.22,0,0,0-.44,0v3A.22.22,0,0,0,346.5,239.41Z" fill="#455a64"/>
        <path id="Path_9817-3" data-name="Path 9817" d="M347.79,240.15A.23.23,0,0,0,348,240a.22.22,0,0,0-.08-.3l-2.58-1.49a.22.22,0,0,0-.22.38l2.58,1.49a.2.2,0,0,0,.09.07Z" fill="#455a64"/>
        <path id="Path_9818-3" data-name="Path 9818" d="M338.62,235.05a.5.5,0,0,0,.24-.06.59.59,0,0,0,.27-.53v-.61a.225.225,0,0,0-.45,0v.76a.26.26,0,0,1-.14,0,1.3,1.3,0,0,1-.42-1v-3.94a.22.22,0,0,0-.44,0v3.94a1.69,1.69,0,0,0,.63,1.38.69.69,0,0,0,.31.06Z" fill="#455a64"/>
        <path id="Path_9819-3" data-name="Path 9819" d="M335.06,228.21v-.13a2.1,2.1,0,0,1,.91-2,2.13,2.13,0,0,1,2.15.19,6.27,6.27,0,0,1,2.83,4.91v.38Zm1.13-1.7a1.61,1.61,0,0,0-.68,1.44l5,2.88a5.9,5.9,0,0,0-2.59-4.13,2.24,2.24,0,0,0-1.11-.34,1.21,1.21,0,0,0-.62.15Z" fill="#455a64"/>
        <path id="Path_9820-3" data-name="Path 9820" d="M330.66,230.52a.22.22,0,0,0,.22-.23v-7.54a.22.22,0,1,0-.44,0v7.54a.22.22,0,0,0,.22.23Z" fill="#455a64"/>
        <path id="Path_9821-3" data-name="Path 9821" d="M331.31,224.47h.09a.23.23,0,0,0,.11-.3l-.79-1.82-.88,1a.21.21,0,0,0,0,.31.22.22,0,0,0,.31,0l.42-.48.51,1.17A.21.21,0,0,0,331.31,224.47Z" fill="#455a64"/>
        <path id="Path_9822-3" data-name="Path 9822" d="M328.61,229.35a.22.22,0,0,0,.22-.22v-7.54a.22.22,0,0,0-.44,0v7.54A.22.22,0,0,0,328.61,229.35Z" fill="#455a64"/>
        <path id="Path_9823-3" data-name="Path 9823" d="M329.26,223.31h.09a.22.22,0,0,0,.11-.29l-.78-1.83-.88,1a.22.22,0,0,0,.33.29l.42-.48.51,1.17A.23.23,0,0,0,329.26,223.31Z" fill="#455a64"/>
        <path id="Path_9824-3" data-name="Path 9824" d="M352.55,247.63l44.28-25.61V188.76l-44.28,25.61Z" fill="#90caf9"/>
        <g id="Group_471-3" data-name="Group 471" opacity="0.6">
          <path id="Path_9825-3" data-name="Path 9825" d="M352.55,247.63l44.28-25.61V188.76l-44.28,25.61Z" fill="#fff"/>
        </g>
        <path id="Path_9826-3" data-name="Path 9826" d="M376.86,205.34l-3.26,1.88v-5.05l3.26-1.88Z" fill="#37474f"/>
        <path id="Path_9827-3" data-name="Path 9827" d="M373.6,202.17l-50.28-29.1,3.25-1.88,50.29,29.1Z" fill="#455a64"/>
        <path id="Path_9828-3" data-name="Path 9828" d="M390.49,209.68,379,216.33a1.18,1.18,0,0,0-.52.9v8c0,.65.47.92,1,.59L391,219.19a1.15,1.15,0,0,0,.52-.9v-8C391.53,209.62,391.07,209.36,390.49,209.68Z" fill="#fafafa"/>
        <path id="Path_9829-3" data-name="Path 9829" d="M390.78,210.93l-.39.23v7.06l.39-.23Z" fill="#455a64"/>
        <path id="Path_9830-3" data-name="Path 9830" d="M389.19,211.85l-.68.4v7.06l.68-.4Z" fill="#455a64"/>
        <path id="Path_9831-3" data-name="Path 9831" d="M387.59,212.77l-.39.23v7.06l.39-.23Z" fill="#455a64"/>
        <path id="Path_9832-3" data-name="Path 9832" d="M386.39,213.45l-.78.47v7.06l.78-.47Z" fill="#455a64"/>
        <path id="Path_9833-3" data-name="Path 9833" d="M384.4,214.61l-.39.23v7.06l.39-.23Z" fill="#455a64"/>
        <path id="Path_9834-3" data-name="Path 9834" d="M383.26,215.26l-.84.5v7.06l.84-.5Z" fill="#455a64"/>
        <path id="Path_9835-3" data-name="Path 9835" d="M381.21,216.45l-.39.23v7.06l.39-.23Z" fill="#455a64"/>
        <path id="Path_9836-3" data-name="Path 9836" d="M380.31,216.97l-.2.11v7.06l.2-.11Z" fill="#455a64"/>
        <path id="Path_9837-3" data-name="Path 9837" d="M381.94,216.06l-.19.12v7.06l.19-.11Z" fill="#455a64"/>
        <path id="Path_9838-3" data-name="Path 9838" d="M385.15,214.19l-.19.11v7.06l.19-.11Z" fill="#455a64"/>
        <path id="Path_9839-3" data-name="Path 9839" d="M386.91,213.18l-.19.11v7.06l.19-.11Z" fill="#455a64"/>
        <path id="Path_9840-3" data-name="Path 9840" d="M388.18,212.48l-.2.11v7.06l.2-.11Z" fill="#455a64"/>
        <path id="Path_9841-3" data-name="Path 9841" d="M389.89,211.44l-.2.11v7.06l.2-.11Z" fill="#455a64"/>
        <path id="Path_9842-3" data-name="Path 9842" d="M379.62,217.37l-.39.23v7.06l.39-.23Z" fill="#455a64"/>
      </g>
      <g id="freepik--boxes--inject-9-8" data-name="freepik--boxes--inject-9" transform="translate(328.27 131.66)">
        <path id="Path_9777-5" data-name="Path 9777" d="M401.17,224.13l-44.28-25.61-50.29,29.1,44.29,25.62Z" transform="translate(-306.6 -159.66)" fill="#90caf9"/>
        <g id="Group_466-5" data-name="Group 466" transform="translate(0 38.86)" opacity="0.7">
          <path id="Path_9778-5" data-name="Path 9778" d="M401.17,224.13l-44.28-25.61-50.29,29.1,44.29,25.62Z" transform="translate(-306.6 -198.52)" fill="#fff"/>
        </g>
        <path id="Path_9779-4" data-name="Path 9779" d="M307.91,224.62l42.98,24.87,45.1-26.11-42.97-24.86Z" transform="translate(-302.73 -159.66)" opacity="0.1"/>
        <path id="Path_9780-5" data-name="Path 9780" d="M306.6,286.49l50.28-29.1V224.13L306.6,253.24Z" transform="translate(-262.31 -159.66)" fill="#90caf9"/>
        <g id="Group_467-5" data-name="Group 467" transform="translate(44.29 64.47)" opacity="0.6">
          <path id="Path_9781-5" data-name="Path 9781" d="M306.6,286.49l50.28-29.1V224.13L306.6,253.24Z" transform="translate(-306.6 -224.13)" fill="#fff"/>
        </g>
        <path id="Path_9782-5" data-name="Path 9782" d="M350.956,275.28a3.19,3.19,0,0,0,1.36-2.57v-3.94l-2.77,1.62h-.18v.26h0v3.52a1.33,1.33,0,0,0,.54,1.2,1,1,0,0,0,.44.11,1.25,1.25,0,0,0,.61-.2Zm-.28-4.28.2,1.38h1v.29a2.79,2.79,0,0,1-1.2,2.23.59.59,0,0,1-.59.06c-.21-.11-.32-.41-.32-.81v-3.26Zm.39-.38-.81-.15,1.64-1V272h-.64Z" transform="translate(-300.506 -159.66)" fill="#455a64"/>
        <path id="Path_9783-5" data-name="Path 9783" d="M350.83,278.27a.22.22,0,0,1-.22-.22v-3a.225.225,0,0,1,.45,0v3a.22.22,0,0,1-.23.22Z" transform="translate(-300.5 -159.66)" fill="#455a64"/>
        <path id="Path_9784-5" data-name="Path 9784" d="M349.55,279a.21.21,0,0,1-.19-.11.22.22,0,0,1,.08-.3l2.57-1.48a.21.21,0,0,1,.3.08.22.22,0,0,1-.08.3L349.67,279a.23.23,0,0,1-.12,0Z" transform="translate(-300.5 -159.66)" fill="#455a64"/>
        <path id="Path_9785-5" data-name="Path 9785" d="M342.58,273.92a.45.45,0,0,1-.25-.07.59.59,0,0,1-.26-.53v-.61a.22.22,0,0,1,.44,0v.61a.24.24,0,0,0,0,.15h.15a1.3,1.3,0,0,0,.41-1v-3.94a.22.22,0,1,1,.44,0v3.94a1.67,1.67,0,0,1-.63,1.38.65.65,0,0,1-.3.07Z" transform="translate(-284.41 -159.66)" fill="#455a64"/>
        <path id="Path_9786-5" data-name="Path 9786" d="M345.26,267.07v-.13a1.87,1.87,0,0,0-3.05-1.76,6.27,6.27,0,0,0-2.84,4.91v.38Zm-1.13-1.7a1.67,1.67,0,0,1,.69,1.45l-5,2.87a5.82,5.82,0,0,1,2.59-4.12,2.23,2.23,0,0,1,1.1-.35A1.19,1.19,0,0,1,344.13,265.37Z" transform="translate(-283.49 -159.66)" fill="#455a64"/>
        <path id="Path_9787-5" data-name="Path 9787" d="M335,269.38a.22.22,0,0,1-.22-.22v-7.54a.22.22,0,0,1,.44,0v7.54A.22.22,0,0,1,335,269.38Z" transform="translate(-268.83 -159.66)" fill="#455a64"/>
        <path id="Path_9788-5" data-name="Path 9788" d="M334.344,263.34h-.09a.22.22,0,0,1-.12-.29l.79-1.82.88,1a.22.22,0,1,1-.33.29l-.42-.48-.51,1.17a.22.22,0,0,1-.2.13Z" transform="translate(-268.814 -159.66)" fill="#455a64"/>
        <path id="Path_9789-5" data-name="Path 9789" d="M333,268.21a.22.22,0,0,1-.22-.22v-7.54a.22.22,0,0,1,.44,0V268A.22.22,0,0,1,333,268.21Z" transform="translate(-264.83 -159.66)" fill="#455a64"/>
        <path id="Path_9790-5" data-name="Path 9790" d="M332.284,262.17h-.08a.22.22,0,0,1-.12-.29l.8-1.88.88,1a.223.223,0,0,1-.34.29l-.41-.48-.51,1.18A.23.23,0,0,1,332.284,262.17Z" transform="translate(-264.714 -159.66)" fill="#455a64"/>
        <path id="Path_9791-5" data-name="Path 9791" d="M401.17,286.5l-44.29-25.62V227.62l44.29,25.62Z" transform="translate(-356.88 -159.66)" fill="#90caf9"/>
        <g id="Group_468-5" data-name="Group 468" transform="translate(0 67.96)" opacity="0.4">
          <path id="Path_9792-5" data-name="Path 9792" d="M401.17,286.5l-44.29-25.62V227.62l44.29,25.62Z" transform="translate(-356.88 -227.62)" fill="#fff"/>
        </g>
        <path id="Path_9793-5" data-name="Path 9793" d="M377.94,244.21l3.25,1.88v-5.06l-3.25-1.88Z" transform="translate(-357.96 -159.66)" fill="#37474f"/>
        <path id="Path_9794-5" data-name="Path 9794" d="M330.9,241.03l50.29-29.1-3.26-1.88-50.28,29.1Z" transform="translate(-307.67 -159.66)" fill="#455a64"/>
        <path id="Path_9795-4" data-name="Path 9795" d="M370.93,236.17l3.25,1.88,1.85-1.05-3.27-1.89Z" transform="translate(-345.79 -159.66)" fill="#37474f"/>
        <path id="Path_9796-5" data-name="Path 9796" d="M383.8,248.55l11.51,6.65a1.13,1.13,0,0,1,.52.9v8c0,.66-.47.93-1,.6l-11.51-6.65a1.18,1.18,0,0,1-.52-.9v-8C382.762,248.49,383.232,248.22,383.8,248.55Z" transform="translate(-377.462 -159.66)" fill="#fafafa"/>
        <path id="Path_9797-5" data-name="Path 9797" d="M394.73,249.79l.39.23v7.06l-.39-.22Z" transform="translate(-388.68 -159.66)" fill="#455a64"/>
        <path id="Path_9798-5" data-name="Path 9798" d="M392.85,250.71l.67.4v7.06l-.67-.39Z" transform="translate(-385.2 -159.66)" fill="#455a64"/>
        <path id="Path_9799-5" data-name="Path 9799" d="M391.54,251.63l.39.23v7.06l-.39-.22Z" transform="translate(-382.3 -159.66)" fill="#455a64"/>
        <path id="Path_9800-5" data-name="Path 9800" d="M389.94,252.32l.79.46v7.06l-.79-.46Z" transform="translate(-379.5 -159.66)" fill="#455a64"/>
        <path id="Path_9801-5" data-name="Path 9801" d="M388.35,253.47l.39.23v7.06l-.39-.22Z" transform="translate(-375.92 -159.66)" fill="#455a64"/>
        <path id="Path_9802-5" data-name="Path 9802" d="M386.75,254.12l.84.5v7.06l-.84-.49Z" transform="translate(-373.17 -159.66)" fill="#455a64"/>
        <path id="Path_9803-5" data-name="Path 9803" d="M385.16,255.31l.39.23v7.06l-.39-.22Z" transform="translate(-369.54 -159.66)" fill="#455a64"/>
        <path id="Path_9804-5" data-name="Path 9804" d="M384.44,255.83l.2.11v7.07l-.2-.12Z" transform="translate(-367.91 -159.66)" fill="#455a64"/>
        <path id="Path_9805-5" data-name="Path 9805" d="M386.08,254.93l.2.11v7.07l-.2-.12Z" transform="translate(-371.19 -159.66)" fill="#455a64"/>
        <path id="Path_9806-5" data-name="Path 9806" d="M389.29,253.05l.2.11v7.07l-.2-.12Z" transform="translate(-377.61 -159.66)" fill="#455a64"/>
        <path id="Path_9807-5" data-name="Path 9807" d="M391.05,252.04l.2.11v7.06l-.2-.11Z" transform="translate(-381.13 -159.66)" fill="#455a64"/>
        <path id="Path_9808-5" data-name="Path 9808" d="M392.31,251.34l.2.12v7.06l-.2-.12Z" transform="translate(-383.65 -159.66)" fill="#455a64"/>
        <path id="Path_9809-5" data-name="Path 9809" d="M394.03,250.3l.19.11v7.07l-.19-.12Z" transform="translate(-387.08 -159.66)" fill="#455a64"/>
        <path id="Path_9810-5" data-name="Path 9810" d="M383.56,256.23l.4.23v7.06l-.4-.22Z" transform="translate(-366.35 -159.66)" fill="#455a64"/>
        <path id="Path_9811-4" data-name="Path 9811" d="M396.83,185.27l-44.28-25.61-50.28,29.1,44.28,25.61Z" transform="translate(-297.93 -159.66)" fill="#90caf9"/>
        <g id="Group_469-4" data-name="Group 469" transform="translate(4.34 0)" opacity="0.8">
          <path id="Path_9812-4" data-name="Path 9812" d="M396.83,185.27l-44.28-25.61-50.28,29.1,44.28,25.61Z" transform="translate(-302.27 -159.66)" fill="#fff"/>
        </g>
        <path id="Path_9813-4" data-name="Path 9813" d="M302.27,247.63l50.28-29.1V185.27l-50.28,29.1Z" transform="translate(-253.65 -159.66)" fill="#90caf9"/>
        <g id="Group_470-4" data-name="Group 470" transform="translate(48.62 25.61)" opacity="0.7">
          <path id="Path_9814-4" data-name="Path 9814" d="M302.27,247.63l50.28-29.1V185.27l-50.28,29.1Z" transform="translate(-302.27 -185.27)" fill="#fff"/>
        </g>
        <path id="Path_9815-4" data-name="Path 9815" d="M346.617,236.42a3.19,3.19,0,0,0,1.36-2.58v-3.93l-2.76,1.62h-.18v.26h0v3.52a1.3,1.3,0,0,0,.54,1.19.82.82,0,0,0,.43.12,1.22,1.22,0,0,0,.61-.2Zm-.31-4.25.21,1.39h1v.28a2.77,2.77,0,0,1-1.14,2.19.59.59,0,0,1-.6.07.91.91,0,0,1-.32-.81V232Zm.4-.38-.82-.14,1.65-1v2.43h-.64Z" transform="translate(-291.837 -159.66)" fill="#455a64"/>
        <path id="Path_9816-4" data-name="Path 9816" d="M346.5,239.41a.22.22,0,0,1-.22-.22v-3a.22.22,0,0,1,.44,0v3A.22.22,0,0,1,346.5,239.41Z" transform="translate(-291.83 -159.66)" fill="#455a64"/>
        <path id="Path_9817-4" data-name="Path 9817" d="M345.25,240.15a.23.23,0,0,1-.21-.15.22.22,0,0,1,.08-.3l2.58-1.49a.22.22,0,0,1,.22.38l-2.58,1.49a.2.2,0,0,1-.09.07Z" transform="translate(-291.87 -159.66)" fill="#455a64"/>
        <path id="Path_9818-4" data-name="Path 9818" d="M338.19,235.05a.5.5,0,0,1-.24-.06.59.59,0,0,1-.27-.53v-.61a.225.225,0,0,1,.45,0v.76a.26.26,0,0,0,.14,0,1.3,1.3,0,0,0,.42-1v-3.94a.22.22,0,0,1,.44,0v3.94a1.69,1.69,0,0,1-.63,1.38.69.69,0,0,1-.31.06Z" transform="translate(-275.64 -159.66)" fill="#455a64"/>
        <path id="Path_9819-4" data-name="Path 9819" d="M340.934,228.21v-.13a2.1,2.1,0,0,0-.91-2,2.13,2.13,0,0,0-2.15.19,6.27,6.27,0,0,0-2.83,4.91v.38Zm-1.13-1.7a1.61,1.61,0,0,1,.68,1.44l-5,2.88a5.9,5.9,0,0,1,2.59-4.13,2.24,2.24,0,0,1,1.11-.34,1.21,1.21,0,0,1,.62.15Z" transform="translate(-274.824 -159.66)" fill="#455a64"/>
        <path id="Path_9820-4" data-name="Path 9820" d="M330.66,230.52a.22.22,0,0,1-.22-.23v-7.54a.22.22,0,0,1,.44,0v7.54a.22.22,0,0,1-.22.23Z" transform="translate(-260.15 -159.66)" fill="#455a64"/>
        <path id="Path_9821-4" data-name="Path 9821" d="M329.991,224.47h-.09a.23.23,0,0,1-.11-.3l.79-1.82.88,1a.21.21,0,0,1,0,.31.22.22,0,0,1-.31,0l-.42-.48-.51,1.17A.21.21,0,0,1,329.991,224.47Z" transform="translate(-260.131 -159.66)" fill="#455a64"/>
        <path id="Path_9822-4" data-name="Path 9822" d="M328.61,229.35a.22.22,0,0,1-.22-.22v-7.54a.22.22,0,0,1,.44,0v7.54A.22.22,0,0,1,328.61,229.35Z" transform="translate(-256.05 -159.66)" fill="#455a64"/>
        <path id="Path_9823-4" data-name="Path 9823" d="M327.972,223.31h-.09a.22.22,0,0,1-.11-.29l.78-1.83.88,1a.22.22,0,0,1-.33.29l-.42-.48-.51,1.17A.23.23,0,0,1,327.972,223.31Z" transform="translate(-256.062 -159.66)" fill="#455a64"/>
        <path id="Path_9824-4" data-name="Path 9824" d="M396.83,247.63l-44.28-25.61V188.76l44.28,25.61Z" transform="translate(-348.21 -159.66)" fill="#90caf9"/>
        <g id="Group_471-4" data-name="Group 471" transform="translate(4.34 29.1)" opacity="0.6">
          <path id="Path_9825-4" data-name="Path 9825" d="M396.83,247.63l-44.28-25.61V188.76l44.28,25.61Z" transform="translate(-352.55 -188.76)" fill="#fff"/>
        </g>
        <path id="Path_9826-4" data-name="Path 9826" d="M373.6,205.34l3.26,1.88v-5.05l-3.26-1.88Z" transform="translate(-349.29 -159.66)" fill="#37474f"/>
        <path id="Path_9827-4" data-name="Path 9827" d="M326.58,202.17l50.28-29.1-3.25-1.88-50.29,29.1Z" transform="translate(-299.01 -159.66)" fill="#455a64"/>
        <path id="Path_9828-4" data-name="Path 9828" d="M379.51,209.68,391,216.33a1.18,1.18,0,0,1,.52.9v8c0,.65-.47.92-1,.59L379,219.19a1.15,1.15,0,0,1-.52-.9v-8C378.47,209.62,378.93,209.36,379.51,209.68Z" transform="translate(-368.83 -159.66)" fill="#fafafa"/>
        <path id="Path_9829-4" data-name="Path 9829" d="M390.39,210.93l.39.23v7.06l-.39-.23Z" transform="translate(-380 -159.66)" fill="#455a64"/>
        <path id="Path_9830-4" data-name="Path 9830" d="M388.51,211.85l.68.4v7.06l-.68-.4Z" transform="translate(-376.53 -159.66)" fill="#455a64"/>
        <path id="Path_9831-4" data-name="Path 9831" d="M387.2,212.77l.39.23v7.06l-.39-.23Z" transform="translate(-373.62 -159.66)" fill="#455a64"/>
        <path id="Path_9832-4" data-name="Path 9832" d="M385.61,213.45l.78.47v7.06l-.78-.47Z" transform="translate(-370.83 -159.66)" fill="#455a64"/>
        <path id="Path_9833-4" data-name="Path 9833" d="M384.01,214.61l.39.23v7.06l-.39-.23Z" transform="translate(-367.24 -159.66)" fill="#455a64"/>
        <path id="Path_9834-4" data-name="Path 9834" d="M382.42,215.26l.84.5v7.06l-.84-.5Z" transform="translate(-364.51 -159.66)" fill="#455a64"/>
        <path id="Path_9835-4" data-name="Path 9835" d="M380.82,216.45l.39.23v7.06l-.39-.23Z" transform="translate(-360.86 -159.66)" fill="#455a64"/>
        <path id="Path_9836-4" data-name="Path 9836" d="M380.11,216.97l.2.11v7.06l-.2-.11Z" transform="translate(-359.25 -159.66)" fill="#455a64"/>
        <path id="Path_9837-4" data-name="Path 9837" d="M381.75,216.06l.19.12v7.06l-.19-.11Z" transform="translate(-362.52 -159.66)" fill="#455a64"/>
        <path id="Path_9838-4" data-name="Path 9838" d="M384.96,214.19l.19.11v7.06l-.19-.11Z" transform="translate(-368.94 -159.66)" fill="#455a64"/>
        <path id="Path_9839-4" data-name="Path 9839" d="M386.72,213.18l.19.11v7.06l-.19-.11Z" transform="translate(-372.46 -159.66)" fill="#455a64"/>
        <path id="Path_9840-4" data-name="Path 9840" d="M387.98,212.48l.2.11v7.06l-.2-.11Z" transform="translate(-374.99 -159.66)" fill="#455a64"/>
        <path id="Path_9841-4" data-name="Path 9841" d="M389.69,211.44l.2.11v7.06l-.2-.11Z" transform="translate(-378.41 -159.66)" fill="#455a64"/>
        <path id="Path_9842-4" data-name="Path 9842" d="M379.23,217.37l.39.23v7.06l-.39-.23Z" transform="translate(-357.68 -159.66)" fill="#455a64"/>
      </g>
    </g>
  </g>
</svg>
