<svg xmlns="http://www.w3.org/2000/svg" width="30" height="30"><g data-name="Rectangle 478" fill="#fff" stroke="#263238" stroke-width="2"><rect width="30" height="30" rx="3" stroke="none"/><rect x="1" y="1" width="28" height="28" rx="2" fill="none"/></g><g fill="#263238"><path data-name="Path 9728" d="M10.095 22.63a2.725 2.725 0 1 1-2.725-2.725 2.725 2.725 0 0 1 2.725 2.725Z"/><path data-name="Path 9729" d="M10.095 15a2.725 2.725 0 1 1-2.725-2.725A2.725 2.725 0 0 1 10.095 15Z"/><path data-name="Path 9730" d="M10.095 7.37A2.725 2.725 0 1 1 7.37 4.645a2.725 2.725 0 0 1 2.725 2.725Z"/><path data-name="Path 9731" d="M17.725 22.63A2.725 2.725 0 1 1 15 19.905a2.725 2.725 0 0 1 2.725 2.725Z"/><path data-name="Path 9732" d="M17.725 15A2.725 2.725 0 1 1 15 12.275 2.725 2.725 0 0 1 17.725 15Z"/><path data-name="Path 9733" d="M17.725 7.37A2.725 2.725 0 1 1 15 4.645a2.725 2.725 0 0 1 2.725 2.725Z"/><path data-name="Path 9734" d="M25.355 22.63a2.725 2.725 0 1 1-2.725-2.725 2.725 2.725 0 0 1 2.725 2.725Z"/><path data-name="Path 9735" d="M25.355 15a2.725 2.725 0 1 1-2.725-2.725A2.725 2.725 0 0 1 25.355 15Z"/><path data-name="Path 9736" d="M25.355 7.37a2.725 2.725 0 1 1-2.725-2.725 2.725 2.725 0 0 1 2.725 2.725Z"/></g></svg>